%TF.GenerationSoftware,KiCad,Pcbnew,6.0.6-3a73a75311~116~ubuntu20.04.1*%
%TF.CreationDate,2022-07-25T10:06:13-07:00*%
%TF.ProjectId,rover_controller,726f7665-725f-4636-9f6e-74726f6c6c65,rev?*%
%TF.SameCoordinates,Original*%
%TF.FileFunction,Copper,L1,Top*%
%TF.FilePolarity,Positive*%
%FSLAX46Y46*%
G04 Gerber Fmt 4.6, Leading zero omitted, Abs format (unit mm)*
G04 Created by KiCad (PCBNEW 6.0.6-3a73a75311~116~ubuntu20.04.1) date 2022-07-25 10:06:13*
%MOMM*%
%LPD*%
G01*
G04 APERTURE LIST*
G04 Aperture macros list*
%AMRoundRect*
0 Rectangle with rounded corners*
0 $1 Rounding radius*
0 $2 $3 $4 $5 $6 $7 $8 $9 X,Y pos of 4 corners*
0 Add a 4 corners polygon primitive as box body*
4,1,4,$2,$3,$4,$5,$6,$7,$8,$9,$2,$3,0*
0 Add four circle primitives for the rounded corners*
1,1,$1+$1,$2,$3*
1,1,$1+$1,$4,$5*
1,1,$1+$1,$6,$7*
1,1,$1+$1,$8,$9*
0 Add four rect primitives between the rounded corners*
20,1,$1+$1,$2,$3,$4,$5,0*
20,1,$1+$1,$4,$5,$6,$7,0*
20,1,$1+$1,$6,$7,$8,$9,0*
20,1,$1+$1,$8,$9,$2,$3,0*%
G04 Aperture macros list end*
%TA.AperFunction,SMDPad,CuDef*%
%ADD10RoundRect,0.250000X-0.337500X-0.475000X0.337500X-0.475000X0.337500X0.475000X-0.337500X0.475000X0*%
%TD*%
%TA.AperFunction,ComponentPad*%
%ADD11R,1.000000X1.000000*%
%TD*%
%TA.AperFunction,ComponentPad*%
%ADD12O,1.000000X1.000000*%
%TD*%
%TA.AperFunction,SMDPad,CuDef*%
%ADD13RoundRect,0.150000X-0.150000X0.512500X-0.150000X-0.512500X0.150000X-0.512500X0.150000X0.512500X0*%
%TD*%
%TA.AperFunction,SMDPad,CuDef*%
%ADD14RoundRect,0.150000X-0.587500X-0.150000X0.587500X-0.150000X0.587500X0.150000X-0.587500X0.150000X0*%
%TD*%
%TA.AperFunction,SMDPad,CuDef*%
%ADD15RoundRect,0.237500X0.237500X-0.300000X0.237500X0.300000X-0.237500X0.300000X-0.237500X-0.300000X0*%
%TD*%
%TA.AperFunction,SMDPad,CuDef*%
%ADD16RoundRect,0.250000X-0.625000X0.400000X-0.625000X-0.400000X0.625000X-0.400000X0.625000X0.400000X0*%
%TD*%
%TA.AperFunction,SMDPad,CuDef*%
%ADD17RoundRect,0.237500X0.250000X0.237500X-0.250000X0.237500X-0.250000X-0.237500X0.250000X-0.237500X0*%
%TD*%
%TA.AperFunction,SMDPad,CuDef*%
%ADD18R,0.889000X5.588000*%
%TD*%
%TA.AperFunction,SMDPad,CuDef*%
%ADD19R,1.651000X5.588000*%
%TD*%
%TA.AperFunction,SMDPad,CuDef*%
%ADD20RoundRect,0.150000X-0.150000X0.587500X-0.150000X-0.587500X0.150000X-0.587500X0.150000X0.587500X0*%
%TD*%
%TA.AperFunction,SMDPad,CuDef*%
%ADD21RoundRect,0.155000X0.212500X0.155000X-0.212500X0.155000X-0.212500X-0.155000X0.212500X-0.155000X0*%
%TD*%
%TA.AperFunction,SMDPad,CuDef*%
%ADD22RoundRect,0.250000X-0.650000X0.412500X-0.650000X-0.412500X0.650000X-0.412500X0.650000X0.412500X0*%
%TD*%
%TA.AperFunction,SMDPad,CuDef*%
%ADD23RoundRect,0.237500X-0.250000X-0.237500X0.250000X-0.237500X0.250000X0.237500X-0.250000X0.237500X0*%
%TD*%
%TA.AperFunction,ComponentPad*%
%ADD24C,0.900000*%
%TD*%
%TA.AperFunction,ComponentPad*%
%ADD25C,8.600000*%
%TD*%
%TA.AperFunction,SMDPad,CuDef*%
%ADD26RoundRect,0.150000X0.587500X0.150000X-0.587500X0.150000X-0.587500X-0.150000X0.587500X-0.150000X0*%
%TD*%
%TA.AperFunction,SMDPad,CuDef*%
%ADD27RoundRect,0.237500X-0.287500X-0.237500X0.287500X-0.237500X0.287500X0.237500X-0.287500X0.237500X0*%
%TD*%
%TA.AperFunction,SMDPad,CuDef*%
%ADD28RoundRect,0.250000X-0.350000X-0.450000X0.350000X-0.450000X0.350000X0.450000X-0.350000X0.450000X0*%
%TD*%
%TA.AperFunction,SMDPad,CuDef*%
%ADD29RoundRect,0.237500X-0.237500X0.250000X-0.237500X-0.250000X0.237500X-0.250000X0.237500X0.250000X0*%
%TD*%
%TA.AperFunction,SMDPad,CuDef*%
%ADD30R,0.450000X1.380000*%
%TD*%
%TA.AperFunction,SMDPad,CuDef*%
%ADD31R,1.425000X1.550000*%
%TD*%
%TA.AperFunction,SMDPad,CuDef*%
%ADD32R,1.800000X1.900000*%
%TD*%
%TA.AperFunction,SMDPad,CuDef*%
%ADD33R,1.650000X1.300000*%
%TD*%
%TA.AperFunction,SMDPad,CuDef*%
%ADD34R,1.000000X1.900000*%
%TD*%
%TA.AperFunction,SMDPad,CuDef*%
%ADD35R,0.600000X0.450000*%
%TD*%
%TA.AperFunction,SMDPad,CuDef*%
%ADD36RoundRect,0.250000X0.450000X-0.350000X0.450000X0.350000X-0.450000X0.350000X-0.450000X-0.350000X0*%
%TD*%
%TA.AperFunction,SMDPad,CuDef*%
%ADD37RoundRect,0.250000X0.337500X0.475000X-0.337500X0.475000X-0.337500X-0.475000X0.337500X-0.475000X0*%
%TD*%
%TA.AperFunction,SMDPad,CuDef*%
%ADD38R,0.900000X1.000000*%
%TD*%
%TA.AperFunction,SMDPad,CuDef*%
%ADD39R,1.700000X0.550000*%
%TD*%
%TA.AperFunction,SMDPad,CuDef*%
%ADD40RoundRect,0.155000X-0.155000X0.212500X-0.155000X-0.212500X0.155000X-0.212500X0.155000X0.212500X0*%
%TD*%
%TA.AperFunction,ComponentPad*%
%ADD41R,1.700000X1.700000*%
%TD*%
%TA.AperFunction,ComponentPad*%
%ADD42O,1.700000X1.700000*%
%TD*%
%TA.AperFunction,SMDPad,CuDef*%
%ADD43R,1.200000X3.000000*%
%TD*%
%TA.AperFunction,SMDPad,CuDef*%
%ADD44RoundRect,0.237500X-0.300000X-0.237500X0.300000X-0.237500X0.300000X0.237500X-0.300000X0.237500X0*%
%TD*%
%TA.AperFunction,SMDPad,CuDef*%
%ADD45R,2.000000X1.500000*%
%TD*%
%TA.AperFunction,SMDPad,CuDef*%
%ADD46R,2.000000X3.800000*%
%TD*%
%TA.AperFunction,SMDPad,CuDef*%
%ADD47RoundRect,0.250000X0.650000X-0.412500X0.650000X0.412500X-0.650000X0.412500X-0.650000X-0.412500X0*%
%TD*%
%TA.AperFunction,SMDPad,CuDef*%
%ADD48RoundRect,0.237500X0.300000X0.237500X-0.300000X0.237500X-0.300000X-0.237500X0.300000X-0.237500X0*%
%TD*%
%TA.AperFunction,SMDPad,CuDef*%
%ADD49R,0.900000X2.000000*%
%TD*%
%TA.AperFunction,SMDPad,CuDef*%
%ADD50R,2.000000X0.900000*%
%TD*%
%TA.AperFunction,SMDPad,CuDef*%
%ADD51R,5.000000X5.000000*%
%TD*%
%TA.AperFunction,SMDPad,CuDef*%
%ADD52RoundRect,0.250000X0.350000X0.450000X-0.350000X0.450000X-0.350000X-0.450000X0.350000X-0.450000X0*%
%TD*%
%TA.AperFunction,SMDPad,CuDef*%
%ADD53RoundRect,0.237500X-0.237500X0.300000X-0.237500X-0.300000X0.237500X-0.300000X0.237500X0.300000X0*%
%TD*%
%TA.AperFunction,SMDPad,CuDef*%
%ADD54RoundRect,0.062500X-0.350000X-0.062500X0.350000X-0.062500X0.350000X0.062500X-0.350000X0.062500X0*%
%TD*%
%TA.AperFunction,SMDPad,CuDef*%
%ADD55RoundRect,0.062500X-0.062500X-0.350000X0.062500X-0.350000X0.062500X0.350000X-0.062500X0.350000X0*%
%TD*%
%TA.AperFunction,SMDPad,CuDef*%
%ADD56R,2.600000X2.600000*%
%TD*%
%TA.AperFunction,ViaPad*%
%ADD57C,0.800000*%
%TD*%
%TA.AperFunction,Conductor*%
%ADD58C,1.000000*%
%TD*%
%TA.AperFunction,Conductor*%
%ADD59C,0.300000*%
%TD*%
%TA.AperFunction,Conductor*%
%ADD60C,0.500000*%
%TD*%
%TA.AperFunction,Conductor*%
%ADD61C,0.700000*%
%TD*%
%TA.AperFunction,Conductor*%
%ADD62C,1.500000*%
%TD*%
%TA.AperFunction,Conductor*%
%ADD63C,0.200000*%
%TD*%
G04 APERTURE END LIST*
D10*
X216532500Y-188510000D03*
X218607500Y-188510000D03*
D11*
X190295000Y-164005000D03*
D12*
X191565000Y-164005000D03*
X192835000Y-164005000D03*
X194105000Y-164005000D03*
X195375000Y-164005000D03*
X196645000Y-164005000D03*
X197915000Y-164005000D03*
X199185000Y-164005000D03*
X200455000Y-164005000D03*
D13*
X172450000Y-149362500D03*
X171500000Y-149362500D03*
X170550000Y-149362500D03*
X170550000Y-151637500D03*
X171500000Y-151637500D03*
X172450000Y-151637500D03*
D14*
X176732500Y-183370000D03*
X176732500Y-185270000D03*
X178607500Y-184320000D03*
D15*
X181590000Y-193172500D03*
X181590000Y-191447500D03*
D16*
X219320000Y-150220000D03*
X219320000Y-153320000D03*
D17*
X186922500Y-149360000D03*
X185097500Y-149360000D03*
X197607500Y-161460000D03*
X195782500Y-161460000D03*
D18*
X206680000Y-190130000D03*
D19*
X202555040Y-190130000D03*
X210804960Y-190130000D03*
D20*
X212520000Y-148200000D03*
X210620000Y-148200000D03*
X211570000Y-150075000D03*
D21*
X178487500Y-150590000D03*
X177352500Y-150590000D03*
D22*
X215110000Y-152605000D03*
X215110000Y-155730000D03*
D17*
X162787500Y-152725000D03*
X160962500Y-152725000D03*
D23*
X181927500Y-152500000D03*
X183752500Y-152500000D03*
D24*
X227780419Y-148780419D03*
X227780419Y-144219581D03*
X228725000Y-146500000D03*
X225500000Y-149725000D03*
X222275000Y-146500000D03*
X223219581Y-144219581D03*
X225500000Y-143275000D03*
X223219581Y-148780419D03*
D25*
X225500000Y-146500000D03*
D17*
X191712500Y-161430000D03*
X189887500Y-161430000D03*
D23*
X178175000Y-143110000D03*
X180000000Y-143110000D03*
D26*
X170977500Y-185280000D03*
X170977500Y-183380000D03*
X169102500Y-184330000D03*
D27*
X157325000Y-182900000D03*
X159075000Y-182900000D03*
D24*
X164525000Y-146500000D03*
X161300000Y-149725000D03*
X159019581Y-148780419D03*
X161300000Y-143275000D03*
X163580419Y-148780419D03*
X158075000Y-146500000D03*
D25*
X161300000Y-146500000D03*
D24*
X163580419Y-144219581D03*
X159019581Y-144219581D03*
D23*
X178175000Y-144910000D03*
X180000000Y-144910000D03*
D24*
X227780419Y-191380419D03*
X222275000Y-189100000D03*
X225500000Y-185875000D03*
D25*
X225500000Y-189100000D03*
D24*
X223219581Y-191380419D03*
X225500000Y-192325000D03*
X227780419Y-186819581D03*
X228725000Y-189100000D03*
X223219581Y-186819581D03*
D15*
X195400000Y-193192500D03*
X195400000Y-191467500D03*
D28*
X172850000Y-181600000D03*
X174850000Y-181600000D03*
D29*
X189570000Y-148367500D03*
X189570000Y-150192500D03*
D30*
X172500000Y-145760000D03*
X171850000Y-145760000D03*
X171200000Y-145760000D03*
X170550000Y-145760000D03*
X169900000Y-145760000D03*
D31*
X173687500Y-145675000D03*
D32*
X172350000Y-143100000D03*
D33*
X167825000Y-143100000D03*
D34*
X169650000Y-143100000D03*
D33*
X174575000Y-143100000D03*
D31*
X168712500Y-145675000D03*
D17*
X162812500Y-182925000D03*
X160987500Y-182925000D03*
D35*
X214330000Y-150220000D03*
X216430000Y-150220000D03*
D36*
X167090000Y-180470000D03*
X167090000Y-178470000D03*
D37*
X165207500Y-180120000D03*
X163132500Y-180120000D03*
D11*
X190295000Y-181785000D03*
D12*
X191565000Y-181785000D03*
X192835000Y-181785000D03*
X194105000Y-181785000D03*
X195375000Y-181785000D03*
X196645000Y-181785000D03*
X197915000Y-181785000D03*
D38*
X189490000Y-192960000D03*
X193590000Y-192960000D03*
X193590000Y-191360000D03*
X189490000Y-191360000D03*
D39*
X191540000Y-193585000D03*
D40*
X180250000Y-152310000D03*
X180250000Y-153445000D03*
D41*
X229410000Y-152315000D03*
D42*
X229410000Y-154855000D03*
D41*
X203715000Y-144190000D03*
D42*
X206255000Y-144190000D03*
X208795000Y-144190000D03*
X211335000Y-144190000D03*
X213875000Y-144190000D03*
D43*
X220680000Y-169130000D03*
X218680000Y-169130000D03*
X216680000Y-169130000D03*
X214680000Y-169130000D03*
X212680000Y-169130000D03*
X210680000Y-169130000D03*
X208680000Y-169130000D03*
X206680000Y-169130000D03*
X206680000Y-184130000D03*
X208680000Y-184130000D03*
X210680000Y-184130000D03*
X212680000Y-184130000D03*
X214680000Y-184130000D03*
X216680000Y-184130000D03*
X218680000Y-184130000D03*
X220680000Y-184130000D03*
D44*
X214677500Y-186700000D03*
X216402500Y-186700000D03*
D45*
X212060000Y-157167500D03*
X212060000Y-154867500D03*
D46*
X205760000Y-154867500D03*
D45*
X212060000Y-152567500D03*
D47*
X203135000Y-155330000D03*
X203135000Y-152205000D03*
D48*
X188180000Y-180940000D03*
X186455000Y-180940000D03*
D41*
X178225000Y-191870000D03*
D42*
X175685000Y-191870000D03*
X173145000Y-191870000D03*
X170605000Y-191870000D03*
X168065000Y-191870000D03*
D37*
X188145000Y-184450000D03*
X186070000Y-184450000D03*
D41*
X229410000Y-183200000D03*
X189910000Y-144180000D03*
D42*
X192450000Y-144180000D03*
X194990000Y-144180000D03*
X197530000Y-144180000D03*
X200070000Y-144180000D03*
D44*
X169667500Y-178370000D03*
X171392500Y-178370000D03*
D49*
X163695000Y-176300000D03*
X164965000Y-176300000D03*
X166235000Y-176300000D03*
X167505000Y-176300000D03*
X168775000Y-176300000D03*
X170045000Y-176300000D03*
X171315000Y-176300000D03*
X172585000Y-176300000D03*
X173855000Y-176300000D03*
X175125000Y-176300000D03*
X176395000Y-176300000D03*
X177665000Y-176300000D03*
X178935000Y-176300000D03*
X180205000Y-176300000D03*
D50*
X181205000Y-173515000D03*
X181205000Y-172245000D03*
X181205000Y-170975000D03*
X181205000Y-169705000D03*
X181205000Y-168435000D03*
X181205000Y-167165000D03*
X181205000Y-165895000D03*
X181205000Y-164625000D03*
X181205000Y-163355000D03*
X181205000Y-162085000D03*
D49*
X180205000Y-159300000D03*
X178935000Y-159300000D03*
X177665000Y-159300000D03*
X176395000Y-159300000D03*
X175125000Y-159300000D03*
X173855000Y-159300000D03*
X172585000Y-159300000D03*
X171315000Y-159300000D03*
X170045000Y-159300000D03*
X168775000Y-159300000D03*
X167505000Y-159300000D03*
X166235000Y-159300000D03*
X164965000Y-159300000D03*
X163695000Y-159300000D03*
D51*
X171195000Y-168800000D03*
D52*
X174850000Y-187050000D03*
X172850000Y-187050000D03*
D53*
X178920000Y-152587500D03*
X178920000Y-154312500D03*
D27*
X157300000Y-152700000D03*
X159050000Y-152700000D03*
D41*
X184290000Y-142580000D03*
D24*
X158075000Y-189100000D03*
X163580419Y-191380419D03*
X159019581Y-186819581D03*
X164525000Y-189100000D03*
X163580419Y-186819581D03*
X161300000Y-185875000D03*
X161300000Y-192325000D03*
X159019581Y-191380419D03*
D25*
X161300000Y-189100000D03*
D54*
X179762500Y-147860000D03*
X179762500Y-148360000D03*
X179762500Y-148860000D03*
X179762500Y-149360000D03*
X179762500Y-149860000D03*
X179762500Y-150360000D03*
D55*
X180450000Y-151047500D03*
X180950000Y-151047500D03*
X181450000Y-151047500D03*
X181950000Y-151047500D03*
X182450000Y-151047500D03*
X182950000Y-151047500D03*
D54*
X183637500Y-150360000D03*
X183637500Y-149860000D03*
X183637500Y-149360000D03*
X183637500Y-148860000D03*
X183637500Y-148360000D03*
X183637500Y-147860000D03*
D55*
X182950000Y-147172500D03*
X182450000Y-147172500D03*
X181950000Y-147172500D03*
X181450000Y-147172500D03*
X180950000Y-147172500D03*
X180450000Y-147172500D03*
D56*
X181700000Y-149110000D03*
D53*
X176340000Y-152587500D03*
X176340000Y-154312500D03*
D48*
X188162500Y-182590000D03*
X186437500Y-182590000D03*
D17*
X188340000Y-154400000D03*
X186515000Y-154400000D03*
D38*
X187400000Y-192972500D03*
X183300000Y-192972500D03*
X183300000Y-191372500D03*
X187400000Y-191372500D03*
D39*
X185350000Y-193597500D03*
D48*
X164802500Y-178350000D03*
X163077500Y-178350000D03*
D57*
X187787500Y-153390000D03*
X208155000Y-182030000D03*
X209380000Y-193255080D03*
X173925000Y-165700000D03*
X168100000Y-170400000D03*
X213760000Y-158767500D03*
X171480000Y-148080000D03*
X180630000Y-193170000D03*
X209230000Y-182005000D03*
X218550000Y-186810000D03*
X216660000Y-154467500D03*
X185470000Y-182600000D03*
X216360000Y-157067500D03*
X168100000Y-168700000D03*
X184120000Y-192600000D03*
X212480000Y-188680080D03*
X220680000Y-171280000D03*
X203150000Y-151140000D03*
X174300000Y-171700000D03*
X162600000Y-174550000D03*
X211880000Y-186655080D03*
X215160000Y-154467500D03*
X200880000Y-188755080D03*
X180375000Y-174425000D03*
X212480000Y-190955080D03*
X209780000Y-186655080D03*
X203580000Y-186655080D03*
X157350000Y-183975000D03*
X175260000Y-154230000D03*
X209180000Y-191055080D03*
X174300000Y-168600000D03*
X192740000Y-192590000D03*
X196350000Y-193180000D03*
X163750000Y-174525000D03*
X162650000Y-158075000D03*
X181975000Y-174475000D03*
X212760000Y-158767500D03*
X176490000Y-150440000D03*
X204180000Y-188680080D03*
X185080000Y-185090000D03*
X172800000Y-171950000D03*
X219470000Y-186810000D03*
X172200000Y-179120000D03*
X169650000Y-165700000D03*
X206670000Y-171230000D03*
X201920000Y-151180000D03*
X177810000Y-154610000D03*
X186910000Y-148290000D03*
X211660000Y-158767500D03*
X171100000Y-165650000D03*
X190340000Y-192590000D03*
X191560000Y-192900000D03*
X162600000Y-176200000D03*
X213760000Y-157067500D03*
X206030000Y-166955000D03*
X200880000Y-191055080D03*
X174300000Y-170300000D03*
X219930000Y-166930000D03*
X218220000Y-154210000D03*
X219300000Y-152250000D03*
X179600000Y-147135500D03*
X174300000Y-167000000D03*
X178610000Y-146890000D03*
X209180000Y-188755080D03*
X180260000Y-154430000D03*
X157300000Y-151625000D03*
X169457534Y-147048618D03*
X186960000Y-150440000D03*
X172550000Y-165650000D03*
X186520000Y-192600000D03*
X188927500Y-153390000D03*
X201080000Y-193255080D03*
X217630000Y-186790000D03*
X212280000Y-193255080D03*
X203190000Y-153260000D03*
X215060000Y-157067500D03*
X210460000Y-157367500D03*
X221355000Y-166930000D03*
X162410000Y-181220000D03*
X185340000Y-192910000D03*
X220430000Y-154180000D03*
X185510000Y-181290000D03*
X210560000Y-158767500D03*
X169650000Y-171950000D03*
X185060000Y-183880000D03*
X168100000Y-171800000D03*
X201930000Y-153270000D03*
X219320000Y-154400000D03*
X168100000Y-165800000D03*
X207205000Y-166955000D03*
X216660000Y-155767500D03*
X178750500Y-147910000D03*
X203980000Y-193255080D03*
X168100000Y-167025000D03*
X201480000Y-186655080D03*
X204180000Y-190955080D03*
X163675000Y-157625000D03*
X163680000Y-181250000D03*
X171200000Y-171950000D03*
X175380000Y-151820000D03*
X214270000Y-188590000D03*
X205060000Y-152367500D03*
X215520000Y-187610000D03*
X215540000Y-188590000D03*
X215600000Y-190970000D03*
X177840000Y-153230000D03*
X162850000Y-183830000D03*
X209060000Y-154067500D03*
X164670000Y-184890000D03*
X189560000Y-184730000D03*
X164650000Y-182470000D03*
X192150000Y-184720000D03*
X198745000Y-161435000D03*
X192160000Y-183560000D03*
X165740000Y-182480000D03*
X189570000Y-183570000D03*
X202260000Y-156667500D03*
X177840000Y-152320000D03*
X216870000Y-189710000D03*
X164678636Y-181208390D03*
X175270000Y-152980000D03*
X214270000Y-187580000D03*
X184680000Y-151740000D03*
X215570000Y-189710000D03*
X190840000Y-183570000D03*
X207660000Y-154067500D03*
X207660000Y-155267500D03*
X190830000Y-184730000D03*
X210460000Y-155267500D03*
X205060000Y-157367500D03*
X204060000Y-156667500D03*
X216900000Y-190970000D03*
X164670000Y-183660000D03*
X201560000Y-155367500D03*
X206260000Y-157367500D03*
X207660000Y-152767500D03*
X165700000Y-181240000D03*
X210460000Y-154067500D03*
X214320000Y-190950000D03*
X167090000Y-181650000D03*
X165750000Y-183660000D03*
X209060000Y-155267500D03*
X165750000Y-184890000D03*
X192850000Y-161430000D03*
X206360000Y-152367500D03*
X184730000Y-153120000D03*
X214290000Y-189690000D03*
X207660000Y-156467500D03*
X175950000Y-161450000D03*
X202730000Y-149330000D03*
X177990000Y-168150000D03*
X183630000Y-167300000D03*
X178950000Y-170400000D03*
X183780000Y-169440000D03*
X178940000Y-177940000D03*
X170600000Y-189600000D03*
X180970000Y-177920000D03*
X173140000Y-189640000D03*
X176150000Y-189620000D03*
X183980000Y-174970000D03*
X179650000Y-189280000D03*
X186360000Y-166910000D03*
X188680000Y-187220000D03*
X174500000Y-183370000D03*
X181260000Y-159100000D03*
X185180000Y-162170000D03*
X171580000Y-162880000D03*
X169310000Y-155160000D03*
X176710000Y-144910000D03*
X167500000Y-154450000D03*
X176700000Y-143110000D03*
X168750000Y-163600000D03*
X186770000Y-163600000D03*
X170020000Y-181090000D03*
X183830000Y-145730000D03*
X175590000Y-146790000D03*
X173600000Y-185120000D03*
X164975000Y-155675000D03*
X187560000Y-144840000D03*
D58*
X169667500Y-178370000D02*
X168680000Y-178370000D01*
D59*
X169102500Y-184330000D02*
X169102500Y-179682500D01*
D58*
X168680000Y-178370000D02*
X167790000Y-178370000D01*
X167790000Y-178370000D02*
X167470000Y-178370000D01*
D59*
X168140000Y-186560000D02*
X169960000Y-188380000D01*
D58*
X166235000Y-177615000D02*
X167090000Y-178470000D01*
D59*
X169102500Y-179682500D02*
X167790000Y-178370000D01*
X183300000Y-189050000D02*
X183300000Y-191372500D01*
X182630000Y-188380000D02*
X183300000Y-189050000D01*
D58*
X167190000Y-178370000D02*
X167090000Y-178470000D01*
D59*
X181590000Y-191447500D02*
X183225000Y-191447500D01*
X187400000Y-191372500D02*
X183300000Y-191372500D01*
D58*
X166235000Y-176300000D02*
X166235000Y-177615000D01*
D59*
X168140000Y-179520000D02*
X168140000Y-186560000D01*
D60*
X183222500Y-191450000D02*
X183300000Y-191372500D01*
D58*
X167470000Y-178370000D02*
X167190000Y-178370000D01*
D59*
X167090000Y-178470000D02*
X168140000Y-179520000D01*
D61*
X167200000Y-178360000D02*
X167090000Y-178470000D01*
D59*
X169960000Y-188380000D02*
X182630000Y-188380000D01*
X183225000Y-191447500D02*
X183300000Y-191372500D01*
D61*
X185350000Y-193597500D02*
X185350000Y-192920000D01*
D58*
X217630000Y-186790000D02*
X219450000Y-186790000D01*
D61*
X220430000Y-154180000D02*
X220430000Y-153380000D01*
D58*
X218607500Y-187767500D02*
X217630000Y-186790000D01*
D61*
X220680000Y-167605000D02*
X221355000Y-166930000D01*
X180250000Y-154420000D02*
X180260000Y-154430000D01*
X220680000Y-169130000D02*
X220680000Y-167605000D01*
D58*
X216402500Y-186700000D02*
X217540000Y-186700000D01*
D61*
X185720000Y-184450000D02*
X185080000Y-185090000D01*
X162600000Y-174550000D02*
X162600000Y-176200000D01*
X185080000Y-183900000D02*
X185060000Y-183880000D01*
X219320000Y-153320000D02*
X219110000Y-153320000D01*
X185480000Y-182590000D02*
X185470000Y-182600000D01*
X209205000Y-182030000D02*
X209230000Y-182005000D01*
X219110000Y-153320000D02*
X218220000Y-154210000D01*
D58*
X218040000Y-186700000D02*
X219510000Y-188170000D01*
X163077500Y-176917500D02*
X163077500Y-178350000D01*
D61*
X180375000Y-174425000D02*
X181925000Y-174425000D01*
D58*
X219450000Y-186790000D02*
X219470000Y-186810000D01*
D61*
X219320000Y-153320000D02*
X219320000Y-154400000D01*
X188340000Y-153977500D02*
X188927500Y-153390000D01*
X178920000Y-154312500D02*
X178107500Y-154312500D01*
X163132500Y-180120000D02*
X163132500Y-180497500D01*
X202945000Y-152205000D02*
X201920000Y-151180000D01*
X221355000Y-170605000D02*
X220680000Y-171280000D01*
X163695000Y-159120000D02*
X162650000Y-158075000D01*
X209230000Y-182005000D02*
X209230000Y-183580000D01*
X163750000Y-176245000D02*
X163695000Y-176300000D01*
X178610000Y-146890000D02*
X178610000Y-147769500D01*
X185860000Y-180940000D02*
X185510000Y-181290000D01*
X188340000Y-154400000D02*
X188340000Y-153977500D01*
X162700000Y-176300000D02*
X162600000Y-176200000D01*
X187400000Y-192972500D02*
X186892500Y-192972500D01*
X207205000Y-170695000D02*
X206670000Y-171230000D01*
X181925000Y-174425000D02*
X181975000Y-174475000D01*
X185630000Y-184450000D02*
X185060000Y-183880000D01*
X206030000Y-166955000D02*
X207205000Y-166955000D01*
X163695000Y-176300000D02*
X163695000Y-175645000D01*
X218220000Y-153330000D02*
X219300000Y-152250000D01*
X163695000Y-159300000D02*
X163695000Y-157645000D01*
X201920000Y-151180000D02*
X203110000Y-151180000D01*
X203110000Y-151180000D02*
X203150000Y-151140000D01*
X203190000Y-153260000D02*
X201940000Y-153260000D01*
X218220000Y-154210000D02*
X219130000Y-154210000D01*
X181205000Y-173515000D02*
X181205000Y-173595000D01*
X188340000Y-153942500D02*
X187787500Y-153390000D01*
X202350000Y-151940000D02*
X201930000Y-151940000D01*
X178610000Y-146890000D02*
X179354500Y-146890000D01*
X219320000Y-153320000D02*
X219570000Y-153320000D01*
X163695000Y-175645000D02*
X162600000Y-174550000D01*
X206680000Y-167605000D02*
X206030000Y-166955000D01*
X193590000Y-192960000D02*
X193110000Y-192960000D01*
X163695000Y-176300000D02*
X162700000Y-176300000D01*
X219930000Y-170530000D02*
X220680000Y-171280000D01*
D59*
X179474500Y-147010000D02*
X179600000Y-147135500D01*
D61*
X203135000Y-153205000D02*
X203190000Y-153260000D01*
X163132500Y-180702500D02*
X163680000Y-181250000D01*
X180250000Y-153445000D02*
X180250000Y-154420000D01*
X196337500Y-193192500D02*
X196350000Y-193180000D01*
D60*
X177352500Y-150590000D02*
X176640000Y-150590000D01*
D61*
X208680000Y-182555000D02*
X208155000Y-182030000D01*
X186455000Y-180940000D02*
X185860000Y-180940000D01*
D58*
X219510000Y-188270000D02*
X219270000Y-188510000D01*
D61*
X163750000Y-175000000D02*
X163750000Y-176245000D01*
D58*
X218607500Y-188510000D02*
X218607500Y-187767500D01*
D59*
X179200500Y-148360000D02*
X178750500Y-147910000D01*
D58*
X216402500Y-186700000D02*
X218040000Y-186700000D01*
D61*
X185080000Y-185090000D02*
X185080000Y-183900000D01*
D58*
X217540000Y-186700000D02*
X217630000Y-186790000D01*
D61*
X162600000Y-174550000D02*
X163725000Y-174550000D01*
X208155000Y-183605000D02*
X208680000Y-184130000D01*
X163132500Y-180120000D02*
X163132500Y-180702500D01*
X220680000Y-169130000D02*
X220680000Y-167680000D01*
X203135000Y-151155000D02*
X203150000Y-151140000D01*
X162440000Y-181250000D02*
X162410000Y-181220000D01*
X176340000Y-154312500D02*
X175342500Y-154312500D01*
X220430000Y-154180000D02*
X219540000Y-154180000D01*
X219130000Y-154210000D02*
X219320000Y-154400000D01*
X195400000Y-193192500D02*
X196337500Y-193192500D01*
X179600000Y-147135500D02*
X179208294Y-147135500D01*
X186922500Y-148302500D02*
X186910000Y-148290000D01*
X186922500Y-149360000D02*
X186922500Y-150402500D01*
D59*
X169900000Y-145760000D02*
X169900000Y-146606152D01*
D61*
X206680000Y-171220000D02*
X206670000Y-171230000D01*
D58*
X219510000Y-188170000D02*
X219510000Y-188270000D01*
D61*
X203150000Y-151140000D02*
X202350000Y-151940000D01*
D58*
X163695000Y-176300000D02*
X163077500Y-176917500D01*
D61*
X187787500Y-153390000D02*
X188927500Y-153390000D01*
X201930000Y-153270000D02*
X201930000Y-151940000D01*
X163225000Y-158075000D02*
X163675000Y-157625000D01*
X179208294Y-147135500D02*
X178750500Y-147593294D01*
X219540000Y-154180000D02*
X219320000Y-154400000D01*
X221355000Y-166930000D02*
X221355000Y-170605000D01*
X157300000Y-152700000D02*
X157300000Y-151625000D01*
X206680000Y-169130000D02*
X206680000Y-167605000D01*
D59*
X179762500Y-148360000D02*
X179200500Y-148360000D01*
D61*
X181205000Y-173515000D02*
X181205000Y-173705000D01*
X219320000Y-152270000D02*
X219300000Y-152250000D01*
X186437500Y-182590000D02*
X185480000Y-182590000D01*
X178610000Y-147769500D02*
X178750500Y-147910000D01*
X191540000Y-192920000D02*
X191560000Y-192900000D01*
D58*
X163077500Y-178350000D02*
X163077500Y-180065000D01*
D61*
X163695000Y-159300000D02*
X163695000Y-159120000D01*
X188340000Y-154400000D02*
X188340000Y-153942500D01*
X189490000Y-192960000D02*
X189970000Y-192960000D01*
D60*
X171500000Y-149362500D02*
X171500000Y-148100000D01*
D59*
X169900000Y-146606152D02*
X169457534Y-147048618D01*
D61*
X162600000Y-176200000D02*
X163750000Y-175050000D01*
X206680000Y-169130000D02*
X206680000Y-167480000D01*
X181590000Y-193172500D02*
X180632500Y-193172500D01*
X218550000Y-186810000D02*
X219470000Y-186810000D01*
D59*
X179762500Y-148360000D02*
X180950000Y-148360000D01*
D61*
X186922500Y-149360000D02*
X186922500Y-148302500D01*
X178750500Y-147593294D02*
X178750500Y-147910000D01*
X203135000Y-152205000D02*
X202945000Y-152205000D01*
X186070000Y-184450000D02*
X185630000Y-184450000D01*
X206030000Y-166955000D02*
X206030000Y-170590000D01*
D60*
X157325000Y-183950000D02*
X157350000Y-183975000D01*
D61*
X191540000Y-193585000D02*
X191540000Y-192920000D01*
X186892500Y-192972500D02*
X186520000Y-192600000D01*
D58*
X219510000Y-186850000D02*
X219510000Y-188170000D01*
D60*
X157325000Y-182900000D02*
X157325000Y-183950000D01*
D61*
X206680000Y-167480000D02*
X207205000Y-166955000D01*
X201930000Y-151940000D02*
X201930000Y-151190000D01*
X193110000Y-192960000D02*
X192740000Y-192590000D01*
X218220000Y-154210000D02*
X218220000Y-153330000D01*
X203135000Y-152205000D02*
X202995000Y-152205000D01*
X208680000Y-182555000D02*
X209230000Y-182005000D01*
X201940000Y-153260000D02*
X201930000Y-153270000D01*
X218530000Y-186790000D02*
X218550000Y-186810000D01*
X219320000Y-153320000D02*
X219320000Y-152270000D01*
X203135000Y-152205000D02*
X203135000Y-151155000D01*
X163725000Y-174550000D02*
X163750000Y-174525000D01*
X219930000Y-166930000D02*
X221355000Y-166930000D01*
X181205000Y-173595000D02*
X180375000Y-174425000D01*
X203135000Y-152205000D02*
X203135000Y-153205000D01*
X186070000Y-184450000D02*
X185720000Y-184450000D01*
X208680000Y-184130000D02*
X208680000Y-182555000D01*
X179354500Y-146890000D02*
X179600000Y-147135500D01*
X220430000Y-153380000D02*
X219300000Y-152250000D01*
D58*
X219270000Y-188510000D02*
X218607500Y-188510000D01*
D61*
X206680000Y-169130000D02*
X206680000Y-171220000D01*
X162650000Y-158075000D02*
X163225000Y-158075000D01*
X183300000Y-192972500D02*
X183747500Y-192972500D01*
X163750000Y-174525000D02*
X163750000Y-175000000D01*
X185350000Y-192920000D02*
X185340000Y-192910000D01*
D58*
X163077500Y-180065000D02*
X163132500Y-180120000D01*
D61*
X201930000Y-151190000D02*
X201920000Y-151180000D01*
X220680000Y-169130000D02*
X220680000Y-171280000D01*
X180632500Y-193172500D02*
X180630000Y-193170000D01*
D60*
X171500000Y-148100000D02*
X171480000Y-148080000D01*
D61*
X183747500Y-192972500D02*
X184120000Y-192600000D01*
X208155000Y-182030000D02*
X208155000Y-183605000D01*
X219930000Y-166930000D02*
X219930000Y-170530000D01*
X181205000Y-173705000D02*
X181975000Y-174475000D01*
X186922500Y-150402500D02*
X186960000Y-150440000D01*
X209230000Y-183580000D02*
X208680000Y-184130000D01*
D59*
X180950000Y-148360000D02*
X181700000Y-149110000D01*
D61*
X189970000Y-192960000D02*
X190340000Y-192590000D01*
D60*
X176640000Y-150590000D02*
X176490000Y-150440000D01*
D61*
X175342500Y-154312500D02*
X175260000Y-154230000D01*
X163132500Y-180497500D02*
X162410000Y-181220000D01*
X219570000Y-153320000D02*
X220430000Y-154180000D01*
X208155000Y-182030000D02*
X209205000Y-182030000D01*
X171392500Y-178370000D02*
X171450000Y-178370000D01*
X163750000Y-175050000D02*
X163750000Y-175000000D01*
X178107500Y-154312500D02*
X177810000Y-154610000D01*
X206030000Y-170590000D02*
X206670000Y-171230000D01*
X171450000Y-178370000D02*
X172200000Y-179120000D01*
X207205000Y-166955000D02*
X207205000Y-170695000D01*
X220680000Y-167680000D02*
X219930000Y-166930000D01*
X163695000Y-157645000D02*
X163675000Y-157625000D01*
D58*
X219470000Y-186810000D02*
X219510000Y-186850000D01*
D61*
X202995000Y-152205000D02*
X201930000Y-153270000D01*
X163680000Y-181250000D02*
X162440000Y-181250000D01*
X217630000Y-186790000D02*
X218530000Y-186790000D01*
X216830000Y-190970000D02*
X215570000Y-189710000D01*
X164670000Y-184890000D02*
X164670000Y-184740000D01*
X176340000Y-152587500D02*
X175662500Y-152587500D01*
D58*
X191205000Y-183205000D02*
X191205000Y-181785000D01*
D61*
X216420000Y-188510000D02*
X215520000Y-187610000D01*
X215600000Y-190970000D02*
X215610000Y-190970000D01*
X165740000Y-183650000D02*
X165750000Y-183660000D01*
X176890000Y-151470000D02*
X177837021Y-151470000D01*
D58*
X190830000Y-183580000D02*
X190840000Y-183570000D01*
X214680000Y-184130000D02*
X214680000Y-187440000D01*
D61*
X214850000Y-187610000D02*
X214300000Y-187610000D01*
X215540000Y-188590000D02*
X215540000Y-187630000D01*
D59*
X178717500Y-150360000D02*
X178487500Y-150590000D01*
D61*
X214300000Y-187610000D02*
X214270000Y-187580000D01*
X167090000Y-180470000D02*
X167090000Y-181650000D01*
D58*
X192140000Y-184730000D02*
X192150000Y-184720000D01*
X190840000Y-183570000D02*
X189570000Y-183570000D01*
X188145000Y-184450000D02*
X189280000Y-184450000D01*
D61*
X178920000Y-152587500D02*
X178482500Y-152587500D01*
X184680000Y-153070000D02*
X184730000Y-153120000D01*
X214440000Y-189690000D02*
X215540000Y-188590000D01*
D58*
X190295000Y-181785000D02*
X190295000Y-182435000D01*
D61*
X164670000Y-183550000D02*
X165740000Y-182480000D01*
X165740000Y-182480000D02*
X165740000Y-183650000D01*
X215570000Y-189710000D02*
X215390000Y-189710000D01*
D58*
X191260000Y-182910000D02*
X188840000Y-182910000D01*
D61*
X165700000Y-181240000D02*
X165700000Y-182440000D01*
X216900000Y-190970000D02*
X216830000Y-190970000D01*
X198720000Y-161460000D02*
X198745000Y-161435000D01*
X165750000Y-184890000D02*
X165750000Y-184740000D01*
X180250000Y-152310000D02*
X179197500Y-152310000D01*
X215610000Y-190970000D02*
X216870000Y-189710000D01*
X176340000Y-152587500D02*
X176147500Y-152587500D01*
D58*
X188180000Y-182250000D02*
X188180000Y-182572500D01*
D61*
X184680000Y-151740000D02*
X184680000Y-153070000D01*
X215570000Y-189472500D02*
X216532500Y-188510000D01*
X175270000Y-152980000D02*
X175270000Y-151930000D01*
D58*
X190840000Y-183570000D02*
X191205000Y-183205000D01*
X190830000Y-184730000D02*
X192140000Y-184730000D01*
D61*
X165750000Y-183570000D02*
X164650000Y-182470000D01*
D58*
X189560000Y-184730000D02*
X190830000Y-184730000D01*
D61*
X165740000Y-182269754D02*
X164678636Y-181208390D01*
X165668390Y-181208390D02*
X165700000Y-181240000D01*
X165740000Y-182480000D02*
X165740000Y-182269754D01*
X215580000Y-190950000D02*
X215600000Y-190970000D01*
X164650000Y-182470000D02*
X164650000Y-181860000D01*
X165750000Y-183660000D02*
X165750000Y-183570000D01*
X165740000Y-184880000D02*
X165750000Y-184890000D01*
X214320000Y-190950000D02*
X214330000Y-190950000D01*
X215390000Y-189710000D02*
X214270000Y-188590000D01*
X215540000Y-187630000D02*
X215520000Y-187610000D01*
X215600000Y-190970000D02*
X216900000Y-190970000D01*
X216532500Y-188510000D02*
X216420000Y-188510000D01*
X214270000Y-187580000D02*
X214270000Y-187107500D01*
X178652500Y-152320000D02*
X178920000Y-152587500D01*
D58*
X190000000Y-182730000D02*
X188302500Y-182730000D01*
D61*
X214270000Y-188590000D02*
X214270000Y-187580000D01*
D58*
X192160000Y-183560000D02*
X192160000Y-184710000D01*
D61*
X164670000Y-183660000D02*
X164670000Y-183550000D01*
X215280000Y-188590000D02*
X214270000Y-187580000D01*
D58*
X192160000Y-183560000D02*
X190850000Y-183560000D01*
D61*
X214320000Y-190950000D02*
X215580000Y-190950000D01*
D58*
X188145000Y-184450000D02*
X188145000Y-182607500D01*
X190830000Y-184730000D02*
X190830000Y-183580000D01*
D61*
X164670000Y-184890000D02*
X164670000Y-183660000D01*
X214290000Y-189690000D02*
X214290000Y-188610000D01*
X177837021Y-151470000D02*
X178487500Y-150819521D01*
X164678636Y-181208390D02*
X165668390Y-181208390D01*
X175662500Y-152587500D02*
X175270000Y-152980000D01*
X183752500Y-152500000D02*
X183920000Y-152500000D01*
D62*
X165207500Y-178755000D02*
X164802500Y-178350000D01*
D58*
X191565000Y-181785000D02*
X190780000Y-181000000D01*
D61*
X215600000Y-190970000D02*
X215570000Y-190970000D01*
X164650000Y-183640000D02*
X164670000Y-183660000D01*
D58*
X190850000Y-183560000D02*
X190840000Y-183570000D01*
D61*
X175270000Y-151930000D02*
X175380000Y-151820000D01*
D58*
X188180000Y-182572500D02*
X188162500Y-182590000D01*
X190780000Y-181000000D02*
X188240000Y-181000000D01*
X188145000Y-182607500D02*
X188162500Y-182590000D01*
D61*
X216870000Y-189710000D02*
X216870000Y-188847500D01*
X216900000Y-190970000D02*
X216900000Y-189740000D01*
D62*
X165207500Y-181772500D02*
X165120000Y-181860000D01*
D59*
X179762500Y-149860000D02*
X179762500Y-150360000D01*
D61*
X215600000Y-189740000D02*
X215570000Y-189710000D01*
X164670000Y-184740000D02*
X165750000Y-183660000D01*
X178487500Y-150819521D02*
X178487500Y-150590000D01*
D58*
X190295000Y-181785000D02*
X189025000Y-181785000D01*
D61*
X162812500Y-183792500D02*
X162850000Y-183830000D01*
D58*
X214680000Y-187440000D02*
X214850000Y-187610000D01*
D61*
X164670000Y-184890000D02*
X165750000Y-184890000D01*
X216870000Y-188847500D02*
X216532500Y-188510000D01*
X215570000Y-189710000D02*
X216870000Y-189710000D01*
X165750000Y-184740000D02*
X164670000Y-183660000D01*
X214330000Y-190950000D02*
X215570000Y-189710000D01*
D58*
X189560000Y-184730000D02*
X188840000Y-184010000D01*
X190830000Y-184730000D02*
X190730000Y-184730000D01*
D61*
X164650000Y-181237026D02*
X164678636Y-181208390D01*
X165730000Y-182470000D02*
X165740000Y-182480000D01*
D59*
X180450000Y-152110000D02*
X180250000Y-152310000D01*
D61*
X216660000Y-189710000D02*
X215540000Y-188590000D01*
D58*
X191205000Y-181785000D02*
X190295000Y-181785000D01*
D61*
X165740000Y-182480000D02*
X165120000Y-181860000D01*
D58*
X192160000Y-184710000D02*
X192150000Y-184720000D01*
D61*
X184110000Y-152500000D02*
X184730000Y-153120000D01*
X176147500Y-152587500D02*
X175380000Y-151820000D01*
X164650000Y-182470000D02*
X165730000Y-182470000D01*
D58*
X164965000Y-178187500D02*
X164802500Y-178350000D01*
D59*
X179762500Y-150360000D02*
X178717500Y-150360000D01*
D61*
X215550000Y-189690000D02*
X215570000Y-189710000D01*
D58*
X188840000Y-184010000D02*
X188840000Y-182910000D01*
D61*
X165750000Y-184890000D02*
X165750000Y-183660000D01*
X164670000Y-183660000D02*
X165750000Y-183660000D01*
X164650000Y-181860000D02*
X164650000Y-181237026D01*
D58*
X189280000Y-184450000D02*
X189560000Y-184730000D01*
D61*
X214270000Y-188590000D02*
X214540000Y-188590000D01*
X216900000Y-189740000D02*
X216870000Y-189710000D01*
X215520000Y-187610000D02*
X214850000Y-187610000D01*
D58*
X189025000Y-181785000D02*
X188180000Y-180940000D01*
D61*
X162812500Y-182925000D02*
X162812500Y-183792500D01*
X183752500Y-152500000D02*
X184110000Y-152500000D01*
D58*
X190295000Y-182435000D02*
X190000000Y-182730000D01*
D61*
X191712500Y-161430000D02*
X192850000Y-161430000D01*
X178482500Y-152587500D02*
X177840000Y-153230000D01*
X214290000Y-188610000D02*
X214270000Y-188590000D01*
X179197500Y-152310000D02*
X178920000Y-152587500D01*
X215520000Y-187610000D02*
X215520000Y-187542500D01*
X197607500Y-161460000D02*
X198720000Y-161460000D01*
D58*
X192150000Y-184720000D02*
X191010000Y-183580000D01*
X188180000Y-180940000D02*
X188180000Y-182250000D01*
D61*
X215600000Y-190970000D02*
X215600000Y-189740000D01*
X215570000Y-189710000D02*
X215570000Y-189472500D01*
X214270000Y-187107500D02*
X214677500Y-186700000D01*
X214290000Y-189690000D02*
X214440000Y-189690000D01*
D58*
X188240000Y-181000000D02*
X188180000Y-180940000D01*
D61*
X177840000Y-152320000D02*
X178652500Y-152320000D01*
X215540000Y-188590000D02*
X215280000Y-188590000D01*
D62*
X165207500Y-180120000D02*
X165207500Y-178755000D01*
D61*
X164650000Y-184870000D02*
X164670000Y-184890000D01*
X165120000Y-181860000D02*
X164650000Y-181860000D01*
D59*
X180450000Y-151047500D02*
X180450000Y-152110000D01*
D61*
X214270000Y-188590000D02*
X215540000Y-188590000D01*
X183920000Y-152500000D02*
X184680000Y-151740000D01*
X215570000Y-190970000D02*
X214290000Y-189690000D01*
X215520000Y-187542500D02*
X214677500Y-186700000D01*
D58*
X164780000Y-178372500D02*
X164780000Y-181208390D01*
X191565000Y-181785000D02*
X191565000Y-182605000D01*
D61*
X214540000Y-188590000D02*
X215520000Y-187610000D01*
X176340000Y-152020000D02*
X176890000Y-151470000D01*
D58*
X191565000Y-182605000D02*
X191260000Y-182910000D01*
X191565000Y-181785000D02*
X191205000Y-181785000D01*
D62*
X165207500Y-180120000D02*
X165207500Y-181772500D01*
D61*
X214320000Y-189720000D02*
X214290000Y-189690000D01*
D58*
X164965000Y-176300000D02*
X164965000Y-178187500D01*
D61*
X216870000Y-189710000D02*
X216660000Y-189710000D01*
D58*
X188302500Y-182730000D02*
X188162500Y-182590000D01*
D61*
X165700000Y-182440000D02*
X165740000Y-182480000D01*
X164650000Y-182470000D02*
X164650000Y-183640000D01*
D58*
X164802500Y-178350000D02*
X164780000Y-178372500D01*
D61*
X176340000Y-152587500D02*
X176340000Y-152020000D01*
D58*
X190730000Y-184730000D02*
X189570000Y-183570000D01*
D61*
X214320000Y-190950000D02*
X214320000Y-189720000D01*
X177840000Y-152320000D02*
X177840000Y-153230000D01*
X214290000Y-189690000D02*
X215550000Y-189690000D01*
D58*
X191010000Y-183580000D02*
X190830000Y-183580000D01*
X188840000Y-182910000D02*
X188180000Y-182250000D01*
D59*
X172585000Y-176300000D02*
X172585000Y-177445000D01*
X184060000Y-185960000D02*
X196310000Y-185960000D01*
X176350000Y-181210000D02*
X179310000Y-181210000D01*
X196310000Y-185960000D02*
X197915000Y-184355000D01*
X172585000Y-177445000D02*
X176350000Y-181210000D01*
X179310000Y-181210000D02*
X184060000Y-185960000D01*
X197915000Y-184355000D02*
X197915000Y-181785000D01*
X173855000Y-177585000D02*
X174620000Y-178350000D01*
X177090000Y-179780000D02*
X195850000Y-179780000D01*
X174620000Y-178350000D02*
X175660000Y-178350000D01*
X196645000Y-180575000D02*
X196645000Y-181785000D01*
X195850000Y-179780000D02*
X196645000Y-180575000D01*
X173855000Y-176300000D02*
X173855000Y-177585000D01*
X175660000Y-178350000D02*
X177090000Y-179780000D01*
X203715000Y-148345000D02*
X203715000Y-144190000D01*
X175595000Y-175830000D02*
X175125000Y-176300000D01*
X175950000Y-174140000D02*
X175595000Y-174495000D01*
X202730000Y-149330000D02*
X203715000Y-148345000D01*
X175950000Y-161450000D02*
X175950000Y-174140000D01*
X175595000Y-174495000D02*
X175595000Y-175830000D01*
X210870000Y-177420000D02*
X216680000Y-183230000D01*
X184440000Y-178890000D02*
X185910000Y-177420000D01*
X176395000Y-176300000D02*
X176395000Y-177545000D01*
X177740000Y-178890000D02*
X184440000Y-178890000D01*
X185910000Y-177420000D02*
X210870000Y-177420000D01*
X216680000Y-183230000D02*
X216680000Y-184130000D01*
X176395000Y-177545000D02*
X177740000Y-178890000D01*
X188490000Y-170720000D02*
X200120000Y-170720000D01*
X185070000Y-167300000D02*
X188490000Y-170720000D01*
X177665000Y-168475000D02*
X177665000Y-176300000D01*
X201880000Y-172480000D02*
X209500000Y-172480000D01*
X177990000Y-168150000D02*
X177665000Y-168475000D01*
X183630000Y-167300000D02*
X185070000Y-167300000D01*
X210680000Y-171300000D02*
X210680000Y-169130000D01*
X209500000Y-172480000D02*
X210680000Y-171300000D01*
X200120000Y-170720000D02*
X201880000Y-172480000D01*
X214680000Y-172880000D02*
X214680000Y-169130000D01*
X188870000Y-173570000D02*
X213990000Y-173570000D01*
X183780000Y-169440000D02*
X184740000Y-169440000D01*
X178935000Y-170415000D02*
X178950000Y-170400000D01*
X213990000Y-173570000D02*
X214680000Y-172880000D01*
X178935000Y-176300000D02*
X178935000Y-170415000D01*
X170605000Y-189605000D02*
X170600000Y-189600000D01*
X178940000Y-176305000D02*
X178935000Y-176300000D01*
X184740000Y-169440000D02*
X188870000Y-173570000D01*
X170605000Y-191870000D02*
X170605000Y-189605000D01*
X178940000Y-177940000D02*
X178940000Y-176305000D01*
X173145000Y-189645000D02*
X173145000Y-191870000D01*
X180970000Y-177920000D02*
X180970000Y-177065000D01*
X218680000Y-174490000D02*
X218680000Y-169130000D01*
X180205000Y-176300000D02*
X216870000Y-176300000D01*
X180970000Y-177065000D02*
X180205000Y-176300000D01*
X173140000Y-189640000D02*
X173145000Y-189645000D01*
X216870000Y-176300000D02*
X218680000Y-174490000D01*
X183980000Y-174970000D02*
X183980000Y-173480000D01*
X181675000Y-172715000D02*
X181205000Y-172245000D01*
X185680000Y-173120000D02*
X187580000Y-175020000D01*
X175685000Y-190085000D02*
X175685000Y-191870000D01*
X176150000Y-189620000D02*
X175685000Y-190085000D01*
X216680000Y-174070000D02*
X216680000Y-169130000D01*
X181675000Y-171775000D02*
X181205000Y-172245000D01*
X185680000Y-173120000D02*
X184335000Y-171775000D01*
X183215000Y-172715000D02*
X181675000Y-172715000D01*
X184335000Y-171775000D02*
X181675000Y-171775000D01*
X187580000Y-175020000D02*
X215730000Y-175020000D01*
X215730000Y-175020000D02*
X216680000Y-174070000D01*
X183980000Y-173480000D02*
X183215000Y-172715000D01*
X184585000Y-162885000D02*
X187820000Y-166120000D01*
X181205000Y-163355000D02*
X181675000Y-162885000D01*
X178225000Y-191870000D02*
X178225000Y-189575000D01*
X187820000Y-166120000D02*
X211830000Y-166120000D01*
X183235000Y-163825000D02*
X181675000Y-163825000D01*
X179650000Y-189280000D02*
X178520000Y-189280000D01*
X211830000Y-166120000D02*
X212680000Y-166970000D01*
X186320000Y-166910000D02*
X183235000Y-163825000D01*
X212680000Y-166970000D02*
X212680000Y-169130000D01*
X178225000Y-189575000D02*
X178520000Y-189280000D01*
X181675000Y-162885000D02*
X184585000Y-162885000D01*
X186360000Y-166910000D02*
X186320000Y-166910000D01*
X175100000Y-183370000D02*
X174500000Y-183370000D01*
X193697500Y-191467500D02*
X193590000Y-191360000D01*
X178607500Y-184320000D02*
X176050000Y-184320000D01*
X188680000Y-187220000D02*
X188680000Y-189390000D01*
X188680000Y-189390000D02*
X189490000Y-190200000D01*
X175230000Y-183500000D02*
X175100000Y-183370000D01*
X189490000Y-190200000D02*
X189490000Y-191360000D01*
D60*
X193677500Y-191447500D02*
X193590000Y-191360000D01*
D59*
X176050000Y-184320000D02*
X175230000Y-183500000D01*
X180405000Y-159100000D02*
X180205000Y-159300000D01*
X193590000Y-191360000D02*
X189490000Y-191360000D01*
X195400000Y-191467500D02*
X193697500Y-191467500D01*
X181260000Y-159100000D02*
X180405000Y-159100000D01*
X196740000Y-158590000D02*
X200070000Y-155260000D01*
X184380000Y-158590000D02*
X196740000Y-158590000D01*
X177665000Y-159300000D02*
X177665000Y-160540000D01*
X177665000Y-160540000D02*
X178125000Y-161000000D01*
X181970000Y-161000000D02*
X184380000Y-158590000D01*
X178125000Y-161000000D02*
X181970000Y-161000000D01*
X200070000Y-155260000D02*
X200070000Y-144180000D01*
X194470000Y-157510000D02*
X197530000Y-154450000D01*
X176395000Y-159300000D02*
X176395000Y-158025000D01*
X176910000Y-157510000D02*
X194470000Y-157510000D01*
X176395000Y-158025000D02*
X176910000Y-157510000D01*
X197530000Y-154450000D02*
X197530000Y-144180000D01*
D61*
X160962500Y-152725000D02*
X159075000Y-152725000D01*
X159075000Y-152725000D02*
X159050000Y-152700000D01*
D59*
X195782500Y-161460000D02*
X196982500Y-160260000D01*
X185180000Y-162170000D02*
X187650000Y-159700000D01*
X170045000Y-160765000D02*
X170045000Y-161370000D01*
X218240000Y-160260000D02*
X226185000Y-152315000D01*
X170045000Y-160765000D02*
X170045000Y-161345000D01*
X194780000Y-159700000D02*
X195782500Y-160702500D01*
X196982500Y-160260000D02*
X218240000Y-160260000D01*
X194845000Y-161460000D02*
X195782500Y-161460000D01*
X194105000Y-162200000D02*
X194845000Y-161460000D01*
X195782500Y-160702500D02*
X195782500Y-161460000D01*
X187650000Y-159700000D02*
X194780000Y-159700000D01*
X170045000Y-159300000D02*
X170045000Y-160765000D01*
X170045000Y-161345000D02*
X171580000Y-162880000D01*
X226185000Y-152315000D02*
X229410000Y-152315000D01*
X194105000Y-164005000D02*
X194105000Y-162200000D01*
X169310000Y-156280000D02*
X169310000Y-155160000D01*
X169250000Y-156340000D02*
X169310000Y-156280000D01*
X168775000Y-159300000D02*
X168775000Y-156815000D01*
X168775000Y-156815000D02*
X169250000Y-156340000D01*
X176710000Y-144910000D02*
X178175000Y-144910000D01*
X167505000Y-154455000D02*
X167505000Y-159300000D01*
X176700000Y-143110000D02*
X178175000Y-143110000D01*
X167500000Y-154450000D02*
X167505000Y-154455000D01*
X189887500Y-161430000D02*
X188960000Y-161430000D01*
X192480000Y-164920000D02*
X201820000Y-164920000D01*
X191565000Y-163107500D02*
X189887500Y-161430000D01*
X166235000Y-162115000D02*
X166235000Y-162435000D01*
X191565000Y-164005000D02*
X192480000Y-164920000D01*
X166235000Y-162435000D02*
X167300000Y-163500000D01*
X186790000Y-163600000D02*
X186770000Y-163600000D01*
X188960000Y-161430000D02*
X186790000Y-163600000D01*
X204730000Y-162010000D02*
X219410000Y-162010000D01*
X201820000Y-164920000D02*
X204730000Y-162010000D01*
X167300000Y-163500000D02*
X167400000Y-163600000D01*
X219410000Y-162010000D02*
X226565000Y-154855000D01*
X167400000Y-163600000D02*
X168750000Y-163600000D01*
X166235000Y-159300000D02*
X166235000Y-162115000D01*
X226565000Y-154855000D02*
X229410000Y-154855000D01*
X191565000Y-164005000D02*
X191565000Y-163107500D01*
D58*
X211240000Y-146190000D02*
X210620000Y-146810000D01*
X210620000Y-146810000D02*
X210620000Y-148200000D01*
X213875000Y-144190000D02*
X213875000Y-145385000D01*
X213875000Y-145385000D02*
X213070000Y-146190000D01*
X213070000Y-146190000D02*
X211240000Y-146190000D01*
D59*
X180950000Y-153430000D02*
X181670000Y-154150000D01*
D61*
X189570000Y-150960000D02*
X188610000Y-151920000D01*
D59*
X181670000Y-154150000D02*
X185150000Y-154150000D01*
D61*
X189570000Y-150192500D02*
X189570000Y-150960000D01*
D59*
X185150000Y-154150000D02*
X186515000Y-152785000D01*
D61*
X186515000Y-152785000D02*
X186515000Y-154400000D01*
X187380000Y-151920000D02*
X186515000Y-152785000D01*
X188610000Y-151920000D02*
X187380000Y-151920000D01*
D59*
X180950000Y-151047500D02*
X180950000Y-153430000D01*
X182950000Y-147172500D02*
X183467500Y-147172500D01*
X170020000Y-181090000D02*
X170530000Y-181600000D01*
X183830000Y-146810000D02*
X183830000Y-145730000D01*
X171070000Y-183380000D02*
X172850000Y-181600000D01*
X183780000Y-146860000D02*
X183830000Y-146810000D01*
X183467500Y-147172500D02*
X183780000Y-146860000D01*
X170977500Y-183380000D02*
X171070000Y-183380000D01*
X170530000Y-181600000D02*
X172850000Y-181600000D01*
X180610000Y-145770000D02*
X178300000Y-145770000D01*
X176610000Y-145770000D02*
X175590000Y-146790000D01*
X174850000Y-187050000D02*
X174952500Y-187050000D01*
X180950000Y-146110000D02*
X180680000Y-145840000D01*
X180680000Y-145840000D02*
X180610000Y-145770000D01*
X178300000Y-145770000D02*
X176610000Y-145770000D01*
X180950000Y-147172500D02*
X180950000Y-146110000D01*
X174952500Y-187050000D02*
X176732500Y-185270000D01*
X173600000Y-185120000D02*
X174160000Y-185120000D01*
X174160000Y-185120000D02*
X174850000Y-185810000D01*
X174850000Y-185810000D02*
X174850000Y-187050000D01*
X206680000Y-190130000D02*
X206680000Y-184130000D01*
X194990000Y-152540000D02*
X194990000Y-144180000D01*
X191010000Y-156520000D02*
X194990000Y-152540000D01*
X173855000Y-159300000D02*
X173855000Y-157805000D01*
X173855000Y-157805000D02*
X175140000Y-156520000D01*
X175140000Y-156520000D02*
X191010000Y-156520000D01*
X171080000Y-185280000D02*
X172850000Y-187050000D01*
X170977500Y-185280000D02*
X171080000Y-185280000D01*
X174850000Y-181600000D02*
X174962500Y-181600000D01*
X174962500Y-181600000D02*
X176732500Y-183370000D01*
X189270000Y-155430000D02*
X192450000Y-152250000D01*
X174070000Y-155430000D02*
X189270000Y-155430000D01*
X172585000Y-159300000D02*
X172585000Y-156915000D01*
X172585000Y-156915000D02*
X174070000Y-155430000D01*
X192450000Y-152250000D02*
X192450000Y-144180000D01*
X187560000Y-144840000D02*
X189250000Y-144840000D01*
X189250000Y-144840000D02*
X189910000Y-144180000D01*
X164965000Y-155685000D02*
X164965000Y-159300000D01*
X164975000Y-155675000D02*
X164965000Y-155685000D01*
D61*
X159100000Y-182925000D02*
X159075000Y-182900000D01*
X160987500Y-182925000D02*
X159100000Y-182925000D01*
D58*
X211570000Y-150075000D02*
X211570000Y-152077500D01*
D62*
X212097500Y-152605000D02*
X212060000Y-152567500D01*
X215110000Y-152605000D02*
X212097500Y-152605000D01*
D58*
X211570000Y-152077500D02*
X212060000Y-152567500D01*
X214330000Y-150220000D02*
X214330000Y-150297500D01*
X214330000Y-150297500D02*
X212060000Y-152567500D01*
D63*
X172100000Y-148449950D02*
X172180000Y-148369950D01*
X172100000Y-149012500D02*
X172100000Y-148449950D01*
X172180000Y-148369950D02*
X172180000Y-147790050D01*
X172180000Y-147790050D02*
X171769950Y-147380000D01*
X171725000Y-147380000D02*
X171725000Y-146450000D01*
X171769950Y-147380000D02*
X171725000Y-147380000D01*
X172450000Y-149362500D02*
X172100000Y-149012500D01*
X170550000Y-151637500D02*
X170900000Y-151287500D01*
X175846801Y-148884999D02*
X179737501Y-148884999D01*
X179737501Y-148884999D02*
X179762500Y-148860000D01*
X173298896Y-151187500D02*
X173544300Y-151187500D01*
X170900000Y-150938604D02*
X171163604Y-150675000D01*
X171163604Y-150675000D02*
X172786396Y-150675000D01*
X170900000Y-151287500D02*
X170900000Y-150938604D01*
X173544300Y-151187500D02*
X175846801Y-148884999D01*
X172786396Y-150675000D02*
X173298896Y-151187500D01*
X179737501Y-149335001D02*
X179762500Y-149360000D01*
X173730700Y-151637500D02*
X176033199Y-149335001D01*
X176033199Y-149335001D02*
X179737501Y-149335001D01*
X172450000Y-151637500D02*
X173730700Y-151637500D01*
X170780000Y-147790050D02*
X171190050Y-147380000D01*
X170550000Y-149362500D02*
X170900000Y-149012500D01*
X171190050Y-147380000D02*
X171275000Y-147380000D01*
X170780000Y-148369950D02*
X170780000Y-147790050D01*
X170900000Y-148489950D02*
X170780000Y-148369950D01*
X171275000Y-147380000D02*
X171275000Y-146450000D01*
X170900000Y-149012500D02*
X170900000Y-148489950D01*
D59*
X181000000Y-144910000D02*
X180000000Y-144910000D01*
X181950000Y-147172500D02*
X181950000Y-145860000D01*
X181950000Y-145860000D02*
X181000000Y-144910000D01*
X181000000Y-143110000D02*
X180000000Y-143110000D01*
X182450000Y-144560000D02*
X181000000Y-143110000D01*
X182450000Y-147172500D02*
X182450000Y-144560000D01*
X167800000Y-144400000D02*
X167200000Y-145000000D01*
X169125000Y-153775000D02*
X171050000Y-153775000D01*
X183510000Y-141800000D02*
X184290000Y-142580000D01*
D61*
X189570000Y-147330000D02*
X189570000Y-148367500D01*
D58*
X185016000Y-141854000D02*
X215404000Y-141854000D01*
D59*
X166500000Y-150775000D02*
X166500000Y-144700000D01*
D61*
X188850000Y-146610000D02*
X189570000Y-147330000D01*
D59*
X172500000Y-144700000D02*
X172200000Y-144400000D01*
X171050000Y-153775000D02*
X171500000Y-153325000D01*
X171200000Y-144400000D02*
X171100000Y-144400000D01*
X166500000Y-144700000D02*
X166800000Y-144400000D01*
X167200000Y-145000000D02*
X167200000Y-148425000D01*
D58*
X219320000Y-150220000D02*
X216430000Y-150220000D01*
D59*
X172200000Y-144400000D02*
X171200000Y-144400000D01*
D61*
X184290000Y-144090000D02*
X186810000Y-146610000D01*
D59*
X162787500Y-152725000D02*
X164550000Y-152725000D01*
X166800000Y-144400000D02*
X167950000Y-144400000D01*
X167200000Y-148425000D02*
X167200000Y-151850000D01*
D58*
X216280000Y-145850000D02*
X213930000Y-148200000D01*
D59*
X171500000Y-153325000D02*
X171500000Y-151637500D01*
D58*
X216430000Y-142880000D02*
X215404000Y-141854000D01*
D61*
X186810000Y-146610000D02*
X188850000Y-146610000D01*
D59*
X172500000Y-145760000D02*
X172500000Y-144700000D01*
X171100000Y-141800000D02*
X183510000Y-141800000D01*
D58*
X213930000Y-148200000D02*
X212520000Y-148200000D01*
D61*
X184290000Y-142580000D02*
X184290000Y-144090000D01*
D59*
X170700000Y-144000000D02*
X170700000Y-142200000D01*
D58*
X184290000Y-142580000D02*
X185016000Y-141854000D01*
D59*
X164550000Y-152725000D02*
X166500000Y-150775000D01*
X167950000Y-144400000D02*
X167800000Y-144400000D01*
X170700000Y-142200000D02*
X171100000Y-141800000D01*
D58*
X216430000Y-150220000D02*
X216430000Y-142880000D01*
D59*
X167200000Y-151850000D02*
X169125000Y-153775000D01*
X171200000Y-144400000D02*
X167950000Y-144400000D01*
X171100000Y-144400000D02*
X170700000Y-144000000D01*
X183637500Y-149360000D02*
X185097500Y-149360000D01*
X181450000Y-152022500D02*
X181927500Y-152500000D01*
X181450000Y-151047500D02*
X181450000Y-152022500D01*
%TA.AperFunction,Conductor*%
G36*
X174262010Y-164669685D02*
G01*
X174286921Y-164690807D01*
X175167950Y-165664576D01*
X175198331Y-165727495D01*
X175200000Y-165747769D01*
X175200000Y-171658667D01*
X175180315Y-171725706D01*
X175175200Y-171733067D01*
X174337200Y-172850400D01*
X174281229Y-172892221D01*
X174238000Y-172900000D01*
X168056498Y-172900000D01*
X167989459Y-172880315D01*
X167962927Y-172857366D01*
X167030429Y-171784993D01*
X167001293Y-171721488D01*
X167000000Y-171703627D01*
X167000000Y-165745871D01*
X167019685Y-165678832D01*
X167029852Y-165665173D01*
X167862884Y-164693302D01*
X167921458Y-164655212D01*
X167957032Y-164650000D01*
X174194971Y-164650000D01*
X174262010Y-164669685D01*
G37*
%TD.AperFunction*%
%TA.AperFunction,Conductor*%
G36*
X209748725Y-185674765D02*
G01*
X209795010Y-185728744D01*
X209828061Y-185803153D01*
X209907287Y-185882241D01*
X209917758Y-185886870D01*
X209917759Y-185886871D01*
X210001147Y-185923737D01*
X210001149Y-185923738D01*
X210009673Y-185927506D01*
X210035354Y-185930500D01*
X211324646Y-185930500D01*
X211328300Y-185930065D01*
X211328302Y-185930065D01*
X211333266Y-185929474D01*
X211350846Y-185927382D01*
X211453153Y-185881939D01*
X211532241Y-185802713D01*
X211564856Y-185728940D01*
X211609967Y-185675585D01*
X211678267Y-185655080D01*
X211681686Y-185655080D01*
X211748725Y-185674765D01*
X211795010Y-185728744D01*
X211828061Y-185803153D01*
X211907287Y-185882241D01*
X211917758Y-185886870D01*
X211917759Y-185886871D01*
X212001147Y-185923737D01*
X212001149Y-185923738D01*
X212009673Y-185927506D01*
X212035354Y-185930500D01*
X212377920Y-185930500D01*
X212444959Y-185950185D01*
X212469327Y-185970710D01*
X213247407Y-186819524D01*
X213278197Y-186882244D01*
X213280000Y-186903314D01*
X213280000Y-192928221D01*
X213268885Y-192979533D01*
X212813040Y-193982392D01*
X212767379Y-194035277D01*
X212700155Y-194055080D01*
X209239598Y-194055080D01*
X209172559Y-194035395D01*
X209142770Y-194008542D01*
X208407172Y-193089045D01*
X208380664Y-193024399D01*
X208380000Y-193011583D01*
X208380000Y-187100951D01*
X208399685Y-187033912D01*
X208409852Y-187020253D01*
X209542884Y-185698382D01*
X209601459Y-185660292D01*
X209637032Y-185655080D01*
X209681686Y-185655080D01*
X209748725Y-185674765D01*
G37*
%TD.AperFunction*%
%TA.AperFunction,Conductor*%
G36*
X208167441Y-151287185D02*
G01*
X208197230Y-151314038D01*
X208532828Y-151733535D01*
X208559336Y-151798181D01*
X208560000Y-151810997D01*
X208560000Y-152867500D01*
X208960000Y-153267500D01*
X210614129Y-153267500D01*
X210681168Y-153287185D01*
X210694828Y-153297353D01*
X210723866Y-153322243D01*
X210761885Y-153382191D01*
X210762618Y-153388346D01*
X210808061Y-153490653D01*
X210887287Y-153569741D01*
X210897758Y-153574370D01*
X210897759Y-153574371D01*
X210981147Y-153611237D01*
X210981149Y-153611238D01*
X210989673Y-153615006D01*
X211015354Y-153618000D01*
X211023046Y-153618000D01*
X211090085Y-153637685D01*
X211103744Y-153647852D01*
X211360000Y-153867500D01*
X212998000Y-153867500D01*
X213065039Y-153887185D01*
X213097200Y-153917100D01*
X213335200Y-154234433D01*
X213359676Y-154299875D01*
X213360000Y-154308833D01*
X213360000Y-155516138D01*
X213340315Y-155583177D01*
X213323681Y-155603819D01*
X213096319Y-155831181D01*
X213034996Y-155864666D01*
X213008638Y-155867500D01*
X209660000Y-155867500D01*
X208560000Y-156767500D01*
X208560000Y-157716138D01*
X208540315Y-157783177D01*
X208523681Y-157803819D01*
X207896319Y-158431181D01*
X207834996Y-158464666D01*
X207808638Y-158467500D01*
X204626363Y-158467500D01*
X204559324Y-158447815D01*
X204523189Y-158412283D01*
X203969890Y-157582335D01*
X203960000Y-157567500D01*
X201706592Y-157567500D01*
X201639553Y-157547815D01*
X201624937Y-157536820D01*
X200902345Y-156904552D01*
X200864855Y-156845592D01*
X200860000Y-156811232D01*
X200860000Y-154918862D01*
X200879685Y-154851823D01*
X200896319Y-154831181D01*
X201223681Y-154503819D01*
X201285004Y-154470334D01*
X201311362Y-154467500D01*
X204160000Y-154467500D01*
X204460000Y-154067500D01*
X204460000Y-151912394D01*
X204479685Y-151845355D01*
X204488741Y-151833011D01*
X204922819Y-151312117D01*
X204980858Y-151273218D01*
X205018078Y-151267500D01*
X208100402Y-151267500D01*
X208167441Y-151287185D01*
G37*
%TD.AperFunction*%
%TA.AperFunction,Conductor*%
G36*
X203892491Y-185674765D02*
G01*
X203916859Y-185695290D01*
X204947407Y-186819524D01*
X204978197Y-186882244D01*
X204980000Y-186903314D01*
X204980000Y-192928221D01*
X204968885Y-192979533D01*
X204513040Y-193982392D01*
X204467379Y-194035277D01*
X204400155Y-194055080D01*
X200939598Y-194055080D01*
X200872559Y-194035395D01*
X200842770Y-194008542D01*
X200107172Y-193089045D01*
X200080664Y-193024399D01*
X200080000Y-193011583D01*
X200080000Y-187100951D01*
X200099685Y-187033912D01*
X200109852Y-187020253D01*
X201242884Y-185698382D01*
X201301459Y-185660292D01*
X201337032Y-185655080D01*
X203825452Y-185655080D01*
X203892491Y-185674765D01*
G37*
%TD.AperFunction*%
%TA.AperFunction,Conductor*%
G36*
X217060676Y-153687185D02*
G01*
X217096811Y-153722717D01*
X217439174Y-154236261D01*
X217460000Y-154305044D01*
X217460000Y-157424003D01*
X217440315Y-157491042D01*
X217432828Y-157501465D01*
X217097230Y-157920962D01*
X217039979Y-157961014D01*
X217000402Y-157967500D01*
X215060000Y-157967500D01*
X214660000Y-158467500D01*
X214660000Y-159016138D01*
X214640315Y-159083177D01*
X214623681Y-159103819D01*
X214096319Y-159631181D01*
X214034996Y-159664666D01*
X214008638Y-159667500D01*
X210300869Y-159667500D01*
X210233830Y-159647815D01*
X210227141Y-159643201D01*
X209511070Y-159113675D01*
X209468872Y-159057988D01*
X209460798Y-159014018D01*
X209460021Y-156825605D01*
X209479682Y-156758559D01*
X209504638Y-156730302D01*
X210025511Y-156296241D01*
X210089614Y-156268445D01*
X210104894Y-156267500D01*
X213360000Y-156267500D01*
X213960000Y-155667500D01*
X213960000Y-154329500D01*
X213979685Y-154262461D01*
X214009600Y-154230300D01*
X214726933Y-153692300D01*
X214792375Y-153667824D01*
X214801333Y-153667500D01*
X216993637Y-153667500D01*
X217060676Y-153687185D01*
G37*
%TD.AperFunction*%
M02*
