%TF.GenerationSoftware,KiCad,Pcbnew,6.0.6-3a73a75311~116~ubuntu20.04.1*%
%TF.CreationDate,2022-07-25T10:06:13-07:00*%
%TF.ProjectId,rover_controller,726f7665-725f-4636-9f6e-74726f6c6c65,rev?*%
%TF.SameCoordinates,Original*%
%TF.FileFunction,Copper,L4,Bot*%
%TF.FilePolarity,Positive*%
%FSLAX46Y46*%
G04 Gerber Fmt 4.6, Leading zero omitted, Abs format (unit mm)*
G04 Created by KiCad (PCBNEW 6.0.6-3a73a75311~116~ubuntu20.04.1) date 2022-07-25 10:06:13*
%MOMM*%
%LPD*%
G01*
G04 APERTURE LIST*
%TA.AperFunction,ComponentPad*%
%ADD10R,1.000000X1.000000*%
%TD*%
%TA.AperFunction,ComponentPad*%
%ADD11O,1.000000X1.000000*%
%TD*%
%TA.AperFunction,SMDPad,CuDef*%
%ADD12R,1.651000X5.588000*%
%TD*%
%TA.AperFunction,ComponentPad*%
%ADD13C,0.900000*%
%TD*%
%TA.AperFunction,ComponentPad*%
%ADD14C,8.600000*%
%TD*%
%TA.AperFunction,ComponentPad*%
%ADD15R,1.700000X1.700000*%
%TD*%
%TA.AperFunction,ComponentPad*%
%ADD16O,1.700000X1.700000*%
%TD*%
%TA.AperFunction,ViaPad*%
%ADD17C,0.800000*%
%TD*%
%TA.AperFunction,Conductor*%
%ADD18C,0.300000*%
%TD*%
G04 APERTURE END LIST*
D10*
X190295000Y-164005000D03*
D11*
X191565000Y-164005000D03*
X192835000Y-164005000D03*
X194105000Y-164005000D03*
X195375000Y-164005000D03*
X196645000Y-164005000D03*
X197915000Y-164005000D03*
X199185000Y-164005000D03*
X200455000Y-164005000D03*
D12*
X210804960Y-190130000D03*
X202555040Y-190130000D03*
D13*
X227780419Y-148780419D03*
X227780419Y-144219581D03*
X228725000Y-146500000D03*
X225500000Y-149725000D03*
X222275000Y-146500000D03*
X223219581Y-144219581D03*
X225500000Y-143275000D03*
X223219581Y-148780419D03*
D14*
X225500000Y-146500000D03*
D13*
X164525000Y-146500000D03*
X161300000Y-149725000D03*
X159019581Y-148780419D03*
X161300000Y-143275000D03*
X163580419Y-148780419D03*
X158075000Y-146500000D03*
D14*
X161300000Y-146500000D03*
D13*
X163580419Y-144219581D03*
X159019581Y-144219581D03*
X227780419Y-191380419D03*
X222275000Y-189100000D03*
X225500000Y-185875000D03*
D14*
X225500000Y-189100000D03*
D13*
X223219581Y-191380419D03*
X225500000Y-192325000D03*
X227780419Y-186819581D03*
X228725000Y-189100000D03*
X223219581Y-186819581D03*
D10*
X190295000Y-181785000D03*
D11*
X191565000Y-181785000D03*
X192835000Y-181785000D03*
X194105000Y-181785000D03*
X195375000Y-181785000D03*
X196645000Y-181785000D03*
X197915000Y-181785000D03*
D15*
X229410000Y-152315000D03*
D16*
X229410000Y-154855000D03*
D15*
X203715000Y-144190000D03*
D16*
X206255000Y-144190000D03*
X208795000Y-144190000D03*
X211335000Y-144190000D03*
X213875000Y-144190000D03*
D15*
X178225000Y-191870000D03*
D16*
X175685000Y-191870000D03*
X173145000Y-191870000D03*
X170605000Y-191870000D03*
X168065000Y-191870000D03*
D15*
X229410000Y-183200000D03*
X189910000Y-144180000D03*
D16*
X192450000Y-144180000D03*
X194990000Y-144180000D03*
X197530000Y-144180000D03*
X200070000Y-144180000D03*
D15*
X184290000Y-142580000D03*
D13*
X158075000Y-189100000D03*
X163580419Y-191380419D03*
X159019581Y-186819581D03*
X164525000Y-189100000D03*
X163580419Y-186819581D03*
X161300000Y-185875000D03*
X161300000Y-192325000D03*
X159019581Y-191380419D03*
D14*
X161300000Y-189100000D03*
D17*
X187787500Y-153390000D03*
X208155000Y-182030000D03*
X209380000Y-193255080D03*
X173925000Y-165700000D03*
X168100000Y-170400000D03*
X213760000Y-158767500D03*
X171480000Y-148080000D03*
X180630000Y-193170000D03*
X209230000Y-182005000D03*
X218550000Y-186810000D03*
X216660000Y-154467500D03*
X185470000Y-182600000D03*
X216360000Y-157067500D03*
X168100000Y-168700000D03*
X184120000Y-192600000D03*
X212480000Y-188680080D03*
X220680000Y-171280000D03*
X203150000Y-151140000D03*
X174300000Y-171700000D03*
X162600000Y-174550000D03*
X211880000Y-186655080D03*
X215160000Y-154467500D03*
X200880000Y-188755080D03*
X180375000Y-174425000D03*
X212480000Y-190955080D03*
X209780000Y-186655080D03*
X203580000Y-186655080D03*
X157350000Y-183975000D03*
X175260000Y-154230000D03*
X209180000Y-191055080D03*
X174300000Y-168600000D03*
X192740000Y-192590000D03*
X196350000Y-193180000D03*
X163750000Y-174525000D03*
X162650000Y-158075000D03*
X181975000Y-174475000D03*
X212760000Y-158767500D03*
X176490000Y-150440000D03*
X204180000Y-188680080D03*
X185080000Y-185090000D03*
X172800000Y-171950000D03*
X219470000Y-186810000D03*
X172200000Y-179120000D03*
X169650000Y-165700000D03*
X206670000Y-171230000D03*
X201920000Y-151180000D03*
X177810000Y-154610000D03*
X186910000Y-148290000D03*
X211660000Y-158767500D03*
X171100000Y-165650000D03*
X190340000Y-192590000D03*
X191560000Y-192900000D03*
X162600000Y-176200000D03*
X213760000Y-157067500D03*
X206030000Y-166955000D03*
X200880000Y-191055080D03*
X174300000Y-170300000D03*
X219930000Y-166930000D03*
X218220000Y-154210000D03*
X219300000Y-152250000D03*
X179600000Y-147135500D03*
X174300000Y-167000000D03*
X178610000Y-146890000D03*
X209180000Y-188755080D03*
X180260000Y-154430000D03*
X157300000Y-151625000D03*
X169457534Y-147048618D03*
X186960000Y-150440000D03*
X172550000Y-165650000D03*
X186520000Y-192600000D03*
X188927500Y-153390000D03*
X201080000Y-193255080D03*
X217630000Y-186790000D03*
X212280000Y-193255080D03*
X203190000Y-153260000D03*
X215060000Y-157067500D03*
X210460000Y-157367500D03*
X221355000Y-166930000D03*
X162410000Y-181220000D03*
X185340000Y-192910000D03*
X220430000Y-154180000D03*
X185510000Y-181290000D03*
X210560000Y-158767500D03*
X169650000Y-171950000D03*
X185060000Y-183880000D03*
X168100000Y-171800000D03*
X201930000Y-153270000D03*
X219320000Y-154400000D03*
X168100000Y-165800000D03*
X207205000Y-166955000D03*
X216660000Y-155767500D03*
X178750500Y-147910000D03*
X203980000Y-193255080D03*
X168100000Y-167025000D03*
X201480000Y-186655080D03*
X204180000Y-190955080D03*
X163675000Y-157625000D03*
X163680000Y-181250000D03*
X171200000Y-171950000D03*
X175380000Y-151820000D03*
X214270000Y-188590000D03*
X205060000Y-152367500D03*
X215520000Y-187610000D03*
X215540000Y-188590000D03*
X215600000Y-190970000D03*
X177840000Y-153230000D03*
X162850000Y-183830000D03*
X209060000Y-154067500D03*
X164670000Y-184890000D03*
X189560000Y-184730000D03*
X164650000Y-182470000D03*
X192150000Y-184720000D03*
X198745000Y-161435000D03*
X192160000Y-183560000D03*
X165740000Y-182480000D03*
X189570000Y-183570000D03*
X202260000Y-156667500D03*
X177840000Y-152320000D03*
X216870000Y-189710000D03*
X164678636Y-181208390D03*
X175270000Y-152980000D03*
X214270000Y-187580000D03*
X184680000Y-151740000D03*
X215570000Y-189710000D03*
X190840000Y-183570000D03*
X207660000Y-154067500D03*
X207660000Y-155267500D03*
X190830000Y-184730000D03*
X210460000Y-155267500D03*
X205060000Y-157367500D03*
X204060000Y-156667500D03*
X216900000Y-190970000D03*
X164670000Y-183660000D03*
X201560000Y-155367500D03*
X206260000Y-157367500D03*
X207660000Y-152767500D03*
X165700000Y-181240000D03*
X210460000Y-154067500D03*
X214320000Y-190950000D03*
X167090000Y-181650000D03*
X165750000Y-183660000D03*
X209060000Y-155267500D03*
X165750000Y-184890000D03*
X192850000Y-161430000D03*
X206360000Y-152367500D03*
X184730000Y-153120000D03*
X214290000Y-189690000D03*
X207660000Y-156467500D03*
X175950000Y-161450000D03*
X202730000Y-149330000D03*
X177990000Y-168150000D03*
X183630000Y-167300000D03*
X178950000Y-170400000D03*
X183780000Y-169440000D03*
X178940000Y-177940000D03*
X170600000Y-189600000D03*
X180970000Y-177920000D03*
X173140000Y-189640000D03*
X176150000Y-189620000D03*
X183980000Y-174970000D03*
X179650000Y-189280000D03*
X186360000Y-166910000D03*
X188680000Y-187220000D03*
X174500000Y-183370000D03*
X181260000Y-159100000D03*
X185180000Y-162170000D03*
X171580000Y-162880000D03*
X169310000Y-155160000D03*
X176710000Y-144910000D03*
X167500000Y-154450000D03*
X176700000Y-143110000D03*
X168750000Y-163600000D03*
X186770000Y-163600000D03*
X170020000Y-181090000D03*
X183830000Y-145730000D03*
X175590000Y-146790000D03*
X173600000Y-185120000D03*
X164975000Y-155675000D03*
X187560000Y-144840000D03*
D18*
X175900000Y-158530000D02*
X175900000Y-161400000D01*
X202720000Y-149340000D02*
X200620000Y-149340000D01*
X197480000Y-155850000D02*
X178580000Y-155850000D01*
X178580000Y-155850000D02*
X175900000Y-158530000D01*
X199340000Y-150620000D02*
X199340000Y-153990000D01*
X200620000Y-149340000D02*
X199340000Y-150620000D01*
X175900000Y-161400000D02*
X175950000Y-161450000D01*
X199340000Y-153990000D02*
X197480000Y-155850000D01*
X202730000Y-149330000D02*
X202720000Y-149340000D01*
X178840000Y-167300000D02*
X177990000Y-168150000D01*
X183630000Y-167300000D02*
X178840000Y-167300000D01*
X179910000Y-169440000D02*
X178950000Y-170400000D01*
X178940000Y-177940000D02*
X178940000Y-184850000D01*
X183780000Y-169440000D02*
X179910000Y-169440000D01*
X170600000Y-188660000D02*
X170600000Y-189600000D01*
X175840000Y-187950000D02*
X171310000Y-187950000D01*
X178940000Y-184850000D02*
X175840000Y-187950000D01*
X171310000Y-187950000D02*
X170600000Y-188660000D01*
X180970000Y-184740000D02*
X180970000Y-177920000D01*
X173140000Y-189640000D02*
X173140000Y-189000000D01*
X173140000Y-189000000D02*
X173620000Y-188520000D01*
X173620000Y-188520000D02*
X177190000Y-188520000D01*
X177190000Y-188520000D02*
X180970000Y-184740000D01*
X176150000Y-189620000D02*
X177300000Y-189620000D01*
X177300000Y-189620000D02*
X179580000Y-187340000D01*
X179580000Y-187340000D02*
X181530000Y-187340000D01*
X183980000Y-184890000D02*
X183980000Y-174970000D01*
X181530000Y-187340000D02*
X183980000Y-184890000D01*
X186360000Y-166910000D02*
X186360000Y-170650000D01*
X184110000Y-189180000D02*
X184010000Y-189280000D01*
X184010000Y-189280000D02*
X179650000Y-189280000D01*
X186360000Y-186930000D02*
X184110000Y-189180000D01*
X186360000Y-170650000D02*
X186360000Y-186930000D01*
X174500000Y-183370000D02*
X170960000Y-179830000D01*
X181950000Y-162725000D02*
X182525000Y-162150000D01*
X166350000Y-171490000D02*
X166350000Y-162975000D01*
X182395000Y-159535000D02*
X181970000Y-159110000D01*
X188680000Y-162840000D02*
X188680000Y-187220000D01*
X184940000Y-159100000D02*
X188680000Y-162840000D01*
X174400000Y-162725000D02*
X181950000Y-162725000D01*
X182525000Y-162150000D02*
X182525000Y-159665000D01*
X181970000Y-159110000D02*
X181960000Y-159100000D01*
X181960000Y-159100000D02*
X181260000Y-159100000D01*
X170960000Y-179830000D02*
X170960000Y-176070000D01*
X181960000Y-159100000D02*
X184940000Y-159100000D01*
X166350000Y-162975000D02*
X168200000Y-161125000D01*
X166880000Y-171990000D02*
X166850000Y-171990000D01*
X170960000Y-176070000D02*
X166880000Y-171990000D01*
X168200000Y-161125000D02*
X172800000Y-161125000D01*
X182525000Y-159665000D02*
X182395000Y-159535000D01*
X166850000Y-171990000D02*
X166350000Y-171490000D01*
X172800000Y-161125000D02*
X174400000Y-162725000D01*
X182810000Y-163520000D02*
X183830000Y-163520000D01*
X183830000Y-163520000D02*
X185180000Y-162170000D01*
X171580000Y-162880000D02*
X172220000Y-163520000D01*
X172220000Y-163520000D02*
X182810000Y-163520000D01*
X169310000Y-155160000D02*
X169310000Y-148750000D01*
X173150000Y-144910000D02*
X176710000Y-144910000D01*
X169310000Y-148750000D02*
X173150000Y-144910000D01*
X168370000Y-146270000D02*
X171530000Y-143110000D01*
X171530000Y-143110000D02*
X176700000Y-143110000D01*
X167500000Y-150530000D02*
X168230000Y-149800000D01*
X168230000Y-149800000D02*
X168370000Y-149660000D01*
X168370000Y-149660000D02*
X168370000Y-146270000D01*
X167500000Y-152590000D02*
X167500000Y-150530000D01*
X167500000Y-152590000D02*
X167500000Y-154450000D01*
X185720000Y-164650000D02*
X186770000Y-163600000D01*
X169800000Y-164650000D02*
X168750000Y-163600000D01*
X175280000Y-164650000D02*
X184460000Y-164650000D01*
X175280000Y-164650000D02*
X169800000Y-164650000D01*
X184460000Y-164650000D02*
X185720000Y-164650000D01*
X169190000Y-180260000D02*
X170020000Y-181090000D01*
X183830000Y-145730000D02*
X183830000Y-145300000D01*
X179755000Y-144570000D02*
X173090000Y-151235000D01*
X169190000Y-176170000D02*
X169190000Y-178660000D01*
X169190000Y-178660000D02*
X169190000Y-180260000D01*
X164975000Y-160625000D02*
X164975000Y-171955000D01*
X183830000Y-145300000D02*
X183100000Y-144570000D01*
X183100000Y-144570000D02*
X179755000Y-144570000D01*
X173090000Y-151235000D02*
X173090000Y-156980000D01*
X166125000Y-159475000D02*
X164975000Y-160625000D01*
X164975000Y-171955000D02*
X169190000Y-176170000D01*
X173090000Y-156980000D02*
X170595000Y-159475000D01*
X170595000Y-159475000D02*
X166125000Y-159475000D01*
X175590000Y-146790000D02*
X170810000Y-151570000D01*
X170810000Y-151570000D02*
X170810000Y-156410000D01*
X172450000Y-185120000D02*
X173600000Y-185120000D01*
X163250000Y-172430000D02*
X167730000Y-176910000D01*
X167730000Y-178800000D02*
X167730000Y-180400000D01*
X167730000Y-176910000D02*
X167730000Y-178800000D01*
X164700000Y-158125000D02*
X163250000Y-159575000D01*
X170810000Y-156410000D02*
X169095000Y-158125000D01*
X169095000Y-158125000D02*
X164700000Y-158125000D01*
X163250000Y-159575000D02*
X163250000Y-172430000D01*
X172160000Y-184830000D02*
X172450000Y-185120000D01*
X167730000Y-180400000D02*
X172160000Y-184830000D01*
X166630000Y-148680000D02*
X166630000Y-143520000D01*
X179320000Y-141660000D02*
X181060000Y-141660000D01*
X164975000Y-154225000D02*
X164975000Y-150335000D01*
X166630000Y-143520000D02*
X168490000Y-141660000D01*
X184240000Y-144840000D02*
X187560000Y-144840000D01*
X166490000Y-148820000D02*
X166630000Y-148680000D01*
X181060000Y-141660000D02*
X183440000Y-144040000D01*
X183440000Y-144040000D02*
X184240000Y-144840000D01*
X164975000Y-150335000D02*
X166490000Y-148820000D01*
X164975000Y-154225000D02*
X164975000Y-155675000D01*
X168490000Y-141660000D02*
X179320000Y-141660000D01*
M02*
