%TF.GenerationSoftware,KiCad,Pcbnew,6.0.6-3a73a75311~116~ubuntu20.04.1*%
%TF.CreationDate,2022-07-25T10:06:13-07:00*%
%TF.ProjectId,rover_controller,726f7665-725f-4636-9f6e-74726f6c6c65,rev?*%
%TF.SameCoordinates,Original*%
%TF.FileFunction,Soldermask,Top*%
%TF.FilePolarity,Negative*%
%FSLAX46Y46*%
G04 Gerber Fmt 4.6, Leading zero omitted, Abs format (unit mm)*
G04 Created by KiCad (PCBNEW 6.0.6-3a73a75311~116~ubuntu20.04.1) date 2022-07-25 10:06:13*
%MOMM*%
%LPD*%
G01*
G04 APERTURE LIST*
G04 Aperture macros list*
%AMRoundRect*
0 Rectangle with rounded corners*
0 $1 Rounding radius*
0 $2 $3 $4 $5 $6 $7 $8 $9 X,Y pos of 4 corners*
0 Add a 4 corners polygon primitive as box body*
4,1,4,$2,$3,$4,$5,$6,$7,$8,$9,$2,$3,0*
0 Add four circle primitives for the rounded corners*
1,1,$1+$1,$2,$3*
1,1,$1+$1,$4,$5*
1,1,$1+$1,$6,$7*
1,1,$1+$1,$8,$9*
0 Add four rect primitives between the rounded corners*
20,1,$1+$1,$2,$3,$4,$5,0*
20,1,$1+$1,$4,$5,$6,$7,0*
20,1,$1+$1,$6,$7,$8,$9,0*
20,1,$1+$1,$8,$9,$2,$3,0*%
G04 Aperture macros list end*
%ADD10RoundRect,0.250000X-0.337500X-0.475000X0.337500X-0.475000X0.337500X0.475000X-0.337500X0.475000X0*%
%ADD11R,1.000000X1.000000*%
%ADD12O,1.000000X1.000000*%
%ADD13RoundRect,0.150000X-0.150000X0.512500X-0.150000X-0.512500X0.150000X-0.512500X0.150000X0.512500X0*%
%ADD14RoundRect,0.150000X-0.587500X-0.150000X0.587500X-0.150000X0.587500X0.150000X-0.587500X0.150000X0*%
%ADD15RoundRect,0.237500X0.237500X-0.300000X0.237500X0.300000X-0.237500X0.300000X-0.237500X-0.300000X0*%
%ADD16RoundRect,0.250000X-0.625000X0.400000X-0.625000X-0.400000X0.625000X-0.400000X0.625000X0.400000X0*%
%ADD17RoundRect,0.237500X0.250000X0.237500X-0.250000X0.237500X-0.250000X-0.237500X0.250000X-0.237500X0*%
%ADD18R,0.889000X5.588000*%
%ADD19R,1.651000X5.588000*%
%ADD20RoundRect,0.150000X-0.150000X0.587500X-0.150000X-0.587500X0.150000X-0.587500X0.150000X0.587500X0*%
%ADD21RoundRect,0.155000X0.212500X0.155000X-0.212500X0.155000X-0.212500X-0.155000X0.212500X-0.155000X0*%
%ADD22RoundRect,0.250000X-0.650000X0.412500X-0.650000X-0.412500X0.650000X-0.412500X0.650000X0.412500X0*%
%ADD23RoundRect,0.237500X-0.250000X-0.237500X0.250000X-0.237500X0.250000X0.237500X-0.250000X0.237500X0*%
%ADD24C,0.900000*%
%ADD25C,8.600000*%
%ADD26RoundRect,0.150000X0.587500X0.150000X-0.587500X0.150000X-0.587500X-0.150000X0.587500X-0.150000X0*%
%ADD27RoundRect,0.237500X-0.287500X-0.237500X0.287500X-0.237500X0.287500X0.237500X-0.287500X0.237500X0*%
%ADD28RoundRect,0.250000X-0.350000X-0.450000X0.350000X-0.450000X0.350000X0.450000X-0.350000X0.450000X0*%
%ADD29RoundRect,0.237500X-0.237500X0.250000X-0.237500X-0.250000X0.237500X-0.250000X0.237500X0.250000X0*%
%ADD30R,0.450000X1.380000*%
%ADD31R,1.425000X1.550000*%
%ADD32R,1.800000X1.900000*%
%ADD33R,1.650000X1.300000*%
%ADD34R,1.000000X1.900000*%
%ADD35R,0.600000X0.450000*%
%ADD36RoundRect,0.250000X0.450000X-0.350000X0.450000X0.350000X-0.450000X0.350000X-0.450000X-0.350000X0*%
%ADD37RoundRect,0.250000X0.337500X0.475000X-0.337500X0.475000X-0.337500X-0.475000X0.337500X-0.475000X0*%
%ADD38R,0.900000X1.000000*%
%ADD39R,1.700000X0.550000*%
%ADD40RoundRect,0.155000X-0.155000X0.212500X-0.155000X-0.212500X0.155000X-0.212500X0.155000X0.212500X0*%
%ADD41R,1.700000X1.700000*%
%ADD42O,1.700000X1.700000*%
%ADD43R,1.200000X3.000000*%
%ADD44RoundRect,0.237500X-0.300000X-0.237500X0.300000X-0.237500X0.300000X0.237500X-0.300000X0.237500X0*%
%ADD45R,2.000000X1.500000*%
%ADD46R,2.000000X3.800000*%
%ADD47RoundRect,0.250000X0.650000X-0.412500X0.650000X0.412500X-0.650000X0.412500X-0.650000X-0.412500X0*%
%ADD48RoundRect,0.237500X0.300000X0.237500X-0.300000X0.237500X-0.300000X-0.237500X0.300000X-0.237500X0*%
%ADD49R,0.900000X2.000000*%
%ADD50R,2.000000X0.900000*%
%ADD51R,5.000000X5.000000*%
%ADD52RoundRect,0.250000X0.350000X0.450000X-0.350000X0.450000X-0.350000X-0.450000X0.350000X-0.450000X0*%
%ADD53RoundRect,0.237500X-0.237500X0.300000X-0.237500X-0.300000X0.237500X-0.300000X0.237500X0.300000X0*%
%ADD54RoundRect,0.062500X-0.350000X-0.062500X0.350000X-0.062500X0.350000X0.062500X-0.350000X0.062500X0*%
%ADD55RoundRect,0.062500X-0.062500X-0.350000X0.062500X-0.350000X0.062500X0.350000X-0.062500X0.350000X0*%
%ADD56R,2.600000X2.600000*%
G04 APERTURE END LIST*
D10*
X216532500Y-188510000D03*
X218607500Y-188510000D03*
D11*
X190295000Y-164005000D03*
D12*
X191565000Y-164005000D03*
X192835000Y-164005000D03*
X194105000Y-164005000D03*
X195375000Y-164005000D03*
X196645000Y-164005000D03*
X197915000Y-164005000D03*
X199185000Y-164005000D03*
X200455000Y-164005000D03*
D13*
X172450000Y-149362500D03*
X171500000Y-149362500D03*
X170550000Y-149362500D03*
X170550000Y-151637500D03*
X171500000Y-151637500D03*
X172450000Y-151637500D03*
D14*
X176732500Y-183370000D03*
X176732500Y-185270000D03*
X178607500Y-184320000D03*
D15*
X181590000Y-193172500D03*
X181590000Y-191447500D03*
D16*
X219320000Y-150220000D03*
X219320000Y-153320000D03*
D17*
X186922500Y-149360000D03*
X185097500Y-149360000D03*
X197607500Y-161460000D03*
X195782500Y-161460000D03*
D18*
X206680000Y-190130000D03*
D19*
X202555040Y-190130000D03*
X210804960Y-190130000D03*
D20*
X212520000Y-148200000D03*
X210620000Y-148200000D03*
X211570000Y-150075000D03*
D21*
X178487500Y-150590000D03*
X177352500Y-150590000D03*
D22*
X215110000Y-152605000D03*
X215110000Y-155730000D03*
D17*
X162787500Y-152725000D03*
X160962500Y-152725000D03*
D23*
X181927500Y-152500000D03*
X183752500Y-152500000D03*
D24*
X227780419Y-148780419D03*
X227780419Y-144219581D03*
X228725000Y-146500000D03*
X225500000Y-149725000D03*
X222275000Y-146500000D03*
X223219581Y-144219581D03*
X225500000Y-143275000D03*
X223219581Y-148780419D03*
D25*
X225500000Y-146500000D03*
D17*
X191712500Y-161430000D03*
X189887500Y-161430000D03*
D23*
X178175000Y-143110000D03*
X180000000Y-143110000D03*
D26*
X170977500Y-185280000D03*
X170977500Y-183380000D03*
X169102500Y-184330000D03*
D27*
X157325000Y-182900000D03*
X159075000Y-182900000D03*
D24*
X164525000Y-146500000D03*
X161300000Y-149725000D03*
X159019581Y-148780419D03*
X161300000Y-143275000D03*
X163580419Y-148780419D03*
X158075000Y-146500000D03*
D25*
X161300000Y-146500000D03*
D24*
X163580419Y-144219581D03*
X159019581Y-144219581D03*
D23*
X178175000Y-144910000D03*
X180000000Y-144910000D03*
D24*
X227780419Y-191380419D03*
X222275000Y-189100000D03*
X225500000Y-185875000D03*
D25*
X225500000Y-189100000D03*
D24*
X223219581Y-191380419D03*
X225500000Y-192325000D03*
X227780419Y-186819581D03*
X228725000Y-189100000D03*
X223219581Y-186819581D03*
D15*
X195400000Y-193192500D03*
X195400000Y-191467500D03*
D28*
X172850000Y-181600000D03*
X174850000Y-181600000D03*
D29*
X189570000Y-148367500D03*
X189570000Y-150192500D03*
D30*
X172500000Y-145760000D03*
X171850000Y-145760000D03*
X171200000Y-145760000D03*
X170550000Y-145760000D03*
X169900000Y-145760000D03*
D31*
X173687500Y-145675000D03*
D32*
X172350000Y-143100000D03*
D33*
X167825000Y-143100000D03*
D34*
X169650000Y-143100000D03*
D33*
X174575000Y-143100000D03*
D31*
X168712500Y-145675000D03*
D17*
X162812500Y-182925000D03*
X160987500Y-182925000D03*
D35*
X214330000Y-150220000D03*
X216430000Y-150220000D03*
D36*
X167090000Y-180470000D03*
X167090000Y-178470000D03*
D37*
X165207500Y-180120000D03*
X163132500Y-180120000D03*
D11*
X190295000Y-181785000D03*
D12*
X191565000Y-181785000D03*
X192835000Y-181785000D03*
X194105000Y-181785000D03*
X195375000Y-181785000D03*
X196645000Y-181785000D03*
X197915000Y-181785000D03*
D38*
X189490000Y-192960000D03*
X193590000Y-192960000D03*
X193590000Y-191360000D03*
X189490000Y-191360000D03*
D39*
X191540000Y-193585000D03*
D40*
X180250000Y-152310000D03*
X180250000Y-153445000D03*
D41*
X229410000Y-152315000D03*
D42*
X229410000Y-154855000D03*
D41*
X203715000Y-144190000D03*
D42*
X206255000Y-144190000D03*
X208795000Y-144190000D03*
X211335000Y-144190000D03*
X213875000Y-144190000D03*
D43*
X220680000Y-169130000D03*
X218680000Y-169130000D03*
X216680000Y-169130000D03*
X214680000Y-169130000D03*
X212680000Y-169130000D03*
X210680000Y-169130000D03*
X208680000Y-169130000D03*
X206680000Y-169130000D03*
X206680000Y-184130000D03*
X208680000Y-184130000D03*
X210680000Y-184130000D03*
X212680000Y-184130000D03*
X214680000Y-184130000D03*
X216680000Y-184130000D03*
X218680000Y-184130000D03*
X220680000Y-184130000D03*
D44*
X214677500Y-186700000D03*
X216402500Y-186700000D03*
D45*
X212060000Y-157167500D03*
X212060000Y-154867500D03*
D46*
X205760000Y-154867500D03*
D45*
X212060000Y-152567500D03*
D47*
X203135000Y-155330000D03*
X203135000Y-152205000D03*
D48*
X188180000Y-180940000D03*
X186455000Y-180940000D03*
D41*
X178225000Y-191870000D03*
D42*
X175685000Y-191870000D03*
X173145000Y-191870000D03*
X170605000Y-191870000D03*
X168065000Y-191870000D03*
D37*
X188145000Y-184450000D03*
X186070000Y-184450000D03*
D41*
X229410000Y-183200000D03*
X189910000Y-144180000D03*
D42*
X192450000Y-144180000D03*
X194990000Y-144180000D03*
X197530000Y-144180000D03*
X200070000Y-144180000D03*
D44*
X169667500Y-178370000D03*
X171392500Y-178370000D03*
D49*
X163695000Y-176300000D03*
X164965000Y-176300000D03*
X166235000Y-176300000D03*
X167505000Y-176300000D03*
X168775000Y-176300000D03*
X170045000Y-176300000D03*
X171315000Y-176300000D03*
X172585000Y-176300000D03*
X173855000Y-176300000D03*
X175125000Y-176300000D03*
X176395000Y-176300000D03*
X177665000Y-176300000D03*
X178935000Y-176300000D03*
X180205000Y-176300000D03*
D50*
X181205000Y-173515000D03*
X181205000Y-172245000D03*
X181205000Y-170975000D03*
X181205000Y-169705000D03*
X181205000Y-168435000D03*
X181205000Y-167165000D03*
X181205000Y-165895000D03*
X181205000Y-164625000D03*
X181205000Y-163355000D03*
X181205000Y-162085000D03*
D49*
X180205000Y-159300000D03*
X178935000Y-159300000D03*
X177665000Y-159300000D03*
X176395000Y-159300000D03*
X175125000Y-159300000D03*
X173855000Y-159300000D03*
X172585000Y-159300000D03*
X171315000Y-159300000D03*
X170045000Y-159300000D03*
X168775000Y-159300000D03*
X167505000Y-159300000D03*
X166235000Y-159300000D03*
X164965000Y-159300000D03*
X163695000Y-159300000D03*
D51*
X171195000Y-168800000D03*
D52*
X174850000Y-187050000D03*
X172850000Y-187050000D03*
D53*
X178920000Y-152587500D03*
X178920000Y-154312500D03*
D27*
X157300000Y-152700000D03*
X159050000Y-152700000D03*
D41*
X184290000Y-142580000D03*
D24*
X158075000Y-189100000D03*
X163580419Y-191380419D03*
X159019581Y-186819581D03*
X164525000Y-189100000D03*
X163580419Y-186819581D03*
X161300000Y-185875000D03*
X161300000Y-192325000D03*
X159019581Y-191380419D03*
D25*
X161300000Y-189100000D03*
D54*
X179762500Y-147860000D03*
X179762500Y-148360000D03*
X179762500Y-148860000D03*
X179762500Y-149360000D03*
X179762500Y-149860000D03*
X179762500Y-150360000D03*
D55*
X180450000Y-151047500D03*
X180950000Y-151047500D03*
X181450000Y-151047500D03*
X181950000Y-151047500D03*
X182450000Y-151047500D03*
X182950000Y-151047500D03*
D54*
X183637500Y-150360000D03*
X183637500Y-149860000D03*
X183637500Y-149360000D03*
X183637500Y-148860000D03*
X183637500Y-148360000D03*
X183637500Y-147860000D03*
D55*
X182950000Y-147172500D03*
X182450000Y-147172500D03*
X181950000Y-147172500D03*
X181450000Y-147172500D03*
X180950000Y-147172500D03*
X180450000Y-147172500D03*
D56*
X181700000Y-149110000D03*
D53*
X176340000Y-152587500D03*
X176340000Y-154312500D03*
D48*
X188162500Y-182590000D03*
X186437500Y-182590000D03*
D17*
X188340000Y-154400000D03*
X186515000Y-154400000D03*
D38*
X187400000Y-192972500D03*
X183300000Y-192972500D03*
X183300000Y-191372500D03*
X187400000Y-191372500D03*
D39*
X185350000Y-193597500D03*
D48*
X164802500Y-178350000D03*
X163077500Y-178350000D03*
M02*
