M48
; DRILL file {KiCad 6.0.6-3a73a75311~116~ubuntu20.04.1} date Mon 25 Jul 2022 10:07:14 AM PDT
; FORMAT={-:-/ absolute / metric / decimal}
; #@! TF.CreationDate,2022-07-25T10:07:14-07:00
; #@! TF.GenerationSoftware,Kicad,Pcbnew,6.0.6-3a73a75311~116~ubuntu20.04.1
; #@! TF.FileFunction,Plated,1,4,PTH
FMAT,2
METRIC
; #@! TA.AperFunction,Plated,PTH,ViaDrill
T1C0.400
; #@! TA.AperFunction,Plated,PTH,ComponentDrill
T2C0.600
; #@! TA.AperFunction,Plated,PTH,ComponentDrill
T3C0.700
; #@! TA.AperFunction,Plated,PTH,ComponentDrill
T4C1.000
; #@! TA.AperFunction,Plated,PTH,ComponentDrill
T5C4.300
%
G90
G05
T1
X157.3Y-151.625
X157.35Y-183.975
X162.41Y-181.22
X162.6Y-174.55
X162.6Y-176.2
X162.65Y-158.075
X162.85Y-183.83
X163.675Y-157.625
X163.68Y-181.25
X163.75Y-174.525
X164.65Y-182.47
X164.67Y-183.66
X164.67Y-184.89
X164.679Y-181.208
X164.975Y-155.675
X165.7Y-181.24
X165.74Y-182.48
X165.75Y-183.66
X165.75Y-184.89
X167.09Y-181.65
X167.5Y-154.45
X168.1Y-165.8
X168.1Y-167.025
X168.1Y-168.7
X168.1Y-170.4
X168.1Y-171.8
X168.75Y-163.6
X169.31Y-155.16
X169.458Y-147.049
X169.65Y-165.7
X169.65Y-171.95
X170.02Y-181.09
X170.6Y-189.6
X171.1Y-165.65
X171.2Y-171.95
X171.48Y-148.08
X171.58Y-162.88
X172.2Y-179.12
X172.55Y-165.65
X172.8Y-171.95
X173.14Y-189.64
X173.6Y-185.12
X173.925Y-165.7
X174.3Y-167.0
X174.3Y-168.6
X174.3Y-170.3
X174.3Y-171.7
X174.5Y-183.37
X175.26Y-154.23
X175.27Y-152.98
X175.38Y-151.82
X175.59Y-146.79
X175.95Y-161.45
X176.15Y-189.62
X176.49Y-150.44
X176.7Y-143.11
X176.71Y-144.91
X177.81Y-154.61
X177.84Y-152.32
X177.84Y-153.23
X177.99Y-168.15
X178.61Y-146.89
X178.75Y-147.91
X178.94Y-177.94
X178.95Y-170.4
X179.6Y-147.136
X179.65Y-189.28
X180.26Y-154.43
X180.375Y-174.425
X180.63Y-193.17
X180.97Y-177.92
X181.26Y-159.1
X181.975Y-174.475
X183.63Y-167.3
X183.78Y-169.44
X183.83Y-145.73
X183.98Y-174.97
X184.12Y-192.6
X184.68Y-151.74
X184.73Y-153.12
X185.06Y-183.88
X185.08Y-185.09
X185.18Y-162.17
X185.34Y-192.91
X185.47Y-182.6
X185.51Y-181.29
X186.36Y-166.91
X186.52Y-192.6
X186.77Y-163.6
X186.91Y-148.29
X186.96Y-150.44
X187.56Y-144.84
X187.787Y-153.39
X188.68Y-187.22
X188.927Y-153.39
X189.56Y-184.73
X189.57Y-183.57
X190.34Y-192.59
X190.83Y-184.73
X190.84Y-183.57
X191.56Y-192.9
X192.15Y-184.72
X192.16Y-183.56
X192.74Y-192.59
X192.85Y-161.43
X196.35Y-193.18
X198.745Y-161.435
X200.88Y-188.755
X200.88Y-191.055
X201.08Y-193.255
X201.48Y-186.655
X201.56Y-155.368
X201.92Y-151.18
X201.93Y-153.27
X202.26Y-156.667
X202.73Y-149.33
X203.15Y-151.14
X203.19Y-153.26
X203.58Y-186.655
X203.98Y-193.255
X204.06Y-156.667
X204.18Y-188.68
X204.18Y-190.955
X205.06Y-152.368
X205.06Y-157.368
X206.03Y-166.955
X206.26Y-157.368
X206.36Y-152.368
X206.67Y-171.23
X207.205Y-166.955
X207.66Y-152.767
X207.66Y-154.067
X207.66Y-155.267
X207.66Y-156.468
X208.155Y-182.03
X209.06Y-154.067
X209.06Y-155.267
X209.18Y-188.755
X209.18Y-191.055
X209.23Y-182.005
X209.38Y-193.255
X209.78Y-186.655
X210.46Y-154.067
X210.46Y-155.267
X210.46Y-157.368
X210.56Y-158.767
X211.66Y-158.767
X211.88Y-186.655
X212.28Y-193.255
X212.48Y-188.68
X212.48Y-190.955
X212.76Y-158.767
X213.76Y-157.067
X213.76Y-158.767
X214.27Y-187.58
X214.27Y-188.59
X214.29Y-189.69
X214.32Y-190.95
X215.06Y-157.067
X215.16Y-154.468
X215.52Y-187.61
X215.54Y-188.59
X215.57Y-189.71
X215.6Y-190.97
X216.36Y-157.067
X216.66Y-154.468
X216.66Y-155.767
X216.87Y-189.71
X216.9Y-190.97
X217.63Y-186.79
X218.22Y-154.21
X218.55Y-186.81
X219.3Y-152.25
X219.32Y-154.4
X219.47Y-186.81
X219.93Y-166.93
X220.43Y-154.18
X220.68Y-171.28
X221.355Y-166.93
T2
X158.075Y-146.5
X158.075Y-189.1
X159.02Y-144.22
X159.02Y-148.78
X159.02Y-186.82
X159.02Y-191.38
X161.3Y-143.275
X161.3Y-149.725
X161.3Y-185.875
X161.3Y-192.325
X163.58Y-144.22
X163.58Y-148.78
X163.58Y-186.82
X163.58Y-191.38
X164.525Y-146.5
X164.525Y-189.1
X222.275Y-146.5
X222.275Y-189.1
X223.22Y-144.22
X223.22Y-148.78
X223.22Y-186.82
X223.22Y-191.38
X225.5Y-143.275
X225.5Y-149.725
X225.5Y-185.875
X225.5Y-192.325
X227.78Y-144.22
X227.78Y-148.78
X227.78Y-186.82
X227.78Y-191.38
X228.725Y-146.5
X228.725Y-189.1
T3
X190.295Y-164.005
X190.295Y-181.785
X191.565Y-164.005
X191.565Y-181.785
X192.835Y-164.005
X192.835Y-181.785
X194.105Y-164.005
X194.105Y-181.785
X195.375Y-164.005
X195.375Y-181.785
X196.645Y-164.005
X196.645Y-181.785
X197.915Y-164.005
X197.915Y-181.785
X199.185Y-164.005
X200.455Y-164.005
T4
X168.065Y-191.87
X170.605Y-191.87
X173.145Y-191.87
X175.685Y-191.87
X178.225Y-191.87
X184.29Y-142.58
X189.91Y-144.18
X192.45Y-144.18
X194.99Y-144.18
X197.53Y-144.18
X200.07Y-144.18
X203.715Y-144.19
X206.255Y-144.19
X208.795Y-144.19
X211.335Y-144.19
X213.875Y-144.19
X229.41Y-152.315
X229.41Y-154.855
X229.41Y-183.2
T5
X161.3Y-146.5
X161.3Y-189.1
X225.5Y-146.5
X225.5Y-189.1
T0
M30
