%TF.GenerationSoftware,KiCad,Pcbnew,6.0.6-3a73a75311~116~ubuntu20.04.1*%
%TF.CreationDate,2022-07-25T10:06:13-07:00*%
%TF.ProjectId,rover_controller,726f7665-725f-4636-9f6e-74726f6c6c65,rev?*%
%TF.SameCoordinates,Original*%
%TF.FileFunction,Copper,L2,Inr*%
%TF.FilePolarity,Positive*%
%FSLAX46Y46*%
G04 Gerber Fmt 4.6, Leading zero omitted, Abs format (unit mm)*
G04 Created by KiCad (PCBNEW 6.0.6-3a73a75311~116~ubuntu20.04.1) date 2022-07-25 10:06:13*
%MOMM*%
%LPD*%
G01*
G04 APERTURE LIST*
%TA.AperFunction,ComponentPad*%
%ADD10R,1.000000X1.000000*%
%TD*%
%TA.AperFunction,ComponentPad*%
%ADD11O,1.000000X1.000000*%
%TD*%
%TA.AperFunction,ComponentPad*%
%ADD12C,0.900000*%
%TD*%
%TA.AperFunction,ComponentPad*%
%ADD13C,8.600000*%
%TD*%
%TA.AperFunction,ComponentPad*%
%ADD14R,1.700000X1.700000*%
%TD*%
%TA.AperFunction,ComponentPad*%
%ADD15O,1.700000X1.700000*%
%TD*%
%TA.AperFunction,ViaPad*%
%ADD16C,0.800000*%
%TD*%
G04 APERTURE END LIST*
D10*
X190295000Y-164005000D03*
D11*
X191565000Y-164005000D03*
X192835000Y-164005000D03*
X194105000Y-164005000D03*
X195375000Y-164005000D03*
X196645000Y-164005000D03*
X197915000Y-164005000D03*
X199185000Y-164005000D03*
X200455000Y-164005000D03*
D12*
X227780419Y-148780419D03*
X227780419Y-144219581D03*
X228725000Y-146500000D03*
X225500000Y-149725000D03*
X222275000Y-146500000D03*
X223219581Y-144219581D03*
X225500000Y-143275000D03*
X223219581Y-148780419D03*
D13*
X225500000Y-146500000D03*
D12*
X164525000Y-146500000D03*
X161300000Y-149725000D03*
X159019581Y-148780419D03*
X161300000Y-143275000D03*
X163580419Y-148780419D03*
X158075000Y-146500000D03*
D13*
X161300000Y-146500000D03*
D12*
X163580419Y-144219581D03*
X159019581Y-144219581D03*
X227780419Y-191380419D03*
X222275000Y-189100000D03*
X225500000Y-185875000D03*
D13*
X225500000Y-189100000D03*
D12*
X223219581Y-191380419D03*
X225500000Y-192325000D03*
X227780419Y-186819581D03*
X228725000Y-189100000D03*
X223219581Y-186819581D03*
D10*
X190295000Y-181785000D03*
D11*
X191565000Y-181785000D03*
X192835000Y-181785000D03*
X194105000Y-181785000D03*
X195375000Y-181785000D03*
X196645000Y-181785000D03*
X197915000Y-181785000D03*
D14*
X229410000Y-152315000D03*
D15*
X229410000Y-154855000D03*
D14*
X203715000Y-144190000D03*
D15*
X206255000Y-144190000D03*
X208795000Y-144190000D03*
X211335000Y-144190000D03*
X213875000Y-144190000D03*
D14*
X178225000Y-191870000D03*
D15*
X175685000Y-191870000D03*
X173145000Y-191870000D03*
X170605000Y-191870000D03*
X168065000Y-191870000D03*
D14*
X229410000Y-183200000D03*
X189910000Y-144180000D03*
D15*
X192450000Y-144180000D03*
X194990000Y-144180000D03*
X197530000Y-144180000D03*
X200070000Y-144180000D03*
D14*
X184290000Y-142580000D03*
D12*
X158075000Y-189100000D03*
X163580419Y-191380419D03*
X159019581Y-186819581D03*
X164525000Y-189100000D03*
X163580419Y-186819581D03*
X161300000Y-185875000D03*
X161300000Y-192325000D03*
X159019581Y-191380419D03*
D13*
X161300000Y-189100000D03*
D16*
X187787500Y-153390000D03*
X208155000Y-182030000D03*
X209380000Y-193255080D03*
X173925000Y-165700000D03*
X168100000Y-170400000D03*
X213760000Y-158767500D03*
X171480000Y-148080000D03*
X180630000Y-193170000D03*
X209230000Y-182005000D03*
X218550000Y-186810000D03*
X216660000Y-154467500D03*
X185470000Y-182600000D03*
X216360000Y-157067500D03*
X168100000Y-168700000D03*
X184120000Y-192600000D03*
X212480000Y-188680080D03*
X220680000Y-171280000D03*
X203150000Y-151140000D03*
X174300000Y-171700000D03*
X162600000Y-174550000D03*
X211880000Y-186655080D03*
X215160000Y-154467500D03*
X200880000Y-188755080D03*
X180375000Y-174425000D03*
X212480000Y-190955080D03*
X209780000Y-186655080D03*
X203580000Y-186655080D03*
X157350000Y-183975000D03*
X175260000Y-154230000D03*
X209180000Y-191055080D03*
X174300000Y-168600000D03*
X192740000Y-192590000D03*
X196350000Y-193180000D03*
X163750000Y-174525000D03*
X162650000Y-158075000D03*
X181975000Y-174475000D03*
X212760000Y-158767500D03*
X176490000Y-150440000D03*
X204180000Y-188680080D03*
X185080000Y-185090000D03*
X172800000Y-171950000D03*
X219470000Y-186810000D03*
X172200000Y-179120000D03*
X169650000Y-165700000D03*
X206670000Y-171230000D03*
X201920000Y-151180000D03*
X177810000Y-154610000D03*
X186910000Y-148290000D03*
X211660000Y-158767500D03*
X171100000Y-165650000D03*
X190340000Y-192590000D03*
X191560000Y-192900000D03*
X162600000Y-176200000D03*
X213760000Y-157067500D03*
X206030000Y-166955000D03*
X200880000Y-191055080D03*
X174300000Y-170300000D03*
X219930000Y-166930000D03*
X218220000Y-154210000D03*
X219300000Y-152250000D03*
X179600000Y-147135500D03*
X174300000Y-167000000D03*
X178610000Y-146890000D03*
X209180000Y-188755080D03*
X180260000Y-154430000D03*
X157300000Y-151625000D03*
X169457534Y-147048618D03*
X186960000Y-150440000D03*
X172550000Y-165650000D03*
X186520000Y-192600000D03*
X188927500Y-153390000D03*
X201080000Y-193255080D03*
X217630000Y-186790000D03*
X212280000Y-193255080D03*
X203190000Y-153260000D03*
X215060000Y-157067500D03*
X210460000Y-157367500D03*
X221355000Y-166930000D03*
X162410000Y-181220000D03*
X185340000Y-192910000D03*
X220430000Y-154180000D03*
X185510000Y-181290000D03*
X210560000Y-158767500D03*
X169650000Y-171950000D03*
X185060000Y-183880000D03*
X168100000Y-171800000D03*
X201930000Y-153270000D03*
X219320000Y-154400000D03*
X168100000Y-165800000D03*
X207205000Y-166955000D03*
X216660000Y-155767500D03*
X178750500Y-147910000D03*
X203980000Y-193255080D03*
X168100000Y-167025000D03*
X201480000Y-186655080D03*
X204180000Y-190955080D03*
X163675000Y-157625000D03*
X163680000Y-181250000D03*
X171200000Y-171950000D03*
X175380000Y-151820000D03*
X214270000Y-188590000D03*
X205060000Y-152367500D03*
X215520000Y-187610000D03*
X215540000Y-188590000D03*
X215600000Y-190970000D03*
X177840000Y-153230000D03*
X162850000Y-183830000D03*
X209060000Y-154067500D03*
X164670000Y-184890000D03*
X189560000Y-184730000D03*
X164650000Y-182470000D03*
X192150000Y-184720000D03*
X198745000Y-161435000D03*
X192160000Y-183560000D03*
X165740000Y-182480000D03*
X189570000Y-183570000D03*
X202260000Y-156667500D03*
X177840000Y-152320000D03*
X216870000Y-189710000D03*
X164678636Y-181208390D03*
X175270000Y-152980000D03*
X214270000Y-187580000D03*
X184680000Y-151740000D03*
X215570000Y-189710000D03*
X190840000Y-183570000D03*
X207660000Y-154067500D03*
X207660000Y-155267500D03*
X190830000Y-184730000D03*
X210460000Y-155267500D03*
X205060000Y-157367500D03*
X204060000Y-156667500D03*
X216900000Y-190970000D03*
X164670000Y-183660000D03*
X201560000Y-155367500D03*
X206260000Y-157367500D03*
X207660000Y-152767500D03*
X165700000Y-181240000D03*
X210460000Y-154067500D03*
X214320000Y-190950000D03*
X167090000Y-181650000D03*
X165750000Y-183660000D03*
X209060000Y-155267500D03*
X165750000Y-184890000D03*
X192850000Y-161430000D03*
X206360000Y-152367500D03*
X184730000Y-153120000D03*
X214290000Y-189690000D03*
X207660000Y-156467500D03*
X175950000Y-161450000D03*
X202730000Y-149330000D03*
X177990000Y-168150000D03*
X183630000Y-167300000D03*
X178950000Y-170400000D03*
X183780000Y-169440000D03*
X178940000Y-177940000D03*
X170600000Y-189600000D03*
X180970000Y-177920000D03*
X173140000Y-189640000D03*
X176150000Y-189620000D03*
X183980000Y-174970000D03*
X179650000Y-189280000D03*
X186360000Y-166910000D03*
X188680000Y-187220000D03*
X174500000Y-183370000D03*
X181260000Y-159100000D03*
X185180000Y-162170000D03*
X171580000Y-162880000D03*
X169310000Y-155160000D03*
X176710000Y-144910000D03*
X167500000Y-154450000D03*
X176700000Y-143110000D03*
X168750000Y-163600000D03*
X186770000Y-163600000D03*
X170020000Y-181090000D03*
X183830000Y-145730000D03*
X175590000Y-146790000D03*
X173600000Y-185120000D03*
X164975000Y-155675000D03*
X187560000Y-144840000D03*
%TA.AperFunction,Conductor*%
G36*
X160088725Y-141628502D02*
G01*
X160135218Y-141682158D01*
X160145322Y-141752432D01*
X160115828Y-141817012D01*
X160052258Y-141856459D01*
X159887547Y-141899209D01*
X159882181Y-141900861D01*
X159484153Y-142042983D01*
X159478965Y-142045100D01*
X159095133Y-142222050D01*
X159090164Y-142224614D01*
X158723581Y-142434984D01*
X158718848Y-142437987D01*
X158372420Y-142680109D01*
X158367979Y-142683517D01*
X158096476Y-142911739D01*
X158088031Y-142924456D01*
X158094139Y-142934929D01*
X158493493Y-143334283D01*
X158948075Y-143788866D01*
X159019580Y-143860371D01*
X159904878Y-144745668D01*
X161287188Y-146127978D01*
X161301132Y-146135592D01*
X161302965Y-146135461D01*
X161309580Y-146131210D01*
X162695121Y-144745669D01*
X163580419Y-143860372D01*
X163651924Y-143788867D01*
X164106506Y-143334284D01*
X164330790Y-143110000D01*
X175786496Y-143110000D01*
X175787186Y-143116565D01*
X175805611Y-143291866D01*
X175806458Y-143299928D01*
X175865473Y-143481556D01*
X175868776Y-143487278D01*
X175868777Y-143487279D01*
X175896814Y-143535840D01*
X175960960Y-143646944D01*
X176088747Y-143788866D01*
X176243248Y-143901118D01*
X176249231Y-143903782D01*
X176298212Y-143955154D01*
X176311646Y-144024868D01*
X176285257Y-144090778D01*
X176253084Y-144118657D01*
X176253248Y-144118882D01*
X176098747Y-144231134D01*
X176094326Y-144236044D01*
X176094325Y-144236045D01*
X176002334Y-144338212D01*
X175970960Y-144373056D01*
X175875473Y-144538444D01*
X175816458Y-144720072D01*
X175815768Y-144726633D01*
X175815768Y-144726635D01*
X175801769Y-144859834D01*
X175796496Y-144910000D01*
X175797186Y-144916565D01*
X175815140Y-145087384D01*
X175816458Y-145099928D01*
X175875473Y-145281556D01*
X175878776Y-145287278D01*
X175878777Y-145287279D01*
X175892803Y-145311573D01*
X175970960Y-145446944D01*
X175975378Y-145451851D01*
X175975379Y-145451852D01*
X176057087Y-145542598D01*
X176098747Y-145588866D01*
X176253248Y-145701118D01*
X176259276Y-145703802D01*
X176259278Y-145703803D01*
X176359670Y-145748500D01*
X176427712Y-145778794D01*
X176521113Y-145798647D01*
X176608056Y-145817128D01*
X176608061Y-145817128D01*
X176614513Y-145818500D01*
X176805487Y-145818500D01*
X176811939Y-145817128D01*
X176811944Y-145817128D01*
X176898887Y-145798647D01*
X176992288Y-145778794D01*
X177060330Y-145748500D01*
X177101882Y-145730000D01*
X182916496Y-145730000D01*
X182936458Y-145919928D01*
X182995473Y-146101556D01*
X183090960Y-146266944D01*
X183218747Y-146408866D01*
X183317843Y-146480864D01*
X183348263Y-146502965D01*
X183373248Y-146521118D01*
X183379276Y-146523802D01*
X183379278Y-146523803D01*
X183541681Y-146596109D01*
X183547712Y-146598794D01*
X183641112Y-146618647D01*
X183728056Y-146637128D01*
X183728061Y-146637128D01*
X183734513Y-146638500D01*
X183925487Y-146638500D01*
X183931939Y-146637128D01*
X183931944Y-146637128D01*
X184018888Y-146618647D01*
X184112288Y-146598794D01*
X184118319Y-146596109D01*
X184280722Y-146523803D01*
X184280724Y-146523802D01*
X184286752Y-146521118D01*
X184311738Y-146502965D01*
X184342157Y-146480864D01*
X184441253Y-146408866D01*
X184470103Y-146376825D01*
X220688855Y-146376825D01*
X220696600Y-146799410D01*
X220696950Y-146804976D01*
X220742231Y-147225208D01*
X220743078Y-147230746D01*
X220825535Y-147645286D01*
X220826864Y-147650698D01*
X220945852Y-148056289D01*
X220947658Y-148061564D01*
X221102219Y-148454948D01*
X221104501Y-148460072D01*
X221293416Y-148838150D01*
X221296140Y-148843043D01*
X221517917Y-149202833D01*
X221521068Y-149207469D01*
X221773955Y-149546127D01*
X221777488Y-149550444D01*
X221913222Y-149701988D01*
X221926717Y-149710351D01*
X221936128Y-149704662D01*
X222334283Y-149306507D01*
X223219581Y-148421210D01*
X223229378Y-148411413D01*
X223745668Y-147895122D01*
X225127978Y-146512812D01*
X225135592Y-146498868D01*
X225135461Y-146497035D01*
X225131210Y-146490420D01*
X223745669Y-145104879D01*
X222860372Y-144219581D01*
X222334284Y-143693494D01*
X221935561Y-143294771D01*
X221922253Y-143287504D01*
X221912214Y-143294626D01*
X221668223Y-143587994D01*
X221664828Y-143592467D01*
X221424528Y-143940152D01*
X221421549Y-143944902D01*
X221213106Y-144312575D01*
X221210562Y-144317568D01*
X221035629Y-144702312D01*
X221033538Y-144707511D01*
X220893498Y-145106290D01*
X220891877Y-145111659D01*
X220787840Y-145521303D01*
X220786706Y-145526776D01*
X220719496Y-145944054D01*
X220718851Y-145949632D01*
X220689002Y-146371204D01*
X220688855Y-146376825D01*
X184470103Y-146376825D01*
X184569040Y-146266944D01*
X184664527Y-146101556D01*
X184723542Y-145919928D01*
X184743504Y-145730000D01*
X184734568Y-145644976D01*
X184724232Y-145546635D01*
X184724232Y-145546633D01*
X184723542Y-145540072D01*
X184664527Y-145358444D01*
X184647203Y-145328437D01*
X184608522Y-145261441D01*
X184569040Y-145193056D01*
X184538977Y-145159667D01*
X184445675Y-145056045D01*
X184445674Y-145056044D01*
X184441253Y-145051134D01*
X184286752Y-144938882D01*
X184280724Y-144936198D01*
X184280722Y-144936197D01*
X184118319Y-144863891D01*
X184118318Y-144863891D01*
X184112288Y-144861206D01*
X184012522Y-144840000D01*
X186646496Y-144840000D01*
X186647186Y-144846565D01*
X186656607Y-144936197D01*
X186666458Y-145029928D01*
X186725473Y-145211556D01*
X186728776Y-145217278D01*
X186728777Y-145217279D01*
X186730034Y-145219456D01*
X186820960Y-145376944D01*
X186825378Y-145381851D01*
X186825379Y-145381852D01*
X186944325Y-145513955D01*
X186948747Y-145518866D01*
X187103248Y-145631118D01*
X187109276Y-145633802D01*
X187109278Y-145633803D01*
X187251754Y-145697237D01*
X187277712Y-145708794D01*
X187371112Y-145728647D01*
X187458056Y-145747128D01*
X187458061Y-145747128D01*
X187464513Y-145748500D01*
X187655487Y-145748500D01*
X187661939Y-145747128D01*
X187661944Y-145747128D01*
X187748888Y-145728647D01*
X187842288Y-145708794D01*
X187868246Y-145697237D01*
X188010722Y-145633803D01*
X188010724Y-145633802D01*
X188016752Y-145631118D01*
X188171253Y-145518866D01*
X188175675Y-145513955D01*
X188294621Y-145381852D01*
X188294622Y-145381851D01*
X188299040Y-145376944D01*
X188376562Y-145242672D01*
X188427944Y-145193679D01*
X188497658Y-145180243D01*
X188563569Y-145206629D01*
X188603663Y-145261440D01*
X188609385Y-145276705D01*
X188696739Y-145393261D01*
X188813295Y-145480615D01*
X188949684Y-145531745D01*
X189011866Y-145538500D01*
X190808134Y-145538500D01*
X190870316Y-145531745D01*
X191006705Y-145480615D01*
X191123261Y-145393261D01*
X191210615Y-145276705D01*
X191220450Y-145250471D01*
X191254598Y-145159382D01*
X191297240Y-145102618D01*
X191363802Y-145077918D01*
X191433150Y-145093126D01*
X191467817Y-145121114D01*
X191496250Y-145153938D01*
X191668126Y-145296632D01*
X191861000Y-145409338D01*
X191865825Y-145411180D01*
X191865826Y-145411181D01*
X191938612Y-145438975D01*
X192069692Y-145489030D01*
X192074760Y-145490061D01*
X192074763Y-145490062D01*
X192182017Y-145511883D01*
X192288597Y-145533567D01*
X192293772Y-145533757D01*
X192293774Y-145533757D01*
X192506673Y-145541564D01*
X192506677Y-145541564D01*
X192511837Y-145541753D01*
X192516957Y-145541097D01*
X192516959Y-145541097D01*
X192728288Y-145514025D01*
X192728289Y-145514025D01*
X192733416Y-145513368D01*
X192781207Y-145499030D01*
X192942429Y-145450661D01*
X192942434Y-145450659D01*
X192947384Y-145449174D01*
X193147994Y-145350896D01*
X193329860Y-145221173D01*
X193352338Y-145198774D01*
X193478061Y-145073489D01*
X193488096Y-145063489D01*
X193618453Y-144882077D01*
X193619776Y-144883028D01*
X193666645Y-144839857D01*
X193736580Y-144827625D01*
X193802026Y-144855144D01*
X193829875Y-144886994D01*
X193889987Y-144985088D01*
X194036250Y-145153938D01*
X194208126Y-145296632D01*
X194401000Y-145409338D01*
X194405825Y-145411180D01*
X194405826Y-145411181D01*
X194478612Y-145438975D01*
X194609692Y-145489030D01*
X194614760Y-145490061D01*
X194614763Y-145490062D01*
X194722017Y-145511883D01*
X194828597Y-145533567D01*
X194833772Y-145533757D01*
X194833774Y-145533757D01*
X195046673Y-145541564D01*
X195046677Y-145541564D01*
X195051837Y-145541753D01*
X195056957Y-145541097D01*
X195056959Y-145541097D01*
X195268288Y-145514025D01*
X195268289Y-145514025D01*
X195273416Y-145513368D01*
X195321207Y-145499030D01*
X195482429Y-145450661D01*
X195482434Y-145450659D01*
X195487384Y-145449174D01*
X195687994Y-145350896D01*
X195869860Y-145221173D01*
X195892338Y-145198774D01*
X196018061Y-145073489D01*
X196028096Y-145063489D01*
X196158453Y-144882077D01*
X196159776Y-144883028D01*
X196206645Y-144839857D01*
X196276580Y-144827625D01*
X196342026Y-144855144D01*
X196369875Y-144886994D01*
X196429987Y-144985088D01*
X196576250Y-145153938D01*
X196748126Y-145296632D01*
X196941000Y-145409338D01*
X196945825Y-145411180D01*
X196945826Y-145411181D01*
X197018612Y-145438975D01*
X197149692Y-145489030D01*
X197154760Y-145490061D01*
X197154763Y-145490062D01*
X197262017Y-145511883D01*
X197368597Y-145533567D01*
X197373772Y-145533757D01*
X197373774Y-145533757D01*
X197586673Y-145541564D01*
X197586677Y-145541564D01*
X197591837Y-145541753D01*
X197596957Y-145541097D01*
X197596959Y-145541097D01*
X197808288Y-145514025D01*
X197808289Y-145514025D01*
X197813416Y-145513368D01*
X197861207Y-145499030D01*
X198022429Y-145450661D01*
X198022434Y-145450659D01*
X198027384Y-145449174D01*
X198227994Y-145350896D01*
X198409860Y-145221173D01*
X198432338Y-145198774D01*
X198558061Y-145073489D01*
X198568096Y-145063489D01*
X198698453Y-144882077D01*
X198699776Y-144883028D01*
X198746645Y-144839857D01*
X198816580Y-144827625D01*
X198882026Y-144855144D01*
X198909875Y-144886994D01*
X198969987Y-144985088D01*
X199116250Y-145153938D01*
X199288126Y-145296632D01*
X199481000Y-145409338D01*
X199485825Y-145411180D01*
X199485826Y-145411181D01*
X199558612Y-145438975D01*
X199689692Y-145489030D01*
X199694760Y-145490061D01*
X199694763Y-145490062D01*
X199802017Y-145511883D01*
X199908597Y-145533567D01*
X199913772Y-145533757D01*
X199913774Y-145533757D01*
X200126673Y-145541564D01*
X200126677Y-145541564D01*
X200131837Y-145541753D01*
X200136957Y-145541097D01*
X200136959Y-145541097D01*
X200348288Y-145514025D01*
X200348289Y-145514025D01*
X200353416Y-145513368D01*
X200401207Y-145499030D01*
X200562429Y-145450661D01*
X200562434Y-145450659D01*
X200567384Y-145449174D01*
X200767994Y-145350896D01*
X200949860Y-145221173D01*
X200972338Y-145198774D01*
X201083365Y-145088134D01*
X202356500Y-145088134D01*
X202363255Y-145150316D01*
X202414385Y-145286705D01*
X202501739Y-145403261D01*
X202618295Y-145490615D01*
X202754684Y-145541745D01*
X202816866Y-145548500D01*
X204613134Y-145548500D01*
X204675316Y-145541745D01*
X204811705Y-145490615D01*
X204928261Y-145403261D01*
X205015615Y-145286705D01*
X205032122Y-145242672D01*
X205059798Y-145168848D01*
X205102440Y-145112084D01*
X205169001Y-145087384D01*
X205238350Y-145102592D01*
X205273017Y-145130580D01*
X205298218Y-145159673D01*
X205305580Y-145166883D01*
X205469434Y-145302916D01*
X205477881Y-145308831D01*
X205661756Y-145416279D01*
X205671042Y-145420729D01*
X205870001Y-145496703D01*
X205879899Y-145499579D01*
X205983250Y-145520606D01*
X205997299Y-145519410D01*
X206001000Y-145509065D01*
X206001000Y-145508517D01*
X206509000Y-145508517D01*
X206513064Y-145522359D01*
X206526478Y-145524393D01*
X206533184Y-145523534D01*
X206543262Y-145521392D01*
X206747255Y-145460191D01*
X206756842Y-145456433D01*
X206948095Y-145362739D01*
X206956945Y-145357464D01*
X207130328Y-145233792D01*
X207138200Y-145227139D01*
X207289052Y-145076812D01*
X207295730Y-145068965D01*
X207423022Y-144891819D01*
X207424147Y-144892627D01*
X207471669Y-144848876D01*
X207541607Y-144836661D01*
X207607046Y-144864197D01*
X207634870Y-144896028D01*
X207692690Y-144990383D01*
X207698777Y-144998699D01*
X207838213Y-145159667D01*
X207845580Y-145166883D01*
X208009434Y-145302916D01*
X208017881Y-145308831D01*
X208201756Y-145416279D01*
X208211042Y-145420729D01*
X208410001Y-145496703D01*
X208419899Y-145499579D01*
X208523250Y-145520606D01*
X208537299Y-145519410D01*
X208541000Y-145509065D01*
X208541000Y-145508517D01*
X209049000Y-145508517D01*
X209053064Y-145522359D01*
X209066478Y-145524393D01*
X209073184Y-145523534D01*
X209083262Y-145521392D01*
X209287255Y-145460191D01*
X209296842Y-145456433D01*
X209488095Y-145362739D01*
X209496945Y-145357464D01*
X209670328Y-145233792D01*
X209678200Y-145227139D01*
X209829052Y-145076812D01*
X209835730Y-145068965D01*
X209963022Y-144891819D01*
X209964147Y-144892627D01*
X210011669Y-144848876D01*
X210081607Y-144836661D01*
X210147046Y-144864197D01*
X210174870Y-144896028D01*
X210232690Y-144990383D01*
X210238777Y-144998699D01*
X210378213Y-145159667D01*
X210385580Y-145166883D01*
X210549434Y-145302916D01*
X210557881Y-145308831D01*
X210741756Y-145416279D01*
X210751042Y-145420729D01*
X210950001Y-145496703D01*
X210959899Y-145499579D01*
X211063250Y-145520606D01*
X211077299Y-145519410D01*
X211081000Y-145509065D01*
X211081000Y-145508517D01*
X211589000Y-145508517D01*
X211593064Y-145522359D01*
X211606478Y-145524393D01*
X211613184Y-145523534D01*
X211623262Y-145521392D01*
X211827255Y-145460191D01*
X211836842Y-145456433D01*
X212028095Y-145362739D01*
X212036945Y-145357464D01*
X212210328Y-145233792D01*
X212218200Y-145227139D01*
X212369052Y-145076812D01*
X212375730Y-145068965D01*
X212503022Y-144891819D01*
X212504279Y-144892722D01*
X212551373Y-144849362D01*
X212621311Y-144837145D01*
X212686751Y-144864678D01*
X212714579Y-144896511D01*
X212774987Y-144995088D01*
X212921250Y-145163938D01*
X213057079Y-145276705D01*
X213083865Y-145298943D01*
X213093126Y-145306632D01*
X213286000Y-145419338D01*
X213494692Y-145499030D01*
X213499760Y-145500061D01*
X213499763Y-145500062D01*
X213565165Y-145513368D01*
X213713597Y-145543567D01*
X213718772Y-145543757D01*
X213718774Y-145543757D01*
X213931673Y-145551564D01*
X213931677Y-145551564D01*
X213936837Y-145551753D01*
X213941957Y-145551097D01*
X213941959Y-145551097D01*
X214153288Y-145524025D01*
X214153289Y-145524025D01*
X214158416Y-145523368D01*
X214163366Y-145521883D01*
X214367429Y-145460661D01*
X214367434Y-145460659D01*
X214372384Y-145459174D01*
X214572994Y-145360896D01*
X214754860Y-145231173D01*
X214758686Y-145227361D01*
X214899152Y-145087384D01*
X214913096Y-145073489D01*
X214917661Y-145067137D01*
X215040435Y-144896277D01*
X215043453Y-144892077D01*
X215047926Y-144883028D01*
X215140136Y-144696453D01*
X215140137Y-144696451D01*
X215142430Y-144691811D01*
X215207370Y-144478069D01*
X215236529Y-144256590D01*
X215238156Y-144190000D01*
X215219852Y-143967361D01*
X215165431Y-143750702D01*
X215076354Y-143545840D01*
X214955014Y-143358277D01*
X214804670Y-143193051D01*
X214800619Y-143189852D01*
X214800615Y-143189848D01*
X214633414Y-143057800D01*
X214633410Y-143057798D01*
X214629359Y-143054598D01*
X214617045Y-143047800D01*
X214574144Y-143024118D01*
X214433789Y-142946638D01*
X214428920Y-142944914D01*
X214428916Y-142944912D01*
X214228087Y-142873795D01*
X214228083Y-142873794D01*
X214223212Y-142872069D01*
X214218119Y-142871162D01*
X214218116Y-142871161D01*
X214008373Y-142833800D01*
X214008367Y-142833799D01*
X214003284Y-142832894D01*
X213929452Y-142831992D01*
X213785081Y-142830228D01*
X213785079Y-142830228D01*
X213779911Y-142830165D01*
X213559091Y-142863955D01*
X213346756Y-142933357D01*
X213148607Y-143036507D01*
X213144474Y-143039610D01*
X213144471Y-143039612D01*
X212978305Y-143164373D01*
X212969965Y-143170635D01*
X212951605Y-143189848D01*
X212857135Y-143288705D01*
X212815629Y-143332138D01*
X212812715Y-143336410D01*
X212812714Y-143336411D01*
X212804620Y-143348277D01*
X212709337Y-143487957D01*
X212707898Y-143490066D01*
X212652987Y-143535069D01*
X212582462Y-143543240D01*
X212518715Y-143511986D01*
X212498018Y-143487502D01*
X212417426Y-143362926D01*
X212411136Y-143354757D01*
X212267806Y-143197240D01*
X212260273Y-143190215D01*
X212093139Y-143058222D01*
X212084552Y-143052517D01*
X211898117Y-142949599D01*
X211888705Y-142945369D01*
X211687959Y-142874280D01*
X211677988Y-142871646D01*
X211606837Y-142858972D01*
X211593540Y-142860432D01*
X211589000Y-142874989D01*
X211589000Y-145508517D01*
X211081000Y-145508517D01*
X211081000Y-144462115D01*
X211076525Y-144446876D01*
X211075135Y-144445671D01*
X211067452Y-144444000D01*
X209067115Y-144444000D01*
X209051876Y-144448475D01*
X209050671Y-144449865D01*
X209049000Y-144457548D01*
X209049000Y-145508517D01*
X208541000Y-145508517D01*
X208541000Y-144462115D01*
X208536525Y-144446876D01*
X208535135Y-144445671D01*
X208527452Y-144444000D01*
X206527115Y-144444000D01*
X206511876Y-144448475D01*
X206510671Y-144449865D01*
X206509000Y-144457548D01*
X206509000Y-145508517D01*
X206001000Y-145508517D01*
X206001000Y-143917885D01*
X206509000Y-143917885D01*
X206513475Y-143933124D01*
X206514865Y-143934329D01*
X206522548Y-143936000D01*
X208522885Y-143936000D01*
X208538124Y-143931525D01*
X208539329Y-143930135D01*
X208541000Y-143922452D01*
X208541000Y-143917885D01*
X209049000Y-143917885D01*
X209053475Y-143933124D01*
X209054865Y-143934329D01*
X209062548Y-143936000D01*
X211062885Y-143936000D01*
X211078124Y-143931525D01*
X211079329Y-143930135D01*
X211081000Y-143922452D01*
X211081000Y-142873102D01*
X211077082Y-142859758D01*
X211062806Y-142857771D01*
X211024324Y-142863660D01*
X211014288Y-142866051D01*
X210811868Y-142932212D01*
X210802359Y-142936209D01*
X210613463Y-143034542D01*
X210604738Y-143040036D01*
X210434433Y-143167905D01*
X210426726Y-143174748D01*
X210279590Y-143328717D01*
X210273104Y-143336727D01*
X210168193Y-143490521D01*
X210113282Y-143535524D01*
X210042757Y-143543695D01*
X209979010Y-143512441D01*
X209958313Y-143487957D01*
X209877427Y-143362926D01*
X209871136Y-143354757D01*
X209727806Y-143197240D01*
X209720273Y-143190215D01*
X209553139Y-143058222D01*
X209544552Y-143052517D01*
X209358117Y-142949599D01*
X209348705Y-142945369D01*
X209147959Y-142874280D01*
X209137988Y-142871646D01*
X209066837Y-142858972D01*
X209053540Y-142860432D01*
X209049000Y-142874989D01*
X209049000Y-143917885D01*
X208541000Y-143917885D01*
X208541000Y-142873102D01*
X208537082Y-142859758D01*
X208522806Y-142857771D01*
X208484324Y-142863660D01*
X208474288Y-142866051D01*
X208271868Y-142932212D01*
X208262359Y-142936209D01*
X208073463Y-143034542D01*
X208064738Y-143040036D01*
X207894433Y-143167905D01*
X207886726Y-143174748D01*
X207739590Y-143328717D01*
X207733104Y-143336727D01*
X207628193Y-143490521D01*
X207573282Y-143535524D01*
X207502757Y-143543695D01*
X207439010Y-143512441D01*
X207418313Y-143487957D01*
X207337427Y-143362926D01*
X207331136Y-143354757D01*
X207187806Y-143197240D01*
X207180273Y-143190215D01*
X207013139Y-143058222D01*
X207004552Y-143052517D01*
X206818117Y-142949599D01*
X206808705Y-142945369D01*
X206607959Y-142874280D01*
X206597988Y-142871646D01*
X206526837Y-142858972D01*
X206513540Y-142860432D01*
X206509000Y-142874989D01*
X206509000Y-143917885D01*
X206001000Y-143917885D01*
X206001000Y-142873102D01*
X205997082Y-142859758D01*
X205982806Y-142857771D01*
X205944324Y-142863660D01*
X205934288Y-142866051D01*
X205731868Y-142932212D01*
X205722359Y-142936209D01*
X205533463Y-143034542D01*
X205524738Y-143040036D01*
X205354433Y-143167905D01*
X205346726Y-143174748D01*
X205269478Y-143255584D01*
X205207954Y-143291014D01*
X205137042Y-143287557D01*
X205079255Y-143246311D01*
X205060402Y-143212763D01*
X205018767Y-143101703D01*
X205015615Y-143093295D01*
X204928261Y-142976739D01*
X204811705Y-142889385D01*
X204675316Y-142838255D01*
X204613134Y-142831500D01*
X202816866Y-142831500D01*
X202754684Y-142838255D01*
X202618295Y-142889385D01*
X202501739Y-142976739D01*
X202414385Y-143093295D01*
X202363255Y-143229684D01*
X202356500Y-143291866D01*
X202356500Y-145088134D01*
X201083365Y-145088134D01*
X201098061Y-145073489D01*
X201108096Y-145063489D01*
X201238453Y-144882077D01*
X201259320Y-144839857D01*
X201335136Y-144686453D01*
X201335137Y-144686451D01*
X201337430Y-144681811D01*
X201402370Y-144468069D01*
X201431529Y-144246590D01*
X201432189Y-144219581D01*
X201433074Y-144183365D01*
X201433074Y-144183361D01*
X201433156Y-144180000D01*
X201414852Y-143957361D01*
X201360431Y-143740702D01*
X201271354Y-143535840D01*
X201159291Y-143362617D01*
X201152822Y-143352617D01*
X201152820Y-143352614D01*
X201150014Y-143348277D01*
X200999670Y-143183051D01*
X200995619Y-143179852D01*
X200995615Y-143179848D01*
X200828414Y-143047800D01*
X200828410Y-143047798D01*
X200824359Y-143044598D01*
X200805375Y-143034118D01*
X200772136Y-143015769D01*
X200628789Y-142936638D01*
X200623920Y-142934914D01*
X200623916Y-142934912D01*
X200423087Y-142863795D01*
X200423083Y-142863794D01*
X200418212Y-142862069D01*
X200413119Y-142861162D01*
X200413116Y-142861161D01*
X200203373Y-142823800D01*
X200203367Y-142823799D01*
X200198284Y-142822894D01*
X200124452Y-142821992D01*
X199980081Y-142820228D01*
X199980079Y-142820228D01*
X199974911Y-142820165D01*
X199754091Y-142853955D01*
X199541756Y-142923357D01*
X199343607Y-143026507D01*
X199339474Y-143029610D01*
X199339471Y-143029612D01*
X199169100Y-143157530D01*
X199164965Y-143160635D01*
X199161393Y-143164373D01*
X199036782Y-143294771D01*
X199010629Y-143322138D01*
X198903201Y-143479621D01*
X198848293Y-143524621D01*
X198777768Y-143532792D01*
X198714021Y-143501538D01*
X198693324Y-143477054D01*
X198612822Y-143352617D01*
X198612820Y-143352614D01*
X198610014Y-143348277D01*
X198459670Y-143183051D01*
X198455619Y-143179852D01*
X198455615Y-143179848D01*
X198288414Y-143047800D01*
X198288410Y-143047798D01*
X198284359Y-143044598D01*
X198265375Y-143034118D01*
X198232136Y-143015769D01*
X198088789Y-142936638D01*
X198083920Y-142934914D01*
X198083916Y-142934912D01*
X197883087Y-142863795D01*
X197883083Y-142863794D01*
X197878212Y-142862069D01*
X197873119Y-142861162D01*
X197873116Y-142861161D01*
X197663373Y-142823800D01*
X197663367Y-142823799D01*
X197658284Y-142822894D01*
X197584452Y-142821992D01*
X197440081Y-142820228D01*
X197440079Y-142820228D01*
X197434911Y-142820165D01*
X197214091Y-142853955D01*
X197001756Y-142923357D01*
X196803607Y-143026507D01*
X196799474Y-143029610D01*
X196799471Y-143029612D01*
X196629100Y-143157530D01*
X196624965Y-143160635D01*
X196621393Y-143164373D01*
X196496782Y-143294771D01*
X196470629Y-143322138D01*
X196363201Y-143479621D01*
X196308293Y-143524621D01*
X196237768Y-143532792D01*
X196174021Y-143501538D01*
X196153324Y-143477054D01*
X196072822Y-143352617D01*
X196072820Y-143352614D01*
X196070014Y-143348277D01*
X195919670Y-143183051D01*
X195915619Y-143179852D01*
X195915615Y-143179848D01*
X195748414Y-143047800D01*
X195748410Y-143047798D01*
X195744359Y-143044598D01*
X195725375Y-143034118D01*
X195692136Y-143015769D01*
X195548789Y-142936638D01*
X195543920Y-142934914D01*
X195543916Y-142934912D01*
X195343087Y-142863795D01*
X195343083Y-142863794D01*
X195338212Y-142862069D01*
X195333119Y-142861162D01*
X195333116Y-142861161D01*
X195123373Y-142823800D01*
X195123367Y-142823799D01*
X195118284Y-142822894D01*
X195044452Y-142821992D01*
X194900081Y-142820228D01*
X194900079Y-142820228D01*
X194894911Y-142820165D01*
X194674091Y-142853955D01*
X194461756Y-142923357D01*
X194263607Y-143026507D01*
X194259474Y-143029610D01*
X194259471Y-143029612D01*
X194089100Y-143157530D01*
X194084965Y-143160635D01*
X194081393Y-143164373D01*
X193956782Y-143294771D01*
X193930629Y-143322138D01*
X193823201Y-143479621D01*
X193768293Y-143524621D01*
X193697768Y-143532792D01*
X193634021Y-143501538D01*
X193613324Y-143477054D01*
X193532822Y-143352617D01*
X193532820Y-143352614D01*
X193530014Y-143348277D01*
X193379670Y-143183051D01*
X193375619Y-143179852D01*
X193375615Y-143179848D01*
X193208414Y-143047800D01*
X193208410Y-143047798D01*
X193204359Y-143044598D01*
X193185375Y-143034118D01*
X193152136Y-143015769D01*
X193008789Y-142936638D01*
X193003920Y-142934914D01*
X193003916Y-142934912D01*
X192803087Y-142863795D01*
X192803083Y-142863794D01*
X192798212Y-142862069D01*
X192793119Y-142861162D01*
X192793116Y-142861161D01*
X192583373Y-142823800D01*
X192583367Y-142823799D01*
X192578284Y-142822894D01*
X192504452Y-142821992D01*
X192360081Y-142820228D01*
X192360079Y-142820228D01*
X192354911Y-142820165D01*
X192134091Y-142853955D01*
X191921756Y-142923357D01*
X191723607Y-143026507D01*
X191719474Y-143029610D01*
X191719471Y-143029612D01*
X191549100Y-143157530D01*
X191544965Y-143160635D01*
X191488537Y-143219684D01*
X191464283Y-143245064D01*
X191402759Y-143280494D01*
X191331846Y-143277037D01*
X191274060Y-143235791D01*
X191255207Y-143202243D01*
X191213767Y-143091703D01*
X191210615Y-143083295D01*
X191123261Y-142966739D01*
X191006705Y-142879385D01*
X190870316Y-142828255D01*
X190808134Y-142821500D01*
X189011866Y-142821500D01*
X188949684Y-142828255D01*
X188813295Y-142879385D01*
X188696739Y-142966739D01*
X188609385Y-143083295D01*
X188558255Y-143219684D01*
X188551500Y-143281866D01*
X188551500Y-144270091D01*
X188531498Y-144338212D01*
X188477842Y-144384705D01*
X188407568Y-144394809D01*
X188342988Y-144365315D01*
X188316381Y-144333092D01*
X188299040Y-144303056D01*
X188260190Y-144259908D01*
X188175675Y-144166045D01*
X188175674Y-144166044D01*
X188171253Y-144161134D01*
X188072157Y-144089136D01*
X188022094Y-144052763D01*
X188022093Y-144052762D01*
X188016752Y-144048882D01*
X188010724Y-144046198D01*
X188010722Y-144046197D01*
X187848319Y-143973891D01*
X187848318Y-143973891D01*
X187842288Y-143971206D01*
X187748887Y-143951353D01*
X187661944Y-143932872D01*
X187661939Y-143932872D01*
X187655487Y-143931500D01*
X187464513Y-143931500D01*
X187458061Y-143932872D01*
X187458056Y-143932872D01*
X187371113Y-143951353D01*
X187277712Y-143971206D01*
X187271682Y-143973891D01*
X187271681Y-143973891D01*
X187109278Y-144046197D01*
X187109276Y-144046198D01*
X187103248Y-144048882D01*
X187097907Y-144052762D01*
X187097906Y-144052763D01*
X187047843Y-144089136D01*
X186948747Y-144161134D01*
X186944326Y-144166044D01*
X186944325Y-144166045D01*
X186859811Y-144259908D01*
X186820960Y-144303056D01*
X186803619Y-144333092D01*
X186736200Y-144449865D01*
X186725473Y-144468444D01*
X186666458Y-144650072D01*
X186665768Y-144656633D01*
X186665768Y-144656635D01*
X186648440Y-144821500D01*
X186646496Y-144840000D01*
X184012522Y-144840000D01*
X183931944Y-144822872D01*
X183931939Y-144822872D01*
X183925487Y-144821500D01*
X183734513Y-144821500D01*
X183728061Y-144822872D01*
X183728056Y-144822872D01*
X183647478Y-144840000D01*
X183547712Y-144861206D01*
X183541682Y-144863891D01*
X183541681Y-144863891D01*
X183379278Y-144936197D01*
X183379276Y-144936198D01*
X183373248Y-144938882D01*
X183218747Y-145051134D01*
X183214326Y-145056044D01*
X183214325Y-145056045D01*
X183121024Y-145159667D01*
X183090960Y-145193056D01*
X183051478Y-145261441D01*
X183012798Y-145328437D01*
X182995473Y-145358444D01*
X182936458Y-145540072D01*
X182935768Y-145546633D01*
X182935768Y-145546635D01*
X182925432Y-145644976D01*
X182916496Y-145730000D01*
X177101882Y-145730000D01*
X177160722Y-145703803D01*
X177160724Y-145703802D01*
X177166752Y-145701118D01*
X177321253Y-145588866D01*
X177362913Y-145542598D01*
X177444621Y-145451852D01*
X177444622Y-145451851D01*
X177449040Y-145446944D01*
X177527197Y-145311573D01*
X177541223Y-145287279D01*
X177541224Y-145287278D01*
X177544527Y-145281556D01*
X177603542Y-145099928D01*
X177604861Y-145087384D01*
X177622814Y-144916565D01*
X177623504Y-144910000D01*
X177618231Y-144859834D01*
X177604232Y-144726635D01*
X177604232Y-144726633D01*
X177603542Y-144720072D01*
X177544527Y-144538444D01*
X177449040Y-144373056D01*
X177417667Y-144338212D01*
X177325675Y-144236045D01*
X177325674Y-144236044D01*
X177321253Y-144231134D01*
X177166752Y-144118882D01*
X177160769Y-144116218D01*
X177111788Y-144064846D01*
X177098354Y-143995132D01*
X177124743Y-143929222D01*
X177156916Y-143901343D01*
X177156752Y-143901118D01*
X177311253Y-143788866D01*
X177439040Y-143646944D01*
X177503186Y-143535840D01*
X177531223Y-143487279D01*
X177531224Y-143487278D01*
X177534527Y-143481556D01*
X177593542Y-143299928D01*
X177594390Y-143291866D01*
X177612814Y-143116565D01*
X177613504Y-143110000D01*
X177599498Y-142976739D01*
X177594232Y-142926635D01*
X177594232Y-142926633D01*
X177593542Y-142920072D01*
X177534527Y-142738444D01*
X177439040Y-142573056D01*
X177317424Y-142437987D01*
X177315675Y-142436045D01*
X177315674Y-142436044D01*
X177311253Y-142431134D01*
X177156752Y-142318882D01*
X177150724Y-142316198D01*
X177150722Y-142316197D01*
X176988319Y-142243891D01*
X176988318Y-142243891D01*
X176982288Y-142241206D01*
X176888887Y-142221353D01*
X176801944Y-142202872D01*
X176801939Y-142202872D01*
X176795487Y-142201500D01*
X176604513Y-142201500D01*
X176598061Y-142202872D01*
X176598056Y-142202872D01*
X176511113Y-142221353D01*
X176417712Y-142241206D01*
X176411682Y-142243891D01*
X176411681Y-142243891D01*
X176249278Y-142316197D01*
X176249276Y-142316198D01*
X176243248Y-142318882D01*
X176088747Y-142431134D01*
X176084326Y-142436044D01*
X176084325Y-142436045D01*
X176082577Y-142437987D01*
X175960960Y-142573056D01*
X175865473Y-142738444D01*
X175806458Y-142920072D01*
X175805768Y-142926633D01*
X175805768Y-142926635D01*
X175800502Y-142976739D01*
X175786496Y-143110000D01*
X164330790Y-143110000D01*
X164502754Y-142938036D01*
X164510316Y-142924187D01*
X164503987Y-142914962D01*
X164330928Y-142761582D01*
X164326561Y-142758046D01*
X163986600Y-142506948D01*
X163981947Y-142503821D01*
X163620995Y-142283926D01*
X163616094Y-142281232D01*
X163237027Y-142094297D01*
X163231904Y-142092048D01*
X162837707Y-141939545D01*
X162832417Y-141937765D01*
X162546780Y-141855589D01*
X162486844Y-141817532D01*
X162456998Y-141753114D01*
X162466718Y-141682786D01*
X162512916Y-141628876D01*
X162581616Y-141608500D01*
X182805500Y-141608500D01*
X182873621Y-141628502D01*
X182920114Y-141682158D01*
X182931500Y-141734500D01*
X182931500Y-143478134D01*
X182938255Y-143540316D01*
X182989385Y-143676705D01*
X183076739Y-143793261D01*
X183193295Y-143880615D01*
X183329684Y-143931745D01*
X183391866Y-143938500D01*
X185188134Y-143938500D01*
X185250316Y-143931745D01*
X185386705Y-143880615D01*
X185503261Y-143793261D01*
X185590615Y-143676705D01*
X185641745Y-143540316D01*
X185648500Y-143478134D01*
X185648500Y-141734500D01*
X185668502Y-141666379D01*
X185722158Y-141619886D01*
X185774500Y-141608500D01*
X224220604Y-141608500D01*
X224288725Y-141628502D01*
X224335218Y-141682158D01*
X224345322Y-141752432D01*
X224315828Y-141817012D01*
X224252258Y-141856459D01*
X224087547Y-141899209D01*
X224082181Y-141900861D01*
X223684153Y-142042983D01*
X223678965Y-142045100D01*
X223295133Y-142222050D01*
X223290164Y-142224614D01*
X222923581Y-142434984D01*
X222918848Y-142437987D01*
X222572420Y-142680109D01*
X222567979Y-142683517D01*
X222296476Y-142911739D01*
X222288031Y-142924456D01*
X222294139Y-142934929D01*
X222693493Y-143334283D01*
X223148075Y-143788866D01*
X223219580Y-143860371D01*
X224104878Y-144745668D01*
X225487188Y-146127978D01*
X225501132Y-146135592D01*
X225502965Y-146135461D01*
X225509580Y-146131210D01*
X226895121Y-144745669D01*
X227780419Y-143860372D01*
X227851924Y-143788867D01*
X228306506Y-143334284D01*
X228702754Y-142938036D01*
X228710316Y-142924187D01*
X228703987Y-142914962D01*
X228530928Y-142761582D01*
X228526561Y-142758046D01*
X228186600Y-142506948D01*
X228181947Y-142503821D01*
X227820995Y-142283926D01*
X227816094Y-142281232D01*
X227437027Y-142094297D01*
X227431904Y-142092048D01*
X227037707Y-141939545D01*
X227032417Y-141937765D01*
X226746780Y-141855589D01*
X226686844Y-141817532D01*
X226656998Y-141753114D01*
X226666718Y-141682786D01*
X226712916Y-141628876D01*
X226781616Y-141608500D01*
X230265500Y-141608500D01*
X230333621Y-141628502D01*
X230380114Y-141682158D01*
X230391500Y-141734500D01*
X230391500Y-145203719D01*
X230371498Y-145271840D01*
X230317842Y-145318333D01*
X230247568Y-145328437D01*
X230182988Y-145298943D01*
X230144604Y-145239217D01*
X230143627Y-145235455D01*
X230143624Y-145235456D01*
X230141410Y-145227361D01*
X230011847Y-144825025D01*
X230009910Y-144819815D01*
X229845098Y-144430599D01*
X229842683Y-144425536D01*
X229643936Y-144052535D01*
X229641085Y-144047713D01*
X229409974Y-143693865D01*
X229406692Y-143689297D01*
X229145030Y-143357380D01*
X229141382Y-143353155D01*
X229088103Y-143296715D01*
X229074389Y-143288705D01*
X229073517Y-143288742D01*
X229065438Y-143293772D01*
X228665717Y-143693493D01*
X227780419Y-144578790D01*
X227254332Y-145104878D01*
X225872022Y-146487188D01*
X225864408Y-146501132D01*
X225864539Y-146502965D01*
X225868790Y-146509580D01*
X227254331Y-147895121D01*
X227770621Y-148411412D01*
X227780418Y-148421209D01*
X228665716Y-149306506D01*
X229062142Y-149702932D01*
X229075903Y-149710446D01*
X229085263Y-149703989D01*
X229254244Y-149511303D01*
X229257744Y-149506935D01*
X229507073Y-149165645D01*
X229510168Y-149160987D01*
X229728160Y-148798903D01*
X229730841Y-148793964D01*
X229915779Y-148413946D01*
X229918014Y-148408780D01*
X230068442Y-148013815D01*
X230070201Y-148008496D01*
X230144231Y-147746003D01*
X230181972Y-147685869D01*
X230246233Y-147655686D01*
X230316612Y-147665036D01*
X230370762Y-147710952D01*
X230391500Y-147780204D01*
X230391500Y-150830500D01*
X230371498Y-150898621D01*
X230317842Y-150945114D01*
X230265500Y-150956500D01*
X228511866Y-150956500D01*
X228449684Y-150963255D01*
X228313295Y-151014385D01*
X228196739Y-151101739D01*
X228109385Y-151218295D01*
X228058255Y-151354684D01*
X228051500Y-151416866D01*
X228051500Y-153213134D01*
X228058255Y-153275316D01*
X228109385Y-153411705D01*
X228196739Y-153528261D01*
X228313295Y-153615615D01*
X228321704Y-153618767D01*
X228321705Y-153618768D01*
X228430451Y-153659535D01*
X228487216Y-153702176D01*
X228511916Y-153768738D01*
X228496709Y-153838087D01*
X228477316Y-153864568D01*
X228357292Y-153990166D01*
X228350629Y-153997138D01*
X228224743Y-154181680D01*
X228222564Y-154186375D01*
X228136046Y-154372763D01*
X228130688Y-154384305D01*
X228070989Y-154599570D01*
X228047251Y-154821695D01*
X228047548Y-154826848D01*
X228047548Y-154826851D01*
X228051060Y-154887763D01*
X228060110Y-155044715D01*
X228061247Y-155049761D01*
X228061248Y-155049767D01*
X228081146Y-155138056D01*
X228109222Y-155262639D01*
X228193266Y-155469616D01*
X228206759Y-155491635D01*
X228300606Y-155644779D01*
X228309987Y-155660088D01*
X228456250Y-155828938D01*
X228628126Y-155971632D01*
X228821000Y-156084338D01*
X229029692Y-156164030D01*
X229034760Y-156165061D01*
X229034763Y-156165062D01*
X229142017Y-156186883D01*
X229248597Y-156208567D01*
X229253772Y-156208757D01*
X229253774Y-156208757D01*
X229466673Y-156216564D01*
X229466677Y-156216564D01*
X229471837Y-156216753D01*
X229476957Y-156216097D01*
X229476959Y-156216097D01*
X229688288Y-156189025D01*
X229688289Y-156189025D01*
X229693416Y-156188368D01*
X229698366Y-156186883D01*
X229902429Y-156125661D01*
X229902434Y-156125659D01*
X229907384Y-156124174D01*
X230107994Y-156025896D01*
X230160234Y-155988634D01*
X230192332Y-155965739D01*
X230259406Y-155942465D01*
X230328414Y-155959149D01*
X230377448Y-156010493D01*
X230391500Y-156068318D01*
X230391500Y-181715500D01*
X230371498Y-181783621D01*
X230317842Y-181830114D01*
X230265500Y-181841500D01*
X228511866Y-181841500D01*
X228449684Y-181848255D01*
X228313295Y-181899385D01*
X228196739Y-181986739D01*
X228109385Y-182103295D01*
X228058255Y-182239684D01*
X228051500Y-182301866D01*
X228051500Y-184098134D01*
X228058255Y-184160316D01*
X228109385Y-184296705D01*
X228196739Y-184413261D01*
X228313295Y-184500615D01*
X228449684Y-184551745D01*
X228511866Y-184558500D01*
X230265500Y-184558500D01*
X230333621Y-184578502D01*
X230380114Y-184632158D01*
X230391500Y-184684500D01*
X230391500Y-187803719D01*
X230371498Y-187871840D01*
X230317842Y-187918333D01*
X230247568Y-187928437D01*
X230182988Y-187898943D01*
X230144604Y-187839217D01*
X230143627Y-187835455D01*
X230143624Y-187835456D01*
X230141410Y-187827361D01*
X230011847Y-187425025D01*
X230009910Y-187419815D01*
X229845098Y-187030599D01*
X229842683Y-187025536D01*
X229643936Y-186652535D01*
X229641085Y-186647713D01*
X229409974Y-186293865D01*
X229406692Y-186289297D01*
X229145030Y-185957380D01*
X229141382Y-185953155D01*
X229088103Y-185896715D01*
X229074389Y-185888705D01*
X229073517Y-185888742D01*
X229065438Y-185893772D01*
X228665717Y-186293493D01*
X227780419Y-187178790D01*
X227254332Y-187704878D01*
X225872022Y-189087188D01*
X225864408Y-189101132D01*
X225864539Y-189102965D01*
X225868790Y-189109580D01*
X227254331Y-190495121D01*
X227709209Y-190950000D01*
X227780418Y-191021209D01*
X228665716Y-191906506D01*
X229062142Y-192302932D01*
X229075903Y-192310446D01*
X229085263Y-192303989D01*
X229254244Y-192111303D01*
X229257744Y-192106935D01*
X229507073Y-191765645D01*
X229510168Y-191760987D01*
X229728160Y-191398903D01*
X229730841Y-191393964D01*
X229915779Y-191013946D01*
X229918014Y-191008780D01*
X230068442Y-190613815D01*
X230070201Y-190608496D01*
X230144231Y-190346003D01*
X230181972Y-190285869D01*
X230246233Y-190255686D01*
X230316612Y-190265036D01*
X230370762Y-190310952D01*
X230391500Y-190380204D01*
X230391500Y-193865500D01*
X230371498Y-193933621D01*
X230317842Y-193980114D01*
X230265500Y-193991500D01*
X226791654Y-193991500D01*
X226723533Y-193971498D01*
X226677040Y-193917842D01*
X226666936Y-193847568D01*
X226696430Y-193782988D01*
X226756156Y-193744604D01*
X226763203Y-193742754D01*
X226791542Y-193736185D01*
X226796929Y-193734681D01*
X227198567Y-193603018D01*
X227203784Y-193601046D01*
X227592126Y-193434202D01*
X227597169Y-193431764D01*
X227969131Y-193231063D01*
X227973935Y-193228188D01*
X228326563Y-192995231D01*
X228331126Y-192991916D01*
X228661658Y-192728529D01*
X228665873Y-192724852D01*
X228703823Y-192688649D01*
X228711763Y-192674890D01*
X228711713Y-192673843D01*
X228706822Y-192666032D01*
X228306507Y-192265717D01*
X227421210Y-191380419D01*
X226895122Y-190854332D01*
X225512812Y-189472022D01*
X225498868Y-189464408D01*
X225497035Y-189464539D01*
X225490420Y-189468790D01*
X224104879Y-190854331D01*
X223219581Y-191739628D01*
X222693494Y-192265716D01*
X222296736Y-192662474D01*
X222289122Y-192676418D01*
X222289171Y-192677110D01*
X222294617Y-192685274D01*
X222372268Y-192757812D01*
X222376507Y-192761433D01*
X222709802Y-193021363D01*
X222714359Y-193024602D01*
X223069448Y-193253880D01*
X223074250Y-193256686D01*
X223448316Y-193453491D01*
X223453374Y-193455871D01*
X223843435Y-193618638D01*
X223848690Y-193620561D01*
X224243318Y-193745365D01*
X224302236Y-193784977D01*
X224330386Y-193850154D01*
X224318829Y-193920204D01*
X224271236Y-193972886D01*
X224205324Y-193991500D01*
X162591654Y-193991500D01*
X162523533Y-193971498D01*
X162477040Y-193917842D01*
X162466936Y-193847568D01*
X162496430Y-193782988D01*
X162556156Y-193744604D01*
X162563203Y-193742754D01*
X162591542Y-193736185D01*
X162596929Y-193734681D01*
X162998567Y-193603018D01*
X163003784Y-193601046D01*
X163392126Y-193434202D01*
X163397169Y-193431764D01*
X163769131Y-193231063D01*
X163773935Y-193228188D01*
X164126563Y-192995231D01*
X164131126Y-192991916D01*
X164461658Y-192728529D01*
X164465873Y-192724852D01*
X164503823Y-192688649D01*
X164511763Y-192674890D01*
X164511713Y-192673843D01*
X164506822Y-192666032D01*
X164106507Y-192265717D01*
X163221210Y-191380419D01*
X162695122Y-190854332D01*
X161312812Y-189472022D01*
X161298868Y-189464408D01*
X161297035Y-189464539D01*
X161290420Y-189468790D01*
X159904879Y-190854331D01*
X159019581Y-191739628D01*
X158493494Y-192265716D01*
X158096736Y-192662474D01*
X158089122Y-192676418D01*
X158089171Y-192677110D01*
X158094617Y-192685274D01*
X158172268Y-192757812D01*
X158176507Y-192761433D01*
X158509802Y-193021363D01*
X158514359Y-193024602D01*
X158869448Y-193253880D01*
X158874250Y-193256686D01*
X159248316Y-193453491D01*
X159253374Y-193455871D01*
X159643435Y-193618638D01*
X159648690Y-193620561D01*
X160043318Y-193745365D01*
X160102236Y-193784977D01*
X160130386Y-193850154D01*
X160118829Y-193920204D01*
X160071236Y-193972886D01*
X160005324Y-193991500D01*
X156534500Y-193991500D01*
X156466379Y-193971498D01*
X156419886Y-193917842D01*
X156408500Y-193865500D01*
X156408500Y-190383454D01*
X156428502Y-190315333D01*
X156482158Y-190268840D01*
X156552432Y-190258736D01*
X156617012Y-190288230D01*
X156655405Y-190347984D01*
X156745852Y-190656289D01*
X156747658Y-190661564D01*
X156902219Y-191054948D01*
X156904501Y-191060072D01*
X157093416Y-191438150D01*
X157096140Y-191443043D01*
X157317917Y-191802833D01*
X157321068Y-191807469D01*
X157573955Y-192146127D01*
X157577488Y-192150444D01*
X157713222Y-192301988D01*
X157726717Y-192310351D01*
X157736128Y-192304662D01*
X158134283Y-191906507D01*
X159019581Y-191021210D01*
X159090790Y-190950001D01*
X159545668Y-190495122D01*
X160927978Y-189112812D01*
X160935592Y-189098868D01*
X160935461Y-189097035D01*
X160931210Y-189090420D01*
X159545669Y-187704879D01*
X158660372Y-186819581D01*
X158134284Y-186293494D01*
X157735561Y-185894771D01*
X157722253Y-185887504D01*
X157712214Y-185894626D01*
X157468223Y-186187994D01*
X157464828Y-186192467D01*
X157224528Y-186540152D01*
X157221549Y-186544902D01*
X157013106Y-186912575D01*
X157010562Y-186917568D01*
X156835629Y-187302312D01*
X156833538Y-187307511D01*
X156693498Y-187706290D01*
X156691877Y-187711659D01*
X156656623Y-187850471D01*
X156620468Y-187911573D01*
X156557019Y-187943427D01*
X156486420Y-187935922D01*
X156431086Y-187891440D01*
X156408500Y-187819456D01*
X156408500Y-185524456D01*
X158088031Y-185524456D01*
X158094139Y-185534929D01*
X158493493Y-185934283D01*
X158988091Y-186428882D01*
X159019580Y-186460371D01*
X159904878Y-187345668D01*
X163580419Y-191021209D01*
X164465717Y-191906506D01*
X164862145Y-192302934D01*
X164875903Y-192310446D01*
X164885263Y-192303989D01*
X165030861Y-192137966D01*
X166733257Y-192137966D01*
X166763565Y-192272446D01*
X166766645Y-192282275D01*
X166846770Y-192479603D01*
X166851413Y-192488794D01*
X166962694Y-192670388D01*
X166968777Y-192678699D01*
X167108213Y-192839667D01*
X167115580Y-192846883D01*
X167279434Y-192982916D01*
X167287881Y-192988831D01*
X167471756Y-193096279D01*
X167481042Y-193100729D01*
X167680001Y-193176703D01*
X167689899Y-193179579D01*
X167793250Y-193200606D01*
X167807299Y-193199410D01*
X167811000Y-193189065D01*
X167811000Y-193188517D01*
X168319000Y-193188517D01*
X168323064Y-193202359D01*
X168336478Y-193204393D01*
X168343184Y-193203534D01*
X168353262Y-193201392D01*
X168557255Y-193140191D01*
X168566842Y-193136433D01*
X168758095Y-193042739D01*
X168766945Y-193037464D01*
X168940328Y-192913792D01*
X168948200Y-192907139D01*
X169099052Y-192756812D01*
X169105730Y-192748965D01*
X169233022Y-192571819D01*
X169234279Y-192572722D01*
X169281373Y-192529362D01*
X169351311Y-192517145D01*
X169416751Y-192544678D01*
X169444579Y-192576511D01*
X169504987Y-192675088D01*
X169651250Y-192843938D01*
X169823126Y-192986632D01*
X170016000Y-193099338D01*
X170224692Y-193179030D01*
X170229760Y-193180061D01*
X170229763Y-193180062D01*
X170324862Y-193199410D01*
X170443597Y-193223567D01*
X170448772Y-193223757D01*
X170448774Y-193223757D01*
X170661673Y-193231564D01*
X170661677Y-193231564D01*
X170666837Y-193231753D01*
X170671957Y-193231097D01*
X170671959Y-193231097D01*
X170883288Y-193204025D01*
X170883289Y-193204025D01*
X170888416Y-193203368D01*
X170893366Y-193201883D01*
X171097429Y-193140661D01*
X171097434Y-193140659D01*
X171102384Y-193139174D01*
X171302994Y-193040896D01*
X171484860Y-192911173D01*
X171643096Y-192753489D01*
X171661032Y-192728529D01*
X171773453Y-192572077D01*
X171774776Y-192573028D01*
X171821645Y-192529857D01*
X171891580Y-192517625D01*
X171957026Y-192545144D01*
X171984875Y-192576994D01*
X172044987Y-192675088D01*
X172191250Y-192843938D01*
X172363126Y-192986632D01*
X172556000Y-193099338D01*
X172764692Y-193179030D01*
X172769760Y-193180061D01*
X172769763Y-193180062D01*
X172864862Y-193199410D01*
X172983597Y-193223567D01*
X172988772Y-193223757D01*
X172988774Y-193223757D01*
X173201673Y-193231564D01*
X173201677Y-193231564D01*
X173206837Y-193231753D01*
X173211957Y-193231097D01*
X173211959Y-193231097D01*
X173423288Y-193204025D01*
X173423289Y-193204025D01*
X173428416Y-193203368D01*
X173433366Y-193201883D01*
X173637429Y-193140661D01*
X173637434Y-193140659D01*
X173642384Y-193139174D01*
X173842994Y-193040896D01*
X174024860Y-192911173D01*
X174183096Y-192753489D01*
X174201032Y-192728529D01*
X174313453Y-192572077D01*
X174314776Y-192573028D01*
X174361645Y-192529857D01*
X174431580Y-192517625D01*
X174497026Y-192545144D01*
X174524875Y-192576994D01*
X174584987Y-192675088D01*
X174731250Y-192843938D01*
X174903126Y-192986632D01*
X175096000Y-193099338D01*
X175304692Y-193179030D01*
X175309760Y-193180061D01*
X175309763Y-193180062D01*
X175404862Y-193199410D01*
X175523597Y-193223567D01*
X175528772Y-193223757D01*
X175528774Y-193223757D01*
X175741673Y-193231564D01*
X175741677Y-193231564D01*
X175746837Y-193231753D01*
X175751957Y-193231097D01*
X175751959Y-193231097D01*
X175963288Y-193204025D01*
X175963289Y-193204025D01*
X175968416Y-193203368D01*
X175973366Y-193201883D01*
X176177429Y-193140661D01*
X176177434Y-193140659D01*
X176182384Y-193139174D01*
X176382994Y-193040896D01*
X176564860Y-192911173D01*
X176673091Y-192803319D01*
X176735462Y-192769404D01*
X176806268Y-192774592D01*
X176863030Y-192817238D01*
X176880012Y-192848341D01*
X176924385Y-192966705D01*
X177011739Y-193083261D01*
X177128295Y-193170615D01*
X177264684Y-193221745D01*
X177326866Y-193228500D01*
X179123134Y-193228500D01*
X179185316Y-193221745D01*
X179321705Y-193170615D01*
X179438261Y-193083261D01*
X179525615Y-192966705D01*
X179576745Y-192830316D01*
X179583500Y-192768134D01*
X179583500Y-190971866D01*
X179576745Y-190909684D01*
X179525615Y-190773295D01*
X179438261Y-190656739D01*
X179321705Y-190569385D01*
X179185316Y-190518255D01*
X179123134Y-190511500D01*
X177326866Y-190511500D01*
X177264684Y-190518255D01*
X177128295Y-190569385D01*
X177011739Y-190656739D01*
X176924385Y-190773295D01*
X176921233Y-190781703D01*
X176879919Y-190891907D01*
X176837277Y-190948671D01*
X176770716Y-190973371D01*
X176701367Y-190958163D01*
X176668743Y-190932476D01*
X176618151Y-190876875D01*
X176618142Y-190876866D01*
X176614670Y-190873051D01*
X176610619Y-190869852D01*
X176610615Y-190869848D01*
X176443414Y-190737800D01*
X176443410Y-190737798D01*
X176439359Y-190734598D01*
X176434835Y-190732100D01*
X176434831Y-190732098D01*
X176409916Y-190718344D01*
X176359946Y-190667911D01*
X176345174Y-190598469D01*
X176370291Y-190532063D01*
X176430516Y-190489171D01*
X176432288Y-190488794D01*
X176532647Y-190444112D01*
X176600722Y-190413803D01*
X176600724Y-190413802D01*
X176606752Y-190411118D01*
X176761253Y-190298866D01*
X176797386Y-190258736D01*
X176884621Y-190161852D01*
X176884622Y-190161851D01*
X176889040Y-190156944D01*
X176984527Y-189991556D01*
X177043542Y-189809928D01*
X177063504Y-189620000D01*
X177053001Y-189520072D01*
X177044232Y-189436635D01*
X177044232Y-189436633D01*
X177043542Y-189430072D01*
X176994780Y-189280000D01*
X178736496Y-189280000D01*
X178756458Y-189469928D01*
X178815473Y-189651556D01*
X178910960Y-189816944D01*
X178915378Y-189821851D01*
X178915379Y-189821852D01*
X178967671Y-189879928D01*
X179038747Y-189958866D01*
X179083741Y-189991556D01*
X179171437Y-190055271D01*
X179193248Y-190071118D01*
X179199276Y-190073802D01*
X179199278Y-190073803D01*
X179216692Y-190081556D01*
X179367712Y-190148794D01*
X179461112Y-190168647D01*
X179548056Y-190187128D01*
X179548061Y-190187128D01*
X179554513Y-190188500D01*
X179745487Y-190188500D01*
X179751939Y-190187128D01*
X179751944Y-190187128D01*
X179838888Y-190168647D01*
X179932288Y-190148794D01*
X180083308Y-190081556D01*
X180100722Y-190073803D01*
X180100724Y-190073802D01*
X180106752Y-190071118D01*
X180128564Y-190055271D01*
X180216259Y-189991556D01*
X180261253Y-189958866D01*
X180332329Y-189879928D01*
X180384621Y-189821852D01*
X180384622Y-189821851D01*
X180389040Y-189816944D01*
X180484527Y-189651556D01*
X180543542Y-189469928D01*
X180563504Y-189280000D01*
X180557484Y-189222721D01*
X180544232Y-189096635D01*
X180544232Y-189096633D01*
X180543542Y-189090072D01*
X180484527Y-188908444D01*
X180452380Y-188852763D01*
X180427045Y-188808882D01*
X180389040Y-188743056D01*
X180382320Y-188735592D01*
X180265675Y-188606045D01*
X180265674Y-188606044D01*
X180261253Y-188601134D01*
X180245928Y-188590000D01*
X213356496Y-188590000D01*
X213357186Y-188596565D01*
X213373184Y-188748774D01*
X213376458Y-188779928D01*
X213435473Y-188961556D01*
X213438776Y-188967278D01*
X213438777Y-188967279D01*
X213457997Y-189000568D01*
X213512125Y-189094322D01*
X213528863Y-189163315D01*
X213512125Y-189220320D01*
X213484341Y-189268444D01*
X213455473Y-189318444D01*
X213396458Y-189500072D01*
X213376496Y-189690000D01*
X213377186Y-189696565D01*
X213389761Y-189816206D01*
X213396458Y-189879928D01*
X213455473Y-190061556D01*
X213458776Y-190067278D01*
X213458777Y-190067279D01*
X213462544Y-190073803D01*
X213550960Y-190226944D01*
X213572349Y-190250698D01*
X213574596Y-190253194D01*
X213605313Y-190317201D01*
X213596550Y-190387655D01*
X213583928Y-190409760D01*
X213580960Y-190413056D01*
X213565061Y-190440594D01*
X213516061Y-190525465D01*
X213485473Y-190578444D01*
X213426458Y-190760072D01*
X213425768Y-190766633D01*
X213425768Y-190766635D01*
X213414182Y-190876870D01*
X213406496Y-190950000D01*
X213426458Y-191139928D01*
X213485473Y-191321556D01*
X213580960Y-191486944D01*
X213585378Y-191491851D01*
X213585379Y-191491852D01*
X213693133Y-191611525D01*
X213708747Y-191628866D01*
X213863248Y-191741118D01*
X213869276Y-191743802D01*
X213869278Y-191743803D01*
X214031681Y-191816109D01*
X214037712Y-191818794D01*
X214121929Y-191836695D01*
X214218056Y-191857128D01*
X214218061Y-191857128D01*
X214224513Y-191858500D01*
X214415487Y-191858500D01*
X214421939Y-191857128D01*
X214421944Y-191857128D01*
X214518071Y-191836695D01*
X214602288Y-191818794D01*
X214608319Y-191816109D01*
X214770722Y-191743803D01*
X214770724Y-191743802D01*
X214776752Y-191741118D01*
X214872175Y-191671789D01*
X214939043Y-191647930D01*
X215008194Y-191664011D01*
X215020297Y-191671789D01*
X215115720Y-191741118D01*
X215143248Y-191761118D01*
X215149276Y-191763802D01*
X215149278Y-191763803D01*
X215311681Y-191836109D01*
X215317712Y-191838794D01*
X215403966Y-191857128D01*
X215498056Y-191877128D01*
X215498061Y-191877128D01*
X215504513Y-191878500D01*
X215695487Y-191878500D01*
X215701939Y-191877128D01*
X215701944Y-191877128D01*
X215796034Y-191857128D01*
X215882288Y-191838794D01*
X215888319Y-191836109D01*
X216050722Y-191763803D01*
X216050724Y-191763802D01*
X216056752Y-191761118D01*
X216175940Y-191674523D01*
X216242806Y-191650665D01*
X216311958Y-191666745D01*
X216324058Y-191674521D01*
X216443248Y-191761118D01*
X216449276Y-191763802D01*
X216449278Y-191763803D01*
X216611681Y-191836109D01*
X216617712Y-191838794D01*
X216703966Y-191857128D01*
X216798056Y-191877128D01*
X216798061Y-191877128D01*
X216804513Y-191878500D01*
X216995487Y-191878500D01*
X217001939Y-191877128D01*
X217001944Y-191877128D01*
X217096034Y-191857128D01*
X217182288Y-191838794D01*
X217188319Y-191836109D01*
X217350722Y-191763803D01*
X217350724Y-191763802D01*
X217356752Y-191761118D01*
X217511253Y-191648866D01*
X217639040Y-191506944D01*
X217734527Y-191341556D01*
X217793542Y-191159928D01*
X217813504Y-190970000D01*
X217801347Y-190854331D01*
X217794232Y-190786635D01*
X217794232Y-190786633D01*
X217793542Y-190780072D01*
X217734527Y-190598444D01*
X217720860Y-190574771D01*
X217642343Y-190438777D01*
X217639040Y-190433056D01*
X217615404Y-190406805D01*
X217584687Y-190342799D01*
X217593450Y-190272345D01*
X217606072Y-190250240D01*
X217609040Y-190246944D01*
X217704527Y-190081556D01*
X217763542Y-189899928D01*
X217770240Y-189836206D01*
X217782814Y-189716565D01*
X217783504Y-189710000D01*
X217763542Y-189520072D01*
X217704527Y-189338444D01*
X217609040Y-189173056D01*
X217544280Y-189101132D01*
X217485675Y-189036045D01*
X217485674Y-189036044D01*
X217481253Y-189031134D01*
X217406503Y-188976825D01*
X220688855Y-188976825D01*
X220696600Y-189399410D01*
X220696950Y-189404976D01*
X220742231Y-189825208D01*
X220743078Y-189830746D01*
X220825535Y-190245286D01*
X220826864Y-190250698D01*
X220945852Y-190656289D01*
X220947658Y-190661564D01*
X221102219Y-191054948D01*
X221104501Y-191060072D01*
X221293416Y-191438150D01*
X221296140Y-191443043D01*
X221517917Y-191802833D01*
X221521068Y-191807469D01*
X221773955Y-192146127D01*
X221777488Y-192150444D01*
X221913222Y-192301988D01*
X221926717Y-192310351D01*
X221936128Y-192304662D01*
X222334283Y-191906507D01*
X223219581Y-191021210D01*
X223290790Y-190950001D01*
X223745668Y-190495122D01*
X225127978Y-189112812D01*
X225135592Y-189098868D01*
X225135461Y-189097035D01*
X225131210Y-189090420D01*
X223745669Y-187704879D01*
X222860372Y-186819581D01*
X222334284Y-186293494D01*
X221935561Y-185894771D01*
X221922253Y-185887504D01*
X221912214Y-185894626D01*
X221668223Y-186187994D01*
X221664828Y-186192467D01*
X221424528Y-186540152D01*
X221421549Y-186544902D01*
X221213106Y-186912575D01*
X221210562Y-186917568D01*
X221035629Y-187302312D01*
X221033538Y-187307511D01*
X220893498Y-187706290D01*
X220891877Y-187711659D01*
X220787840Y-188121303D01*
X220786706Y-188126776D01*
X220719496Y-188544054D01*
X220718851Y-188549632D01*
X220689002Y-188971204D01*
X220688855Y-188976825D01*
X217406503Y-188976825D01*
X217326752Y-188918882D01*
X217320724Y-188916198D01*
X217320722Y-188916197D01*
X217158319Y-188843891D01*
X217158318Y-188843891D01*
X217152288Y-188841206D01*
X217058887Y-188821353D01*
X216971944Y-188802872D01*
X216971939Y-188802872D01*
X216965487Y-188801500D01*
X216774513Y-188801500D01*
X216768061Y-188802872D01*
X216768056Y-188802872D01*
X216593066Y-188840068D01*
X216522275Y-188834666D01*
X216465643Y-188791849D01*
X216441149Y-188725212D01*
X216441559Y-188703651D01*
X216452814Y-188596565D01*
X216453504Y-188590000D01*
X216442594Y-188486197D01*
X216434232Y-188406635D01*
X216434232Y-188406633D01*
X216433542Y-188400072D01*
X216374527Y-188218444D01*
X216332515Y-188145678D01*
X216315778Y-188076686D01*
X216332516Y-188019680D01*
X216351223Y-187987279D01*
X216351224Y-187987278D01*
X216354527Y-187981556D01*
X216413542Y-187799928D01*
X216433504Y-187610000D01*
X216413542Y-187420072D01*
X216354527Y-187238444D01*
X216337207Y-187208444D01*
X216262341Y-187078774D01*
X216259040Y-187073056D01*
X216237177Y-187048774D01*
X216135675Y-186936045D01*
X216135674Y-186936044D01*
X216131253Y-186931134D01*
X216026091Y-186854729D01*
X215982094Y-186822763D01*
X215982093Y-186822762D01*
X215976752Y-186818882D01*
X215970724Y-186816198D01*
X215970722Y-186816197D01*
X215808319Y-186743891D01*
X215808318Y-186743891D01*
X215802288Y-186741206D01*
X215708888Y-186721353D01*
X215621944Y-186702872D01*
X215621939Y-186702872D01*
X215615487Y-186701500D01*
X215424513Y-186701500D01*
X215418061Y-186702872D01*
X215418056Y-186702872D01*
X215331112Y-186721353D01*
X215237712Y-186741206D01*
X215231682Y-186743891D01*
X215231681Y-186743891D01*
X215069278Y-186816197D01*
X215069276Y-186816198D01*
X215063248Y-186818882D01*
X215057907Y-186822762D01*
X215057906Y-186822763D01*
X214989707Y-186872313D01*
X214922840Y-186896171D01*
X214853688Y-186880091D01*
X214841585Y-186872313D01*
X214732094Y-186792763D01*
X214732093Y-186792762D01*
X214726752Y-186788882D01*
X214720724Y-186786198D01*
X214720722Y-186786197D01*
X214558319Y-186713891D01*
X214558318Y-186713891D01*
X214552288Y-186711206D01*
X214458888Y-186691353D01*
X214371944Y-186672872D01*
X214371939Y-186672872D01*
X214365487Y-186671500D01*
X214174513Y-186671500D01*
X214168061Y-186672872D01*
X214168056Y-186672872D01*
X214081112Y-186691353D01*
X213987712Y-186711206D01*
X213981682Y-186713891D01*
X213981681Y-186713891D01*
X213819278Y-186786197D01*
X213819276Y-186786198D01*
X213813248Y-186788882D01*
X213658747Y-186901134D01*
X213654326Y-186906044D01*
X213654325Y-186906045D01*
X213548304Y-187023794D01*
X213530960Y-187043056D01*
X213435473Y-187208444D01*
X213376458Y-187390072D01*
X213356496Y-187580000D01*
X213376458Y-187769928D01*
X213435473Y-187951556D01*
X213438776Y-187957278D01*
X213438777Y-187957279D01*
X213456098Y-187987279D01*
X213474805Y-188019680D01*
X213476144Y-188022000D01*
X213492882Y-188090995D01*
X213476144Y-188148000D01*
X213435473Y-188218444D01*
X213376458Y-188400072D01*
X213375768Y-188406633D01*
X213375768Y-188406635D01*
X213367406Y-188486197D01*
X213356496Y-188590000D01*
X180245928Y-188590000D01*
X180106752Y-188488882D01*
X180100724Y-188486198D01*
X180100722Y-188486197D01*
X179938319Y-188413891D01*
X179938318Y-188413891D01*
X179932288Y-188411206D01*
X179838887Y-188391353D01*
X179751944Y-188372872D01*
X179751939Y-188372872D01*
X179745487Y-188371500D01*
X179554513Y-188371500D01*
X179548061Y-188372872D01*
X179548056Y-188372872D01*
X179461113Y-188391353D01*
X179367712Y-188411206D01*
X179361682Y-188413891D01*
X179361681Y-188413891D01*
X179199278Y-188486197D01*
X179199276Y-188486198D01*
X179193248Y-188488882D01*
X179038747Y-188601134D01*
X179034326Y-188606044D01*
X179034325Y-188606045D01*
X178917681Y-188735592D01*
X178910960Y-188743056D01*
X178872955Y-188808882D01*
X178847621Y-188852763D01*
X178815473Y-188908444D01*
X178756458Y-189090072D01*
X178755768Y-189096633D01*
X178755768Y-189096635D01*
X178742516Y-189222721D01*
X178736496Y-189280000D01*
X176994780Y-189280000D01*
X176984527Y-189248444D01*
X176889040Y-189083056D01*
X176876181Y-189068774D01*
X176765675Y-188946045D01*
X176765674Y-188946044D01*
X176761253Y-188941134D01*
X176627410Y-188843891D01*
X176612094Y-188832763D01*
X176612093Y-188832762D01*
X176606752Y-188828882D01*
X176600724Y-188826198D01*
X176600722Y-188826197D01*
X176438319Y-188753891D01*
X176438318Y-188753891D01*
X176432288Y-188751206D01*
X176331741Y-188729834D01*
X176251944Y-188712872D01*
X176251939Y-188712872D01*
X176245487Y-188711500D01*
X176054513Y-188711500D01*
X176048061Y-188712872D01*
X176048056Y-188712872D01*
X175968259Y-188729834D01*
X175867712Y-188751206D01*
X175861682Y-188753891D01*
X175861681Y-188753891D01*
X175699278Y-188826197D01*
X175699276Y-188826198D01*
X175693248Y-188828882D01*
X175687907Y-188832762D01*
X175687906Y-188832763D01*
X175672590Y-188843891D01*
X175538747Y-188941134D01*
X175534326Y-188946044D01*
X175534325Y-188946045D01*
X175423820Y-189068774D01*
X175410960Y-189083056D01*
X175315473Y-189248444D01*
X175256458Y-189430072D01*
X175255768Y-189436633D01*
X175255768Y-189436635D01*
X175246999Y-189520072D01*
X175236496Y-189620000D01*
X175256458Y-189809928D01*
X175315473Y-189991556D01*
X175410960Y-190156944D01*
X175415378Y-190161851D01*
X175415379Y-190161852D01*
X175502614Y-190258736D01*
X175538747Y-190298866D01*
X175544091Y-190302749D01*
X175548998Y-190307167D01*
X175547203Y-190309160D01*
X175583286Y-190355914D01*
X175589391Y-190426648D01*
X175556285Y-190489453D01*
X175494479Y-190524390D01*
X175484949Y-190526226D01*
X175433337Y-190534124D01*
X175369091Y-190543955D01*
X175156756Y-190613357D01*
X174958607Y-190716507D01*
X174954474Y-190719610D01*
X174954471Y-190719612D01*
X174865205Y-190786635D01*
X174779965Y-190850635D01*
X174754541Y-190877240D01*
X174685009Y-190950001D01*
X174625629Y-191012138D01*
X174518201Y-191169621D01*
X174463293Y-191214621D01*
X174392768Y-191222792D01*
X174329021Y-191191538D01*
X174308324Y-191167054D01*
X174227822Y-191042617D01*
X174227820Y-191042614D01*
X174225014Y-191038277D01*
X174074670Y-190873051D01*
X174070619Y-190869852D01*
X174070615Y-190869848D01*
X173903414Y-190737800D01*
X173903410Y-190737798D01*
X173899359Y-190734598D01*
X173894831Y-190732098D01*
X173778555Y-190667911D01*
X173703789Y-190626638D01*
X173698919Y-190624913D01*
X173698909Y-190624909D01*
X173676652Y-190617028D01*
X173619115Y-190575435D01*
X173593198Y-190509338D01*
X173607131Y-190439722D01*
X173644649Y-190396319D01*
X173700261Y-190355914D01*
X173751253Y-190318866D01*
X173805394Y-190258736D01*
X173874621Y-190181852D01*
X173874622Y-190181851D01*
X173879040Y-190176944D01*
X173942355Y-190067279D01*
X173971223Y-190017279D01*
X173971224Y-190017278D01*
X173974527Y-190011556D01*
X174033542Y-189829928D01*
X174053504Y-189640000D01*
X174040899Y-189520072D01*
X174034232Y-189456635D01*
X174034232Y-189456633D01*
X174033542Y-189450072D01*
X173974527Y-189268444D01*
X173879040Y-189103056D01*
X173866181Y-189088774D01*
X173755675Y-188966045D01*
X173755674Y-188966044D01*
X173751253Y-188961134D01*
X173596752Y-188848882D01*
X173590724Y-188846198D01*
X173590722Y-188846197D01*
X173428319Y-188773891D01*
X173428318Y-188773891D01*
X173422288Y-188771206D01*
X173321741Y-188749834D01*
X173241944Y-188732872D01*
X173241939Y-188732872D01*
X173235487Y-188731500D01*
X173044513Y-188731500D01*
X173038061Y-188732872D01*
X173038056Y-188732872D01*
X172958259Y-188749834D01*
X172857712Y-188771206D01*
X172851682Y-188773891D01*
X172851681Y-188773891D01*
X172689278Y-188846197D01*
X172689276Y-188846198D01*
X172683248Y-188848882D01*
X172528747Y-188961134D01*
X172524326Y-188966044D01*
X172524325Y-188966045D01*
X172413820Y-189088774D01*
X172400960Y-189103056D01*
X172305473Y-189268444D01*
X172246458Y-189450072D01*
X172245768Y-189456633D01*
X172245768Y-189456635D01*
X172239101Y-189520072D01*
X172226496Y-189640000D01*
X172246458Y-189829928D01*
X172305473Y-190011556D01*
X172308776Y-190017278D01*
X172308777Y-190017279D01*
X172337645Y-190067279D01*
X172400960Y-190176944D01*
X172405378Y-190181851D01*
X172405379Y-190181852D01*
X172474606Y-190258736D01*
X172528747Y-190318866D01*
X172637269Y-190397712D01*
X172680622Y-190453933D01*
X172686697Y-190524669D01*
X172653566Y-190587461D01*
X172616458Y-190612785D01*
X172616756Y-190613357D01*
X172534285Y-190656289D01*
X172418607Y-190716507D01*
X172414474Y-190719610D01*
X172414471Y-190719612D01*
X172325205Y-190786635D01*
X172239965Y-190850635D01*
X172214541Y-190877240D01*
X172145009Y-190950001D01*
X172085629Y-191012138D01*
X171978201Y-191169621D01*
X171923293Y-191214621D01*
X171852768Y-191222792D01*
X171789021Y-191191538D01*
X171768324Y-191167054D01*
X171687822Y-191042617D01*
X171687820Y-191042614D01*
X171685014Y-191038277D01*
X171534670Y-190873051D01*
X171530619Y-190869852D01*
X171530615Y-190869848D01*
X171363414Y-190737800D01*
X171363410Y-190737798D01*
X171359359Y-190734598D01*
X171354831Y-190732098D01*
X171238555Y-190667911D01*
X171163789Y-190626638D01*
X171158920Y-190624914D01*
X171158916Y-190624912D01*
X171099636Y-190603920D01*
X171042099Y-190562326D01*
X171016184Y-190496228D01*
X171030118Y-190426612D01*
X171067635Y-190383211D01*
X171105206Y-190355914D01*
X171211253Y-190278866D01*
X171217125Y-190272345D01*
X171334621Y-190141852D01*
X171334622Y-190141851D01*
X171339040Y-190136944D01*
X171434527Y-189971556D01*
X171493542Y-189789928D01*
X171513504Y-189600000D01*
X171505103Y-189520072D01*
X171494232Y-189416635D01*
X171494232Y-189416633D01*
X171493542Y-189410072D01*
X171434527Y-189228444D01*
X171339040Y-189063056D01*
X171310298Y-189031134D01*
X171215675Y-188926045D01*
X171215674Y-188926044D01*
X171211253Y-188921134D01*
X171111807Y-188848882D01*
X171062094Y-188812763D01*
X171062093Y-188812762D01*
X171056752Y-188808882D01*
X171050724Y-188806198D01*
X171050722Y-188806197D01*
X170888319Y-188733891D01*
X170888318Y-188733891D01*
X170882288Y-188731206D01*
X170788887Y-188711353D01*
X170701944Y-188692872D01*
X170701939Y-188692872D01*
X170695487Y-188691500D01*
X170504513Y-188691500D01*
X170498061Y-188692872D01*
X170498056Y-188692872D01*
X170411113Y-188711353D01*
X170317712Y-188731206D01*
X170311682Y-188733891D01*
X170311681Y-188733891D01*
X170149278Y-188806197D01*
X170149276Y-188806198D01*
X170143248Y-188808882D01*
X170137907Y-188812762D01*
X170137906Y-188812763D01*
X170088193Y-188848882D01*
X169988747Y-188921134D01*
X169984326Y-188926044D01*
X169984325Y-188926045D01*
X169889703Y-189031134D01*
X169860960Y-189063056D01*
X169765473Y-189228444D01*
X169706458Y-189410072D01*
X169705768Y-189416633D01*
X169705768Y-189416635D01*
X169694897Y-189520072D01*
X169686496Y-189600000D01*
X169706458Y-189789928D01*
X169765473Y-189971556D01*
X169860960Y-190136944D01*
X169865378Y-190141851D01*
X169865379Y-190141852D01*
X169982875Y-190272345D01*
X169988747Y-190278866D01*
X170043802Y-190318866D01*
X170133961Y-190384371D01*
X170177315Y-190440594D01*
X170183390Y-190511330D01*
X170150258Y-190574121D01*
X170099044Y-190606072D01*
X170081677Y-190611748D01*
X170081671Y-190611751D01*
X170076756Y-190613357D01*
X169878607Y-190716507D01*
X169874474Y-190719610D01*
X169874471Y-190719612D01*
X169785205Y-190786635D01*
X169699965Y-190850635D01*
X169674541Y-190877240D01*
X169605009Y-190950001D01*
X169545629Y-191012138D01*
X169542720Y-191016403D01*
X169542714Y-191016411D01*
X169530404Y-191034457D01*
X169438204Y-191169618D01*
X169437898Y-191170066D01*
X169382987Y-191215069D01*
X169312462Y-191223240D01*
X169248715Y-191191986D01*
X169228018Y-191167502D01*
X169147426Y-191042926D01*
X169141136Y-191034757D01*
X168997806Y-190877240D01*
X168990273Y-190870215D01*
X168823139Y-190738222D01*
X168814552Y-190732517D01*
X168628117Y-190629599D01*
X168618705Y-190625369D01*
X168417959Y-190554280D01*
X168407988Y-190551646D01*
X168336837Y-190538972D01*
X168323540Y-190540432D01*
X168319000Y-190554989D01*
X168319000Y-193188517D01*
X167811000Y-193188517D01*
X167811000Y-192142115D01*
X167806525Y-192126876D01*
X167805135Y-192125671D01*
X167797452Y-192124000D01*
X166748225Y-192124000D01*
X166734694Y-192127973D01*
X166733257Y-192137966D01*
X165030861Y-192137966D01*
X165054244Y-192111303D01*
X165057744Y-192106935D01*
X165307073Y-191765645D01*
X165310168Y-191760987D01*
X165404572Y-191604183D01*
X166729389Y-191604183D01*
X166730912Y-191612607D01*
X166743292Y-191616000D01*
X167792885Y-191616000D01*
X167808124Y-191611525D01*
X167809329Y-191610135D01*
X167811000Y-191602452D01*
X167811000Y-190553102D01*
X167807082Y-190539758D01*
X167792806Y-190537771D01*
X167754324Y-190543660D01*
X167744288Y-190546051D01*
X167541868Y-190612212D01*
X167532359Y-190616209D01*
X167343463Y-190714542D01*
X167334738Y-190720036D01*
X167164433Y-190847905D01*
X167156726Y-190854748D01*
X167009590Y-191008717D01*
X167003104Y-191016727D01*
X166883098Y-191192649D01*
X166878000Y-191201623D01*
X166788338Y-191394783D01*
X166784775Y-191404470D01*
X166729389Y-191604183D01*
X165404572Y-191604183D01*
X165528160Y-191398903D01*
X165530841Y-191393964D01*
X165715779Y-191013946D01*
X165718014Y-191008780D01*
X165868442Y-190613815D01*
X165870201Y-190608496D01*
X165984920Y-190201730D01*
X165986204Y-190196259D01*
X166064315Y-189780883D01*
X166065102Y-189775346D01*
X166106035Y-189354102D01*
X166106308Y-189349665D01*
X166112788Y-189102233D01*
X166112746Y-189097762D01*
X166093917Y-188674973D01*
X166093419Y-188669386D01*
X166037155Y-188250499D01*
X166036162Y-188244976D01*
X165942883Y-187832748D01*
X165941410Y-187827361D01*
X165811847Y-187425025D01*
X165809910Y-187419815D01*
X165725299Y-187220000D01*
X187766496Y-187220000D01*
X187786458Y-187409928D01*
X187845473Y-187591556D01*
X187940960Y-187756944D01*
X187945378Y-187761851D01*
X187945379Y-187761852D01*
X188064325Y-187893955D01*
X188068747Y-187898866D01*
X188086237Y-187911573D01*
X188190437Y-187987279D01*
X188223248Y-188011118D01*
X188229276Y-188013802D01*
X188229278Y-188013803D01*
X188389190Y-188085000D01*
X188397712Y-188088794D01*
X188491112Y-188108647D01*
X188578056Y-188127128D01*
X188578061Y-188127128D01*
X188584513Y-188128500D01*
X188775487Y-188128500D01*
X188781939Y-188127128D01*
X188781944Y-188127128D01*
X188868888Y-188108647D01*
X188962288Y-188088794D01*
X188970810Y-188085000D01*
X189130722Y-188013803D01*
X189130724Y-188013802D01*
X189136752Y-188011118D01*
X189169564Y-187987279D01*
X189273763Y-187911573D01*
X189291253Y-187898866D01*
X189295675Y-187893955D01*
X189414621Y-187761852D01*
X189414622Y-187761851D01*
X189419040Y-187756944D01*
X189514527Y-187591556D01*
X189573542Y-187409928D01*
X189593504Y-187220000D01*
X189573542Y-187030072D01*
X189514527Y-186848444D01*
X189482380Y-186792763D01*
X189451821Y-186739834D01*
X189419040Y-186683056D01*
X189291253Y-186541134D01*
X189136752Y-186428882D01*
X189130724Y-186426198D01*
X189130722Y-186426197D01*
X188968319Y-186353891D01*
X188968318Y-186353891D01*
X188962288Y-186351206D01*
X188868888Y-186331353D01*
X188781944Y-186312872D01*
X188781939Y-186312872D01*
X188775487Y-186311500D01*
X188584513Y-186311500D01*
X188578061Y-186312872D01*
X188578056Y-186312872D01*
X188491112Y-186331353D01*
X188397712Y-186351206D01*
X188391682Y-186353891D01*
X188391681Y-186353891D01*
X188229278Y-186426197D01*
X188229276Y-186426198D01*
X188223248Y-186428882D01*
X188068747Y-186541134D01*
X187940960Y-186683056D01*
X187908179Y-186739834D01*
X187877621Y-186792763D01*
X187845473Y-186848444D01*
X187786458Y-187030072D01*
X187766496Y-187220000D01*
X165725299Y-187220000D01*
X165645098Y-187030599D01*
X165642683Y-187025536D01*
X165443936Y-186652535D01*
X165441085Y-186647713D01*
X165209974Y-186293865D01*
X165206692Y-186289297D01*
X164945030Y-185957380D01*
X164941382Y-185953154D01*
X164937478Y-185949019D01*
X164905258Y-185885755D01*
X164912355Y-185815114D01*
X164956518Y-185759525D01*
X164977848Y-185747414D01*
X165120722Y-185683803D01*
X165120724Y-185683802D01*
X165126752Y-185681118D01*
X165135939Y-185674443D01*
X165202805Y-185650585D01*
X165271956Y-185666664D01*
X165284054Y-185674438D01*
X165293248Y-185681118D01*
X165299276Y-185683802D01*
X165299278Y-185683803D01*
X165442152Y-185747414D01*
X165467712Y-185758794D01*
X165561112Y-185778647D01*
X165648056Y-185797128D01*
X165648061Y-185797128D01*
X165654513Y-185798500D01*
X165845487Y-185798500D01*
X165851939Y-185797128D01*
X165851944Y-185797128D01*
X165938888Y-185778647D01*
X166032288Y-185758794D01*
X166057848Y-185747414D01*
X166200722Y-185683803D01*
X166200724Y-185683802D01*
X166206752Y-185681118D01*
X166361253Y-185568866D01*
X166365675Y-185563955D01*
X166484621Y-185431852D01*
X166484622Y-185431851D01*
X166489040Y-185426944D01*
X166571848Y-185283517D01*
X166581223Y-185267279D01*
X166581224Y-185267278D01*
X166584527Y-185261556D01*
X166630522Y-185120000D01*
X172686496Y-185120000D01*
X172706458Y-185309928D01*
X172765473Y-185491556D01*
X172768776Y-185497278D01*
X172768777Y-185497279D01*
X172784468Y-185524456D01*
X172860960Y-185656944D01*
X172988747Y-185798866D01*
X173143248Y-185911118D01*
X173149276Y-185913802D01*
X173149278Y-185913803D01*
X173311681Y-185986109D01*
X173317712Y-185988794D01*
X173411113Y-186008647D01*
X173498056Y-186027128D01*
X173498061Y-186027128D01*
X173504513Y-186028500D01*
X173695487Y-186028500D01*
X173701939Y-186027128D01*
X173701944Y-186027128D01*
X173788887Y-186008647D01*
X173882288Y-185988794D01*
X173888319Y-185986109D01*
X174050722Y-185913803D01*
X174050724Y-185913802D01*
X174056752Y-185911118D01*
X174211253Y-185798866D01*
X174339040Y-185656944D01*
X174415532Y-185524456D01*
X174431223Y-185497279D01*
X174431224Y-185497278D01*
X174434527Y-185491556D01*
X174493542Y-185309928D01*
X174513504Y-185120000D01*
X174493542Y-184930072D01*
X174434527Y-184748444D01*
X174423878Y-184730000D01*
X188646496Y-184730000D01*
X188666458Y-184919928D01*
X188725473Y-185101556D01*
X188820960Y-185266944D01*
X188825378Y-185271851D01*
X188825379Y-185271852D01*
X188906172Y-185361582D01*
X188948747Y-185408866D01*
X189047843Y-185480864D01*
X189084143Y-185507237D01*
X189103248Y-185521118D01*
X189109276Y-185523802D01*
X189109278Y-185523803D01*
X189258333Y-185590166D01*
X189277712Y-185598794D01*
X189371113Y-185618647D01*
X189458056Y-185637128D01*
X189458061Y-185637128D01*
X189464513Y-185638500D01*
X189655487Y-185638500D01*
X189661939Y-185637128D01*
X189661944Y-185637128D01*
X189748887Y-185618647D01*
X189842288Y-185598794D01*
X189861667Y-185590166D01*
X190010722Y-185523803D01*
X190010724Y-185523802D01*
X190016752Y-185521118D01*
X190035858Y-185507237D01*
X190066091Y-185485271D01*
X190120940Y-185445421D01*
X190187806Y-185421563D01*
X190256958Y-185437643D01*
X190269056Y-185445418D01*
X190323909Y-185485271D01*
X190354143Y-185507237D01*
X190373248Y-185521118D01*
X190379276Y-185523802D01*
X190379278Y-185523803D01*
X190528333Y-185590166D01*
X190547712Y-185598794D01*
X190641113Y-185618647D01*
X190728056Y-185637128D01*
X190728061Y-185637128D01*
X190734513Y-185638500D01*
X190925487Y-185638500D01*
X190931939Y-185637128D01*
X190931944Y-185637128D01*
X191018887Y-185618647D01*
X191112288Y-185598794D01*
X191131667Y-185590166D01*
X191280722Y-185523803D01*
X191280724Y-185523802D01*
X191286752Y-185521118D01*
X191300516Y-185511118D01*
X191422821Y-185422258D01*
X191489689Y-185398399D01*
X191558840Y-185414480D01*
X191570943Y-185422258D01*
X191693248Y-185511118D01*
X191699276Y-185513802D01*
X191699278Y-185513803D01*
X191831674Y-185572749D01*
X191867712Y-185588794D01*
X191961112Y-185608647D01*
X192048056Y-185627128D01*
X192048061Y-185627128D01*
X192054513Y-185628500D01*
X192245487Y-185628500D01*
X192251939Y-185627128D01*
X192251944Y-185627128D01*
X192338888Y-185608647D01*
X192432288Y-185588794D01*
X192468326Y-185572749D01*
X192576795Y-185524456D01*
X222288031Y-185524456D01*
X222294139Y-185534929D01*
X222693493Y-185934283D01*
X223188091Y-186428882D01*
X223219580Y-186460371D01*
X224104878Y-187345668D01*
X225487188Y-188727978D01*
X225501132Y-188735592D01*
X225502965Y-188735461D01*
X225509580Y-188731210D01*
X226895121Y-187345669D01*
X227780419Y-186460372D01*
X227811908Y-186428883D01*
X228306506Y-185934284D01*
X228702754Y-185538036D01*
X228710316Y-185524187D01*
X228703987Y-185514962D01*
X228530928Y-185361582D01*
X228526561Y-185358046D01*
X228186600Y-185106948D01*
X228181947Y-185103821D01*
X227820995Y-184883926D01*
X227816094Y-184881232D01*
X227437027Y-184694297D01*
X227431904Y-184692048D01*
X227037707Y-184539545D01*
X227032417Y-184537765D01*
X226626218Y-184420904D01*
X226620794Y-184419602D01*
X226205822Y-184339316D01*
X226200293Y-184338500D01*
X225779828Y-184295420D01*
X225774247Y-184295098D01*
X225351635Y-184289566D01*
X225346024Y-184289742D01*
X224924593Y-184321800D01*
X224919036Y-184322472D01*
X224502128Y-184391864D01*
X224496631Y-184393032D01*
X224087547Y-184499209D01*
X224082181Y-184500861D01*
X223684153Y-184642983D01*
X223678965Y-184645100D01*
X223295133Y-184822050D01*
X223290164Y-184824614D01*
X222923581Y-185034984D01*
X222918848Y-185037987D01*
X222572420Y-185280109D01*
X222567979Y-185283517D01*
X222296476Y-185511739D01*
X222288031Y-185524456D01*
X192576795Y-185524456D01*
X192600722Y-185513803D01*
X192600724Y-185513802D01*
X192606752Y-185511118D01*
X192761253Y-185398866D01*
X192794824Y-185361582D01*
X192884621Y-185261852D01*
X192884622Y-185261851D01*
X192889040Y-185256944D01*
X192975449Y-185107279D01*
X192981223Y-185097279D01*
X192981224Y-185097278D01*
X192984527Y-185091556D01*
X193043542Y-184909928D01*
X193044947Y-184896565D01*
X193062814Y-184726565D01*
X193063504Y-184720000D01*
X193048632Y-184578502D01*
X193044232Y-184536635D01*
X193044232Y-184536633D01*
X193043542Y-184530072D01*
X192984527Y-184348444D01*
X192971053Y-184325106D01*
X192905555Y-184211660D01*
X192888817Y-184142664D01*
X192905555Y-184085660D01*
X192991223Y-183937279D01*
X192991224Y-183937278D01*
X192994527Y-183931556D01*
X193053542Y-183749928D01*
X193055083Y-183735271D01*
X193072814Y-183566565D01*
X193073504Y-183560000D01*
X193063491Y-183464729D01*
X193054232Y-183376635D01*
X193054232Y-183376633D01*
X193053542Y-183370072D01*
X192994527Y-183188444D01*
X192989694Y-183180072D01*
X192906627Y-183036197D01*
X192899040Y-183023056D01*
X192875054Y-182996417D01*
X192844338Y-182932411D01*
X192853102Y-182861957D01*
X192898564Y-182807426D01*
X192959025Y-182786479D01*
X193004742Y-182782962D01*
X193016822Y-182780831D01*
X193195337Y-182730988D01*
X193206787Y-182726548D01*
X193372226Y-182642979D01*
X193382588Y-182636403D01*
X193391074Y-182629773D01*
X193457068Y-182603595D01*
X193530117Y-182619074D01*
X193699294Y-182713624D01*
X193887392Y-182774740D01*
X194083777Y-182798158D01*
X194089912Y-182797686D01*
X194089914Y-182797686D01*
X194274830Y-182783457D01*
X194274834Y-182783456D01*
X194280972Y-182782984D01*
X194471463Y-182729798D01*
X194476967Y-182727018D01*
X194476969Y-182727017D01*
X194642493Y-182643405D01*
X194642495Y-182643404D01*
X194647996Y-182640625D01*
X194652850Y-182636833D01*
X194652859Y-182636827D01*
X194661548Y-182630038D01*
X194727542Y-182603860D01*
X194800592Y-182619339D01*
X194969294Y-182713624D01*
X195157392Y-182774740D01*
X195353777Y-182798158D01*
X195359912Y-182797686D01*
X195359914Y-182797686D01*
X195544830Y-182783457D01*
X195544834Y-182783456D01*
X195550972Y-182782984D01*
X195741463Y-182729798D01*
X195746967Y-182727018D01*
X195746969Y-182727017D01*
X195912493Y-182643405D01*
X195912495Y-182643404D01*
X195917996Y-182640625D01*
X195922850Y-182636833D01*
X195922859Y-182636827D01*
X195931548Y-182630038D01*
X195997542Y-182603860D01*
X196070592Y-182619339D01*
X196239294Y-182713624D01*
X196427392Y-182774740D01*
X196623777Y-182798158D01*
X196629912Y-182797686D01*
X196629914Y-182797686D01*
X196814830Y-182783457D01*
X196814834Y-182783456D01*
X196820972Y-182782984D01*
X197011463Y-182729798D01*
X197016967Y-182727018D01*
X197016969Y-182727017D01*
X197182493Y-182643405D01*
X197182495Y-182643404D01*
X197187996Y-182640625D01*
X197192850Y-182636833D01*
X197192859Y-182636827D01*
X197201548Y-182630038D01*
X197267542Y-182603860D01*
X197340592Y-182619339D01*
X197509294Y-182713624D01*
X197697392Y-182774740D01*
X197893777Y-182798158D01*
X197899912Y-182797686D01*
X197899914Y-182797686D01*
X198084830Y-182783457D01*
X198084834Y-182783456D01*
X198090972Y-182782984D01*
X198281463Y-182729798D01*
X198286967Y-182727018D01*
X198286969Y-182727017D01*
X198452495Y-182643404D01*
X198452497Y-182643403D01*
X198457996Y-182640625D01*
X198603179Y-182527196D01*
X198608991Y-182522655D01*
X198613847Y-182518861D01*
X198743078Y-182369145D01*
X198840769Y-182197179D01*
X198903197Y-182009513D01*
X198927985Y-181813295D01*
X198928233Y-181795525D01*
X198928331Y-181788523D01*
X198928331Y-181788520D01*
X198928380Y-181785000D01*
X198909080Y-181588167D01*
X198904701Y-181573661D01*
X198853697Y-181404731D01*
X198851916Y-181398831D01*
X198759066Y-181224204D01*
X198649612Y-181090000D01*
X198637960Y-181075713D01*
X198637957Y-181075710D01*
X198634065Y-181070938D01*
X198629316Y-181067009D01*
X198486425Y-180948799D01*
X198486421Y-180948797D01*
X198481675Y-180944870D01*
X198307701Y-180850802D01*
X198118768Y-180792318D01*
X198112643Y-180791674D01*
X198112642Y-180791674D01*
X197928204Y-180772289D01*
X197928202Y-180772289D01*
X197922075Y-180771645D01*
X197839576Y-180779153D01*
X197731251Y-180789011D01*
X197731248Y-180789012D01*
X197725112Y-180789570D01*
X197719206Y-180791308D01*
X197719202Y-180791309D01*
X197642954Y-180813750D01*
X197535381Y-180845410D01*
X197529923Y-180848263D01*
X197529919Y-180848265D01*
X197491321Y-180868444D01*
X197360110Y-180937040D01*
X197355310Y-180940900D01*
X197350153Y-180944274D01*
X197348769Y-180942158D01*
X197293365Y-180965027D01*
X197223512Y-180952334D01*
X197213898Y-180946709D01*
X197211675Y-180944870D01*
X197037701Y-180850802D01*
X196848768Y-180792318D01*
X196842643Y-180791674D01*
X196842642Y-180791674D01*
X196658204Y-180772289D01*
X196658202Y-180772289D01*
X196652075Y-180771645D01*
X196569576Y-180779153D01*
X196461251Y-180789011D01*
X196461248Y-180789012D01*
X196455112Y-180789570D01*
X196449206Y-180791308D01*
X196449202Y-180791309D01*
X196372954Y-180813750D01*
X196265381Y-180845410D01*
X196259923Y-180848263D01*
X196259919Y-180848265D01*
X196221321Y-180868444D01*
X196090110Y-180937040D01*
X196085310Y-180940900D01*
X196080153Y-180944274D01*
X196078769Y-180942158D01*
X196023365Y-180965027D01*
X195953512Y-180952334D01*
X195943898Y-180946709D01*
X195941675Y-180944870D01*
X195767701Y-180850802D01*
X195578768Y-180792318D01*
X195572643Y-180791674D01*
X195572642Y-180791674D01*
X195388204Y-180772289D01*
X195388202Y-180772289D01*
X195382075Y-180771645D01*
X195299576Y-180779153D01*
X195191251Y-180789011D01*
X195191248Y-180789012D01*
X195185112Y-180789570D01*
X195179206Y-180791308D01*
X195179202Y-180791309D01*
X195102954Y-180813750D01*
X194995381Y-180845410D01*
X194989923Y-180848263D01*
X194989919Y-180848265D01*
X194951321Y-180868444D01*
X194820110Y-180937040D01*
X194815310Y-180940900D01*
X194810153Y-180944274D01*
X194808769Y-180942158D01*
X194753365Y-180965027D01*
X194683512Y-180952334D01*
X194673898Y-180946709D01*
X194671675Y-180944870D01*
X194497701Y-180850802D01*
X194308768Y-180792318D01*
X194302643Y-180791674D01*
X194302642Y-180791674D01*
X194118204Y-180772289D01*
X194118202Y-180772289D01*
X194112075Y-180771645D01*
X194029576Y-180779153D01*
X193921251Y-180789011D01*
X193921248Y-180789012D01*
X193915112Y-180789570D01*
X193909206Y-180791308D01*
X193909202Y-180791309D01*
X193832954Y-180813750D01*
X193725381Y-180845410D01*
X193719923Y-180848263D01*
X193719919Y-180848265D01*
X193681321Y-180868444D01*
X193550110Y-180937040D01*
X193545310Y-180940900D01*
X193540153Y-180944274D01*
X193538849Y-180942281D01*
X193482977Y-180965354D01*
X193413122Y-180952674D01*
X193399186Y-180944522D01*
X193395980Y-180942360D01*
X193232924Y-180854196D01*
X193221619Y-180849444D01*
X193106308Y-180813750D01*
X193092205Y-180813544D01*
X193089000Y-180820299D01*
X193089000Y-181913000D01*
X193068998Y-181981121D01*
X193015342Y-182027614D01*
X192963000Y-182039000D01*
X192707000Y-182039000D01*
X192638879Y-182018998D01*
X192592386Y-181965342D01*
X192581000Y-181913000D01*
X192581000Y-180827076D01*
X192577027Y-180813545D01*
X192569232Y-180812425D01*
X192461479Y-180844138D01*
X192450111Y-180848731D01*
X192285846Y-180934607D01*
X192270426Y-180944697D01*
X192269003Y-180942522D01*
X192213864Y-180965314D01*
X192144005Y-180952657D01*
X192134055Y-180946839D01*
X192131675Y-180944870D01*
X191957701Y-180850802D01*
X191768768Y-180792318D01*
X191762643Y-180791674D01*
X191762642Y-180791674D01*
X191578204Y-180772289D01*
X191578202Y-180772289D01*
X191572075Y-180771645D01*
X191489576Y-180779153D01*
X191381251Y-180789011D01*
X191381248Y-180789012D01*
X191375112Y-180789570D01*
X191369206Y-180791308D01*
X191369202Y-180791309D01*
X191233551Y-180831233D01*
X191185381Y-180845410D01*
X191179797Y-180848329D01*
X191179727Y-180848343D01*
X191174209Y-180850573D01*
X191173785Y-180849524D01*
X191110164Y-180862165D01*
X191057846Y-180842096D01*
X191056760Y-180844079D01*
X191048892Y-180839771D01*
X191041705Y-180834385D01*
X190905316Y-180783255D01*
X190843134Y-180776500D01*
X189746866Y-180776500D01*
X189684684Y-180783255D01*
X189548295Y-180834385D01*
X189431739Y-180921739D01*
X189344385Y-181038295D01*
X189293255Y-181174684D01*
X189286500Y-181236866D01*
X189286500Y-182333134D01*
X189293255Y-182395316D01*
X189296029Y-182402715D01*
X189341232Y-182523296D01*
X189341234Y-182523299D01*
X189344311Y-182531507D01*
X189344311Y-182531508D01*
X189344385Y-182531705D01*
X189344357Y-182531716D01*
X189358538Y-182596553D01*
X189333803Y-182663102D01*
X189284098Y-182702815D01*
X189119278Y-182776197D01*
X189119276Y-182776198D01*
X189113248Y-182778882D01*
X189107907Y-182782762D01*
X189107906Y-182782763D01*
X189086717Y-182798158D01*
X188958747Y-182891134D01*
X188830960Y-183033056D01*
X188806105Y-183076106D01*
X188741247Y-183188444D01*
X188735473Y-183198444D01*
X188676458Y-183380072D01*
X188675768Y-183386633D01*
X188675768Y-183386635D01*
X188667560Y-183464729D01*
X188656496Y-183570000D01*
X188657186Y-183576565D01*
X188675129Y-183747279D01*
X188676458Y-183759928D01*
X188735473Y-183941556D01*
X188738776Y-183947278D01*
X188738777Y-183947279D01*
X188814445Y-184078340D01*
X188831183Y-184147336D01*
X188814445Y-184204340D01*
X188731247Y-184348444D01*
X188725473Y-184358444D01*
X188666458Y-184540072D01*
X188665768Y-184546633D01*
X188665768Y-184546635D01*
X188648952Y-184706635D01*
X188646496Y-184730000D01*
X174423878Y-184730000D01*
X174339040Y-184583056D01*
X174243895Y-184477386D01*
X174213179Y-184413381D01*
X174221943Y-184342927D01*
X174267405Y-184288396D01*
X174335133Y-184267101D01*
X174363729Y-184269831D01*
X174398056Y-184277128D01*
X174398061Y-184277128D01*
X174404513Y-184278500D01*
X174595487Y-184278500D01*
X174601939Y-184277128D01*
X174601944Y-184277128D01*
X174688887Y-184258647D01*
X174782288Y-184238794D01*
X174824121Y-184220169D01*
X174950722Y-184163803D01*
X174950724Y-184163802D01*
X174956752Y-184161118D01*
X175111253Y-184048866D01*
X175239040Y-183906944D01*
X175327709Y-183753365D01*
X175331223Y-183747279D01*
X175331224Y-183747278D01*
X175334527Y-183741556D01*
X175393542Y-183559928D01*
X175413504Y-183370000D01*
X175411820Y-183353980D01*
X175394232Y-183186635D01*
X175394232Y-183186633D01*
X175393542Y-183180072D01*
X175334527Y-182998444D01*
X175312236Y-182959834D01*
X175272571Y-182891134D01*
X175239040Y-182833056D01*
X175206962Y-182797429D01*
X175115675Y-182696045D01*
X175115674Y-182696044D01*
X175111253Y-182691134D01*
X174991131Y-182603860D01*
X174962094Y-182582763D01*
X174962093Y-182582762D01*
X174956752Y-182578882D01*
X174950724Y-182576198D01*
X174950722Y-182576197D01*
X174788319Y-182503891D01*
X174788318Y-182503891D01*
X174782288Y-182501206D01*
X174666362Y-182476565D01*
X174601944Y-182462872D01*
X174601939Y-182462872D01*
X174595487Y-182461500D01*
X174404513Y-182461500D01*
X174398061Y-182462872D01*
X174398056Y-182462872D01*
X174333638Y-182476565D01*
X174217712Y-182501206D01*
X174211682Y-182503891D01*
X174211681Y-182503891D01*
X174049278Y-182576197D01*
X174049276Y-182576198D01*
X174043248Y-182578882D01*
X174037907Y-182582762D01*
X174037906Y-182582763D01*
X174008869Y-182603860D01*
X173888747Y-182691134D01*
X173884326Y-182696044D01*
X173884325Y-182696045D01*
X173793039Y-182797429D01*
X173760960Y-182833056D01*
X173727429Y-182891134D01*
X173687765Y-182959834D01*
X173665473Y-182998444D01*
X173606458Y-183180072D01*
X173605768Y-183186633D01*
X173605768Y-183186635D01*
X173588180Y-183353980D01*
X173586496Y-183370000D01*
X173606458Y-183559928D01*
X173665473Y-183741556D01*
X173668776Y-183747278D01*
X173668777Y-183747279D01*
X173672291Y-183753365D01*
X173760960Y-183906944D01*
X173856105Y-184012614D01*
X173886821Y-184076619D01*
X173878057Y-184147073D01*
X173832595Y-184201604D01*
X173764867Y-184222899D01*
X173736271Y-184220169D01*
X173701944Y-184212872D01*
X173701939Y-184212872D01*
X173695487Y-184211500D01*
X173504513Y-184211500D01*
X173498061Y-184212872D01*
X173498056Y-184212872D01*
X173411113Y-184231353D01*
X173317712Y-184251206D01*
X173311682Y-184253891D01*
X173311681Y-184253891D01*
X173149278Y-184326197D01*
X173149276Y-184326198D01*
X173143248Y-184328882D01*
X173137907Y-184332762D01*
X173137906Y-184332763D01*
X173102096Y-184358781D01*
X172988747Y-184441134D01*
X172984326Y-184446044D01*
X172984325Y-184446045D01*
X172879433Y-184562540D01*
X172860960Y-184583056D01*
X172765473Y-184748444D01*
X172706458Y-184930072D01*
X172686496Y-185120000D01*
X166630522Y-185120000D01*
X166643542Y-185079928D01*
X166660359Y-184919928D01*
X166662814Y-184896565D01*
X166663504Y-184890000D01*
X166651678Y-184777482D01*
X166644232Y-184706635D01*
X166644232Y-184706633D01*
X166643542Y-184700072D01*
X166584527Y-184518444D01*
X166574376Y-184500861D01*
X166492345Y-184358781D01*
X166489040Y-184353056D01*
X166485179Y-184348768D01*
X166461426Y-184282194D01*
X166477506Y-184213042D01*
X166484887Y-184201556D01*
X166489040Y-184196944D01*
X166574533Y-184048866D01*
X166581223Y-184037279D01*
X166581224Y-184037278D01*
X166584527Y-184031556D01*
X166643542Y-183849928D01*
X166644947Y-183836565D01*
X166662814Y-183666565D01*
X166663504Y-183660000D01*
X166643542Y-183470072D01*
X166584527Y-183288444D01*
X166489781Y-183124339D01*
X166473043Y-183055345D01*
X166489781Y-182998340D01*
X166571223Y-182857279D01*
X166571224Y-182857278D01*
X166574527Y-182851556D01*
X166633542Y-182669928D01*
X166634260Y-182663102D01*
X166637066Y-182636403D01*
X166638463Y-182623106D01*
X166665476Y-182557449D01*
X166723697Y-182516819D01*
X166794642Y-182514116D01*
X166801918Y-182516214D01*
X166807712Y-182518794D01*
X166828892Y-182523296D01*
X166988056Y-182557128D01*
X166988061Y-182557128D01*
X166994513Y-182558500D01*
X167185487Y-182558500D01*
X167191939Y-182557128D01*
X167191944Y-182557128D01*
X167278888Y-182538647D01*
X167372288Y-182518794D01*
X167405761Y-182503891D01*
X167540722Y-182443803D01*
X167540724Y-182443802D01*
X167546752Y-182441118D01*
X167701253Y-182328866D01*
X167814996Y-182202542D01*
X167824621Y-182191852D01*
X167824622Y-182191851D01*
X167829040Y-182186944D01*
X167914456Y-182039000D01*
X167921223Y-182027279D01*
X167921224Y-182027278D01*
X167924527Y-182021556D01*
X167983542Y-181839928D01*
X167984574Y-181830114D01*
X168002814Y-181656565D01*
X168003504Y-181650000D01*
X167995481Y-181573661D01*
X167984232Y-181466635D01*
X167984232Y-181466633D01*
X167983542Y-181460072D01*
X167924527Y-181278444D01*
X167829040Y-181113056D01*
X167814192Y-181096565D01*
X167808281Y-181090000D01*
X169106496Y-181090000D01*
X169107186Y-181096565D01*
X169125701Y-181272721D01*
X169126458Y-181279928D01*
X169185473Y-181461556D01*
X169280960Y-181626944D01*
X169285378Y-181631851D01*
X169285379Y-181631852D01*
X169404325Y-181763955D01*
X169408747Y-181768866D01*
X169563248Y-181881118D01*
X169569276Y-181883802D01*
X169569278Y-181883803D01*
X169679903Y-181933056D01*
X169737712Y-181958794D01*
X169831113Y-181978647D01*
X169918056Y-181997128D01*
X169918061Y-181997128D01*
X169924513Y-181998500D01*
X170115487Y-181998500D01*
X170121939Y-181997128D01*
X170121944Y-181997128D01*
X170208887Y-181978647D01*
X170302288Y-181958794D01*
X170360097Y-181933056D01*
X170470722Y-181883803D01*
X170470724Y-181883802D01*
X170476752Y-181881118D01*
X170631253Y-181768866D01*
X170635675Y-181763955D01*
X170754621Y-181631852D01*
X170754622Y-181631851D01*
X170759040Y-181626944D01*
X170854527Y-181461556D01*
X170913542Y-181279928D01*
X170914300Y-181272721D01*
X170932814Y-181096565D01*
X170933504Y-181090000D01*
X170919035Y-180952334D01*
X170914232Y-180906635D01*
X170914232Y-180906633D01*
X170913542Y-180900072D01*
X170854527Y-180718444D01*
X170759040Y-180553056D01*
X170734356Y-180525641D01*
X170635675Y-180416045D01*
X170635674Y-180416044D01*
X170631253Y-180411134D01*
X170476752Y-180298882D01*
X170470724Y-180296198D01*
X170470722Y-180296197D01*
X170308319Y-180223891D01*
X170308318Y-180223891D01*
X170302288Y-180221206D01*
X170208888Y-180201353D01*
X170121944Y-180182872D01*
X170121939Y-180182872D01*
X170115487Y-180181500D01*
X169924513Y-180181500D01*
X169918061Y-180182872D01*
X169918056Y-180182872D01*
X169831112Y-180201353D01*
X169737712Y-180221206D01*
X169731682Y-180223891D01*
X169731681Y-180223891D01*
X169569278Y-180296197D01*
X169569276Y-180296198D01*
X169563248Y-180298882D01*
X169408747Y-180411134D01*
X169404326Y-180416044D01*
X169404325Y-180416045D01*
X169305645Y-180525641D01*
X169280960Y-180553056D01*
X169185473Y-180718444D01*
X169126458Y-180900072D01*
X169125768Y-180906633D01*
X169125768Y-180906635D01*
X169120965Y-180952334D01*
X169106496Y-181090000D01*
X167808281Y-181090000D01*
X167705675Y-180976045D01*
X167705674Y-180976044D01*
X167701253Y-180971134D01*
X167546752Y-180858882D01*
X167540724Y-180856198D01*
X167540722Y-180856197D01*
X167378319Y-180783891D01*
X167378318Y-180783891D01*
X167372288Y-180781206D01*
X167278887Y-180761353D01*
X167191944Y-180742872D01*
X167191939Y-180742872D01*
X167185487Y-180741500D01*
X166994513Y-180741500D01*
X166988061Y-180742872D01*
X166988056Y-180742872D01*
X166901113Y-180761353D01*
X166807712Y-180781206D01*
X166801685Y-180783889D01*
X166801677Y-180783892D01*
X166653964Y-180849658D01*
X166583597Y-180859092D01*
X166519300Y-180828985D01*
X166493597Y-180797551D01*
X166442341Y-180708774D01*
X166439040Y-180703056D01*
X166311253Y-180561134D01*
X166156752Y-180448882D01*
X166150724Y-180446198D01*
X166150722Y-180446197D01*
X165988319Y-180373891D01*
X165988318Y-180373891D01*
X165982288Y-180371206D01*
X165888887Y-180351353D01*
X165801944Y-180332872D01*
X165801939Y-180332872D01*
X165795487Y-180331500D01*
X165604513Y-180331500D01*
X165598061Y-180332872D01*
X165598056Y-180332872D01*
X165511113Y-180351353D01*
X165417712Y-180371206D01*
X165269803Y-180437059D01*
X165199437Y-180446493D01*
X165144495Y-180423889D01*
X165135388Y-180417272D01*
X165129360Y-180414588D01*
X165129358Y-180414587D01*
X164966955Y-180342281D01*
X164966954Y-180342281D01*
X164960924Y-180339596D01*
X164867524Y-180319743D01*
X164780580Y-180301262D01*
X164780575Y-180301262D01*
X164774123Y-180299890D01*
X164583149Y-180299890D01*
X164576697Y-180301262D01*
X164576692Y-180301262D01*
X164489748Y-180319743D01*
X164396348Y-180339596D01*
X164390318Y-180342281D01*
X164390317Y-180342281D01*
X164227914Y-180414587D01*
X164227912Y-180414588D01*
X164221884Y-180417272D01*
X164216543Y-180421152D01*
X164216542Y-180421153D01*
X164182072Y-180446197D01*
X164067383Y-180529524D01*
X164062962Y-180534434D01*
X164062961Y-180534435D01*
X164042418Y-180557251D01*
X163939596Y-180671446D01*
X163936295Y-180677164D01*
X163848641Y-180828985D01*
X163844109Y-180836834D01*
X163785094Y-181018462D01*
X163784404Y-181025023D01*
X163784404Y-181025025D01*
X163779077Y-181075713D01*
X163765132Y-181208390D01*
X163785094Y-181398318D01*
X163844109Y-181579946D01*
X163939596Y-181745334D01*
X163942983Y-181749095D01*
X163966647Y-181815426D01*
X163950564Y-181884577D01*
X163934491Y-181906922D01*
X163910960Y-181933056D01*
X163815473Y-182098444D01*
X163756458Y-182280072D01*
X163755768Y-182286633D01*
X163755768Y-182286635D01*
X163743568Y-182402715D01*
X163736496Y-182470000D01*
X163737186Y-182476565D01*
X163754677Y-182642979D01*
X163756458Y-182659928D01*
X163815473Y-182841556D01*
X163818776Y-182847278D01*
X163818777Y-182847279D01*
X163838323Y-182881134D01*
X163910960Y-183006944D01*
X163912312Y-183008446D01*
X163935598Y-183073710D01*
X163918923Y-183143904D01*
X163883806Y-183204729D01*
X163835473Y-183288444D01*
X163833432Y-183294726D01*
X163833221Y-183295376D01*
X163832997Y-183295704D01*
X163830747Y-183300757D01*
X163829823Y-183300345D01*
X163793145Y-183353980D01*
X163727747Y-183381614D01*
X163657791Y-183369505D01*
X163604270Y-183319435D01*
X163592341Y-183298774D01*
X163589040Y-183293056D01*
X163579735Y-183282721D01*
X163465675Y-183156045D01*
X163465674Y-183156044D01*
X163461253Y-183151134D01*
X163306752Y-183038882D01*
X163300724Y-183036198D01*
X163300722Y-183036197D01*
X163138319Y-182963891D01*
X163138318Y-182963891D01*
X163132288Y-182961206D01*
X163033807Y-182940273D01*
X162951944Y-182922872D01*
X162951939Y-182922872D01*
X162945487Y-182921500D01*
X162754513Y-182921500D01*
X162748061Y-182922872D01*
X162748056Y-182922872D01*
X162666193Y-182940273D01*
X162567712Y-182961206D01*
X162561682Y-182963891D01*
X162561681Y-182963891D01*
X162399278Y-183036197D01*
X162399276Y-183036198D01*
X162393248Y-183038882D01*
X162238747Y-183151134D01*
X162234326Y-183156044D01*
X162234325Y-183156045D01*
X162120266Y-183282721D01*
X162110960Y-183293056D01*
X162015473Y-183458444D01*
X161956458Y-183640072D01*
X161955768Y-183646633D01*
X161955768Y-183646635D01*
X161944252Y-183756206D01*
X161936496Y-183830000D01*
X161956458Y-184019928D01*
X161994179Y-184136020D01*
X162002239Y-184160826D01*
X162004267Y-184231793D01*
X161967604Y-184292591D01*
X161903892Y-184323917D01*
X161869563Y-184325106D01*
X161579826Y-184295420D01*
X161574247Y-184295098D01*
X161151635Y-184289566D01*
X161146024Y-184289742D01*
X160724593Y-184321800D01*
X160719036Y-184322472D01*
X160302128Y-184391864D01*
X160296631Y-184393032D01*
X159887547Y-184499209D01*
X159882181Y-184500861D01*
X159484153Y-184642983D01*
X159478965Y-184645100D01*
X159095133Y-184822050D01*
X159090164Y-184824614D01*
X158723581Y-185034984D01*
X158718848Y-185037987D01*
X158372420Y-185280109D01*
X158367979Y-185283517D01*
X158096476Y-185511739D01*
X158088031Y-185524456D01*
X156408500Y-185524456D01*
X156408500Y-181926000D01*
X156428502Y-181857879D01*
X156482158Y-181811386D01*
X156534500Y-181800000D01*
X161980000Y-181800000D01*
X161980000Y-177940000D01*
X178026496Y-177940000D01*
X178027186Y-177946565D01*
X178044552Y-178111790D01*
X178046458Y-178129928D01*
X178105473Y-178311556D01*
X178200960Y-178476944D01*
X178328747Y-178618866D01*
X178483248Y-178731118D01*
X178489276Y-178733802D01*
X178489278Y-178733803D01*
X178651681Y-178806109D01*
X178657712Y-178808794D01*
X178743966Y-178827128D01*
X178838056Y-178847128D01*
X178838061Y-178847128D01*
X178844513Y-178848500D01*
X179035487Y-178848500D01*
X179041939Y-178847128D01*
X179041944Y-178847128D01*
X179136034Y-178827128D01*
X179222288Y-178808794D01*
X179228319Y-178806109D01*
X179390722Y-178733803D01*
X179390724Y-178733802D01*
X179396752Y-178731118D01*
X179551253Y-178618866D01*
X179679040Y-178476944D01*
X179774527Y-178311556D01*
X179833542Y-178129928D01*
X179834140Y-178124241D01*
X179867711Y-178062057D01*
X179929860Y-178027736D01*
X180000699Y-178032463D01*
X180057737Y-178074738D01*
X180077063Y-178111790D01*
X180135473Y-178291556D01*
X180230960Y-178456944D01*
X180235378Y-178461851D01*
X180235379Y-178461852D01*
X180248968Y-178476944D01*
X180358747Y-178598866D01*
X180513248Y-178711118D01*
X180519276Y-178713802D01*
X180519278Y-178713803D01*
X180681681Y-178786109D01*
X180687712Y-178788794D01*
X180781112Y-178808647D01*
X180868056Y-178827128D01*
X180868061Y-178827128D01*
X180874513Y-178828500D01*
X181065487Y-178828500D01*
X181071939Y-178827128D01*
X181071944Y-178827128D01*
X181158888Y-178808647D01*
X181252288Y-178788794D01*
X181258319Y-178786109D01*
X181420722Y-178713803D01*
X181420724Y-178713802D01*
X181426752Y-178711118D01*
X181581253Y-178598866D01*
X181691032Y-178476944D01*
X181704621Y-178461852D01*
X181704622Y-178461851D01*
X181709040Y-178456944D01*
X181804527Y-178291556D01*
X181863542Y-178109928D01*
X181868574Y-178062057D01*
X181882814Y-177926565D01*
X181883504Y-177920000D01*
X181873786Y-177827537D01*
X181864232Y-177736635D01*
X181864232Y-177736633D01*
X181863542Y-177730072D01*
X181804527Y-177548444D01*
X181709040Y-177383056D01*
X181581253Y-177241134D01*
X181426752Y-177128882D01*
X181420724Y-177126198D01*
X181420722Y-177126197D01*
X181258319Y-177053891D01*
X181258318Y-177053891D01*
X181252288Y-177051206D01*
X181158888Y-177031353D01*
X181071944Y-177012872D01*
X181071939Y-177012872D01*
X181065487Y-177011500D01*
X180874513Y-177011500D01*
X180868061Y-177012872D01*
X180868056Y-177012872D01*
X180781112Y-177031353D01*
X180687712Y-177051206D01*
X180681682Y-177053891D01*
X180681681Y-177053891D01*
X180519278Y-177126197D01*
X180519276Y-177126198D01*
X180513248Y-177128882D01*
X180358747Y-177241134D01*
X180230960Y-177383056D01*
X180135473Y-177548444D01*
X180076458Y-177730072D01*
X180075860Y-177735759D01*
X180042289Y-177797943D01*
X179980140Y-177832264D01*
X179909301Y-177827537D01*
X179852263Y-177785262D01*
X179832937Y-177748210D01*
X179776568Y-177574726D01*
X179774527Y-177568444D01*
X179679040Y-177403056D01*
X179666181Y-177388774D01*
X179555675Y-177266045D01*
X179555674Y-177266044D01*
X179551253Y-177261134D01*
X179396752Y-177148882D01*
X179390724Y-177146198D01*
X179390722Y-177146197D01*
X179228319Y-177073891D01*
X179228318Y-177073891D01*
X179222288Y-177071206D01*
X179121741Y-177049834D01*
X179041944Y-177032872D01*
X179041939Y-177032872D01*
X179035487Y-177031500D01*
X178844513Y-177031500D01*
X178838061Y-177032872D01*
X178838056Y-177032872D01*
X178758259Y-177049834D01*
X178657712Y-177071206D01*
X178651682Y-177073891D01*
X178651681Y-177073891D01*
X178489278Y-177146197D01*
X178489276Y-177146198D01*
X178483248Y-177148882D01*
X178328747Y-177261134D01*
X178324326Y-177266044D01*
X178324325Y-177266045D01*
X178213820Y-177388774D01*
X178200960Y-177403056D01*
X178105473Y-177568444D01*
X178046458Y-177750072D01*
X178045768Y-177756633D01*
X178045768Y-177756635D01*
X178038316Y-177827537D01*
X178026496Y-177940000D01*
X161980000Y-177940000D01*
X161980000Y-174970000D01*
X183066496Y-174970000D01*
X183086458Y-175159928D01*
X183145473Y-175341556D01*
X183240960Y-175506944D01*
X183368747Y-175648866D01*
X183523248Y-175761118D01*
X183529276Y-175763802D01*
X183529278Y-175763803D01*
X183691681Y-175836109D01*
X183697712Y-175838794D01*
X183791113Y-175858647D01*
X183878056Y-175877128D01*
X183878061Y-175877128D01*
X183884513Y-175878500D01*
X184075487Y-175878500D01*
X184081939Y-175877128D01*
X184081944Y-175877128D01*
X184168887Y-175858647D01*
X184262288Y-175838794D01*
X184268319Y-175836109D01*
X184430722Y-175763803D01*
X184430724Y-175763802D01*
X184436752Y-175761118D01*
X184591253Y-175648866D01*
X184719040Y-175506944D01*
X184814527Y-175341556D01*
X184873542Y-175159928D01*
X184893504Y-174970000D01*
X184873542Y-174780072D01*
X184814527Y-174598444D01*
X184719040Y-174433056D01*
X184591253Y-174291134D01*
X184436752Y-174178882D01*
X184430724Y-174176198D01*
X184430722Y-174176197D01*
X184268319Y-174103891D01*
X184268318Y-174103891D01*
X184262288Y-174101206D01*
X184168888Y-174081353D01*
X184081944Y-174062872D01*
X184081939Y-174062872D01*
X184075487Y-174061500D01*
X183884513Y-174061500D01*
X183878061Y-174062872D01*
X183878056Y-174062872D01*
X183791112Y-174081353D01*
X183697712Y-174101206D01*
X183691682Y-174103891D01*
X183691681Y-174103891D01*
X183529278Y-174176197D01*
X183529276Y-174176198D01*
X183523248Y-174178882D01*
X183368747Y-174291134D01*
X183240960Y-174433056D01*
X183145473Y-174598444D01*
X183086458Y-174780072D01*
X183066496Y-174970000D01*
X161980000Y-174970000D01*
X161980000Y-170400000D01*
X178036496Y-170400000D01*
X178056458Y-170589928D01*
X178115473Y-170771556D01*
X178210960Y-170936944D01*
X178338747Y-171078866D01*
X178493248Y-171191118D01*
X178499276Y-171193802D01*
X178499278Y-171193803D01*
X178661681Y-171266109D01*
X178667712Y-171268794D01*
X178761112Y-171288647D01*
X178848056Y-171307128D01*
X178848061Y-171307128D01*
X178854513Y-171308500D01*
X179045487Y-171308500D01*
X179051939Y-171307128D01*
X179051944Y-171307128D01*
X179138888Y-171288647D01*
X179232288Y-171268794D01*
X179238319Y-171266109D01*
X179400722Y-171193803D01*
X179400724Y-171193802D01*
X179406752Y-171191118D01*
X179561253Y-171078866D01*
X179689040Y-170936944D01*
X179784527Y-170771556D01*
X179843542Y-170589928D01*
X179863504Y-170400000D01*
X179843542Y-170210072D01*
X179784527Y-170028444D01*
X179689040Y-169863056D01*
X179561253Y-169721134D01*
X179406752Y-169608882D01*
X179400724Y-169606198D01*
X179400722Y-169606197D01*
X179238319Y-169533891D01*
X179238318Y-169533891D01*
X179232288Y-169531206D01*
X179138888Y-169511353D01*
X179051944Y-169492872D01*
X179051939Y-169492872D01*
X179045487Y-169491500D01*
X178854513Y-169491500D01*
X178848061Y-169492872D01*
X178848056Y-169492872D01*
X178761112Y-169511353D01*
X178667712Y-169531206D01*
X178661682Y-169533891D01*
X178661681Y-169533891D01*
X178499278Y-169606197D01*
X178499276Y-169606198D01*
X178493248Y-169608882D01*
X178338747Y-169721134D01*
X178210960Y-169863056D01*
X178115473Y-170028444D01*
X178056458Y-170210072D01*
X178036496Y-170400000D01*
X161980000Y-170400000D01*
X161980000Y-169440000D01*
X182866496Y-169440000D01*
X182886458Y-169629928D01*
X182945473Y-169811556D01*
X183040960Y-169976944D01*
X183168747Y-170118866D01*
X183323248Y-170231118D01*
X183329276Y-170233802D01*
X183329278Y-170233803D01*
X183491681Y-170306109D01*
X183497712Y-170308794D01*
X183591113Y-170328647D01*
X183678056Y-170347128D01*
X183678061Y-170347128D01*
X183684513Y-170348500D01*
X183875487Y-170348500D01*
X183881939Y-170347128D01*
X183881944Y-170347128D01*
X183968887Y-170328647D01*
X184062288Y-170308794D01*
X184068319Y-170306109D01*
X184230722Y-170233803D01*
X184230724Y-170233802D01*
X184236752Y-170231118D01*
X184391253Y-170118866D01*
X184519040Y-169976944D01*
X184614527Y-169811556D01*
X184673542Y-169629928D01*
X184693504Y-169440000D01*
X184673542Y-169250072D01*
X184614527Y-169068444D01*
X184519040Y-168903056D01*
X184455736Y-168832749D01*
X184395675Y-168766045D01*
X184395674Y-168766044D01*
X184391253Y-168761134D01*
X184236752Y-168648882D01*
X184230724Y-168646198D01*
X184230722Y-168646197D01*
X184068319Y-168573891D01*
X184068318Y-168573891D01*
X184062288Y-168571206D01*
X183968887Y-168551353D01*
X183881944Y-168532872D01*
X183881939Y-168532872D01*
X183875487Y-168531500D01*
X183684513Y-168531500D01*
X183678061Y-168532872D01*
X183678056Y-168532872D01*
X183591113Y-168551353D01*
X183497712Y-168571206D01*
X183491682Y-168573891D01*
X183491681Y-168573891D01*
X183329278Y-168646197D01*
X183329276Y-168646198D01*
X183323248Y-168648882D01*
X183168747Y-168761134D01*
X183164326Y-168766044D01*
X183164325Y-168766045D01*
X183104265Y-168832749D01*
X183040960Y-168903056D01*
X182945473Y-169068444D01*
X182886458Y-169250072D01*
X182866496Y-169440000D01*
X161980000Y-169440000D01*
X161980000Y-168150000D01*
X177076496Y-168150000D01*
X177077186Y-168156565D01*
X177082645Y-168208500D01*
X177096458Y-168339928D01*
X177155473Y-168521556D01*
X177250960Y-168686944D01*
X177255378Y-168691851D01*
X177255379Y-168691852D01*
X177317761Y-168761134D01*
X177378747Y-168828866D01*
X177533248Y-168941118D01*
X177539276Y-168943802D01*
X177539278Y-168943803D01*
X177701681Y-169016109D01*
X177707712Y-169018794D01*
X177801113Y-169038647D01*
X177888056Y-169057128D01*
X177888061Y-169057128D01*
X177894513Y-169058500D01*
X178085487Y-169058500D01*
X178091939Y-169057128D01*
X178091944Y-169057128D01*
X178178887Y-169038647D01*
X178272288Y-169018794D01*
X178278319Y-169016109D01*
X178440722Y-168943803D01*
X178440724Y-168943802D01*
X178446752Y-168941118D01*
X178601253Y-168828866D01*
X178662239Y-168761134D01*
X178724621Y-168691852D01*
X178724622Y-168691851D01*
X178729040Y-168686944D01*
X178824527Y-168521556D01*
X178883542Y-168339928D01*
X178897356Y-168208500D01*
X178902814Y-168156565D01*
X178903504Y-168150000D01*
X178896907Y-168087237D01*
X178884232Y-167966635D01*
X178884232Y-167966633D01*
X178883542Y-167960072D01*
X178824527Y-167778444D01*
X178729040Y-167613056D01*
X178702838Y-167583955D01*
X178605675Y-167476045D01*
X178605674Y-167476044D01*
X178601253Y-167471134D01*
X178446752Y-167358882D01*
X178440724Y-167356198D01*
X178440722Y-167356197D01*
X178314501Y-167300000D01*
X182716496Y-167300000D01*
X182717186Y-167306565D01*
X182734483Y-167471134D01*
X182736458Y-167489928D01*
X182795473Y-167671556D01*
X182890960Y-167836944D01*
X183018747Y-167978866D01*
X183173248Y-168091118D01*
X183179276Y-168093802D01*
X183179278Y-168093803D01*
X183320245Y-168156565D01*
X183347712Y-168168794D01*
X183441113Y-168188647D01*
X183528056Y-168207128D01*
X183528061Y-168207128D01*
X183534513Y-168208500D01*
X183725487Y-168208500D01*
X183731939Y-168207128D01*
X183731944Y-168207128D01*
X183818887Y-168188647D01*
X183912288Y-168168794D01*
X183939755Y-168156565D01*
X184080722Y-168093803D01*
X184080724Y-168093802D01*
X184086752Y-168091118D01*
X184241253Y-167978866D01*
X184369040Y-167836944D01*
X184464527Y-167671556D01*
X184523542Y-167489928D01*
X184525518Y-167471134D01*
X184542814Y-167306565D01*
X184543504Y-167300000D01*
X184541529Y-167281206D01*
X184524232Y-167116635D01*
X184524232Y-167116633D01*
X184523542Y-167110072D01*
X184464527Y-166928444D01*
X184453878Y-166910000D01*
X185446496Y-166910000D01*
X185466458Y-167099928D01*
X185525473Y-167281556D01*
X185620960Y-167446944D01*
X185625378Y-167451851D01*
X185625379Y-167451852D01*
X185744325Y-167583955D01*
X185748747Y-167588866D01*
X185782042Y-167613056D01*
X185870437Y-167677279D01*
X185903248Y-167701118D01*
X185909276Y-167703802D01*
X185909278Y-167703803D01*
X186071681Y-167776109D01*
X186077712Y-167778794D01*
X186171113Y-167798647D01*
X186258056Y-167817128D01*
X186258061Y-167817128D01*
X186264513Y-167818500D01*
X186455487Y-167818500D01*
X186461939Y-167817128D01*
X186461944Y-167817128D01*
X186548887Y-167798647D01*
X186642288Y-167778794D01*
X186648319Y-167776109D01*
X186810722Y-167703803D01*
X186810724Y-167703802D01*
X186816752Y-167701118D01*
X186849564Y-167677279D01*
X186937958Y-167613056D01*
X186971253Y-167588866D01*
X186975675Y-167583955D01*
X187094621Y-167451852D01*
X187094622Y-167451851D01*
X187099040Y-167446944D01*
X187194527Y-167281556D01*
X187253542Y-167099928D01*
X187273504Y-166910000D01*
X187253542Y-166720072D01*
X187194527Y-166538444D01*
X187099040Y-166373056D01*
X186971253Y-166231134D01*
X186816752Y-166118882D01*
X186810724Y-166116198D01*
X186810722Y-166116197D01*
X186648319Y-166043891D01*
X186648318Y-166043891D01*
X186642288Y-166041206D01*
X186548888Y-166021353D01*
X186461944Y-166002872D01*
X186461939Y-166002872D01*
X186455487Y-166001500D01*
X186264513Y-166001500D01*
X186258061Y-166002872D01*
X186258056Y-166002872D01*
X186171112Y-166021353D01*
X186077712Y-166041206D01*
X186071682Y-166043891D01*
X186071681Y-166043891D01*
X185909278Y-166116197D01*
X185909276Y-166116198D01*
X185903248Y-166118882D01*
X185748747Y-166231134D01*
X185620960Y-166373056D01*
X185525473Y-166538444D01*
X185466458Y-166720072D01*
X185446496Y-166910000D01*
X184453878Y-166910000D01*
X184369040Y-166763056D01*
X184336247Y-166726635D01*
X184245675Y-166626045D01*
X184245674Y-166626044D01*
X184241253Y-166621134D01*
X184136091Y-166544729D01*
X184092094Y-166512763D01*
X184092093Y-166512762D01*
X184086752Y-166508882D01*
X184080724Y-166506198D01*
X184080722Y-166506197D01*
X183918319Y-166433891D01*
X183918318Y-166433891D01*
X183912288Y-166431206D01*
X183818888Y-166411353D01*
X183731944Y-166392872D01*
X183731939Y-166392872D01*
X183725487Y-166391500D01*
X183534513Y-166391500D01*
X183528061Y-166392872D01*
X183528056Y-166392872D01*
X183441112Y-166411353D01*
X183347712Y-166431206D01*
X183341682Y-166433891D01*
X183341681Y-166433891D01*
X183179278Y-166506197D01*
X183179276Y-166506198D01*
X183173248Y-166508882D01*
X183167907Y-166512762D01*
X183167906Y-166512763D01*
X183123909Y-166544729D01*
X183018747Y-166621134D01*
X183014326Y-166626044D01*
X183014325Y-166626045D01*
X182923754Y-166726635D01*
X182890960Y-166763056D01*
X182795473Y-166928444D01*
X182736458Y-167110072D01*
X182735768Y-167116633D01*
X182735768Y-167116635D01*
X182718471Y-167281206D01*
X182716496Y-167300000D01*
X178314501Y-167300000D01*
X178278319Y-167283891D01*
X178278318Y-167283891D01*
X178272288Y-167281206D01*
X178178887Y-167261353D01*
X178091944Y-167242872D01*
X178091939Y-167242872D01*
X178085487Y-167241500D01*
X177894513Y-167241500D01*
X177888061Y-167242872D01*
X177888056Y-167242872D01*
X177801113Y-167261353D01*
X177707712Y-167281206D01*
X177701682Y-167283891D01*
X177701681Y-167283891D01*
X177539278Y-167356197D01*
X177539276Y-167356198D01*
X177533248Y-167358882D01*
X177378747Y-167471134D01*
X177374326Y-167476044D01*
X177374325Y-167476045D01*
X177277163Y-167583955D01*
X177250960Y-167613056D01*
X177155473Y-167778444D01*
X177096458Y-167960072D01*
X177095768Y-167966633D01*
X177095768Y-167966635D01*
X177083093Y-168087237D01*
X177076496Y-168150000D01*
X161980000Y-168150000D01*
X161980000Y-164553134D01*
X189286500Y-164553134D01*
X189293255Y-164615316D01*
X189344385Y-164751705D01*
X189431739Y-164868261D01*
X189548295Y-164955615D01*
X189684684Y-165006745D01*
X189746866Y-165013500D01*
X190843134Y-165013500D01*
X190905316Y-165006745D01*
X191041705Y-164955615D01*
X191048892Y-164950229D01*
X191056760Y-164945921D01*
X191057975Y-164948141D01*
X191111928Y-164927986D01*
X191159916Y-164933827D01*
X191337776Y-164991616D01*
X191347392Y-164994740D01*
X191543777Y-165018158D01*
X191549912Y-165017686D01*
X191549914Y-165017686D01*
X191734830Y-165003457D01*
X191734834Y-165003456D01*
X191740972Y-165002984D01*
X191931463Y-164949798D01*
X191936967Y-164947018D01*
X191936969Y-164947017D01*
X192102493Y-164863405D01*
X192102495Y-164863404D01*
X192107996Y-164860625D01*
X192112858Y-164856827D01*
X192121973Y-164849705D01*
X192187967Y-164823525D01*
X192261020Y-164839004D01*
X192424121Y-164930159D01*
X192435356Y-164935067D01*
X192563768Y-164976790D01*
X192577867Y-164977193D01*
X192581000Y-164970821D01*
X192581000Y-164962564D01*
X193089000Y-164962564D01*
X193092973Y-164976095D01*
X193101188Y-164977276D01*
X193195337Y-164950989D01*
X193206787Y-164946548D01*
X193372226Y-164862979D01*
X193382588Y-164856403D01*
X193391074Y-164849773D01*
X193457068Y-164823595D01*
X193530117Y-164839074D01*
X193699294Y-164933624D01*
X193887392Y-164994740D01*
X194083777Y-165018158D01*
X194089912Y-165017686D01*
X194089914Y-165017686D01*
X194274830Y-165003457D01*
X194274834Y-165003456D01*
X194280972Y-165002984D01*
X194471463Y-164949798D01*
X194476967Y-164947018D01*
X194476969Y-164947017D01*
X194642493Y-164863405D01*
X194642495Y-164863404D01*
X194647996Y-164860625D01*
X194652850Y-164856833D01*
X194652859Y-164856827D01*
X194661548Y-164850038D01*
X194727542Y-164823860D01*
X194800592Y-164839339D01*
X194969294Y-164933624D01*
X195157392Y-164994740D01*
X195353777Y-165018158D01*
X195359912Y-165017686D01*
X195359914Y-165017686D01*
X195544830Y-165003457D01*
X195544834Y-165003456D01*
X195550972Y-165002984D01*
X195741463Y-164949798D01*
X195746967Y-164947018D01*
X195746969Y-164947017D01*
X195912493Y-164863405D01*
X195912495Y-164863404D01*
X195917996Y-164860625D01*
X195922850Y-164856833D01*
X195922859Y-164856827D01*
X195931548Y-164850038D01*
X195997542Y-164823860D01*
X196070592Y-164839339D01*
X196239294Y-164933624D01*
X196427392Y-164994740D01*
X196623777Y-165018158D01*
X196629912Y-165017686D01*
X196629914Y-165017686D01*
X196814830Y-165003457D01*
X196814834Y-165003456D01*
X196820972Y-165002984D01*
X197011463Y-164949798D01*
X197016967Y-164947018D01*
X197016969Y-164947017D01*
X197182493Y-164863405D01*
X197182495Y-164863404D01*
X197187996Y-164860625D01*
X197192850Y-164856833D01*
X197192859Y-164856827D01*
X197201548Y-164850038D01*
X197267542Y-164823860D01*
X197340592Y-164839339D01*
X197509294Y-164933624D01*
X197697392Y-164994740D01*
X197893777Y-165018158D01*
X197899912Y-165017686D01*
X197899914Y-165017686D01*
X198084830Y-165003457D01*
X198084834Y-165003456D01*
X198090972Y-165002984D01*
X198281463Y-164949798D01*
X198286967Y-164947018D01*
X198286969Y-164947017D01*
X198452493Y-164863405D01*
X198452495Y-164863404D01*
X198457996Y-164860625D01*
X198462850Y-164856833D01*
X198462859Y-164856827D01*
X198471548Y-164850038D01*
X198537542Y-164823860D01*
X198610592Y-164839339D01*
X198779294Y-164933624D01*
X198967392Y-164994740D01*
X199163777Y-165018158D01*
X199169912Y-165017686D01*
X199169914Y-165017686D01*
X199354830Y-165003457D01*
X199354834Y-165003456D01*
X199360972Y-165002984D01*
X199551463Y-164949798D01*
X199556967Y-164947018D01*
X199556969Y-164947017D01*
X199722493Y-164863405D01*
X199722495Y-164863404D01*
X199727996Y-164860625D01*
X199732850Y-164856833D01*
X199732859Y-164856827D01*
X199741548Y-164850038D01*
X199807542Y-164823860D01*
X199880592Y-164839339D01*
X200049294Y-164933624D01*
X200237392Y-164994740D01*
X200433777Y-165018158D01*
X200439912Y-165017686D01*
X200439914Y-165017686D01*
X200624830Y-165003457D01*
X200624834Y-165003456D01*
X200630972Y-165002984D01*
X200821463Y-164949798D01*
X200826967Y-164947018D01*
X200826969Y-164947017D01*
X200992495Y-164863404D01*
X200992497Y-164863403D01*
X200997996Y-164860625D01*
X201153847Y-164738861D01*
X201283078Y-164589145D01*
X201380769Y-164417179D01*
X201443197Y-164229513D01*
X201467985Y-164033295D01*
X201468380Y-164005000D01*
X201449080Y-163808167D01*
X201431569Y-163750166D01*
X201407702Y-163671118D01*
X201391916Y-163618831D01*
X201299066Y-163444204D01*
X201228709Y-163357938D01*
X201177960Y-163295713D01*
X201177957Y-163295710D01*
X201174065Y-163290938D01*
X201169316Y-163287009D01*
X201026425Y-163168799D01*
X201026421Y-163168797D01*
X201021675Y-163164870D01*
X200847701Y-163070802D01*
X200658768Y-163012318D01*
X200652643Y-163011674D01*
X200652642Y-163011674D01*
X200468204Y-162992289D01*
X200468202Y-162992289D01*
X200462075Y-162991645D01*
X200379576Y-162999153D01*
X200271251Y-163009011D01*
X200271248Y-163009012D01*
X200265112Y-163009570D01*
X200259206Y-163011308D01*
X200259202Y-163011309D01*
X200182954Y-163033750D01*
X200075381Y-163065410D01*
X200069923Y-163068263D01*
X200069919Y-163068265D01*
X199999410Y-163105127D01*
X199900110Y-163157040D01*
X199895310Y-163160900D01*
X199890153Y-163164274D01*
X199888769Y-163162158D01*
X199833365Y-163185027D01*
X199763512Y-163172334D01*
X199753898Y-163166709D01*
X199751675Y-163164870D01*
X199577701Y-163070802D01*
X199388768Y-163012318D01*
X199382643Y-163011674D01*
X199382642Y-163011674D01*
X199198204Y-162992289D01*
X199198202Y-162992289D01*
X199192075Y-162991645D01*
X199109576Y-162999153D01*
X199001251Y-163009011D01*
X199001248Y-163009012D01*
X198995112Y-163009570D01*
X198989206Y-163011308D01*
X198989202Y-163011309D01*
X198912954Y-163033750D01*
X198805381Y-163065410D01*
X198799923Y-163068263D01*
X198799919Y-163068265D01*
X198729410Y-163105127D01*
X198630110Y-163157040D01*
X198625310Y-163160900D01*
X198620153Y-163164274D01*
X198618769Y-163162158D01*
X198563365Y-163185027D01*
X198493512Y-163172334D01*
X198483898Y-163166709D01*
X198481675Y-163164870D01*
X198307701Y-163070802D01*
X198118768Y-163012318D01*
X198112643Y-163011674D01*
X198112642Y-163011674D01*
X197928204Y-162992289D01*
X197928202Y-162992289D01*
X197922075Y-162991645D01*
X197839576Y-162999153D01*
X197731251Y-163009011D01*
X197731248Y-163009012D01*
X197725112Y-163009570D01*
X197719206Y-163011308D01*
X197719202Y-163011309D01*
X197642954Y-163033750D01*
X197535381Y-163065410D01*
X197529923Y-163068263D01*
X197529919Y-163068265D01*
X197459410Y-163105127D01*
X197360110Y-163157040D01*
X197355310Y-163160900D01*
X197350153Y-163164274D01*
X197348769Y-163162158D01*
X197293365Y-163185027D01*
X197223512Y-163172334D01*
X197213898Y-163166709D01*
X197211675Y-163164870D01*
X197037701Y-163070802D01*
X196848768Y-163012318D01*
X196842643Y-163011674D01*
X196842642Y-163011674D01*
X196658204Y-162992289D01*
X196658202Y-162992289D01*
X196652075Y-162991645D01*
X196569576Y-162999153D01*
X196461251Y-163009011D01*
X196461248Y-163009012D01*
X196455112Y-163009570D01*
X196449206Y-163011308D01*
X196449202Y-163011309D01*
X196372954Y-163033750D01*
X196265381Y-163065410D01*
X196259923Y-163068263D01*
X196259919Y-163068265D01*
X196189410Y-163105127D01*
X196090110Y-163157040D01*
X196085310Y-163160900D01*
X196080153Y-163164274D01*
X196078769Y-163162158D01*
X196023365Y-163185027D01*
X195953512Y-163172334D01*
X195943898Y-163166709D01*
X195941675Y-163164870D01*
X195767701Y-163070802D01*
X195578768Y-163012318D01*
X195572643Y-163011674D01*
X195572642Y-163011674D01*
X195388204Y-162992289D01*
X195388202Y-162992289D01*
X195382075Y-162991645D01*
X195299576Y-162999153D01*
X195191251Y-163009011D01*
X195191248Y-163009012D01*
X195185112Y-163009570D01*
X195179206Y-163011308D01*
X195179202Y-163011309D01*
X195102954Y-163033750D01*
X194995381Y-163065410D01*
X194989923Y-163068263D01*
X194989919Y-163068265D01*
X194919410Y-163105127D01*
X194820110Y-163157040D01*
X194815310Y-163160900D01*
X194810153Y-163164274D01*
X194808769Y-163162158D01*
X194753365Y-163185027D01*
X194683512Y-163172334D01*
X194673898Y-163166709D01*
X194671675Y-163164870D01*
X194497701Y-163070802D01*
X194308768Y-163012318D01*
X194302643Y-163011674D01*
X194302642Y-163011674D01*
X194118204Y-162992289D01*
X194118202Y-162992289D01*
X194112075Y-162991645D01*
X194029576Y-162999153D01*
X193921251Y-163009011D01*
X193921248Y-163009012D01*
X193915112Y-163009570D01*
X193909206Y-163011308D01*
X193909202Y-163011309D01*
X193832954Y-163033750D01*
X193725381Y-163065410D01*
X193719923Y-163068263D01*
X193719919Y-163068265D01*
X193649410Y-163105127D01*
X193550110Y-163157040D01*
X193545310Y-163160900D01*
X193540153Y-163164274D01*
X193538849Y-163162281D01*
X193482977Y-163185354D01*
X193413122Y-163172674D01*
X193399186Y-163164522D01*
X193395980Y-163162360D01*
X193232924Y-163074196D01*
X193221619Y-163069444D01*
X193106308Y-163033750D01*
X193092205Y-163033544D01*
X193089000Y-163040299D01*
X193089000Y-164962564D01*
X192581000Y-164962564D01*
X192581000Y-163047076D01*
X192577027Y-163033545D01*
X192569232Y-163032425D01*
X192461479Y-163064138D01*
X192450111Y-163068731D01*
X192285846Y-163154607D01*
X192270426Y-163164697D01*
X192269003Y-163162522D01*
X192213864Y-163185314D01*
X192144005Y-163172657D01*
X192134055Y-163166839D01*
X192131675Y-163164870D01*
X191957701Y-163070802D01*
X191768768Y-163012318D01*
X191762643Y-163011674D01*
X191762642Y-163011674D01*
X191578204Y-162992289D01*
X191578202Y-162992289D01*
X191572075Y-162991645D01*
X191489576Y-162999153D01*
X191381251Y-163009011D01*
X191381248Y-163009012D01*
X191375112Y-163009570D01*
X191369206Y-163011308D01*
X191369202Y-163011309D01*
X191204541Y-163059771D01*
X191185381Y-163065410D01*
X191179797Y-163068329D01*
X191179727Y-163068343D01*
X191174209Y-163070573D01*
X191173785Y-163069524D01*
X191110164Y-163082165D01*
X191057846Y-163062096D01*
X191056760Y-163064079D01*
X191048892Y-163059771D01*
X191041705Y-163054385D01*
X190905316Y-163003255D01*
X190843134Y-162996500D01*
X189746866Y-162996500D01*
X189684684Y-163003255D01*
X189548295Y-163054385D01*
X189431739Y-163141739D01*
X189344385Y-163258295D01*
X189293255Y-163394684D01*
X189286500Y-163456866D01*
X189286500Y-164553134D01*
X161980000Y-164553134D01*
X161980000Y-163600000D01*
X167836496Y-163600000D01*
X167856458Y-163789928D01*
X167915473Y-163971556D01*
X167918776Y-163977278D01*
X167918777Y-163977279D01*
X167951118Y-164033295D01*
X168010960Y-164136944D01*
X168015378Y-164141851D01*
X168015379Y-164141852D01*
X168134325Y-164273955D01*
X168138747Y-164278866D01*
X168237843Y-164350864D01*
X168275262Y-164378050D01*
X168293248Y-164391118D01*
X168299276Y-164393802D01*
X168299278Y-164393803D01*
X168461681Y-164466109D01*
X168467712Y-164468794D01*
X168561113Y-164488647D01*
X168648056Y-164507128D01*
X168648061Y-164507128D01*
X168654513Y-164508500D01*
X168845487Y-164508500D01*
X168851939Y-164507128D01*
X168851944Y-164507128D01*
X168938887Y-164488647D01*
X169032288Y-164468794D01*
X169038319Y-164466109D01*
X169200722Y-164393803D01*
X169200724Y-164393802D01*
X169206752Y-164391118D01*
X169224739Y-164378050D01*
X169262157Y-164350864D01*
X169361253Y-164278866D01*
X169365675Y-164273955D01*
X169484621Y-164141852D01*
X169484622Y-164141851D01*
X169489040Y-164136944D01*
X169548882Y-164033295D01*
X169581223Y-163977279D01*
X169581224Y-163977278D01*
X169584527Y-163971556D01*
X169643542Y-163789928D01*
X169663504Y-163600000D01*
X169647701Y-163449645D01*
X169644232Y-163416635D01*
X169644232Y-163416633D01*
X169643542Y-163410072D01*
X169584527Y-163228444D01*
X169489040Y-163063056D01*
X169467195Y-163038794D01*
X169365675Y-162926045D01*
X169365674Y-162926044D01*
X169361253Y-162921134D01*
X169304637Y-162880000D01*
X170666496Y-162880000D01*
X170667186Y-162886565D01*
X170682904Y-163036109D01*
X170686458Y-163069928D01*
X170745473Y-163251556D01*
X170840960Y-163416944D01*
X170845378Y-163421851D01*
X170845379Y-163421852D01*
X170964325Y-163553955D01*
X170968747Y-163558866D01*
X171123248Y-163671118D01*
X171129276Y-163673802D01*
X171129278Y-163673803D01*
X171291681Y-163746109D01*
X171297712Y-163748794D01*
X171391113Y-163768647D01*
X171478056Y-163787128D01*
X171478061Y-163787128D01*
X171484513Y-163788500D01*
X171675487Y-163788500D01*
X171681939Y-163787128D01*
X171681944Y-163787128D01*
X171768887Y-163768647D01*
X171862288Y-163748794D01*
X171868319Y-163746109D01*
X172030722Y-163673803D01*
X172030724Y-163673802D01*
X172036752Y-163671118D01*
X172134637Y-163600000D01*
X185856496Y-163600000D01*
X185876458Y-163789928D01*
X185935473Y-163971556D01*
X185938776Y-163977278D01*
X185938777Y-163977279D01*
X185971118Y-164033295D01*
X186030960Y-164136944D01*
X186035378Y-164141851D01*
X186035379Y-164141852D01*
X186154325Y-164273955D01*
X186158747Y-164278866D01*
X186257843Y-164350864D01*
X186295262Y-164378050D01*
X186313248Y-164391118D01*
X186319276Y-164393802D01*
X186319278Y-164393803D01*
X186481681Y-164466109D01*
X186487712Y-164468794D01*
X186581113Y-164488647D01*
X186668056Y-164507128D01*
X186668061Y-164507128D01*
X186674513Y-164508500D01*
X186865487Y-164508500D01*
X186871939Y-164507128D01*
X186871944Y-164507128D01*
X186958887Y-164488647D01*
X187052288Y-164468794D01*
X187058319Y-164466109D01*
X187220722Y-164393803D01*
X187220724Y-164393802D01*
X187226752Y-164391118D01*
X187244739Y-164378050D01*
X187282157Y-164350864D01*
X187381253Y-164278866D01*
X187385675Y-164273955D01*
X187504621Y-164141852D01*
X187504622Y-164141851D01*
X187509040Y-164136944D01*
X187568882Y-164033295D01*
X187601223Y-163977279D01*
X187601224Y-163977278D01*
X187604527Y-163971556D01*
X187663542Y-163789928D01*
X187683504Y-163600000D01*
X187667701Y-163449645D01*
X187664232Y-163416635D01*
X187664232Y-163416633D01*
X187663542Y-163410072D01*
X187604527Y-163228444D01*
X187509040Y-163063056D01*
X187487195Y-163038794D01*
X187385675Y-162926045D01*
X187385674Y-162926044D01*
X187381253Y-162921134D01*
X187226752Y-162808882D01*
X187220724Y-162806198D01*
X187220722Y-162806197D01*
X187058319Y-162733891D01*
X187058318Y-162733891D01*
X187052288Y-162731206D01*
X186938145Y-162706944D01*
X186871944Y-162692872D01*
X186871939Y-162692872D01*
X186865487Y-162691500D01*
X186674513Y-162691500D01*
X186668061Y-162692872D01*
X186668056Y-162692872D01*
X186601855Y-162706944D01*
X186487712Y-162731206D01*
X186481682Y-162733891D01*
X186481681Y-162733891D01*
X186319278Y-162806197D01*
X186319276Y-162806198D01*
X186313248Y-162808882D01*
X186158747Y-162921134D01*
X186154326Y-162926044D01*
X186154325Y-162926045D01*
X186052806Y-163038794D01*
X186030960Y-163063056D01*
X185935473Y-163228444D01*
X185876458Y-163410072D01*
X185875768Y-163416633D01*
X185875768Y-163416635D01*
X185872299Y-163449645D01*
X185856496Y-163600000D01*
X172134637Y-163600000D01*
X172191253Y-163558866D01*
X172195675Y-163553955D01*
X172314621Y-163421852D01*
X172314622Y-163421851D01*
X172319040Y-163416944D01*
X172414527Y-163251556D01*
X172473542Y-163069928D01*
X172477097Y-163036109D01*
X172492814Y-162886565D01*
X172493504Y-162880000D01*
X172475315Y-162706944D01*
X172474232Y-162696635D01*
X172474232Y-162696633D01*
X172473542Y-162690072D01*
X172414527Y-162508444D01*
X172319040Y-162343056D01*
X172313703Y-162337128D01*
X172195675Y-162206045D01*
X172195674Y-162206044D01*
X172191253Y-162201134D01*
X172076484Y-162117749D01*
X172042094Y-162092763D01*
X172042093Y-162092762D01*
X172036752Y-162088882D01*
X172030724Y-162086198D01*
X172030722Y-162086197D01*
X171868319Y-162013891D01*
X171868318Y-162013891D01*
X171862288Y-162011206D01*
X171748145Y-161986944D01*
X171681944Y-161972872D01*
X171681939Y-161972872D01*
X171675487Y-161971500D01*
X171484513Y-161971500D01*
X171478061Y-161972872D01*
X171478056Y-161972872D01*
X171411855Y-161986944D01*
X171297712Y-162011206D01*
X171291682Y-162013891D01*
X171291681Y-162013891D01*
X171129278Y-162086197D01*
X171129276Y-162086198D01*
X171123248Y-162088882D01*
X171117907Y-162092762D01*
X171117906Y-162092763D01*
X171083516Y-162117749D01*
X170968747Y-162201134D01*
X170964326Y-162206044D01*
X170964325Y-162206045D01*
X170846298Y-162337128D01*
X170840960Y-162343056D01*
X170745473Y-162508444D01*
X170686458Y-162690072D01*
X170685768Y-162696633D01*
X170685768Y-162696635D01*
X170684685Y-162706944D01*
X170666496Y-162880000D01*
X169304637Y-162880000D01*
X169206752Y-162808882D01*
X169200724Y-162806198D01*
X169200722Y-162806197D01*
X169038319Y-162733891D01*
X169038318Y-162733891D01*
X169032288Y-162731206D01*
X168918145Y-162706944D01*
X168851944Y-162692872D01*
X168851939Y-162692872D01*
X168845487Y-162691500D01*
X168654513Y-162691500D01*
X168648061Y-162692872D01*
X168648056Y-162692872D01*
X168581855Y-162706944D01*
X168467712Y-162731206D01*
X168461682Y-162733891D01*
X168461681Y-162733891D01*
X168299278Y-162806197D01*
X168299276Y-162806198D01*
X168293248Y-162808882D01*
X168138747Y-162921134D01*
X168134326Y-162926044D01*
X168134325Y-162926045D01*
X168032806Y-163038794D01*
X168010960Y-163063056D01*
X167915473Y-163228444D01*
X167856458Y-163410072D01*
X167855768Y-163416633D01*
X167855768Y-163416635D01*
X167852299Y-163449645D01*
X167836496Y-163600000D01*
X161980000Y-163600000D01*
X161980000Y-161450000D01*
X175036496Y-161450000D01*
X175037186Y-161456565D01*
X175054192Y-161618365D01*
X175056458Y-161639928D01*
X175115473Y-161821556D01*
X175210960Y-161986944D01*
X175215378Y-161991851D01*
X175215379Y-161991852D01*
X175235223Y-162013891D01*
X175338747Y-162128866D01*
X175437843Y-162200864D01*
X175467261Y-162222237D01*
X175493248Y-162241118D01*
X175499276Y-162243802D01*
X175499278Y-162243803D01*
X175661681Y-162316109D01*
X175667712Y-162318794D01*
X175753966Y-162337128D01*
X175848056Y-162357128D01*
X175848061Y-162357128D01*
X175854513Y-162358500D01*
X176045487Y-162358500D01*
X176051939Y-162357128D01*
X176051944Y-162357128D01*
X176146034Y-162337128D01*
X176232288Y-162318794D01*
X176238319Y-162316109D01*
X176400722Y-162243803D01*
X176400724Y-162243802D01*
X176406752Y-162241118D01*
X176432740Y-162222237D01*
X176462157Y-162200864D01*
X176504637Y-162170000D01*
X184266496Y-162170000D01*
X184267186Y-162176565D01*
X184285286Y-162348774D01*
X184286458Y-162359928D01*
X184345473Y-162541556D01*
X184440960Y-162706944D01*
X184445378Y-162711851D01*
X184445379Y-162711852D01*
X184465223Y-162733891D01*
X184568747Y-162848866D01*
X184723248Y-162961118D01*
X184729276Y-162963802D01*
X184729278Y-162963803D01*
X184883407Y-163032425D01*
X184897712Y-163038794D01*
X184988765Y-163058148D01*
X185078056Y-163077128D01*
X185078061Y-163077128D01*
X185084513Y-163078500D01*
X185275487Y-163078500D01*
X185281939Y-163077128D01*
X185281944Y-163077128D01*
X185371235Y-163058148D01*
X185462288Y-163038794D01*
X185476593Y-163032425D01*
X185630722Y-162963803D01*
X185630724Y-162963802D01*
X185636752Y-162961118D01*
X185791253Y-162848866D01*
X185894777Y-162733891D01*
X185914621Y-162711852D01*
X185914622Y-162711851D01*
X185919040Y-162706944D01*
X186014527Y-162541556D01*
X186073542Y-162359928D01*
X186074715Y-162348774D01*
X186092814Y-162176565D01*
X186093504Y-162170000D01*
X186087079Y-162108866D01*
X186074232Y-161986635D01*
X186074232Y-161986633D01*
X186073542Y-161980072D01*
X186014527Y-161798444D01*
X185919040Y-161633056D01*
X185791253Y-161491134D01*
X185707110Y-161430000D01*
X191936496Y-161430000D01*
X191937186Y-161436565D01*
X191943438Y-161496045D01*
X191956458Y-161619928D01*
X192015473Y-161801556D01*
X192110960Y-161966944D01*
X192115378Y-161971851D01*
X192115379Y-161971852D01*
X192153231Y-162013891D01*
X192238747Y-162108866D01*
X192393248Y-162221118D01*
X192399276Y-162223802D01*
X192399278Y-162223803D01*
X192561681Y-162296109D01*
X192567712Y-162298794D01*
X192661112Y-162318647D01*
X192748056Y-162337128D01*
X192748061Y-162337128D01*
X192754513Y-162338500D01*
X192945487Y-162338500D01*
X192951939Y-162337128D01*
X192951944Y-162337128D01*
X193038888Y-162318647D01*
X193132288Y-162298794D01*
X193138319Y-162296109D01*
X193300722Y-162223803D01*
X193300724Y-162223802D01*
X193306752Y-162221118D01*
X193461253Y-162108866D01*
X193546769Y-162013891D01*
X193584621Y-161971852D01*
X193584622Y-161971851D01*
X193589040Y-161966944D01*
X193684527Y-161801556D01*
X193743542Y-161619928D01*
X193756563Y-161496045D01*
X193762814Y-161436565D01*
X193762978Y-161435000D01*
X197831496Y-161435000D01*
X197832186Y-161441565D01*
X197850243Y-161613365D01*
X197851458Y-161624928D01*
X197910473Y-161806556D01*
X197913776Y-161812278D01*
X197913777Y-161812279D01*
X197919133Y-161821556D01*
X198005960Y-161971944D01*
X198010378Y-161976851D01*
X198010379Y-161976852D01*
X198043729Y-162013891D01*
X198133747Y-162113866D01*
X198201973Y-162163435D01*
X198253861Y-162201134D01*
X198288248Y-162226118D01*
X198294276Y-162228802D01*
X198294278Y-162228803D01*
X198454563Y-162300166D01*
X198462712Y-162303794D01*
X198539736Y-162320166D01*
X198643056Y-162342128D01*
X198643061Y-162342128D01*
X198649513Y-162343500D01*
X198840487Y-162343500D01*
X198846939Y-162342128D01*
X198846944Y-162342128D01*
X198950264Y-162320166D01*
X199027288Y-162303794D01*
X199035437Y-162300166D01*
X199195722Y-162228803D01*
X199195724Y-162228802D01*
X199201752Y-162226118D01*
X199236140Y-162201134D01*
X199288027Y-162163435D01*
X199356253Y-162113866D01*
X199446271Y-162013891D01*
X199479621Y-161976852D01*
X199479622Y-161976851D01*
X199484040Y-161971944D01*
X199570867Y-161821556D01*
X199576223Y-161812279D01*
X199576224Y-161812278D01*
X199579527Y-161806556D01*
X199638542Y-161624928D01*
X199639758Y-161613365D01*
X199657814Y-161441565D01*
X199658504Y-161435000D01*
X199644298Y-161299834D01*
X199639232Y-161251635D01*
X199639232Y-161251633D01*
X199638542Y-161245072D01*
X199579527Y-161063444D01*
X199484040Y-160898056D01*
X199356253Y-160756134D01*
X199257157Y-160684136D01*
X199207094Y-160647763D01*
X199207093Y-160647762D01*
X199201752Y-160643882D01*
X199195724Y-160641198D01*
X199195722Y-160641197D01*
X199033319Y-160568891D01*
X199033318Y-160568891D01*
X199027288Y-160566206D01*
X198917511Y-160542872D01*
X198846944Y-160527872D01*
X198846939Y-160527872D01*
X198840487Y-160526500D01*
X198649513Y-160526500D01*
X198643061Y-160527872D01*
X198643056Y-160527872D01*
X198572489Y-160542872D01*
X198462712Y-160566206D01*
X198456682Y-160568891D01*
X198456681Y-160568891D01*
X198294278Y-160641197D01*
X198294276Y-160641198D01*
X198288248Y-160643882D01*
X198282907Y-160647762D01*
X198282906Y-160647763D01*
X198232843Y-160684136D01*
X198133747Y-160756134D01*
X198005960Y-160898056D01*
X197910473Y-161063444D01*
X197851458Y-161245072D01*
X197850768Y-161251633D01*
X197850768Y-161251635D01*
X197845702Y-161299834D01*
X197831496Y-161435000D01*
X193762978Y-161435000D01*
X193763504Y-161430000D01*
X193750250Y-161303891D01*
X193744232Y-161246635D01*
X193744232Y-161246633D01*
X193743542Y-161240072D01*
X193684527Y-161058444D01*
X193589040Y-160893056D01*
X193461253Y-160751134D01*
X193306752Y-160638882D01*
X193300724Y-160636198D01*
X193300722Y-160636197D01*
X193138319Y-160563891D01*
X193138318Y-160563891D01*
X193132288Y-160561206D01*
X193038887Y-160541353D01*
X192951944Y-160522872D01*
X192951939Y-160522872D01*
X192945487Y-160521500D01*
X192754513Y-160521500D01*
X192748061Y-160522872D01*
X192748056Y-160522872D01*
X192661113Y-160541353D01*
X192567712Y-160561206D01*
X192561682Y-160563891D01*
X192561681Y-160563891D01*
X192399278Y-160636197D01*
X192399276Y-160636198D01*
X192393248Y-160638882D01*
X192238747Y-160751134D01*
X192110960Y-160893056D01*
X192015473Y-161058444D01*
X191956458Y-161240072D01*
X191955768Y-161246633D01*
X191955768Y-161246635D01*
X191949750Y-161303891D01*
X191936496Y-161430000D01*
X185707110Y-161430000D01*
X185636752Y-161378882D01*
X185630724Y-161376198D01*
X185630722Y-161376197D01*
X185468319Y-161303891D01*
X185468318Y-161303891D01*
X185462288Y-161301206D01*
X185368888Y-161281353D01*
X185281944Y-161262872D01*
X185281939Y-161262872D01*
X185275487Y-161261500D01*
X185084513Y-161261500D01*
X185078061Y-161262872D01*
X185078056Y-161262872D01*
X184991112Y-161281353D01*
X184897712Y-161301206D01*
X184891682Y-161303891D01*
X184891681Y-161303891D01*
X184729278Y-161376197D01*
X184729276Y-161376198D01*
X184723248Y-161378882D01*
X184568747Y-161491134D01*
X184440960Y-161633056D01*
X184345473Y-161798444D01*
X184286458Y-161980072D01*
X184285768Y-161986633D01*
X184285768Y-161986635D01*
X184272921Y-162108866D01*
X184266496Y-162170000D01*
X176504637Y-162170000D01*
X176561253Y-162128866D01*
X176664777Y-162013891D01*
X176684621Y-161991852D01*
X176684622Y-161991851D01*
X176689040Y-161986944D01*
X176784527Y-161821556D01*
X176843542Y-161639928D01*
X176845809Y-161618365D01*
X176862814Y-161456565D01*
X176863504Y-161450000D01*
X176843542Y-161260072D01*
X176784527Y-161078444D01*
X176779496Y-161069729D01*
X176692341Y-160918774D01*
X176689040Y-160913056D01*
X176680683Y-160903774D01*
X176565675Y-160776045D01*
X176565674Y-160776044D01*
X176561253Y-160771134D01*
X176406752Y-160658882D01*
X176400724Y-160656198D01*
X176400722Y-160656197D01*
X176238319Y-160583891D01*
X176238318Y-160583891D01*
X176232288Y-160581206D01*
X176131741Y-160559834D01*
X176051944Y-160542872D01*
X176051939Y-160542872D01*
X176045487Y-160541500D01*
X175854513Y-160541500D01*
X175848061Y-160542872D01*
X175848056Y-160542872D01*
X175768259Y-160559834D01*
X175667712Y-160581206D01*
X175661682Y-160583891D01*
X175661681Y-160583891D01*
X175499278Y-160656197D01*
X175499276Y-160656198D01*
X175493248Y-160658882D01*
X175338747Y-160771134D01*
X175334326Y-160776044D01*
X175334325Y-160776045D01*
X175219318Y-160903774D01*
X175210960Y-160913056D01*
X175207659Y-160918774D01*
X175120505Y-161069729D01*
X175115473Y-161078444D01*
X175056458Y-161260072D01*
X175036496Y-161450000D01*
X161980000Y-161450000D01*
X161980000Y-159100000D01*
X180346496Y-159100000D01*
X180366458Y-159289928D01*
X180425473Y-159471556D01*
X180520960Y-159636944D01*
X180648747Y-159778866D01*
X180803248Y-159891118D01*
X180809276Y-159893802D01*
X180809278Y-159893803D01*
X180971681Y-159966109D01*
X180977712Y-159968794D01*
X181071113Y-159988647D01*
X181158056Y-160007128D01*
X181158061Y-160007128D01*
X181164513Y-160008500D01*
X181355487Y-160008500D01*
X181361939Y-160007128D01*
X181361944Y-160007128D01*
X181448887Y-159988647D01*
X181542288Y-159968794D01*
X181548319Y-159966109D01*
X181710722Y-159893803D01*
X181710724Y-159893802D01*
X181716752Y-159891118D01*
X181871253Y-159778866D01*
X181999040Y-159636944D01*
X182094527Y-159471556D01*
X182153542Y-159289928D01*
X182173504Y-159100000D01*
X182153542Y-158910072D01*
X182094527Y-158728444D01*
X181999040Y-158563056D01*
X181871253Y-158421134D01*
X181716752Y-158308882D01*
X181710724Y-158306198D01*
X181710722Y-158306197D01*
X181548319Y-158233891D01*
X181548318Y-158233891D01*
X181542288Y-158231206D01*
X181448888Y-158211353D01*
X181361944Y-158192872D01*
X181361939Y-158192872D01*
X181355487Y-158191500D01*
X181164513Y-158191500D01*
X181158061Y-158192872D01*
X181158056Y-158192872D01*
X181071112Y-158211353D01*
X180977712Y-158231206D01*
X180971682Y-158233891D01*
X180971681Y-158233891D01*
X180809278Y-158306197D01*
X180809276Y-158306198D01*
X180803248Y-158308882D01*
X180648747Y-158421134D01*
X180520960Y-158563056D01*
X180425473Y-158728444D01*
X180366458Y-158910072D01*
X180346496Y-159100000D01*
X161980000Y-159100000D01*
X161980000Y-155675000D01*
X164061496Y-155675000D01*
X164062186Y-155681565D01*
X164078203Y-155833955D01*
X164081458Y-155864928D01*
X164140473Y-156046556D01*
X164143776Y-156052278D01*
X164143777Y-156052279D01*
X164165683Y-156090221D01*
X164235960Y-156211944D01*
X164240378Y-156216851D01*
X164240379Y-156216852D01*
X164299737Y-156282776D01*
X164363747Y-156353866D01*
X164518248Y-156466118D01*
X164524276Y-156468802D01*
X164524278Y-156468803D01*
X164634728Y-156517978D01*
X164692712Y-156543794D01*
X164786112Y-156563647D01*
X164873056Y-156582128D01*
X164873061Y-156582128D01*
X164879513Y-156583500D01*
X165070487Y-156583500D01*
X165076939Y-156582128D01*
X165076944Y-156582128D01*
X165163888Y-156563647D01*
X165257288Y-156543794D01*
X165315272Y-156517978D01*
X165425722Y-156468803D01*
X165425724Y-156468802D01*
X165431752Y-156466118D01*
X165586253Y-156353866D01*
X165650263Y-156282776D01*
X165709621Y-156216852D01*
X165709622Y-156216851D01*
X165714040Y-156211944D01*
X165784317Y-156090221D01*
X165806223Y-156052279D01*
X165806224Y-156052278D01*
X165809527Y-156046556D01*
X165868542Y-155864928D01*
X165871798Y-155833955D01*
X165887814Y-155681565D01*
X165888504Y-155675000D01*
X165868542Y-155485072D01*
X165809527Y-155303444D01*
X165714040Y-155138056D01*
X165701344Y-155123955D01*
X165590675Y-155001045D01*
X165590674Y-155001044D01*
X165586253Y-154996134D01*
X165487157Y-154924136D01*
X165437094Y-154887763D01*
X165437093Y-154887762D01*
X165431752Y-154883882D01*
X165425724Y-154881198D01*
X165425722Y-154881197D01*
X165263319Y-154808891D01*
X165263318Y-154808891D01*
X165257288Y-154806206D01*
X165163887Y-154786353D01*
X165076944Y-154767872D01*
X165076939Y-154767872D01*
X165070487Y-154766500D01*
X164879513Y-154766500D01*
X164873061Y-154767872D01*
X164873056Y-154767872D01*
X164786113Y-154786353D01*
X164692712Y-154806206D01*
X164686682Y-154808891D01*
X164686681Y-154808891D01*
X164524278Y-154881197D01*
X164524276Y-154881198D01*
X164518248Y-154883882D01*
X164512907Y-154887762D01*
X164512906Y-154887763D01*
X164462843Y-154924136D01*
X164363747Y-154996134D01*
X164359326Y-155001044D01*
X164359325Y-155001045D01*
X164248657Y-155123955D01*
X164235960Y-155138056D01*
X164140473Y-155303444D01*
X164081458Y-155485072D01*
X164061496Y-155675000D01*
X161980000Y-155675000D01*
X161980000Y-154450000D01*
X166586496Y-154450000D01*
X166587186Y-154456565D01*
X166605286Y-154628774D01*
X166606458Y-154639928D01*
X166665473Y-154821556D01*
X166760960Y-154986944D01*
X166765378Y-154991851D01*
X166765379Y-154991852D01*
X166808324Y-155039547D01*
X166888747Y-155128866D01*
X167043248Y-155241118D01*
X167049276Y-155243802D01*
X167049278Y-155243803D01*
X167211681Y-155316109D01*
X167217712Y-155318794D01*
X167311113Y-155338647D01*
X167398056Y-155357128D01*
X167398061Y-155357128D01*
X167404513Y-155358500D01*
X167595487Y-155358500D01*
X167601939Y-155357128D01*
X167601944Y-155357128D01*
X167688887Y-155338647D01*
X167782288Y-155318794D01*
X167788319Y-155316109D01*
X167950722Y-155243803D01*
X167950724Y-155243802D01*
X167956752Y-155241118D01*
X168111253Y-155128866D01*
X168178418Y-155054271D01*
X168238863Y-155017033D01*
X168309847Y-155018385D01*
X168368831Y-155057899D01*
X168397089Y-155123029D01*
X168397362Y-155151757D01*
X168396496Y-155160000D01*
X168397186Y-155166565D01*
X168412904Y-155316109D01*
X168416458Y-155349928D01*
X168475473Y-155531556D01*
X168570960Y-155696944D01*
X168575378Y-155701851D01*
X168575379Y-155701852D01*
X168686290Y-155825031D01*
X168698747Y-155838866D01*
X168853248Y-155951118D01*
X168859276Y-155953802D01*
X168859278Y-155953803D01*
X169021203Y-156025896D01*
X169027712Y-156028794D01*
X169111275Y-156046556D01*
X169208056Y-156067128D01*
X169208061Y-156067128D01*
X169214513Y-156068500D01*
X169405487Y-156068500D01*
X169411939Y-156067128D01*
X169411944Y-156067128D01*
X169508725Y-156046556D01*
X169592288Y-156028794D01*
X169598797Y-156025896D01*
X169760722Y-155953803D01*
X169760724Y-155953802D01*
X169766752Y-155951118D01*
X169921253Y-155838866D01*
X169933710Y-155825031D01*
X170044621Y-155701852D01*
X170044622Y-155701851D01*
X170049040Y-155696944D01*
X170144527Y-155531556D01*
X170197832Y-155367500D01*
X200646496Y-155367500D01*
X200647186Y-155374065D01*
X200657692Y-155474020D01*
X200666458Y-155557428D01*
X200725473Y-155739056D01*
X200820960Y-155904444D01*
X200825378Y-155909351D01*
X200825379Y-155909352D01*
X200932366Y-156028173D01*
X200948747Y-156046366D01*
X201103248Y-156158618D01*
X201109276Y-156161302D01*
X201109278Y-156161303D01*
X201233397Y-156216564D01*
X201277712Y-156236294D01*
X201284170Y-156237667D01*
X201284174Y-156237668D01*
X201297180Y-156240433D01*
X201359653Y-156274163D01*
X201393972Y-156336314D01*
X201390813Y-156402615D01*
X201366458Y-156477572D01*
X201365768Y-156484133D01*
X201365768Y-156484135D01*
X201350790Y-156626649D01*
X201346496Y-156667500D01*
X201347186Y-156674065D01*
X201365129Y-156844779D01*
X201366458Y-156857428D01*
X201425473Y-157039056D01*
X201428776Y-157044778D01*
X201428777Y-157044779D01*
X201462686Y-157103510D01*
X201520960Y-157204444D01*
X201525378Y-157209351D01*
X201525379Y-157209352D01*
X201639678Y-157336294D01*
X201648747Y-157346366D01*
X201687646Y-157374628D01*
X201754650Y-157423309D01*
X201803248Y-157458618D01*
X201809276Y-157461302D01*
X201809278Y-157461303D01*
X201971681Y-157533609D01*
X201977712Y-157536294D01*
X202046263Y-157550865D01*
X202158056Y-157574628D01*
X202158061Y-157574628D01*
X202164513Y-157576000D01*
X202355487Y-157576000D01*
X202361939Y-157574628D01*
X202361944Y-157574628D01*
X202473737Y-157550865D01*
X202542288Y-157536294D01*
X202548319Y-157533609D01*
X202710722Y-157461303D01*
X202710724Y-157461302D01*
X202716752Y-157458618D01*
X202765351Y-157423309D01*
X202832354Y-157374628D01*
X202871253Y-157346366D01*
X202880322Y-157336294D01*
X202994621Y-157209352D01*
X202994622Y-157209351D01*
X202999040Y-157204444D01*
X203050881Y-157114653D01*
X203102264Y-157065660D01*
X203171977Y-157052224D01*
X203237888Y-157078610D01*
X203269119Y-157114653D01*
X203320960Y-157204444D01*
X203325378Y-157209351D01*
X203325379Y-157209352D01*
X203439678Y-157336294D01*
X203448747Y-157346366D01*
X203487646Y-157374628D01*
X203554650Y-157423309D01*
X203603248Y-157458618D01*
X203609276Y-157461302D01*
X203609278Y-157461303D01*
X203771681Y-157533609D01*
X203777712Y-157536294D01*
X203846263Y-157550865D01*
X203958056Y-157574628D01*
X203958061Y-157574628D01*
X203964513Y-157576000D01*
X204080949Y-157576000D01*
X204149070Y-157596002D01*
X204195563Y-157649658D01*
X204200779Y-157663057D01*
X204225473Y-157739056D01*
X204320960Y-157904444D01*
X204448747Y-158046366D01*
X204603248Y-158158618D01*
X204609276Y-158161302D01*
X204609278Y-158161303D01*
X204766284Y-158231206D01*
X204777712Y-158236294D01*
X204871113Y-158256147D01*
X204958056Y-158274628D01*
X204958061Y-158274628D01*
X204964513Y-158276000D01*
X205155487Y-158276000D01*
X205161939Y-158274628D01*
X205161944Y-158274628D01*
X205248887Y-158256147D01*
X205342288Y-158236294D01*
X205353716Y-158231206D01*
X205510722Y-158161303D01*
X205510724Y-158161302D01*
X205516752Y-158158618D01*
X205522094Y-158154737D01*
X205585939Y-158108351D01*
X205652807Y-158084492D01*
X205721959Y-158100573D01*
X205734061Y-158108351D01*
X205797906Y-158154737D01*
X205803248Y-158158618D01*
X205809276Y-158161302D01*
X205809278Y-158161303D01*
X205966284Y-158231206D01*
X205977712Y-158236294D01*
X206071113Y-158256147D01*
X206158056Y-158274628D01*
X206158061Y-158274628D01*
X206164513Y-158276000D01*
X206355487Y-158276000D01*
X206361939Y-158274628D01*
X206361944Y-158274628D01*
X206448887Y-158256147D01*
X206542288Y-158236294D01*
X206553716Y-158231206D01*
X206710722Y-158161303D01*
X206710724Y-158161302D01*
X206716752Y-158158618D01*
X206871253Y-158046366D01*
X206999040Y-157904444D01*
X207094527Y-157739056D01*
X207153542Y-157557428D01*
X207156046Y-157533609D01*
X207167638Y-157423309D01*
X207194651Y-157357652D01*
X207252872Y-157317022D01*
X207323818Y-157314319D01*
X207344195Y-157321371D01*
X207377712Y-157336294D01*
X207443365Y-157350249D01*
X207558056Y-157374628D01*
X207558061Y-157374628D01*
X207564513Y-157376000D01*
X207755487Y-157376000D01*
X207761939Y-157374628D01*
X207761944Y-157374628D01*
X207876635Y-157350249D01*
X207942288Y-157336294D01*
X207991645Y-157314319D01*
X208110722Y-157261303D01*
X208110724Y-157261302D01*
X208116752Y-157258618D01*
X208271253Y-157146366D01*
X208275675Y-157141455D01*
X208394621Y-157009352D01*
X208394622Y-157009351D01*
X208399040Y-157004444D01*
X208494527Y-156839056D01*
X208553542Y-156657428D01*
X208554270Y-156650508D01*
X208572814Y-156474065D01*
X208573504Y-156467500D01*
X208559716Y-156336314D01*
X208554232Y-156284135D01*
X208554232Y-156284133D01*
X208553542Y-156277572D01*
X208551502Y-156271294D01*
X208551502Y-156271292D01*
X208549413Y-156264864D01*
X208547384Y-156193897D01*
X208584045Y-156133098D01*
X208647757Y-156101772D01*
X208720494Y-156110819D01*
X208770534Y-156133098D01*
X208777712Y-156136294D01*
X208864479Y-156154737D01*
X208958056Y-156174628D01*
X208958061Y-156174628D01*
X208964513Y-156176000D01*
X209155487Y-156176000D01*
X209161939Y-156174628D01*
X209161944Y-156174628D01*
X209255521Y-156154737D01*
X209342288Y-156136294D01*
X209348319Y-156133609D01*
X209510722Y-156061303D01*
X209510724Y-156061302D01*
X209516752Y-156058618D01*
X209533354Y-156046556D01*
X209665909Y-155950249D01*
X209665911Y-155950247D01*
X209671253Y-155946366D01*
X209675675Y-155941455D01*
X209675687Y-155941444D01*
X209739694Y-155910725D01*
X209810148Y-155919487D01*
X209844313Y-155941444D01*
X209844325Y-155941455D01*
X209848747Y-155946366D01*
X209854089Y-155950247D01*
X209854091Y-155950249D01*
X209986646Y-156046556D01*
X210003248Y-156058618D01*
X210009276Y-156061302D01*
X210009278Y-156061303D01*
X210171681Y-156133609D01*
X210177712Y-156136294D01*
X210264479Y-156154737D01*
X210358056Y-156174628D01*
X210358061Y-156174628D01*
X210364513Y-156176000D01*
X210555487Y-156176000D01*
X210561939Y-156174628D01*
X210561944Y-156174628D01*
X210655521Y-156154737D01*
X210742288Y-156136294D01*
X210748319Y-156133609D01*
X210910722Y-156061303D01*
X210910724Y-156061302D01*
X210916752Y-156058618D01*
X210933616Y-156046366D01*
X211044588Y-155965739D01*
X211071253Y-155946366D01*
X211134267Y-155876382D01*
X211194621Y-155809352D01*
X211194622Y-155809351D01*
X211199040Y-155804444D01*
X211294527Y-155639056D01*
X211353542Y-155457428D01*
X211373504Y-155267500D01*
X211364052Y-155177572D01*
X211354232Y-155084135D01*
X211354232Y-155084133D01*
X211353542Y-155077572D01*
X211294527Y-154895944D01*
X211260077Y-154836274D01*
X211199040Y-154730556D01*
X211201777Y-154728976D01*
X211182351Y-154675153D01*
X211198178Y-154605943D01*
X211199114Y-154604487D01*
X211199040Y-154604444D01*
X211291223Y-154444779D01*
X211291224Y-154444778D01*
X211294527Y-154439056D01*
X211353542Y-154257428D01*
X211373504Y-154067500D01*
X211364950Y-153986109D01*
X211354232Y-153884135D01*
X211354232Y-153884133D01*
X211353542Y-153877572D01*
X211294527Y-153695944D01*
X211199040Y-153530556D01*
X211098497Y-153418891D01*
X211075675Y-153393545D01*
X211075674Y-153393544D01*
X211071253Y-153388634D01*
X210916752Y-153276382D01*
X210910724Y-153273698D01*
X210910722Y-153273697D01*
X210748319Y-153201391D01*
X210748318Y-153201391D01*
X210742288Y-153198706D01*
X210648887Y-153178853D01*
X210561944Y-153160372D01*
X210561939Y-153160372D01*
X210555487Y-153159000D01*
X210364513Y-153159000D01*
X210358061Y-153160372D01*
X210358056Y-153160372D01*
X210271113Y-153178853D01*
X210177712Y-153198706D01*
X210171682Y-153201391D01*
X210171681Y-153201391D01*
X210009278Y-153273697D01*
X210009276Y-153273698D01*
X210003248Y-153276382D01*
X209997907Y-153280262D01*
X209997906Y-153280263D01*
X209908431Y-153345271D01*
X209848747Y-153388634D01*
X209844325Y-153393545D01*
X209844313Y-153393556D01*
X209780306Y-153424275D01*
X209709852Y-153415513D01*
X209675687Y-153393556D01*
X209675675Y-153393545D01*
X209671253Y-153388634D01*
X209611570Y-153345271D01*
X209522094Y-153280263D01*
X209522093Y-153280262D01*
X209516752Y-153276382D01*
X209510724Y-153273698D01*
X209510722Y-153273697D01*
X209348319Y-153201391D01*
X209348318Y-153201391D01*
X209342288Y-153198706D01*
X209248887Y-153178853D01*
X209161944Y-153160372D01*
X209161939Y-153160372D01*
X209155487Y-153159000D01*
X208964513Y-153159000D01*
X208958061Y-153160372D01*
X208958056Y-153160372D01*
X208871113Y-153178853D01*
X208777712Y-153198706D01*
X208699319Y-153233609D01*
X208682507Y-153241094D01*
X208612140Y-153250528D01*
X208547843Y-153220422D01*
X208510029Y-153160333D01*
X208511425Y-153087051D01*
X208551502Y-152963706D01*
X208553542Y-152957428D01*
X208555728Y-152936635D01*
X208572814Y-152774065D01*
X208573504Y-152767500D01*
X208556185Y-152602721D01*
X208554232Y-152584135D01*
X208554232Y-152584133D01*
X208553542Y-152577572D01*
X208494527Y-152395944D01*
X208399040Y-152230556D01*
X208357243Y-152184135D01*
X208275675Y-152093545D01*
X208275674Y-152093544D01*
X208271253Y-152088634D01*
X208116752Y-151976382D01*
X208110724Y-151973698D01*
X208110722Y-151973697D01*
X207948319Y-151901391D01*
X207948318Y-151901391D01*
X207942288Y-151898706D01*
X207848887Y-151878853D01*
X207761944Y-151860372D01*
X207761939Y-151860372D01*
X207755487Y-151859000D01*
X207564513Y-151859000D01*
X207558061Y-151860372D01*
X207558056Y-151860372D01*
X207471113Y-151878853D01*
X207377712Y-151898706D01*
X207290967Y-151937327D01*
X207220601Y-151946761D01*
X207156304Y-151916655D01*
X207130600Y-151885220D01*
X207102341Y-151836274D01*
X207099040Y-151830556D01*
X207089536Y-151820000D01*
X206975675Y-151693545D01*
X206975674Y-151693544D01*
X206971253Y-151688634D01*
X206816752Y-151576382D01*
X206810724Y-151573698D01*
X206810722Y-151573697D01*
X206648319Y-151501391D01*
X206648318Y-151501391D01*
X206642288Y-151498706D01*
X206548888Y-151478853D01*
X206461944Y-151460372D01*
X206461939Y-151460372D01*
X206455487Y-151459000D01*
X206264513Y-151459000D01*
X206258061Y-151460372D01*
X206258056Y-151460372D01*
X206171112Y-151478853D01*
X206077712Y-151498706D01*
X206071682Y-151501391D01*
X206071681Y-151501391D01*
X205909278Y-151573697D01*
X205909276Y-151573698D01*
X205903248Y-151576382D01*
X205807366Y-151646045D01*
X205784061Y-151662977D01*
X205717194Y-151686835D01*
X205648042Y-151670755D01*
X205635939Y-151662977D01*
X205612635Y-151646045D01*
X205516752Y-151576382D01*
X205510724Y-151573698D01*
X205510722Y-151573697D01*
X205348319Y-151501391D01*
X205348318Y-151501391D01*
X205342288Y-151498706D01*
X205248888Y-151478853D01*
X205161944Y-151460372D01*
X205161939Y-151460372D01*
X205155487Y-151459000D01*
X204964513Y-151459000D01*
X204958061Y-151460372D01*
X204958056Y-151460372D01*
X204871112Y-151478853D01*
X204777712Y-151498706D01*
X204771682Y-151501391D01*
X204771681Y-151501391D01*
X204609278Y-151573697D01*
X204609276Y-151573698D01*
X204603248Y-151576382D01*
X204448747Y-151688634D01*
X204444326Y-151693544D01*
X204444325Y-151693545D01*
X204330465Y-151820000D01*
X204320960Y-151830556D01*
X204280063Y-151901391D01*
X204249269Y-151954729D01*
X204225473Y-151995944D01*
X204166458Y-152177572D01*
X204146496Y-152367500D01*
X204147186Y-152374065D01*
X204165079Y-152544304D01*
X204166458Y-152557428D01*
X204225473Y-152739056D01*
X204228776Y-152744778D01*
X204228777Y-152744779D01*
X204254927Y-152790072D01*
X204320960Y-152904444D01*
X204325378Y-152909351D01*
X204325379Y-152909352D01*
X204368667Y-152957428D01*
X204448747Y-153046366D01*
X204603248Y-153158618D01*
X204609276Y-153161302D01*
X204609278Y-153161303D01*
X204748830Y-153223435D01*
X204777712Y-153236294D01*
X204871112Y-153256147D01*
X204958056Y-153274628D01*
X204958061Y-153274628D01*
X204964513Y-153276000D01*
X205155487Y-153276000D01*
X205161939Y-153274628D01*
X205161944Y-153274628D01*
X205248888Y-153256147D01*
X205342288Y-153236294D01*
X205371170Y-153223435D01*
X205510722Y-153161303D01*
X205510724Y-153161302D01*
X205516752Y-153158618D01*
X205635940Y-153072023D01*
X205702806Y-153048165D01*
X205771958Y-153064245D01*
X205784058Y-153072021D01*
X205903248Y-153158618D01*
X205909276Y-153161302D01*
X205909278Y-153161303D01*
X206048830Y-153223435D01*
X206077712Y-153236294D01*
X206171112Y-153256147D01*
X206258056Y-153274628D01*
X206258061Y-153274628D01*
X206264513Y-153276000D01*
X206455487Y-153276000D01*
X206461939Y-153274628D01*
X206461944Y-153274628D01*
X206548888Y-153256147D01*
X206642288Y-153236294D01*
X206729033Y-153197673D01*
X206799399Y-153188239D01*
X206863696Y-153218345D01*
X206889399Y-153249778D01*
X206920960Y-153304444D01*
X206925378Y-153309351D01*
X206925379Y-153309352D01*
X206946843Y-153333190D01*
X206977561Y-153397197D01*
X206968796Y-153467651D01*
X206946843Y-153501810D01*
X206920960Y-153530556D01*
X206825473Y-153695944D01*
X206766458Y-153877572D01*
X206765768Y-153884133D01*
X206765768Y-153884135D01*
X206755050Y-153986109D01*
X206746496Y-154067500D01*
X206766458Y-154257428D01*
X206825473Y-154439056D01*
X206828776Y-154444778D01*
X206828777Y-154444779D01*
X206920960Y-154604444D01*
X206918223Y-154606024D01*
X206937649Y-154659847D01*
X206921822Y-154729057D01*
X206920886Y-154730513D01*
X206920960Y-154730556D01*
X206859924Y-154836274D01*
X206825473Y-154895944D01*
X206766458Y-155077572D01*
X206765768Y-155084133D01*
X206765768Y-155084135D01*
X206755948Y-155177572D01*
X206746496Y-155267500D01*
X206766458Y-155457428D01*
X206825473Y-155639056D01*
X206828776Y-155644778D01*
X206828777Y-155644779D01*
X206920960Y-155804444D01*
X206918223Y-155806024D01*
X206937649Y-155859847D01*
X206921822Y-155929057D01*
X206920886Y-155930513D01*
X206920960Y-155930556D01*
X206825473Y-156095944D01*
X206766458Y-156277572D01*
X206765768Y-156284133D01*
X206765768Y-156284135D01*
X206752362Y-156411691D01*
X206725349Y-156477348D01*
X206667128Y-156517978D01*
X206596182Y-156520681D01*
X206575805Y-156513629D01*
X206542288Y-156498706D01*
X206426362Y-156474065D01*
X206361944Y-156460372D01*
X206361939Y-156460372D01*
X206355487Y-156459000D01*
X206164513Y-156459000D01*
X206158061Y-156460372D01*
X206158056Y-156460372D01*
X206093638Y-156474065D01*
X205977712Y-156498706D01*
X205971682Y-156501391D01*
X205971681Y-156501391D01*
X205809278Y-156573697D01*
X205809276Y-156573698D01*
X205803248Y-156576382D01*
X205797907Y-156580262D01*
X205797906Y-156580263D01*
X205734061Y-156626649D01*
X205667193Y-156650508D01*
X205598041Y-156634427D01*
X205585939Y-156626649D01*
X205522094Y-156580263D01*
X205522093Y-156580262D01*
X205516752Y-156576382D01*
X205510724Y-156573698D01*
X205510722Y-156573697D01*
X205348319Y-156501391D01*
X205348318Y-156501391D01*
X205342288Y-156498706D01*
X205226362Y-156474065D01*
X205161944Y-156460372D01*
X205161939Y-156460372D01*
X205155487Y-156459000D01*
X205039051Y-156459000D01*
X204970930Y-156438998D01*
X204924437Y-156385342D01*
X204919218Y-156371936D01*
X204914609Y-156357749D01*
X204894527Y-156295944D01*
X204886925Y-156282776D01*
X204816792Y-156161303D01*
X204799040Y-156130556D01*
X204736685Y-156061303D01*
X204675675Y-155993545D01*
X204675674Y-155993544D01*
X204671253Y-155988634D01*
X204516752Y-155876382D01*
X204510724Y-155873698D01*
X204510722Y-155873697D01*
X204348319Y-155801391D01*
X204348318Y-155801391D01*
X204342288Y-155798706D01*
X204248887Y-155778853D01*
X204161944Y-155760372D01*
X204161939Y-155760372D01*
X204155487Y-155759000D01*
X203964513Y-155759000D01*
X203958061Y-155760372D01*
X203958056Y-155760372D01*
X203871113Y-155778853D01*
X203777712Y-155798706D01*
X203771682Y-155801391D01*
X203771681Y-155801391D01*
X203609278Y-155873697D01*
X203609276Y-155873698D01*
X203603248Y-155876382D01*
X203448747Y-155988634D01*
X203444326Y-155993544D01*
X203444325Y-155993545D01*
X203383316Y-156061303D01*
X203320960Y-156130556D01*
X203303208Y-156161303D01*
X203269119Y-156220347D01*
X203217736Y-156269340D01*
X203148023Y-156282776D01*
X203082112Y-156256390D01*
X203050881Y-156220347D01*
X203016792Y-156161303D01*
X202999040Y-156130556D01*
X202936685Y-156061303D01*
X202875675Y-155993545D01*
X202875674Y-155993544D01*
X202871253Y-155988634D01*
X202716752Y-155876382D01*
X202710724Y-155873698D01*
X202710722Y-155873697D01*
X202548319Y-155801391D01*
X202548318Y-155801391D01*
X202542288Y-155798706D01*
X202535830Y-155797333D01*
X202535826Y-155797332D01*
X202522820Y-155794567D01*
X202460347Y-155760837D01*
X202426028Y-155698686D01*
X202429187Y-155632385D01*
X202451502Y-155563706D01*
X202453542Y-155557428D01*
X202462309Y-155474020D01*
X202472814Y-155374065D01*
X202473504Y-155367500D01*
X202453542Y-155177572D01*
X202394527Y-154995944D01*
X202299040Y-154830556D01*
X202290937Y-154821556D01*
X202175675Y-154693545D01*
X202175674Y-154693544D01*
X202171253Y-154688634D01*
X202055376Y-154604444D01*
X202022094Y-154580263D01*
X202022093Y-154580262D01*
X202016752Y-154576382D01*
X202010724Y-154573698D01*
X202010722Y-154573697D01*
X201848319Y-154501391D01*
X201848318Y-154501391D01*
X201842288Y-154498706D01*
X201741351Y-154477251D01*
X201661944Y-154460372D01*
X201661939Y-154460372D01*
X201655487Y-154459000D01*
X201464513Y-154459000D01*
X201458061Y-154460372D01*
X201458056Y-154460372D01*
X201378649Y-154477251D01*
X201277712Y-154498706D01*
X201271682Y-154501391D01*
X201271681Y-154501391D01*
X201109278Y-154573697D01*
X201109276Y-154573698D01*
X201103248Y-154576382D01*
X201097907Y-154580262D01*
X201097906Y-154580263D01*
X201064624Y-154604444D01*
X200948747Y-154688634D01*
X200944326Y-154693544D01*
X200944325Y-154693545D01*
X200829064Y-154821556D01*
X200820960Y-154830556D01*
X200725473Y-154995944D01*
X200666458Y-155177572D01*
X200646496Y-155367500D01*
X170197832Y-155367500D01*
X170203542Y-155349928D01*
X170207097Y-155316109D01*
X170222814Y-155166565D01*
X170223504Y-155160000D01*
X170206922Y-155002229D01*
X170204232Y-154976635D01*
X170204232Y-154976633D01*
X170203542Y-154970072D01*
X170144527Y-154788444D01*
X170049040Y-154623056D01*
X170033705Y-154606024D01*
X169925675Y-154486045D01*
X169925671Y-154486041D01*
X169921253Y-154481134D01*
X169766752Y-154368882D01*
X169760724Y-154366198D01*
X169760722Y-154366197D01*
X169598319Y-154293891D01*
X169598318Y-154293891D01*
X169592288Y-154291206D01*
X169498888Y-154271353D01*
X169411944Y-154252872D01*
X169411939Y-154252872D01*
X169405487Y-154251500D01*
X169214513Y-154251500D01*
X169208061Y-154252872D01*
X169208056Y-154252872D01*
X169121112Y-154271353D01*
X169027712Y-154291206D01*
X169021682Y-154293891D01*
X169021681Y-154293891D01*
X168859278Y-154366197D01*
X168859276Y-154366198D01*
X168853248Y-154368882D01*
X168698747Y-154481134D01*
X168631582Y-154555729D01*
X168571137Y-154592967D01*
X168500153Y-154591615D01*
X168441169Y-154552101D01*
X168412911Y-154486971D01*
X168412638Y-154458243D01*
X168412814Y-154456569D01*
X168412814Y-154456565D01*
X168413504Y-154450000D01*
X168404696Y-154366197D01*
X168394232Y-154266635D01*
X168394232Y-154266633D01*
X168393542Y-154260072D01*
X168334527Y-154078444D01*
X168328209Y-154067500D01*
X168285427Y-153993401D01*
X168239040Y-153913056D01*
X168230846Y-153903955D01*
X168115675Y-153776045D01*
X168115674Y-153776044D01*
X168111253Y-153771134D01*
X167976872Y-153673500D01*
X167962094Y-153662763D01*
X167962093Y-153662762D01*
X167956752Y-153658882D01*
X167950724Y-153656198D01*
X167950722Y-153656197D01*
X167788319Y-153583891D01*
X167788318Y-153583891D01*
X167782288Y-153581206D01*
X167688888Y-153561353D01*
X167601944Y-153542872D01*
X167601939Y-153542872D01*
X167595487Y-153541500D01*
X167404513Y-153541500D01*
X167398061Y-153542872D01*
X167398056Y-153542872D01*
X167311112Y-153561353D01*
X167217712Y-153581206D01*
X167211682Y-153583891D01*
X167211681Y-153583891D01*
X167049278Y-153656197D01*
X167049276Y-153656198D01*
X167043248Y-153658882D01*
X167037907Y-153662762D01*
X167037906Y-153662763D01*
X167023128Y-153673500D01*
X166888747Y-153771134D01*
X166884326Y-153776044D01*
X166884325Y-153776045D01*
X166769155Y-153903955D01*
X166760960Y-153913056D01*
X166714573Y-153993401D01*
X166671792Y-154067500D01*
X166665473Y-154078444D01*
X166606458Y-154260072D01*
X166605768Y-154266633D01*
X166605768Y-154266635D01*
X166595304Y-154366197D01*
X166586496Y-154450000D01*
X161980000Y-154450000D01*
X161980000Y-153800000D01*
X156534500Y-153800000D01*
X156466379Y-153779998D01*
X156419886Y-153726342D01*
X156408500Y-153674000D01*
X156408500Y-152980000D01*
X174356496Y-152980000D01*
X174357186Y-152986565D01*
X174375454Y-153160372D01*
X174376458Y-153169928D01*
X174435473Y-153351556D01*
X174530960Y-153516944D01*
X174535378Y-153521851D01*
X174535379Y-153521852D01*
X174587586Y-153579834D01*
X174658747Y-153658866D01*
X174813248Y-153771118D01*
X174819276Y-153773802D01*
X174819278Y-153773803D01*
X174981681Y-153846109D01*
X174987712Y-153848794D01*
X175081113Y-153868647D01*
X175168056Y-153887128D01*
X175168061Y-153887128D01*
X175174513Y-153888500D01*
X175365487Y-153888500D01*
X175371939Y-153887128D01*
X175371944Y-153887128D01*
X175458887Y-153868647D01*
X175552288Y-153848794D01*
X175558319Y-153846109D01*
X175720722Y-153773803D01*
X175720724Y-153773802D01*
X175726752Y-153771118D01*
X175881253Y-153658866D01*
X175952414Y-153579834D01*
X176004621Y-153521852D01*
X176004622Y-153521851D01*
X176009040Y-153516944D01*
X176104527Y-153351556D01*
X176144023Y-153230000D01*
X176926496Y-153230000D01*
X176927186Y-153236565D01*
X176937342Y-153333190D01*
X176946458Y-153419928D01*
X177005473Y-153601556D01*
X177100960Y-153766944D01*
X177105378Y-153771851D01*
X177105379Y-153771852D01*
X177165017Y-153838087D01*
X177228747Y-153908866D01*
X177383248Y-154021118D01*
X177389276Y-154023802D01*
X177389278Y-154023803D01*
X177502169Y-154074065D01*
X177557712Y-154098794D01*
X177651112Y-154118647D01*
X177738056Y-154137128D01*
X177738061Y-154137128D01*
X177744513Y-154138500D01*
X177935487Y-154138500D01*
X177941939Y-154137128D01*
X177941944Y-154137128D01*
X178028888Y-154118647D01*
X178122288Y-154098794D01*
X178177831Y-154074065D01*
X178290722Y-154023803D01*
X178290724Y-154023802D01*
X178296752Y-154021118D01*
X178451253Y-153908866D01*
X178514983Y-153838087D01*
X178574621Y-153771852D01*
X178574622Y-153771851D01*
X178579040Y-153766944D01*
X178674527Y-153601556D01*
X178733542Y-153419928D01*
X178742659Y-153333190D01*
X178752814Y-153236565D01*
X178753504Y-153230000D01*
X178747190Y-153169928D01*
X178734232Y-153046635D01*
X178734232Y-153046633D01*
X178733542Y-153040072D01*
X178674527Y-152858444D01*
X178662724Y-152838001D01*
X178645986Y-152769006D01*
X178662724Y-152711999D01*
X178674527Y-152691556D01*
X178733542Y-152509928D01*
X178738262Y-152465025D01*
X178752814Y-152326565D01*
X178753504Y-152320000D01*
X178748378Y-152271226D01*
X178734232Y-152136635D01*
X178734232Y-152136633D01*
X178733542Y-152130072D01*
X178674527Y-151948444D01*
X178667462Y-151936206D01*
X178637314Y-151883990D01*
X178579040Y-151783056D01*
X178546184Y-151746565D01*
X178540273Y-151740000D01*
X183766496Y-151740000D01*
X183767186Y-151746565D01*
X183783459Y-151901391D01*
X183786458Y-151929928D01*
X183845473Y-152111556D01*
X183848776Y-152117278D01*
X183848777Y-152117279D01*
X183856163Y-152130072D01*
X183940960Y-152276944D01*
X184027860Y-152373457D01*
X184058576Y-152437462D01*
X184049812Y-152507916D01*
X184027862Y-152542072D01*
X183990960Y-152583056D01*
X183976302Y-152608444D01*
X183916515Y-152711999D01*
X183895473Y-152748444D01*
X183836458Y-152930072D01*
X183835768Y-152936633D01*
X183835768Y-152936635D01*
X183819959Y-153087051D01*
X183816496Y-153120000D01*
X183817186Y-153126565D01*
X183835281Y-153298726D01*
X183836458Y-153309928D01*
X183895473Y-153491556D01*
X183898776Y-153497278D01*
X183898777Y-153497279D01*
X183910131Y-153516944D01*
X183990960Y-153656944D01*
X183995378Y-153661851D01*
X183995379Y-153661852D01*
X184096180Y-153773803D01*
X184118747Y-153798866D01*
X184273248Y-153911118D01*
X184279276Y-153913802D01*
X184279278Y-153913803D01*
X184441681Y-153986109D01*
X184447712Y-153988794D01*
X184541113Y-154008647D01*
X184628056Y-154027128D01*
X184628061Y-154027128D01*
X184634513Y-154028500D01*
X184825487Y-154028500D01*
X184831939Y-154027128D01*
X184831944Y-154027128D01*
X184918887Y-154008647D01*
X185012288Y-153988794D01*
X185018319Y-153986109D01*
X185180722Y-153913803D01*
X185180724Y-153913802D01*
X185186752Y-153911118D01*
X185341253Y-153798866D01*
X185363820Y-153773803D01*
X185464621Y-153661852D01*
X185464622Y-153661851D01*
X185469040Y-153656944D01*
X185549869Y-153516944D01*
X185561223Y-153497279D01*
X185561224Y-153497278D01*
X185564527Y-153491556D01*
X185623542Y-153309928D01*
X185624720Y-153298726D01*
X185642814Y-153126565D01*
X185643504Y-153120000D01*
X185640041Y-153087051D01*
X185624232Y-152936635D01*
X185624232Y-152936633D01*
X185623542Y-152930072D01*
X185564527Y-152748444D01*
X185543486Y-152711999D01*
X185483698Y-152608444D01*
X185469040Y-152583056D01*
X185382140Y-152486543D01*
X185351424Y-152422538D01*
X185360188Y-152352084D01*
X185382138Y-152317928D01*
X185419040Y-152276944D01*
X185503837Y-152130072D01*
X185511223Y-152117279D01*
X185511224Y-152117278D01*
X185514527Y-152111556D01*
X185573542Y-151929928D01*
X185576542Y-151901391D01*
X185592814Y-151746565D01*
X185593504Y-151740000D01*
X185581950Y-151630072D01*
X185574232Y-151556635D01*
X185574232Y-151556633D01*
X185573542Y-151550072D01*
X185514527Y-151368444D01*
X185419040Y-151203056D01*
X185370778Y-151149455D01*
X185295675Y-151066045D01*
X185295674Y-151066044D01*
X185291253Y-151061134D01*
X185147237Y-150956500D01*
X185142094Y-150952763D01*
X185142093Y-150952762D01*
X185136752Y-150948882D01*
X185130724Y-150946198D01*
X185130722Y-150946197D01*
X184968319Y-150873891D01*
X184968318Y-150873891D01*
X184962288Y-150871206D01*
X184868887Y-150851353D01*
X184781944Y-150832872D01*
X184781939Y-150832872D01*
X184775487Y-150831500D01*
X184584513Y-150831500D01*
X184578061Y-150832872D01*
X184578056Y-150832872D01*
X184491113Y-150851353D01*
X184397712Y-150871206D01*
X184391682Y-150873891D01*
X184391681Y-150873891D01*
X184229278Y-150946197D01*
X184229276Y-150946198D01*
X184223248Y-150948882D01*
X184217907Y-150952762D01*
X184217906Y-150952763D01*
X184212763Y-150956500D01*
X184068747Y-151061134D01*
X184064326Y-151066044D01*
X184064325Y-151066045D01*
X183989223Y-151149455D01*
X183940960Y-151203056D01*
X183845473Y-151368444D01*
X183786458Y-151550072D01*
X183785768Y-151556633D01*
X183785768Y-151556635D01*
X183778050Y-151630072D01*
X183766496Y-151740000D01*
X178540273Y-151740000D01*
X178455675Y-151646045D01*
X178455674Y-151646044D01*
X178451253Y-151641134D01*
X178334951Y-151556635D01*
X178302094Y-151532763D01*
X178302093Y-151532762D01*
X178296752Y-151528882D01*
X178290724Y-151526198D01*
X178290722Y-151526197D01*
X178128319Y-151453891D01*
X178128318Y-151453891D01*
X178122288Y-151451206D01*
X178028888Y-151431353D01*
X177941944Y-151412872D01*
X177941939Y-151412872D01*
X177935487Y-151411500D01*
X177744513Y-151411500D01*
X177738061Y-151412872D01*
X177738056Y-151412872D01*
X177651112Y-151431353D01*
X177557712Y-151451206D01*
X177551682Y-151453891D01*
X177551681Y-151453891D01*
X177389278Y-151526197D01*
X177389276Y-151526198D01*
X177383248Y-151528882D01*
X177377907Y-151532762D01*
X177377906Y-151532763D01*
X177345049Y-151556635D01*
X177228747Y-151641134D01*
X177224326Y-151646044D01*
X177224325Y-151646045D01*
X177133817Y-151746565D01*
X177100960Y-151783056D01*
X177042686Y-151883990D01*
X177012539Y-151936206D01*
X177005473Y-151948444D01*
X176946458Y-152130072D01*
X176945768Y-152136633D01*
X176945768Y-152136635D01*
X176931622Y-152271226D01*
X176926496Y-152320000D01*
X176927186Y-152326565D01*
X176941739Y-152465025D01*
X176946458Y-152509928D01*
X177005473Y-152691556D01*
X177017276Y-152711999D01*
X177034014Y-152780994D01*
X177017276Y-152838001D01*
X177005473Y-152858444D01*
X176946458Y-153040072D01*
X176945768Y-153046633D01*
X176945768Y-153046635D01*
X176932810Y-153169928D01*
X176926496Y-153230000D01*
X176144023Y-153230000D01*
X176163542Y-153169928D01*
X176164547Y-153160372D01*
X176182814Y-152986565D01*
X176183504Y-152980000D01*
X176170128Y-152852731D01*
X176164232Y-152796635D01*
X176164232Y-152796633D01*
X176163542Y-152790072D01*
X176104527Y-152608444D01*
X176087039Y-152578154D01*
X176067496Y-152544304D01*
X176050758Y-152475308D01*
X176073979Y-152408217D01*
X176082979Y-152396994D01*
X176114621Y-152361852D01*
X176114622Y-152361851D01*
X176119040Y-152356944D01*
X176214527Y-152191556D01*
X176273542Y-152009928D01*
X176281291Y-151936206D01*
X176292814Y-151826565D01*
X176293504Y-151820000D01*
X176277818Y-151670755D01*
X176274232Y-151636635D01*
X176274232Y-151636633D01*
X176273542Y-151630072D01*
X176214527Y-151448444D01*
X176193990Y-151412872D01*
X176164930Y-151362540D01*
X176119040Y-151283056D01*
X175991253Y-151141134D01*
X175881143Y-151061134D01*
X175842094Y-151032763D01*
X175842093Y-151032762D01*
X175836752Y-151028882D01*
X175830724Y-151026198D01*
X175830722Y-151026197D01*
X175668319Y-150953891D01*
X175668318Y-150953891D01*
X175662288Y-150951206D01*
X175568887Y-150931353D01*
X175481944Y-150912872D01*
X175481939Y-150912872D01*
X175475487Y-150911500D01*
X175284513Y-150911500D01*
X175278061Y-150912872D01*
X175278056Y-150912872D01*
X175191113Y-150931353D01*
X175097712Y-150951206D01*
X175091682Y-150953891D01*
X175091681Y-150953891D01*
X174929278Y-151026197D01*
X174929276Y-151026198D01*
X174923248Y-151028882D01*
X174917907Y-151032762D01*
X174917906Y-151032763D01*
X174878857Y-151061134D01*
X174768747Y-151141134D01*
X174640960Y-151283056D01*
X174595070Y-151362540D01*
X174566011Y-151412872D01*
X174545473Y-151448444D01*
X174486458Y-151630072D01*
X174485768Y-151636633D01*
X174485768Y-151636635D01*
X174482182Y-151670755D01*
X174466496Y-151820000D01*
X174467186Y-151826565D01*
X174478710Y-151936206D01*
X174486458Y-152009928D01*
X174545473Y-152191556D01*
X174548776Y-152197278D01*
X174548777Y-152197279D01*
X174582504Y-152255696D01*
X174599242Y-152324692D01*
X174576021Y-152391783D01*
X174567021Y-152403006D01*
X174530960Y-152443056D01*
X174527659Y-152448774D01*
X174446830Y-152588774D01*
X174435473Y-152608444D01*
X174376458Y-152790072D01*
X174375768Y-152796633D01*
X174375768Y-152796635D01*
X174369872Y-152852731D01*
X174356496Y-152980000D01*
X156408500Y-152980000D01*
X156408500Y-150076418D01*
X158089122Y-150076418D01*
X158089171Y-150077110D01*
X158094617Y-150085274D01*
X158172268Y-150157812D01*
X158176507Y-150161433D01*
X158509802Y-150421363D01*
X158514359Y-150424602D01*
X158869448Y-150653880D01*
X158874250Y-150656686D01*
X159248316Y-150853491D01*
X159253374Y-150855871D01*
X159643435Y-151018638D01*
X159648690Y-151020561D01*
X160051676Y-151148008D01*
X160057075Y-151149455D01*
X160469796Y-151240575D01*
X160475307Y-151241537D01*
X160894501Y-151295610D01*
X160900064Y-151296077D01*
X161322405Y-151312670D01*
X161327997Y-151312641D01*
X161750125Y-151291626D01*
X161755708Y-151291098D01*
X162174305Y-151232640D01*
X162179792Y-151231623D01*
X162591543Y-151136185D01*
X162596929Y-151134681D01*
X162998567Y-151003018D01*
X163003784Y-151001046D01*
X163392126Y-150834202D01*
X163397169Y-150831764D01*
X163769131Y-150631063D01*
X163773935Y-150628188D01*
X164126563Y-150395231D01*
X164131126Y-150391916D01*
X164461658Y-150128529D01*
X164465873Y-150124852D01*
X164503823Y-150088649D01*
X164511763Y-150074890D01*
X164511713Y-150073843D01*
X164506822Y-150066032D01*
X164106507Y-149665717D01*
X163221210Y-148780419D01*
X162695122Y-148254332D01*
X161312812Y-146872022D01*
X161298868Y-146864408D01*
X161297035Y-146864539D01*
X161290420Y-146868790D01*
X159904879Y-148254331D01*
X159019581Y-149139628D01*
X158493494Y-149665716D01*
X158096736Y-150062474D01*
X158089122Y-150076418D01*
X156408500Y-150076418D01*
X156408500Y-147783454D01*
X156428502Y-147715333D01*
X156482158Y-147668840D01*
X156552432Y-147658736D01*
X156617012Y-147688230D01*
X156655405Y-147747984D01*
X156745852Y-148056289D01*
X156747658Y-148061564D01*
X156902219Y-148454948D01*
X156904501Y-148460072D01*
X157093416Y-148838150D01*
X157096140Y-148843043D01*
X157317917Y-149202833D01*
X157321068Y-149207469D01*
X157573955Y-149546127D01*
X157577488Y-149550444D01*
X157713222Y-149701988D01*
X157726717Y-149710351D01*
X157736128Y-149704662D01*
X158134283Y-149306507D01*
X159019581Y-148421210D01*
X159029378Y-148411413D01*
X159545668Y-147895122D01*
X160927978Y-146512812D01*
X160934356Y-146501132D01*
X161664408Y-146501132D01*
X161664539Y-146502965D01*
X161668790Y-146509580D01*
X163054331Y-147895121D01*
X163570621Y-148411412D01*
X163580418Y-148421209D01*
X164465716Y-149306506D01*
X164862142Y-149702932D01*
X164875903Y-149710446D01*
X164885263Y-149703989D01*
X165054244Y-149511303D01*
X165057744Y-149506935D01*
X165187004Y-149330000D01*
X201816496Y-149330000D01*
X201836458Y-149519928D01*
X201895473Y-149701556D01*
X201898776Y-149707278D01*
X201898777Y-149707279D01*
X201932686Y-149766010D01*
X201990960Y-149866944D01*
X202118747Y-150008866D01*
X202273248Y-150121118D01*
X202279276Y-150123802D01*
X202279278Y-150123803D01*
X202289893Y-150128529D01*
X202447712Y-150198794D01*
X202541112Y-150218647D01*
X202628056Y-150237128D01*
X202628061Y-150237128D01*
X202634513Y-150238500D01*
X202825487Y-150238500D01*
X202831939Y-150237128D01*
X202831944Y-150237128D01*
X202918888Y-150218647D01*
X203012288Y-150198794D01*
X203170107Y-150128529D01*
X203180722Y-150123803D01*
X203180724Y-150123802D01*
X203186752Y-150121118D01*
X203248276Y-150076418D01*
X222289122Y-150076418D01*
X222289171Y-150077110D01*
X222294617Y-150085274D01*
X222372268Y-150157812D01*
X222376507Y-150161433D01*
X222709802Y-150421363D01*
X222714359Y-150424602D01*
X223069448Y-150653880D01*
X223074250Y-150656686D01*
X223448316Y-150853491D01*
X223453374Y-150855871D01*
X223843435Y-151018638D01*
X223848690Y-151020561D01*
X224251676Y-151148008D01*
X224257075Y-151149455D01*
X224669796Y-151240575D01*
X224675307Y-151241537D01*
X225094501Y-151295610D01*
X225100064Y-151296077D01*
X225522405Y-151312670D01*
X225527997Y-151312641D01*
X225950125Y-151291626D01*
X225955708Y-151291098D01*
X226374305Y-151232640D01*
X226379792Y-151231623D01*
X226791543Y-151136185D01*
X226796929Y-151134681D01*
X227198567Y-151003018D01*
X227203784Y-151001046D01*
X227592126Y-150834202D01*
X227597169Y-150831764D01*
X227969131Y-150631063D01*
X227973935Y-150628188D01*
X228326563Y-150395231D01*
X228331126Y-150391916D01*
X228661658Y-150128529D01*
X228665873Y-150124852D01*
X228703823Y-150088649D01*
X228711763Y-150074890D01*
X228711713Y-150073843D01*
X228706822Y-150066032D01*
X228306507Y-149665717D01*
X227421210Y-148780419D01*
X226895122Y-148254332D01*
X225512812Y-146872022D01*
X225498868Y-146864408D01*
X225497035Y-146864539D01*
X225490420Y-146868790D01*
X224104879Y-148254331D01*
X223219581Y-149139628D01*
X222693494Y-149665716D01*
X222296736Y-150062474D01*
X222289122Y-150076418D01*
X203248276Y-150076418D01*
X203341253Y-150008866D01*
X203469040Y-149866944D01*
X203527314Y-149766010D01*
X203561223Y-149707279D01*
X203561224Y-149707278D01*
X203564527Y-149701556D01*
X203623542Y-149519928D01*
X203643504Y-149330000D01*
X203630626Y-149207469D01*
X203624232Y-149146635D01*
X203624232Y-149146633D01*
X203623542Y-149140072D01*
X203564527Y-148958444D01*
X203469040Y-148793056D01*
X203341253Y-148651134D01*
X203186752Y-148538882D01*
X203180724Y-148536198D01*
X203180722Y-148536197D01*
X203018319Y-148463891D01*
X203018318Y-148463891D01*
X203012288Y-148461206D01*
X202918887Y-148441353D01*
X202831944Y-148422872D01*
X202831939Y-148422872D01*
X202825487Y-148421500D01*
X202634513Y-148421500D01*
X202628061Y-148422872D01*
X202628056Y-148422872D01*
X202541113Y-148441353D01*
X202447712Y-148461206D01*
X202441682Y-148463891D01*
X202441681Y-148463891D01*
X202279278Y-148536197D01*
X202279276Y-148536198D01*
X202273248Y-148538882D01*
X202118747Y-148651134D01*
X201990960Y-148793056D01*
X201895473Y-148958444D01*
X201836458Y-149140072D01*
X201835768Y-149146633D01*
X201835768Y-149146635D01*
X201829374Y-149207469D01*
X201816496Y-149330000D01*
X165187004Y-149330000D01*
X165307073Y-149165645D01*
X165310168Y-149160987D01*
X165528160Y-148798903D01*
X165530841Y-148793964D01*
X165715779Y-148413946D01*
X165718014Y-148408780D01*
X165868442Y-148013815D01*
X165870201Y-148008496D01*
X165984920Y-147601730D01*
X165986204Y-147596259D01*
X166064315Y-147180883D01*
X166065102Y-147175346D01*
X166102547Y-146790000D01*
X174676496Y-146790000D01*
X174677186Y-146796565D01*
X174684317Y-146864408D01*
X174696458Y-146979928D01*
X174755473Y-147161556D01*
X174850960Y-147326944D01*
X174978747Y-147468866D01*
X175133248Y-147581118D01*
X175139276Y-147583802D01*
X175139278Y-147583803D01*
X175277372Y-147645286D01*
X175307712Y-147658794D01*
X175401113Y-147678647D01*
X175488056Y-147697128D01*
X175488061Y-147697128D01*
X175494513Y-147698500D01*
X175685487Y-147698500D01*
X175691939Y-147697128D01*
X175691944Y-147697128D01*
X175778887Y-147678647D01*
X175872288Y-147658794D01*
X175902628Y-147645286D01*
X176040722Y-147583803D01*
X176040724Y-147583802D01*
X176046752Y-147581118D01*
X176201253Y-147468866D01*
X176329040Y-147326944D01*
X176424527Y-147161556D01*
X176483542Y-146979928D01*
X176495684Y-146864408D01*
X176502814Y-146796565D01*
X176503504Y-146790000D01*
X176483542Y-146600072D01*
X176424527Y-146418444D01*
X176329040Y-146253056D01*
X176219330Y-146131210D01*
X176205675Y-146116045D01*
X176205674Y-146116044D01*
X176201253Y-146111134D01*
X176046752Y-145998882D01*
X176040724Y-145996198D01*
X176040722Y-145996197D01*
X175878319Y-145923891D01*
X175878318Y-145923891D01*
X175872288Y-145921206D01*
X175778887Y-145901353D01*
X175691944Y-145882872D01*
X175691939Y-145882872D01*
X175685487Y-145881500D01*
X175494513Y-145881500D01*
X175488061Y-145882872D01*
X175488056Y-145882872D01*
X175401113Y-145901353D01*
X175307712Y-145921206D01*
X175301682Y-145923891D01*
X175301681Y-145923891D01*
X175139278Y-145996197D01*
X175139276Y-145996198D01*
X175133248Y-145998882D01*
X174978747Y-146111134D01*
X174974326Y-146116044D01*
X174974325Y-146116045D01*
X174960671Y-146131210D01*
X174850960Y-146253056D01*
X174755473Y-146418444D01*
X174696458Y-146600072D01*
X174676496Y-146790000D01*
X166102547Y-146790000D01*
X166106035Y-146754102D01*
X166106308Y-146749665D01*
X166112788Y-146502233D01*
X166112746Y-146497762D01*
X166093917Y-146074973D01*
X166093419Y-146069386D01*
X166037155Y-145650499D01*
X166036162Y-145644976D01*
X165942883Y-145232748D01*
X165941410Y-145227361D01*
X165811847Y-144825025D01*
X165809910Y-144819815D01*
X165645098Y-144430599D01*
X165642683Y-144425536D01*
X165443936Y-144052535D01*
X165441085Y-144047713D01*
X165209974Y-143693865D01*
X165206692Y-143689297D01*
X164945030Y-143357380D01*
X164941382Y-143353155D01*
X164888103Y-143296715D01*
X164874389Y-143288705D01*
X164873517Y-143288742D01*
X164865438Y-143293772D01*
X164465717Y-143693493D01*
X163580419Y-144578790D01*
X163054332Y-145104878D01*
X161672022Y-146487188D01*
X161664408Y-146501132D01*
X160934356Y-146501132D01*
X160935592Y-146498868D01*
X160935461Y-146497035D01*
X160931210Y-146490420D01*
X159545669Y-145104879D01*
X158660372Y-144219581D01*
X158134284Y-143693494D01*
X157735561Y-143294771D01*
X157722253Y-143287504D01*
X157712214Y-143294626D01*
X157468223Y-143587994D01*
X157464828Y-143592467D01*
X157224528Y-143940152D01*
X157221549Y-143944902D01*
X157013106Y-144312575D01*
X157010562Y-144317568D01*
X156835629Y-144702312D01*
X156833538Y-144707511D01*
X156693498Y-145106290D01*
X156691877Y-145111659D01*
X156656623Y-145250471D01*
X156620468Y-145311573D01*
X156557019Y-145343427D01*
X156486420Y-145335922D01*
X156431086Y-145291440D01*
X156408500Y-145219456D01*
X156408500Y-141734500D01*
X156428502Y-141666379D01*
X156482158Y-141619886D01*
X156534500Y-141608500D01*
X160020604Y-141608500D01*
X160088725Y-141628502D01*
G37*
%TD.AperFunction*%
%TA.AperFunction,Conductor*%
G36*
X164150539Y-185994418D02*
G01*
X164195601Y-186023378D01*
X164286112Y-186113888D01*
X164286113Y-186113889D01*
X164376622Y-186204399D01*
X164410647Y-186266711D01*
X164405581Y-186337527D01*
X164376621Y-186382590D01*
X163580419Y-187178791D01*
X163143427Y-187615784D01*
X163081115Y-187649809D01*
X163010299Y-187644744D01*
X162965237Y-187615784D01*
X162874726Y-187525274D01*
X162874725Y-187525273D01*
X162784216Y-187434763D01*
X162750191Y-187372451D01*
X162755257Y-187301635D01*
X162784217Y-187256572D01*
X163580419Y-186460371D01*
X164017411Y-186023378D01*
X164079723Y-185989353D01*
X164150539Y-185994418D01*
G37*
%TD.AperFunction*%
M02*
