%TF.GenerationSoftware,KiCad,Pcbnew,6.0.6-3a73a75311~116~ubuntu20.04.1*%
%TF.CreationDate,2022-07-25T10:06:13-07:00*%
%TF.ProjectId,rover_controller,726f7665-725f-4636-9f6e-74726f6c6c65,rev?*%
%TF.SameCoordinates,Original*%
%TF.FileFunction,Legend,Top*%
%TF.FilePolarity,Positive*%
%FSLAX46Y46*%
G04 Gerber Fmt 4.6, Leading zero omitted, Abs format (unit mm)*
G04 Created by KiCad (PCBNEW 6.0.6-3a73a75311~116~ubuntu20.04.1) date 2022-07-25 10:06:13*
%MOMM*%
%LPD*%
G01*
G04 APERTURE LIST*
G04 Aperture macros list*
%AMRoundRect*
0 Rectangle with rounded corners*
0 $1 Rounding radius*
0 $2 $3 $4 $5 $6 $7 $8 $9 X,Y pos of 4 corners*
0 Add a 4 corners polygon primitive as box body*
4,1,4,$2,$3,$4,$5,$6,$7,$8,$9,$2,$3,0*
0 Add four circle primitives for the rounded corners*
1,1,$1+$1,$2,$3*
1,1,$1+$1,$4,$5*
1,1,$1+$1,$6,$7*
1,1,$1+$1,$8,$9*
0 Add four rect primitives between the rounded corners*
20,1,$1+$1,$2,$3,$4,$5,0*
20,1,$1+$1,$4,$5,$6,$7,0*
20,1,$1+$1,$6,$7,$8,$9,0*
20,1,$1+$1,$8,$9,$2,$3,0*%
G04 Aperture macros list end*
%ADD10C,0.075000*%
%ADD11C,0.125000*%
%ADD12C,0.120000*%
%ADD13C,0.203200*%
%ADD14RoundRect,0.250000X-0.337500X-0.475000X0.337500X-0.475000X0.337500X0.475000X-0.337500X0.475000X0*%
%ADD15R,1.000000X1.000000*%
%ADD16O,1.000000X1.000000*%
%ADD17RoundRect,0.150000X-0.150000X0.512500X-0.150000X-0.512500X0.150000X-0.512500X0.150000X0.512500X0*%
%ADD18RoundRect,0.150000X-0.587500X-0.150000X0.587500X-0.150000X0.587500X0.150000X-0.587500X0.150000X0*%
%ADD19RoundRect,0.237500X0.237500X-0.300000X0.237500X0.300000X-0.237500X0.300000X-0.237500X-0.300000X0*%
%ADD20RoundRect,0.250000X-0.625000X0.400000X-0.625000X-0.400000X0.625000X-0.400000X0.625000X0.400000X0*%
%ADD21RoundRect,0.237500X0.250000X0.237500X-0.250000X0.237500X-0.250000X-0.237500X0.250000X-0.237500X0*%
%ADD22R,0.889000X5.588000*%
%ADD23R,1.651000X5.588000*%
%ADD24RoundRect,0.150000X-0.150000X0.587500X-0.150000X-0.587500X0.150000X-0.587500X0.150000X0.587500X0*%
%ADD25RoundRect,0.155000X0.212500X0.155000X-0.212500X0.155000X-0.212500X-0.155000X0.212500X-0.155000X0*%
%ADD26RoundRect,0.250000X-0.650000X0.412500X-0.650000X-0.412500X0.650000X-0.412500X0.650000X0.412500X0*%
%ADD27RoundRect,0.237500X-0.250000X-0.237500X0.250000X-0.237500X0.250000X0.237500X-0.250000X0.237500X0*%
%ADD28C,0.900000*%
%ADD29C,8.600000*%
%ADD30RoundRect,0.150000X0.587500X0.150000X-0.587500X0.150000X-0.587500X-0.150000X0.587500X-0.150000X0*%
%ADD31RoundRect,0.237500X-0.287500X-0.237500X0.287500X-0.237500X0.287500X0.237500X-0.287500X0.237500X0*%
%ADD32RoundRect,0.250000X-0.350000X-0.450000X0.350000X-0.450000X0.350000X0.450000X-0.350000X0.450000X0*%
%ADD33RoundRect,0.237500X-0.237500X0.250000X-0.237500X-0.250000X0.237500X-0.250000X0.237500X0.250000X0*%
%ADD34R,0.450000X1.380000*%
%ADD35R,1.425000X1.550000*%
%ADD36R,1.800000X1.900000*%
%ADD37R,1.650000X1.300000*%
%ADD38R,1.000000X1.900000*%
%ADD39R,0.600000X0.450000*%
%ADD40RoundRect,0.250000X0.450000X-0.350000X0.450000X0.350000X-0.450000X0.350000X-0.450000X-0.350000X0*%
%ADD41RoundRect,0.250000X0.337500X0.475000X-0.337500X0.475000X-0.337500X-0.475000X0.337500X-0.475000X0*%
%ADD42R,0.900000X1.000000*%
%ADD43R,1.700000X0.550000*%
%ADD44RoundRect,0.155000X-0.155000X0.212500X-0.155000X-0.212500X0.155000X-0.212500X0.155000X0.212500X0*%
%ADD45R,1.700000X1.700000*%
%ADD46O,1.700000X1.700000*%
%ADD47R,1.200000X3.000000*%
%ADD48RoundRect,0.237500X-0.300000X-0.237500X0.300000X-0.237500X0.300000X0.237500X-0.300000X0.237500X0*%
%ADD49R,2.000000X1.500000*%
%ADD50R,2.000000X3.800000*%
%ADD51RoundRect,0.250000X0.650000X-0.412500X0.650000X0.412500X-0.650000X0.412500X-0.650000X-0.412500X0*%
%ADD52RoundRect,0.237500X0.300000X0.237500X-0.300000X0.237500X-0.300000X-0.237500X0.300000X-0.237500X0*%
%ADD53R,0.900000X2.000000*%
%ADD54R,2.000000X0.900000*%
%ADD55R,5.000000X5.000000*%
%ADD56RoundRect,0.250000X0.350000X0.450000X-0.350000X0.450000X-0.350000X-0.450000X0.350000X-0.450000X0*%
%ADD57RoundRect,0.237500X-0.237500X0.300000X-0.237500X-0.300000X0.237500X-0.300000X0.237500X0.300000X0*%
%ADD58RoundRect,0.062500X-0.350000X-0.062500X0.350000X-0.062500X0.350000X0.062500X-0.350000X0.062500X0*%
%ADD59RoundRect,0.062500X-0.062500X-0.350000X0.062500X-0.350000X0.062500X0.350000X-0.062500X0.350000X0*%
%ADD60R,2.600000X2.600000*%
G04 APERTURE END LIST*
D10*
X172648571Y-193735714D02*
X172648571Y-193435714D01*
X172748571Y-193650000D01*
X172848571Y-193435714D01*
X172848571Y-193735714D01*
X172991428Y-193735714D02*
X172991428Y-193435714D01*
X173120000Y-193721428D02*
X173162857Y-193735714D01*
X173234285Y-193735714D01*
X173262857Y-193721428D01*
X173277142Y-193707142D01*
X173291428Y-193678571D01*
X173291428Y-193650000D01*
X173277142Y-193621428D01*
X173262857Y-193607142D01*
X173234285Y-193592857D01*
X173177142Y-193578571D01*
X173148571Y-193564285D01*
X173134285Y-193550000D01*
X173120000Y-193521428D01*
X173120000Y-193492857D01*
X173134285Y-193464285D01*
X173148571Y-193450000D01*
X173177142Y-193435714D01*
X173248571Y-193435714D01*
X173291428Y-193450000D01*
X173477142Y-193435714D02*
X173534285Y-193435714D01*
X173562857Y-193450000D01*
X173591428Y-193478571D01*
X173605714Y-193535714D01*
X173605714Y-193635714D01*
X173591428Y-193692857D01*
X173562857Y-193721428D01*
X173534285Y-193735714D01*
X173477142Y-193735714D01*
X173448571Y-193721428D01*
X173420000Y-193692857D01*
X173405714Y-193635714D01*
X173405714Y-193535714D01*
X173420000Y-193478571D01*
X173448571Y-193450000D01*
X173477142Y-193435714D01*
X227861428Y-155167142D02*
X227875714Y-155124285D01*
X227875714Y-155052857D01*
X227861428Y-155024285D01*
X227847142Y-155010000D01*
X227818571Y-154995714D01*
X227790000Y-154995714D01*
X227761428Y-155010000D01*
X227747142Y-155024285D01*
X227732857Y-155052857D01*
X227718571Y-155110000D01*
X227704285Y-155138571D01*
X227690000Y-155152857D01*
X227661428Y-155167142D01*
X227632857Y-155167142D01*
X227604285Y-155152857D01*
X227590000Y-155138571D01*
X227575714Y-155110000D01*
X227575714Y-155038571D01*
X227590000Y-154995714D01*
X227847142Y-154695714D02*
X227861428Y-154710000D01*
X227875714Y-154752857D01*
X227875714Y-154781428D01*
X227861428Y-154824285D01*
X227832857Y-154852857D01*
X227804285Y-154867142D01*
X227747142Y-154881428D01*
X227704285Y-154881428D01*
X227647142Y-154867142D01*
X227618571Y-154852857D01*
X227590000Y-154824285D01*
X227575714Y-154781428D01*
X227575714Y-154752857D01*
X227590000Y-154710000D01*
X227604285Y-154695714D01*
X227875714Y-154424285D02*
X227875714Y-154567142D01*
X227575714Y-154567142D01*
X227851428Y-152654285D02*
X227865714Y-152611428D01*
X227865714Y-152540000D01*
X227851428Y-152511428D01*
X227837142Y-152497142D01*
X227808571Y-152482857D01*
X227780000Y-152482857D01*
X227751428Y-152497142D01*
X227737142Y-152511428D01*
X227722857Y-152540000D01*
X227708571Y-152597142D01*
X227694285Y-152625714D01*
X227680000Y-152640000D01*
X227651428Y-152654285D01*
X227622857Y-152654285D01*
X227594285Y-152640000D01*
X227580000Y-152625714D01*
X227565714Y-152597142D01*
X227565714Y-152525714D01*
X227580000Y-152482857D01*
X227865714Y-152354285D02*
X227565714Y-152354285D01*
X227565714Y-152282857D01*
X227580000Y-152240000D01*
X227608571Y-152211428D01*
X227637142Y-152197142D01*
X227694285Y-152182857D01*
X227737142Y-152182857D01*
X227794285Y-152197142D01*
X227822857Y-152211428D01*
X227851428Y-152240000D01*
X227865714Y-152282857D01*
X227865714Y-152354285D01*
X227780000Y-152068571D02*
X227780000Y-151925714D01*
X227865714Y-152097142D02*
X227565714Y-151997142D01*
X227865714Y-151897142D01*
X211161428Y-145840000D02*
X211132857Y-145825714D01*
X211090000Y-145825714D01*
X211047142Y-145840000D01*
X211018571Y-145868571D01*
X211004285Y-145897142D01*
X210990000Y-145954285D01*
X210990000Y-145997142D01*
X211004285Y-146054285D01*
X211018571Y-146082857D01*
X211047142Y-146111428D01*
X211090000Y-146125714D01*
X211118571Y-146125714D01*
X211161428Y-146111428D01*
X211175714Y-146097142D01*
X211175714Y-145997142D01*
X211118571Y-145997142D01*
X211304285Y-146125714D02*
X211304285Y-145825714D01*
X211475714Y-146125714D01*
X211475714Y-145825714D01*
X211618571Y-146125714D02*
X211618571Y-145825714D01*
X211690000Y-145825714D01*
X211732857Y-145840000D01*
X211761428Y-145868571D01*
X211775714Y-145897142D01*
X211790000Y-145954285D01*
X211790000Y-145997142D01*
X211775714Y-146054285D01*
X211761428Y-146082857D01*
X211732857Y-146111428D01*
X211690000Y-146125714D01*
X211618571Y-146125714D01*
D11*
X190910476Y-189864285D02*
X190981904Y-189888095D01*
X191005714Y-189911904D01*
X191029523Y-189959523D01*
X191029523Y-190030952D01*
X191005714Y-190078571D01*
X190981904Y-190102380D01*
X190934285Y-190126190D01*
X190743809Y-190126190D01*
X190743809Y-189626190D01*
X190910476Y-189626190D01*
X190958095Y-189650000D01*
X190981904Y-189673809D01*
X191005714Y-189721428D01*
X191005714Y-189769047D01*
X190981904Y-189816666D01*
X190958095Y-189840476D01*
X190910476Y-189864285D01*
X190743809Y-189864285D01*
X191315238Y-190126190D02*
X191267619Y-190102380D01*
X191243809Y-190078571D01*
X191220000Y-190030952D01*
X191220000Y-189888095D01*
X191243809Y-189840476D01*
X191267619Y-189816666D01*
X191315238Y-189792857D01*
X191386666Y-189792857D01*
X191434285Y-189816666D01*
X191458095Y-189840476D01*
X191481904Y-189888095D01*
X191481904Y-190030952D01*
X191458095Y-190078571D01*
X191434285Y-190102380D01*
X191386666Y-190126190D01*
X191315238Y-190126190D01*
X191767619Y-190126190D02*
X191720000Y-190102380D01*
X191696190Y-190078571D01*
X191672380Y-190030952D01*
X191672380Y-189888095D01*
X191696190Y-189840476D01*
X191720000Y-189816666D01*
X191767619Y-189792857D01*
X191839047Y-189792857D01*
X191886666Y-189816666D01*
X191910476Y-189840476D01*
X191934285Y-189888095D01*
X191934285Y-190030952D01*
X191910476Y-190078571D01*
X191886666Y-190102380D01*
X191839047Y-190126190D01*
X191767619Y-190126190D01*
X192077142Y-189792857D02*
X192267619Y-189792857D01*
X192148571Y-189626190D02*
X192148571Y-190054761D01*
X192172380Y-190102380D01*
X192220000Y-190126190D01*
X192267619Y-190126190D01*
D10*
X203297142Y-146125714D02*
X203297142Y-145825714D01*
X203497142Y-145825714D02*
X203554285Y-145825714D01*
X203582857Y-145840000D01*
X203611428Y-145868571D01*
X203625714Y-145925714D01*
X203625714Y-146025714D01*
X203611428Y-146082857D01*
X203582857Y-146111428D01*
X203554285Y-146125714D01*
X203497142Y-146125714D01*
X203468571Y-146111428D01*
X203440000Y-146082857D01*
X203425714Y-146025714D01*
X203425714Y-145925714D01*
X203440000Y-145868571D01*
X203468571Y-145840000D01*
X203497142Y-145825714D01*
X203740000Y-145854285D02*
X203754285Y-145840000D01*
X203782857Y-145825714D01*
X203854285Y-145825714D01*
X203882857Y-145840000D01*
X203897142Y-145854285D01*
X203911428Y-145882857D01*
X203911428Y-145911428D01*
X203897142Y-145954285D01*
X203725714Y-146125714D01*
X203911428Y-146125714D01*
X204182857Y-145825714D02*
X204040000Y-145825714D01*
X204025714Y-145968571D01*
X204040000Y-145954285D01*
X204068571Y-145940000D01*
X204140000Y-145940000D01*
X204168571Y-145954285D01*
X204182857Y-145968571D01*
X204197142Y-145997142D01*
X204197142Y-146068571D01*
X204182857Y-146097142D01*
X204168571Y-146111428D01*
X204140000Y-146125714D01*
X204068571Y-146125714D01*
X204040000Y-146111428D01*
X204025714Y-146097142D01*
X199617142Y-146055714D02*
X199617142Y-145755714D01*
X199817142Y-145755714D02*
X199874285Y-145755714D01*
X199902857Y-145770000D01*
X199931428Y-145798571D01*
X199945714Y-145855714D01*
X199945714Y-145955714D01*
X199931428Y-146012857D01*
X199902857Y-146041428D01*
X199874285Y-146055714D01*
X199817142Y-146055714D01*
X199788571Y-146041428D01*
X199760000Y-146012857D01*
X199745714Y-145955714D01*
X199745714Y-145855714D01*
X199760000Y-145798571D01*
X199788571Y-145770000D01*
X199817142Y-145755714D01*
X200231428Y-146055714D02*
X200060000Y-146055714D01*
X200145714Y-146055714D02*
X200145714Y-145755714D01*
X200117142Y-145798571D01*
X200088571Y-145827142D01*
X200060000Y-145841428D01*
X200488571Y-145755714D02*
X200431428Y-145755714D01*
X200402857Y-145770000D01*
X200388571Y-145784285D01*
X200360000Y-145827142D01*
X200345714Y-145884285D01*
X200345714Y-145998571D01*
X200360000Y-146027142D01*
X200374285Y-146041428D01*
X200402857Y-146055714D01*
X200460000Y-146055714D01*
X200488571Y-146041428D01*
X200502857Y-146027142D01*
X200517142Y-145998571D01*
X200517142Y-145927142D01*
X200502857Y-145898571D01*
X200488571Y-145884285D01*
X200460000Y-145870000D01*
X200402857Y-145870000D01*
X200374285Y-145884285D01*
X200360000Y-145898571D01*
X200345714Y-145927142D01*
D11*
X184620952Y-190106190D02*
X184454285Y-189868095D01*
X184335238Y-190106190D02*
X184335238Y-189606190D01*
X184525714Y-189606190D01*
X184573333Y-189630000D01*
X184597142Y-189653809D01*
X184620952Y-189701428D01*
X184620952Y-189772857D01*
X184597142Y-189820476D01*
X184573333Y-189844285D01*
X184525714Y-189868095D01*
X184335238Y-189868095D01*
X185025714Y-190082380D02*
X184978095Y-190106190D01*
X184882857Y-190106190D01*
X184835238Y-190082380D01*
X184811428Y-190034761D01*
X184811428Y-189844285D01*
X184835238Y-189796666D01*
X184882857Y-189772857D01*
X184978095Y-189772857D01*
X185025714Y-189796666D01*
X185049523Y-189844285D01*
X185049523Y-189891904D01*
X184811428Y-189939523D01*
X185240000Y-190082380D02*
X185287619Y-190106190D01*
X185382857Y-190106190D01*
X185430476Y-190082380D01*
X185454285Y-190034761D01*
X185454285Y-190010952D01*
X185430476Y-189963333D01*
X185382857Y-189939523D01*
X185311428Y-189939523D01*
X185263809Y-189915714D01*
X185240000Y-189868095D01*
X185240000Y-189844285D01*
X185263809Y-189796666D01*
X185311428Y-189772857D01*
X185382857Y-189772857D01*
X185430476Y-189796666D01*
X185859047Y-190082380D02*
X185811428Y-190106190D01*
X185716190Y-190106190D01*
X185668571Y-190082380D01*
X185644761Y-190034761D01*
X185644761Y-189844285D01*
X185668571Y-189796666D01*
X185716190Y-189772857D01*
X185811428Y-189772857D01*
X185859047Y-189796666D01*
X185882857Y-189844285D01*
X185882857Y-189891904D01*
X185644761Y-189939523D01*
X186025714Y-189772857D02*
X186216190Y-189772857D01*
X186097142Y-189606190D02*
X186097142Y-190034761D01*
X186120952Y-190082380D01*
X186168571Y-190106190D01*
X186216190Y-190106190D01*
D10*
X189477142Y-146055714D02*
X189477142Y-145755714D01*
X189677142Y-145755714D02*
X189734285Y-145755714D01*
X189762857Y-145770000D01*
X189791428Y-145798571D01*
X189805714Y-145855714D01*
X189805714Y-145955714D01*
X189791428Y-146012857D01*
X189762857Y-146041428D01*
X189734285Y-146055714D01*
X189677142Y-146055714D01*
X189648571Y-146041428D01*
X189620000Y-146012857D01*
X189605714Y-145955714D01*
X189605714Y-145855714D01*
X189620000Y-145798571D01*
X189648571Y-145770000D01*
X189677142Y-145755714D01*
X189920000Y-145784285D02*
X189934285Y-145770000D01*
X189962857Y-145755714D01*
X190034285Y-145755714D01*
X190062857Y-145770000D01*
X190077142Y-145784285D01*
X190091428Y-145812857D01*
X190091428Y-145841428D01*
X190077142Y-145884285D01*
X189905714Y-146055714D01*
X190091428Y-146055714D01*
X190191428Y-145755714D02*
X190377142Y-145755714D01*
X190277142Y-145870000D01*
X190320000Y-145870000D01*
X190348571Y-145884285D01*
X190362857Y-145898571D01*
X190377142Y-145927142D01*
X190377142Y-145998571D01*
X190362857Y-146027142D01*
X190348571Y-146041428D01*
X190320000Y-146055714D01*
X190234285Y-146055714D01*
X190205714Y-146041428D01*
X190191428Y-146027142D01*
X170082857Y-193731428D02*
X170125714Y-193745714D01*
X170197142Y-193745714D01*
X170225714Y-193731428D01*
X170240000Y-193717142D01*
X170254285Y-193688571D01*
X170254285Y-193660000D01*
X170240000Y-193631428D01*
X170225714Y-193617142D01*
X170197142Y-193602857D01*
X170140000Y-193588571D01*
X170111428Y-193574285D01*
X170097142Y-193560000D01*
X170082857Y-193531428D01*
X170082857Y-193502857D01*
X170097142Y-193474285D01*
X170111428Y-193460000D01*
X170140000Y-193445714D01*
X170211428Y-193445714D01*
X170254285Y-193460000D01*
X170554285Y-193717142D02*
X170540000Y-193731428D01*
X170497142Y-193745714D01*
X170468571Y-193745714D01*
X170425714Y-193731428D01*
X170397142Y-193702857D01*
X170382857Y-193674285D01*
X170368571Y-193617142D01*
X170368571Y-193574285D01*
X170382857Y-193517142D01*
X170397142Y-193488571D01*
X170425714Y-193460000D01*
X170468571Y-193445714D01*
X170497142Y-193445714D01*
X170540000Y-193460000D01*
X170554285Y-193474285D01*
X170825714Y-193745714D02*
X170682857Y-193745714D01*
X170682857Y-193445714D01*
X170925714Y-193745714D02*
X170925714Y-193445714D01*
X171097142Y-193745714D02*
X170968571Y-193574285D01*
X171097142Y-193445714D02*
X170925714Y-193617142D01*
X194497142Y-146055714D02*
X194497142Y-145755714D01*
X194697142Y-145755714D02*
X194754285Y-145755714D01*
X194782857Y-145770000D01*
X194811428Y-145798571D01*
X194825714Y-145855714D01*
X194825714Y-145955714D01*
X194811428Y-146012857D01*
X194782857Y-146041428D01*
X194754285Y-146055714D01*
X194697142Y-146055714D01*
X194668571Y-146041428D01*
X194640000Y-146012857D01*
X194625714Y-145955714D01*
X194625714Y-145855714D01*
X194640000Y-145798571D01*
X194668571Y-145770000D01*
X194697142Y-145755714D01*
X195111428Y-146055714D02*
X194940000Y-146055714D01*
X195025714Y-146055714D02*
X195025714Y-145755714D01*
X194997142Y-145798571D01*
X194968571Y-145827142D01*
X194940000Y-145841428D01*
X195282857Y-145884285D02*
X195254285Y-145870000D01*
X195240000Y-145855714D01*
X195225714Y-145827142D01*
X195225714Y-145812857D01*
X195240000Y-145784285D01*
X195254285Y-145770000D01*
X195282857Y-145755714D01*
X195340000Y-145755714D01*
X195368571Y-145770000D01*
X195382857Y-145784285D01*
X195397142Y-145812857D01*
X195397142Y-145827142D01*
X195382857Y-145855714D01*
X195368571Y-145870000D01*
X195340000Y-145884285D01*
X195282857Y-145884285D01*
X195254285Y-145898571D01*
X195240000Y-145912857D01*
X195225714Y-145941428D01*
X195225714Y-145998571D01*
X195240000Y-146027142D01*
X195254285Y-146041428D01*
X195282857Y-146055714D01*
X195340000Y-146055714D01*
X195368571Y-146041428D01*
X195382857Y-146027142D01*
X195397142Y-145998571D01*
X195397142Y-145941428D01*
X195382857Y-145912857D01*
X195368571Y-145898571D01*
X195340000Y-145884285D01*
D11*
X227376190Y-184008095D02*
X227376190Y-183698571D01*
X227566666Y-183865238D01*
X227566666Y-183793809D01*
X227590476Y-183746190D01*
X227614285Y-183722380D01*
X227661904Y-183698571D01*
X227780952Y-183698571D01*
X227828571Y-183722380D01*
X227852380Y-183746190D01*
X227876190Y-183793809D01*
X227876190Y-183936666D01*
X227852380Y-183984285D01*
X227828571Y-184008095D01*
X227828571Y-183484285D02*
X227852380Y-183460476D01*
X227876190Y-183484285D01*
X227852380Y-183508095D01*
X227828571Y-183484285D01*
X227876190Y-183484285D01*
X227376190Y-183293809D02*
X227376190Y-182984285D01*
X227566666Y-183150952D01*
X227566666Y-183079523D01*
X227590476Y-183031904D01*
X227614285Y-183008095D01*
X227661904Y-182984285D01*
X227780952Y-182984285D01*
X227828571Y-183008095D01*
X227852380Y-183031904D01*
X227876190Y-183079523D01*
X227876190Y-183222380D01*
X227852380Y-183270000D01*
X227828571Y-183293809D01*
X227376190Y-182841428D02*
X227876190Y-182674761D01*
X227376190Y-182508095D01*
D10*
X178220000Y-193727142D02*
X178205714Y-193741428D01*
X178162857Y-193755714D01*
X178134285Y-193755714D01*
X178091428Y-193741428D01*
X178062857Y-193712857D01*
X178048571Y-193684285D01*
X178034285Y-193627142D01*
X178034285Y-193584285D01*
X178048571Y-193527142D01*
X178062857Y-193498571D01*
X178091428Y-193470000D01*
X178134285Y-193455714D01*
X178162857Y-193455714D01*
X178205714Y-193470000D01*
X178220000Y-193484285D01*
X178334285Y-193741428D02*
X178377142Y-193755714D01*
X178448571Y-193755714D01*
X178477142Y-193741428D01*
X178491428Y-193727142D01*
X178505714Y-193698571D01*
X178505714Y-193670000D01*
X178491428Y-193641428D01*
X178477142Y-193627142D01*
X178448571Y-193612857D01*
X178391428Y-193598571D01*
X178362857Y-193584285D01*
X178348571Y-193570000D01*
X178334285Y-193541428D01*
X178334285Y-193512857D01*
X178348571Y-193484285D01*
X178362857Y-193470000D01*
X178391428Y-193455714D01*
X178462857Y-193455714D01*
X178505714Y-193470000D01*
X213822857Y-145825714D02*
X213680000Y-145825714D01*
X213665714Y-145968571D01*
X213680000Y-145954285D01*
X213708571Y-145940000D01*
X213780000Y-145940000D01*
X213808571Y-145954285D01*
X213822857Y-145968571D01*
X213837142Y-145997142D01*
X213837142Y-146068571D01*
X213822857Y-146097142D01*
X213808571Y-146111428D01*
X213780000Y-146125714D01*
X213708571Y-146125714D01*
X213680000Y-146111428D01*
X213665714Y-146097142D01*
X213922857Y-145825714D02*
X214022857Y-146125714D01*
X214122857Y-145825714D01*
X192017142Y-146055714D02*
X192017142Y-145755714D01*
X192217142Y-145755714D02*
X192274285Y-145755714D01*
X192302857Y-145770000D01*
X192331428Y-145798571D01*
X192345714Y-145855714D01*
X192345714Y-145955714D01*
X192331428Y-146012857D01*
X192302857Y-146041428D01*
X192274285Y-146055714D01*
X192217142Y-146055714D01*
X192188571Y-146041428D01*
X192160000Y-146012857D01*
X192145714Y-145955714D01*
X192145714Y-145855714D01*
X192160000Y-145798571D01*
X192188571Y-145770000D01*
X192217142Y-145755714D01*
X192631428Y-146055714D02*
X192460000Y-146055714D01*
X192545714Y-146055714D02*
X192545714Y-145755714D01*
X192517142Y-145798571D01*
X192488571Y-145827142D01*
X192460000Y-145841428D01*
X192774285Y-146055714D02*
X192831428Y-146055714D01*
X192860000Y-146041428D01*
X192874285Y-146027142D01*
X192902857Y-145984285D01*
X192917142Y-145927142D01*
X192917142Y-145812857D01*
X192902857Y-145784285D01*
X192888571Y-145770000D01*
X192860000Y-145755714D01*
X192802857Y-145755714D01*
X192774285Y-145770000D01*
X192760000Y-145784285D01*
X192745714Y-145812857D01*
X192745714Y-145884285D01*
X192760000Y-145912857D01*
X192774285Y-145927142D01*
X192802857Y-145941428D01*
X192860000Y-145941428D01*
X192888571Y-145927142D01*
X192902857Y-145912857D01*
X192917142Y-145884285D01*
X175218571Y-193775714D02*
X175218571Y-193475714D01*
X175318571Y-193690000D01*
X175418571Y-193475714D01*
X175418571Y-193775714D01*
X175618571Y-193475714D02*
X175675714Y-193475714D01*
X175704285Y-193490000D01*
X175732857Y-193518571D01*
X175747142Y-193575714D01*
X175747142Y-193675714D01*
X175732857Y-193732857D01*
X175704285Y-193761428D01*
X175675714Y-193775714D01*
X175618571Y-193775714D01*
X175590000Y-193761428D01*
X175561428Y-193732857D01*
X175547142Y-193675714D01*
X175547142Y-193575714D01*
X175561428Y-193518571D01*
X175590000Y-193490000D01*
X175618571Y-193475714D01*
X175861428Y-193761428D02*
X175904285Y-193775714D01*
X175975714Y-193775714D01*
X176004285Y-193761428D01*
X176018571Y-193747142D01*
X176032857Y-193718571D01*
X176032857Y-193690000D01*
X176018571Y-193661428D01*
X176004285Y-193647142D01*
X175975714Y-193632857D01*
X175918571Y-193618571D01*
X175890000Y-193604285D01*
X175875714Y-193590000D01*
X175861428Y-193561428D01*
X175861428Y-193532857D01*
X175875714Y-193504285D01*
X175890000Y-193490000D01*
X175918571Y-193475714D01*
X175990000Y-193475714D01*
X176032857Y-193490000D01*
X176161428Y-193775714D02*
X176161428Y-193475714D01*
X206051428Y-145840000D02*
X206022857Y-145825714D01*
X205980000Y-145825714D01*
X205937142Y-145840000D01*
X205908571Y-145868571D01*
X205894285Y-145897142D01*
X205880000Y-145954285D01*
X205880000Y-145997142D01*
X205894285Y-146054285D01*
X205908571Y-146082857D01*
X205937142Y-146111428D01*
X205980000Y-146125714D01*
X206008571Y-146125714D01*
X206051428Y-146111428D01*
X206065714Y-146097142D01*
X206065714Y-145997142D01*
X206008571Y-145997142D01*
X206194285Y-146125714D02*
X206194285Y-145825714D01*
X206365714Y-146125714D01*
X206365714Y-145825714D01*
X206508571Y-146125714D02*
X206508571Y-145825714D01*
X206580000Y-145825714D01*
X206622857Y-145840000D01*
X206651428Y-145868571D01*
X206665714Y-145897142D01*
X206680000Y-145954285D01*
X206680000Y-145997142D01*
X206665714Y-146054285D01*
X206651428Y-146082857D01*
X206622857Y-146111428D01*
X206580000Y-146125714D01*
X206508571Y-146125714D01*
X208531428Y-145840000D02*
X208502857Y-145825714D01*
X208460000Y-145825714D01*
X208417142Y-145840000D01*
X208388571Y-145868571D01*
X208374285Y-145897142D01*
X208360000Y-145954285D01*
X208360000Y-145997142D01*
X208374285Y-146054285D01*
X208388571Y-146082857D01*
X208417142Y-146111428D01*
X208460000Y-146125714D01*
X208488571Y-146125714D01*
X208531428Y-146111428D01*
X208545714Y-146097142D01*
X208545714Y-145997142D01*
X208488571Y-145997142D01*
X208674285Y-146125714D02*
X208674285Y-145825714D01*
X208845714Y-146125714D01*
X208845714Y-145825714D01*
X208988571Y-146125714D02*
X208988571Y-145825714D01*
X209060000Y-145825714D01*
X209102857Y-145840000D01*
X209131428Y-145868571D01*
X209145714Y-145897142D01*
X209160000Y-145954285D01*
X209160000Y-145997142D01*
X209145714Y-146054285D01*
X209131428Y-146082857D01*
X209102857Y-146111428D01*
X209060000Y-146125714D01*
X208988571Y-146125714D01*
D11*
X185814761Y-142676190D02*
X185576666Y-142676190D01*
X185552857Y-142914285D01*
X185576666Y-142890476D01*
X185624285Y-142866666D01*
X185743333Y-142866666D01*
X185790952Y-142890476D01*
X185814761Y-142914285D01*
X185838571Y-142961904D01*
X185838571Y-143080952D01*
X185814761Y-143128571D01*
X185790952Y-143152380D01*
X185743333Y-143176190D01*
X185624285Y-143176190D01*
X185576666Y-143152380D01*
X185552857Y-143128571D01*
X185981428Y-142676190D02*
X186148095Y-143176190D01*
X186314761Y-142676190D01*
D10*
X197127142Y-146055714D02*
X197127142Y-145755714D01*
X197327142Y-145755714D02*
X197384285Y-145755714D01*
X197412857Y-145770000D01*
X197441428Y-145798571D01*
X197455714Y-145855714D01*
X197455714Y-145955714D01*
X197441428Y-146012857D01*
X197412857Y-146041428D01*
X197384285Y-146055714D01*
X197327142Y-146055714D01*
X197298571Y-146041428D01*
X197270000Y-146012857D01*
X197255714Y-145955714D01*
X197255714Y-145855714D01*
X197270000Y-145798571D01*
X197298571Y-145770000D01*
X197327142Y-145755714D01*
X197741428Y-146055714D02*
X197570000Y-146055714D01*
X197655714Y-146055714D02*
X197655714Y-145755714D01*
X197627142Y-145798571D01*
X197598571Y-145827142D01*
X197570000Y-145841428D01*
X197841428Y-145755714D02*
X198041428Y-145755714D01*
X197912857Y-146055714D01*
X167811428Y-193490000D02*
X167782857Y-193475714D01*
X167740000Y-193475714D01*
X167697142Y-193490000D01*
X167668571Y-193518571D01*
X167654285Y-193547142D01*
X167640000Y-193604285D01*
X167640000Y-193647142D01*
X167654285Y-193704285D01*
X167668571Y-193732857D01*
X167697142Y-193761428D01*
X167740000Y-193775714D01*
X167768571Y-193775714D01*
X167811428Y-193761428D01*
X167825714Y-193747142D01*
X167825714Y-193647142D01*
X167768571Y-193647142D01*
X167954285Y-193775714D02*
X167954285Y-193475714D01*
X168125714Y-193775714D01*
X168125714Y-193475714D01*
X168268571Y-193775714D02*
X168268571Y-193475714D01*
X168340000Y-193475714D01*
X168382857Y-193490000D01*
X168411428Y-193518571D01*
X168425714Y-193547142D01*
X168440000Y-193604285D01*
X168440000Y-193647142D01*
X168425714Y-193704285D01*
X168411428Y-193732857D01*
X168382857Y-193761428D01*
X168340000Y-193775714D01*
X168268571Y-193775714D01*
D12*
X217308748Y-189245000D02*
X217831252Y-189245000D01*
X217308748Y-187775000D02*
X217831252Y-187775000D01*
X190930000Y-165335000D02*
X190930000Y-164765000D01*
X189535000Y-162675000D02*
X190295000Y-162675000D01*
X201150000Y-165335000D02*
X201150000Y-164312530D01*
X190930000Y-165335000D02*
X201150000Y-165335000D01*
X189535000Y-164005000D02*
X189535000Y-162675000D01*
X190930000Y-163245000D02*
X190930000Y-162675000D01*
X190930000Y-162675000D02*
X201150000Y-162675000D01*
X201150000Y-163697470D02*
X201150000Y-162675000D01*
X173060000Y-150500000D02*
X173060000Y-148700000D01*
X173060000Y-150500000D02*
X173060000Y-151300000D01*
X169940000Y-150500000D02*
X169940000Y-151300000D01*
X169940000Y-150500000D02*
X169940000Y-149700000D01*
X177670000Y-185880000D02*
X177020000Y-185880000D01*
X177670000Y-182760000D02*
X178320000Y-182760000D01*
X177670000Y-182760000D02*
X175995000Y-182760000D01*
X177670000Y-185880000D02*
X178320000Y-185880000D01*
X182100000Y-192456267D02*
X182100000Y-192163733D01*
X181080000Y-192456267D02*
X181080000Y-192163733D01*
X220230000Y-151042936D02*
X220230000Y-152497064D01*
X218410000Y-151042936D02*
X218410000Y-152497064D01*
X186264724Y-148837500D02*
X185755276Y-148837500D01*
X186264724Y-149882500D02*
X185755276Y-149882500D01*
X196949724Y-160937500D02*
X196440276Y-160937500D01*
X196949724Y-161982500D02*
X196440276Y-161982500D01*
X211569500Y-194331160D02*
X211569500Y-193256740D01*
X201790500Y-194331160D02*
X203172260Y-194331160D01*
X210187740Y-194331160D02*
X211569500Y-194331160D01*
X201790500Y-193256740D02*
X201790500Y-194331160D01*
X209646720Y-187422360D02*
X207457240Y-187422360D01*
X205902760Y-187422360D02*
X203713280Y-187422360D01*
X213130000Y-149137500D02*
X213130000Y-147462500D01*
X210010000Y-149137500D02*
X210010000Y-148487500D01*
X210010000Y-149137500D02*
X210010000Y-149787500D01*
X213130000Y-149137500D02*
X213130000Y-149787500D01*
X178035835Y-150950000D02*
X177804165Y-150950000D01*
X178035835Y-150230000D02*
X177804165Y-150230000D01*
X214200000Y-153456248D02*
X214200000Y-154878752D01*
X216020000Y-153456248D02*
X216020000Y-154878752D01*
X162129724Y-153247500D02*
X161620276Y-153247500D01*
X162129724Y-152202500D02*
X161620276Y-152202500D01*
X182585276Y-151977500D02*
X183094724Y-151977500D01*
X182585276Y-153022500D02*
X183094724Y-153022500D01*
X191054724Y-160907500D02*
X190545276Y-160907500D01*
X191054724Y-161952500D02*
X190545276Y-161952500D01*
X178832776Y-143632500D02*
X179342224Y-143632500D01*
X178832776Y-142587500D02*
X179342224Y-142587500D01*
X170040000Y-185890000D02*
X171715000Y-185890000D01*
X170040000Y-182770000D02*
X169390000Y-182770000D01*
X170040000Y-185890000D02*
X169390000Y-185890000D01*
X170040000Y-182770000D02*
X170690000Y-182770000D01*
X156540000Y-183635000D02*
X159000000Y-183635000D01*
X159000000Y-182165000D02*
X156540000Y-182165000D01*
X156540000Y-182165000D02*
X156540000Y-183635000D01*
X178832776Y-144387500D02*
X179342224Y-144387500D01*
X178832776Y-145432500D02*
X179342224Y-145432500D01*
X195910000Y-192476267D02*
X195910000Y-192183733D01*
X194890000Y-192476267D02*
X194890000Y-192183733D01*
X173622936Y-180865000D02*
X174077064Y-180865000D01*
X173622936Y-182335000D02*
X174077064Y-182335000D01*
X190092500Y-149025276D02*
X190092500Y-149534724D01*
X189047500Y-149025276D02*
X189047500Y-149534724D01*
X167390000Y-141960000D02*
X167390000Y-141700000D01*
X167390000Y-146010000D02*
X167390000Y-144240000D01*
X175010000Y-146010000D02*
X174630000Y-146010000D01*
X167390000Y-146010000D02*
X167770000Y-146010000D01*
X175010000Y-141700000D02*
X175010000Y-141960000D01*
X175010000Y-144240000D02*
X175010000Y-146010000D01*
G36*
X224192449Y-178131357D02*
G01*
X224479078Y-178247551D01*
X224665020Y-178329231D01*
X224768832Y-178385580D01*
X224809074Y-178425785D01*
X224811575Y-178437763D01*
X224781113Y-178493725D01*
X224775721Y-178494368D01*
X224675063Y-178468217D01*
X224519104Y-178403119D01*
X224347816Y-178319110D01*
X224201173Y-178236222D01*
X224119149Y-178174492D01*
X224113074Y-178162255D01*
X224157933Y-178123881D01*
X224192449Y-178131357D01*
G37*
G36*
X227307633Y-177945330D02*
G01*
X227606979Y-178103757D01*
X227841047Y-178348116D01*
X227899266Y-178446226D01*
X227952596Y-178604615D01*
X227999917Y-178841871D01*
X228031895Y-179109905D01*
X228034265Y-179141943D01*
X228068609Y-179643016D01*
X227725967Y-179493065D01*
X227533633Y-179403794D01*
X227427509Y-179326239D01*
X227376635Y-179223130D01*
X227350047Y-179057201D01*
X227347780Y-179037848D01*
X227285268Y-178781043D01*
X227160857Y-178627471D01*
X226959788Y-178562437D01*
X226865661Y-178557868D01*
X226696742Y-178596126D01*
X226534385Y-178690170D01*
X226423040Y-178808910D01*
X226399075Y-178884238D01*
X226350267Y-178890260D01*
X226230923Y-178852690D01*
X226081661Y-178789368D01*
X225943098Y-178718132D01*
X225855852Y-178656821D01*
X225844904Y-178640851D01*
X225865556Y-178535706D01*
X225955187Y-178384118D01*
X226086568Y-178222547D01*
X226232472Y-178087456D01*
X226285301Y-178051109D01*
X226620056Y-177912460D01*
X226969746Y-177879383D01*
X227307633Y-177945330D01*
G37*
G36*
X227596790Y-179885087D02*
G01*
X227769380Y-179947353D01*
X227923712Y-180017509D01*
X228015761Y-180079396D01*
X228021415Y-180086870D01*
X228014582Y-180141829D01*
X227995587Y-180145368D01*
X227892118Y-180121977D01*
X227740306Y-180063833D01*
X227578040Y-179988978D01*
X227443208Y-179915454D01*
X227373700Y-179861306D01*
X227372921Y-179848855D01*
X227449963Y-179846869D01*
X227596790Y-179885087D01*
G37*
G36*
X227461261Y-180105016D02*
G01*
X227612493Y-180164476D01*
X227736678Y-180216688D01*
X228050075Y-180351508D01*
X228050075Y-181288368D01*
X227351575Y-181288368D01*
X227351575Y-180685118D01*
X227355075Y-180425896D01*
X227364484Y-180222472D01*
X227378162Y-180102425D01*
X227387428Y-180081868D01*
X227461261Y-180105016D01*
G37*
G36*
X227602159Y-179600336D02*
G01*
X227732575Y-179649354D01*
X227904824Y-179733096D01*
X228016936Y-179809517D01*
X228055909Y-179863243D01*
X228008743Y-179878900D01*
X227907200Y-179855853D01*
X227708752Y-179780471D01*
X227538516Y-179691751D01*
X227432699Y-179610301D01*
X227415075Y-179575757D01*
X227467344Y-179565504D01*
X227602159Y-179600336D01*
G37*
G36*
X228037260Y-170487848D02*
G01*
X228044483Y-170610713D01*
X228037610Y-170785892D01*
X228018325Y-171158121D01*
X226589575Y-171699075D01*
X226074146Y-171894313D01*
X225665145Y-172050002D01*
X225350269Y-172171661D01*
X225117213Y-172264812D01*
X224953671Y-172334976D01*
X224847339Y-172387673D01*
X224785912Y-172428424D01*
X224757085Y-172462750D01*
X224748555Y-172496172D01*
X224748075Y-172525297D01*
X224754591Y-172587857D01*
X224784072Y-172644352D01*
X224851411Y-172702774D01*
X224971504Y-172771115D01*
X225159246Y-172857368D01*
X225429532Y-172969527D01*
X225797258Y-173115583D01*
X225986325Y-173189733D01*
X226374989Y-173342271D01*
X226762730Y-173495118D01*
X227117864Y-173635738D01*
X227408704Y-173751593D01*
X227557950Y-173811598D01*
X228050075Y-174010851D01*
X228050075Y-174347610D01*
X228039438Y-174534942D01*
X228012093Y-174657208D01*
X227987566Y-174684368D01*
X227914813Y-174661794D01*
X227739238Y-174597929D01*
X227475974Y-174498560D01*
X227140151Y-174369473D01*
X226746901Y-174216455D01*
X226311356Y-174045291D01*
X226161941Y-173986215D01*
X225560193Y-173744638D01*
X225075641Y-173542762D01*
X224705296Y-173379246D01*
X224446170Y-173252746D01*
X224295273Y-173161920D01*
X224262151Y-173132634D01*
X224123548Y-172887391D01*
X224071392Y-172594154D01*
X224103697Y-172294071D01*
X224218479Y-172028292D01*
X224321292Y-171906776D01*
X224416128Y-171851121D01*
X224613396Y-171758583D01*
X224896362Y-171636196D01*
X225248292Y-171490994D01*
X225652454Y-171330011D01*
X226092112Y-171160279D01*
X226145075Y-171140182D01*
X226585416Y-170973366D01*
X226990844Y-170819696D01*
X227345037Y-170685365D01*
X227631674Y-170576567D01*
X227834432Y-170499494D01*
X227936990Y-170460339D01*
X227942360Y-170458260D01*
X228005685Y-170445515D01*
X228037260Y-170487848D01*
G37*
G36*
X225942187Y-178885760D02*
G01*
X225985726Y-178902776D01*
X226223140Y-179008573D01*
X226349204Y-179082515D01*
X226373703Y-179130893D01*
X226359604Y-179143229D01*
X226270200Y-179139300D01*
X226121544Y-179090313D01*
X225958064Y-179016493D01*
X225824188Y-178938066D01*
X225764344Y-178875258D01*
X225764075Y-178872114D01*
X225814877Y-178853713D01*
X225942187Y-178885760D01*
G37*
G36*
X224219964Y-178708108D02*
G01*
X224374205Y-178767783D01*
X224498178Y-178819688D01*
X224811575Y-178954508D01*
X224811575Y-179704079D01*
X224812678Y-180023458D01*
X224819180Y-180241052D01*
X224835867Y-180382074D01*
X224867527Y-180471738D01*
X224918948Y-180535256D01*
X224978888Y-180585260D01*
X225202838Y-180700387D01*
X225420962Y-180688673D01*
X225582409Y-180595484D01*
X225657012Y-180521358D01*
X225704367Y-180425421D01*
X225732536Y-180276481D01*
X225749579Y-180043346D01*
X225754710Y-179928734D01*
X225766929Y-179683470D01*
X225780386Y-179495399D01*
X225792829Y-179393505D01*
X225797076Y-179383368D01*
X225861727Y-179406163D01*
X226004697Y-179464352D01*
X226108060Y-179508112D01*
X226399075Y-179632855D01*
X226393617Y-180000237D01*
X226382206Y-180233384D01*
X226358773Y-180437228D01*
X226339744Y-180526780D01*
X226208587Y-180851401D01*
X226034124Y-181077468D01*
X225795627Y-181231403D01*
X225782261Y-181237411D01*
X225463619Y-181327895D01*
X225121733Y-181342632D01*
X224801870Y-181283956D01*
X224577125Y-181175290D01*
X224426542Y-181048684D01*
X224314058Y-180899627D01*
X224233708Y-180707641D01*
X224179526Y-180452247D01*
X224145547Y-180112969D01*
X224125804Y-179669329D01*
X224124466Y-179621493D01*
X224118348Y-179293072D01*
X224118371Y-179014967D01*
X224124122Y-178809290D01*
X224135186Y-178698155D01*
X224142007Y-178684868D01*
X224219964Y-178708108D01*
G37*
G36*
X224811575Y-177959910D02*
G01*
X224802355Y-178126957D01*
X224778946Y-178221253D01*
X224763652Y-178229785D01*
X224681071Y-178195748D01*
X224523208Y-178132243D01*
X224414402Y-178088867D01*
X224227248Y-178001799D01*
X224136083Y-177918270D01*
X224113075Y-177818992D01*
X224123386Y-177732900D01*
X224174949Y-177688064D01*
X224298706Y-177671184D01*
X224462325Y-177668868D01*
X224811575Y-177668868D01*
X224811575Y-177959910D01*
G37*
G36*
X224811575Y-175763868D02*
G01*
X228050075Y-175763868D01*
X228050075Y-176070785D01*
X228041974Y-176258898D01*
X228021396Y-176389900D01*
X228007741Y-176420035D01*
X227935081Y-176431686D01*
X227753114Y-176442109D01*
X227479529Y-176450844D01*
X227132017Y-176457425D01*
X226728267Y-176461390D01*
X226390963Y-176462368D01*
X224816519Y-176462368D01*
X224779825Y-177573618D01*
X224144825Y-177573618D01*
X224127779Y-176097243D01*
X224110734Y-174620868D01*
X224811575Y-174620868D01*
X224811575Y-175763868D01*
G37*
G36*
X224811575Y-167860648D02*
G01*
X224818473Y-168315038D01*
X224843246Y-168662093D01*
X224892009Y-168920934D01*
X224970879Y-169110681D01*
X225085971Y-169250454D01*
X225243401Y-169359373D01*
X225300532Y-169389255D01*
X225540796Y-169466393D01*
X225852502Y-169508791D01*
X226193269Y-169516694D01*
X226520715Y-169490347D01*
X226792458Y-169429997D01*
X226907075Y-169379958D01*
X227064192Y-169272501D01*
X227180162Y-169145590D01*
X227260898Y-168979186D01*
X227312314Y-168753253D01*
X227340321Y-168447751D01*
X227350835Y-168042643D01*
X227351476Y-167873993D01*
X227351575Y-166937368D01*
X228050075Y-166937368D01*
X228042126Y-167778743D01*
X228035711Y-168118384D01*
X228023967Y-168435126D01*
X228008517Y-168695225D01*
X227990985Y-168864938D01*
X227989450Y-168874118D01*
X227863042Y-169296992D01*
X227645257Y-169634034D01*
X227331248Y-169890542D01*
X226916166Y-170071816D01*
X226885158Y-170081244D01*
X226540872Y-170147457D01*
X226131742Y-170171930D01*
X225712776Y-170154922D01*
X225338985Y-170096692D01*
X225251725Y-170073575D01*
X224940979Y-169932177D01*
X224648058Y-169712182D01*
X224407222Y-169445627D01*
X224252734Y-169164550D01*
X224240628Y-169128118D01*
X224211028Y-168974463D01*
X224181954Y-168723890D01*
X224156114Y-168406464D01*
X224136217Y-168052248D01*
X224130487Y-167905743D01*
X224097632Y-166937368D01*
X224811575Y-166937368D01*
X224811575Y-167860648D01*
G37*
G36*
X224245289Y-178461373D02*
G01*
X224409265Y-178511390D01*
X224515918Y-178553622D01*
X224717388Y-178649278D01*
X224805764Y-178714010D01*
X224777703Y-178744828D01*
X224732200Y-178746974D01*
X224626560Y-178722778D01*
X224479536Y-178664700D01*
X224326575Y-178590651D01*
X224203125Y-178518542D01*
X224144635Y-178466284D01*
X224150793Y-178453209D01*
X224245289Y-178461373D01*
G37*
G36*
X224234539Y-169283298D02*
G01*
X224240075Y-169325086D01*
X224281086Y-169417417D01*
X224388184Y-169565922D01*
X224525825Y-169724799D01*
X224811575Y-170030289D01*
X224811575Y-170790995D01*
X224808229Y-171089933D01*
X224799120Y-171341038D01*
X224785641Y-171517896D01*
X224769241Y-171594035D01*
X224673859Y-171632793D01*
X224632360Y-171636368D01*
X224525050Y-171672788D01*
X224373183Y-171763618D01*
X224325443Y-171798350D01*
X224113075Y-171960332D01*
X224113075Y-170556353D01*
X224115855Y-170044566D01*
X224124117Y-169650113D01*
X224137748Y-169375481D01*
X224156629Y-169223159D01*
X224176575Y-169191618D01*
X224234539Y-169283298D01*
G37*
G36*
X225921224Y-179155601D02*
G01*
X226132596Y-179250040D01*
X226147604Y-179257659D01*
X226328498Y-179359757D01*
X226399088Y-179424086D01*
X226355256Y-179446862D01*
X226353572Y-179446868D01*
X226246547Y-179423329D01*
X226090698Y-179365620D01*
X225929488Y-179293105D01*
X225806381Y-179225145D01*
X225764075Y-179184242D01*
X225801702Y-179134303D01*
X225921224Y-179155601D01*
G37*
G36*
X224287700Y-173270265D02*
G01*
X224472323Y-173381509D01*
X224636950Y-173463728D01*
X224723639Y-173507138D01*
X224775523Y-173565402D01*
X224801523Y-173668370D01*
X224810561Y-173845893D01*
X224811575Y-174048007D01*
X224811575Y-174557368D01*
X224113075Y-174557368D01*
X224113075Y-173151721D01*
X224287700Y-173270265D01*
G37*
X162154724Y-183447500D02*
X161645276Y-183447500D01*
X162154724Y-182402500D02*
X161645276Y-182402500D01*
X213880000Y-149370000D02*
X213880000Y-151070000D01*
X213880000Y-149370000D02*
X216430000Y-149370000D01*
X213880000Y-151070000D02*
X216430000Y-151070000D01*
X166355000Y-179697064D02*
X166355000Y-179242936D01*
X167825000Y-179697064D02*
X167825000Y-179242936D01*
X164431252Y-179385000D02*
X163908748Y-179385000D01*
X164431252Y-180855000D02*
X163908748Y-180855000D01*
X189535000Y-181785000D02*
X189535000Y-180455000D01*
X190930000Y-183115000D02*
X198610000Y-183115000D01*
X198610000Y-183115000D02*
X198610000Y-182092530D01*
X190930000Y-181025000D02*
X190930000Y-180455000D01*
X198610000Y-181477470D02*
X198610000Y-180455000D01*
X190930000Y-180455000D02*
X198610000Y-180455000D01*
X189535000Y-180455000D02*
X190295000Y-180455000D01*
X190930000Y-183115000D02*
X190930000Y-182545000D01*
X189340000Y-193710000D02*
X190390000Y-193710000D01*
X192690000Y-193710000D02*
X193740000Y-193710000D01*
X193740000Y-192110000D02*
X193740000Y-192210000D01*
X189340000Y-192110000D02*
X189340000Y-192210000D01*
X193740000Y-190610000D02*
X189340000Y-190610000D01*
X180610000Y-152761665D02*
X180610000Y-152993335D01*
X179890000Y-152761665D02*
X179890000Y-152993335D01*
X228080000Y-152315000D02*
X228080000Y-150985000D01*
X228080000Y-153585000D02*
X230740000Y-153585000D01*
X230740000Y-153585000D02*
X230740000Y-156185000D01*
X228080000Y-156185000D02*
X230740000Y-156185000D01*
X228080000Y-153585000D02*
X228080000Y-156185000D01*
X228080000Y-150985000D02*
X229410000Y-150985000D01*
X204985000Y-145520000D02*
X204985000Y-142860000D01*
X204985000Y-142860000D02*
X215205000Y-142860000D01*
X204985000Y-145520000D02*
X215205000Y-145520000D01*
X202385000Y-145520000D02*
X202385000Y-144190000D01*
X215205000Y-145520000D02*
X215205000Y-142860000D01*
X203715000Y-145520000D02*
X202385000Y-145520000D01*
D13*
X221680000Y-168630000D02*
X221680000Y-184630000D01*
X205680000Y-184630000D02*
X205680000Y-168630000D01*
D12*
X215393733Y-186190000D02*
X215686267Y-186190000D01*
X215393733Y-187210000D02*
X215686267Y-187210000D01*
X210760000Y-151457500D02*
X207000000Y-151457500D01*
X207000000Y-158277500D02*
X207000000Y-157017500D01*
X207000000Y-151457500D02*
X207000000Y-152717500D01*
X213010000Y-158277500D02*
X207000000Y-158277500D01*
G36*
X226252307Y-166873237D02*
G01*
X226175291Y-166880166D01*
X226059546Y-166881524D01*
X226029267Y-166881531D01*
X225904368Y-166878249D01*
X225796817Y-166869479D01*
X225723613Y-166856842D01*
X225707383Y-166850871D01*
X225659509Y-166815383D01*
X225586813Y-166750482D01*
X225504200Y-166669545D01*
X225495983Y-166661101D01*
X225393682Y-166565021D01*
X225311343Y-166514726D01*
X225237068Y-166507066D01*
X225158958Y-166538894D01*
X225123252Y-166562490D01*
X225034594Y-166607765D01*
X224962172Y-166599728D01*
X224896217Y-166536271D01*
X224878442Y-166509669D01*
X224794130Y-166424251D01*
X224668145Y-166373567D01*
X224496908Y-166356198D01*
X224491213Y-166356177D01*
X224413332Y-166353099D01*
X224377534Y-166336517D01*
X224367546Y-166294996D01*
X224367132Y-166268984D01*
X224378108Y-166202454D01*
X224422130Y-166169948D01*
X224447420Y-166162775D01*
X224533698Y-166134779D01*
X224572921Y-166093992D01*
X224574836Y-166024192D01*
X224563853Y-165969004D01*
X224539780Y-165881624D01*
X224502048Y-165762774D01*
X224458028Y-165635459D01*
X224449312Y-165611531D01*
X224378027Y-165419118D01*
X224322794Y-165276552D01*
X224279870Y-165178750D01*
X224245511Y-165120626D01*
X224215973Y-165097095D01*
X224187514Y-165103074D01*
X224156389Y-165133476D01*
X224126376Y-165172895D01*
X224099454Y-165215899D01*
X224089940Y-165259423D01*
X224097419Y-165322109D01*
X224120890Y-165420304D01*
X224153548Y-165585154D01*
X224155479Y-165703653D01*
X224126805Y-165774528D01*
X224085177Y-165795680D01*
X224010219Y-165777121D01*
X223929727Y-165701841D01*
X223844963Y-165571112D01*
X223825030Y-165533403D01*
X223775112Y-165452037D01*
X223724495Y-165394594D01*
X223700554Y-165379529D01*
X223656854Y-165345394D01*
X223602710Y-165276089D01*
X223567241Y-165217695D01*
X223519216Y-165135148D01*
X223478633Y-165075243D01*
X223460635Y-165055929D01*
X223445702Y-165017913D01*
X223450588Y-164967231D01*
X223445998Y-164877131D01*
X223419602Y-164821173D01*
X223391029Y-164756029D01*
X223377857Y-164663393D01*
X223377515Y-164536731D01*
X223384338Y-164326934D01*
X222779530Y-164319038D01*
X222174721Y-164311143D01*
X222116342Y-164443119D01*
X222061269Y-164536795D01*
X221999802Y-164574120D01*
X221924966Y-164557129D01*
X221864294Y-164516704D01*
X221785144Y-164478177D01*
X221685878Y-164459357D01*
X221602688Y-164462860D01*
X221593097Y-164463264D01*
X221546967Y-164480657D01*
X221524232Y-164520457D01*
X221503685Y-164596341D01*
X221496923Y-164637208D01*
X221490030Y-164728046D01*
X221503223Y-164784512D01*
X221536227Y-164824205D01*
X221576293Y-164893469D01*
X221592815Y-164991164D01*
X221584546Y-165091754D01*
X221552928Y-165166302D01*
X221494135Y-165204349D01*
X221407652Y-165220239D01*
X221316075Y-165214460D01*
X221242001Y-165187498D01*
X221241168Y-165186649D01*
X221214029Y-165159003D01*
X221181204Y-165122196D01*
X221122994Y-165104633D01*
X221036506Y-165100612D01*
X220890233Y-165100612D01*
X220906000Y-165005727D01*
X220915209Y-164945116D01*
X220929140Y-164847399D01*
X220945967Y-164726087D01*
X220963865Y-164594694D01*
X220981009Y-164466734D01*
X220985944Y-164429118D01*
X221068052Y-164429118D01*
X221092683Y-164504750D01*
X221155785Y-164555797D01*
X221241168Y-164578210D01*
X221332643Y-164567942D01*
X221414021Y-164520947D01*
X221418397Y-164516704D01*
X221466981Y-164455969D01*
X221466856Y-164405986D01*
X221417392Y-164346891D01*
X221412891Y-164342669D01*
X221328531Y-164292881D01*
X221236222Y-164280961D01*
X221151615Y-164302986D01*
X221090359Y-164355033D01*
X221068052Y-164429118D01*
X220985944Y-164429118D01*
X220995572Y-164355720D01*
X221005731Y-164275164D01*
X221009658Y-164238580D01*
X221009661Y-164238344D01*
X221036551Y-164232030D01*
X221108009Y-164227277D01*
X221210218Y-164224886D01*
X221243224Y-164224750D01*
X221363063Y-164222687D01*
X221434983Y-164215203D01*
X221469352Y-164200354D01*
X221476787Y-164180957D01*
X221473637Y-164156049D01*
X221456984Y-164140747D01*
X221416024Y-164133326D01*
X221339954Y-164132062D01*
X221217970Y-164135230D01*
X221195021Y-164135982D01*
X220986244Y-164142885D01*
X220864676Y-163757289D01*
X220834282Y-163656509D01*
X221416095Y-163656509D01*
X221418024Y-163710504D01*
X221452410Y-163800913D01*
X221472260Y-163844169D01*
X221522254Y-163921219D01*
X221585736Y-163954129D01*
X221602688Y-163956802D01*
X221691827Y-163949697D01*
X221745521Y-163900631D01*
X221767665Y-163805205D01*
X221768741Y-163769203D01*
X221764134Y-163687041D01*
X221744650Y-163644999D01*
X221701791Y-163625155D01*
X221700269Y-163624769D01*
X221625154Y-163615689D01*
X221530897Y-163615983D01*
X221517797Y-163616914D01*
X221448671Y-163628715D01*
X221416095Y-163656509D01*
X220834282Y-163656509D01*
X220821453Y-163613970D01*
X220787330Y-163488675D01*
X220765140Y-163392792D01*
X220757714Y-163337709D01*
X220758686Y-163331095D01*
X220800736Y-163302187D01*
X220898188Y-163290719D01*
X220918918Y-163290497D01*
X221028985Y-163299879D01*
X221110664Y-163333874D01*
X221150314Y-163363486D01*
X221254533Y-163422679D01*
X221355894Y-163436474D01*
X221445551Y-163445929D01*
X221495590Y-163478436D01*
X221505207Y-163493415D01*
X221538102Y-163528684D01*
X221599216Y-163548928D01*
X221703303Y-163559105D01*
X221870925Y-163567853D01*
X221879617Y-163750325D01*
X221885546Y-163849767D01*
X221895976Y-163904337D01*
X221917928Y-163927498D01*
X221958426Y-163932717D01*
X221974788Y-163932796D01*
X222061574Y-163954127D01*
X222111263Y-163991187D01*
X222133548Y-164012659D01*
X222163977Y-164028128D01*
X222211608Y-164038568D01*
X222285502Y-164044955D01*
X222394718Y-164048261D01*
X222548314Y-164049462D01*
X222654189Y-164049577D01*
X222834405Y-164049344D01*
X222965389Y-164047843D01*
X223056297Y-164043877D01*
X223116286Y-164036248D01*
X223154515Y-164023757D01*
X223180142Y-164005206D01*
X223202322Y-163979397D01*
X223203678Y-163977675D01*
X223272779Y-163921555D01*
X223360264Y-163887009D01*
X223361156Y-163886839D01*
X223434642Y-163863605D01*
X223461769Y-163834140D01*
X223437404Y-163805364D01*
X223425505Y-163800149D01*
X223394605Y-163768994D01*
X223347154Y-163699912D01*
X223292830Y-163607145D01*
X223286827Y-163596062D01*
X223228388Y-163493776D01*
X223180658Y-163431533D01*
X223130713Y-163395981D01*
X223073732Y-163375918D01*
X222981927Y-163336765D01*
X222943020Y-163285431D01*
X222959512Y-163225596D01*
X222965940Y-163217283D01*
X222985422Y-163174358D01*
X222966474Y-163120964D01*
X222953936Y-163100873D01*
X222908705Y-163048422D01*
X222870195Y-163027576D01*
X222750505Y-163007866D01*
X222644635Y-162956785D01*
X222573468Y-162884778D01*
X222569177Y-162877047D01*
X222542786Y-162808948D01*
X222552266Y-162765068D01*
X222603871Y-162740971D01*
X222703855Y-162732221D01*
X222773376Y-162732205D01*
X222884849Y-162731222D01*
X222944843Y-162717402D01*
X222960204Y-162680723D01*
X222937775Y-162611160D01*
X222904518Y-162540139D01*
X222854681Y-162451091D01*
X222799940Y-162396654D01*
X222722097Y-162364644D01*
X222611817Y-162344145D01*
X222476846Y-162324583D01*
X222354920Y-162054718D01*
X222232993Y-161784852D01*
X222324513Y-161545186D01*
X222378572Y-161419098D01*
X222433522Y-161317289D01*
X222481196Y-161254637D01*
X222486525Y-161250071D01*
X222536548Y-161201127D01*
X222557017Y-161162330D01*
X222538798Y-161132056D01*
X222492703Y-161140051D01*
X222431577Y-161182733D01*
X222411040Y-161203026D01*
X222327181Y-161261750D01*
X222325802Y-161261879D01*
X222228513Y-161270989D01*
X222109497Y-161230386D01*
X222019924Y-161177972D01*
X221911543Y-161107425D01*
X221798608Y-161035076D01*
X221743456Y-161000294D01*
X221666971Y-160943826D01*
X221614030Y-160888621D01*
X221601373Y-160864773D01*
X221567888Y-160815664D01*
X221515809Y-160817794D01*
X221487528Y-160839021D01*
X221444824Y-160851665D01*
X221351552Y-160859582D01*
X221215375Y-160862343D01*
X221095896Y-160860918D01*
X220734397Y-160852681D01*
X220706731Y-160756053D01*
X220694251Y-160632025D01*
X220705685Y-160551685D01*
X220732305Y-160443945D01*
X221097247Y-160449697D01*
X221252403Y-160452024D01*
X221400054Y-160454028D01*
X221522852Y-160455486D01*
X221599684Y-160456157D01*
X221686951Y-160460888D01*
X221737520Y-160480891D01*
X221772888Y-160526622D01*
X221782905Y-160545290D01*
X221810048Y-160591693D01*
X221841761Y-160618144D01*
X221893825Y-160630240D01*
X221982025Y-160633578D01*
X222032250Y-160633715D01*
X222148346Y-160630180D01*
X222213744Y-160618665D01*
X222235761Y-160597808D01*
X222235868Y-160595768D01*
X222214907Y-160565374D01*
X222156572Y-160503466D01*
X222067678Y-160416689D01*
X221955044Y-160311691D01*
X221825489Y-160195121D01*
X221819833Y-160190119D01*
X221685375Y-160070643D01*
X221562901Y-159960621D01*
X221460428Y-159867349D01*
X221385968Y-159798119D01*
X221347858Y-159760583D01*
X221309882Y-159685109D01*
X221285752Y-159566889D01*
X221276127Y-159420062D01*
X221277148Y-159390325D01*
X221505983Y-159390325D01*
X221527189Y-159421994D01*
X221586166Y-159484474D01*
X221675948Y-159571047D01*
X221789570Y-159674998D01*
X221919478Y-159789099D01*
X222071045Y-159919786D01*
X222184557Y-160014402D01*
X222267110Y-160073904D01*
X222325802Y-160099248D01*
X222367727Y-160091387D01*
X222399984Y-160051279D01*
X222429667Y-159979878D01*
X222463875Y-159878139D01*
X222468911Y-159863070D01*
X222509059Y-159749647D01*
X222561842Y-159608856D01*
X222617287Y-159467165D01*
X222629582Y-159436704D01*
X222673423Y-159323865D01*
X222706117Y-159230069D01*
X222722956Y-159169317D01*
X222724026Y-159156018D01*
X222700613Y-159126248D01*
X222640646Y-159066567D01*
X222552262Y-158984648D01*
X222443596Y-158888160D01*
X222398904Y-158849466D01*
X222236576Y-158709858D01*
X222113038Y-158603978D01*
X222022675Y-158527638D01*
X221959870Y-158476652D01*
X221919006Y-158446834D01*
X221894467Y-158433997D01*
X221880637Y-158433954D01*
X221871897Y-158442519D01*
X221865472Y-158451847D01*
X221840922Y-158497528D01*
X221805048Y-158577944D01*
X221776394Y-158648428D01*
X221688303Y-158874990D01*
X221620068Y-159052768D01*
X221569726Y-159187143D01*
X221535318Y-159283492D01*
X221514884Y-159347196D01*
X221506461Y-159383633D01*
X221505983Y-159390325D01*
X221277148Y-159390325D01*
X221281663Y-159258762D01*
X221303018Y-159097128D01*
X221314474Y-159042566D01*
X221354757Y-158895221D01*
X221410881Y-158724136D01*
X221477817Y-158541624D01*
X221550537Y-158359998D01*
X221624013Y-158191570D01*
X221693218Y-158048653D01*
X221753122Y-157943559D01*
X221776739Y-157910603D01*
X221855745Y-157845916D01*
X221975142Y-157786504D01*
X222116945Y-157738979D01*
X222263168Y-157709951D01*
X222338052Y-157704285D01*
X222398114Y-157704970D01*
X222451505Y-157713395D01*
X222508713Y-157734629D01*
X222580227Y-157773735D01*
X222676533Y-157835782D01*
X222808121Y-157925834D01*
X222834374Y-157944028D01*
X222970977Y-158038243D01*
X223101466Y-158127279D01*
X223213069Y-158202487D01*
X223293020Y-158255220D01*
X223307484Y-158264458D01*
X223333851Y-158282368D01*
X223359605Y-158304232D01*
X223386985Y-158334127D01*
X223418234Y-158376130D01*
X223455591Y-158434319D01*
X223501299Y-158512771D01*
X223557598Y-158615565D01*
X223626729Y-158746777D01*
X223710933Y-158910485D01*
X223812452Y-159110766D01*
X223933527Y-159351699D01*
X224076398Y-159637360D01*
X224217980Y-159921051D01*
X225005711Y-161500226D01*
X224935495Y-161643580D01*
X224896085Y-161729220D01*
X224870197Y-161795374D01*
X224864367Y-161818903D01*
X224846756Y-161871719D01*
X224793255Y-161909744D01*
X224697649Y-161935019D01*
X224553718Y-161949585D01*
X224453696Y-161953718D01*
X224148311Y-161962106D01*
X223983165Y-162378782D01*
X224066338Y-162579180D01*
X224149512Y-162779577D01*
X224510070Y-162808773D01*
X224383604Y-163071531D01*
X224326415Y-163190380D01*
X224251684Y-163345716D01*
X224167174Y-163521404D01*
X224080648Y-163701309D01*
X224034779Y-163796689D01*
X223962586Y-163948264D01*
X223900180Y-164082058D01*
X223851665Y-164189043D01*
X223821146Y-164260193D01*
X223812420Y-164285712D01*
X223836231Y-164309062D01*
X223858121Y-164312336D01*
X223874939Y-164305414D01*
X223897109Y-164281438D01*
X223927138Y-164235590D01*
X223967533Y-164163054D01*
X224020801Y-164059015D01*
X224089448Y-163918654D01*
X224175983Y-163737156D01*
X224282913Y-163509705D01*
X224344416Y-163378083D01*
X224402062Y-163256179D01*
X224471697Y-163111260D01*
X224539262Y-162972565D01*
X224546026Y-162958819D01*
X224596627Y-162854896D01*
X224635530Y-162772698D01*
X224656819Y-162724822D01*
X224659086Y-162717957D01*
X224632291Y-162712482D01*
X224561499Y-162708452D01*
X224461099Y-162706626D01*
X224443716Y-162706589D01*
X224228346Y-162706589D01*
X224166360Y-162562499D01*
X224131112Y-162472066D01*
X224108657Y-162398130D01*
X224104374Y-162370842D01*
X224115446Y-162318056D01*
X224143775Y-162234972D01*
X224166360Y-162179185D01*
X224228346Y-162035095D01*
X225553742Y-162035095D01*
X225668426Y-162121869D01*
X225775223Y-162185637D01*
X225886005Y-162209901D01*
X225914489Y-162211103D01*
X226060489Y-162225165D01*
X226172511Y-162259002D01*
X226241706Y-162309082D01*
X226259559Y-162348898D01*
X226242539Y-162410142D01*
X226171087Y-162450742D01*
X226045112Y-162470736D01*
X225966687Y-162473026D01*
X225866836Y-162479539D01*
X225790051Y-162506344D01*
X225706988Y-162564336D01*
X225695371Y-162573772D01*
X225640543Y-162616889D01*
X225591857Y-162646318D01*
X225535806Y-162665574D01*
X225458883Y-162678174D01*
X225347580Y-162687635D01*
X225229672Y-162695009D01*
X224886919Y-162715501D01*
X224495646Y-163508349D01*
X224397858Y-163707143D01*
X224309002Y-163889010D01*
X224232246Y-164047373D01*
X224170752Y-164175657D01*
X224127686Y-164267285D01*
X224106213Y-164315681D01*
X224104374Y-164321365D01*
X224128184Y-164339206D01*
X224148860Y-164341531D01*
X224176521Y-164314987D01*
X224227212Y-164236016D01*
X224300386Y-164105612D01*
X224395498Y-163924765D01*
X224512000Y-163694471D01*
X224574769Y-163567853D01*
X224956192Y-162794175D01*
X225534948Y-162794175D01*
X225535264Y-162932853D01*
X225544873Y-163050725D01*
X225568492Y-163176499D01*
X225577997Y-163211325D01*
X225599334Y-163286154D01*
X225603133Y-163337745D01*
X225582358Y-163381235D01*
X225529972Y-163431759D01*
X225443336Y-163500989D01*
X225403020Y-163546994D01*
X225350612Y-163624886D01*
X225315844Y-163684635D01*
X225267687Y-163771822D01*
X225200649Y-163891822D01*
X225124766Y-164026722D01*
X225070542Y-164122566D01*
X224999654Y-164248392D01*
X224935571Y-164363712D01*
X224886179Y-164454247D01*
X224862287Y-164499738D01*
X224793203Y-164590804D01*
X224686858Y-164679071D01*
X224563173Y-164749924D01*
X224479414Y-164780674D01*
X224408704Y-164803513D01*
X224369762Y-164823473D01*
X224367132Y-164827816D01*
X224377705Y-164863361D01*
X224406540Y-164942053D01*
X224449316Y-165053195D01*
X224501711Y-165186088D01*
X224559402Y-165330034D01*
X224618068Y-165474334D01*
X224673384Y-165608290D01*
X224721031Y-165721204D01*
X224756684Y-165802377D01*
X224776022Y-165841111D01*
X224777040Y-165842398D01*
X224818726Y-165849829D01*
X224841731Y-165836411D01*
X224850373Y-165833168D01*
X225612257Y-165833168D01*
X225625427Y-165884635D01*
X225691278Y-165997978D01*
X225800835Y-166107208D01*
X225939622Y-166203252D01*
X226093165Y-166277035D01*
X226246988Y-166319484D01*
X226329794Y-166326178D01*
X226466080Y-166301454D01*
X226600344Y-166236669D01*
X226716961Y-166143247D01*
X226800309Y-166032609D01*
X226828058Y-165961876D01*
X226831609Y-165850516D01*
X226798549Y-165715262D01*
X226757862Y-165620522D01*
X226663537Y-165492422D01*
X226526348Y-165382853D01*
X226361081Y-165301089D01*
X226182525Y-165256401D01*
X226175878Y-165255582D01*
X226014053Y-165259661D01*
X225859540Y-165305162D01*
X225732347Y-165385554D01*
X225709539Y-165407783D01*
X225663516Y-165468640D01*
X225665695Y-165497578D01*
X225713258Y-165491077D01*
X225759508Y-165470210D01*
X225905710Y-165414385D01*
X226036125Y-165403467D01*
X226140882Y-165438191D01*
X226246433Y-165524497D01*
X226314838Y-165628992D01*
X226325307Y-165652780D01*
X226341688Y-165722026D01*
X226321727Y-165750324D01*
X226272745Y-165735492D01*
X226212731Y-165686317D01*
X226110153Y-165618578D01*
X225990028Y-165604175D01*
X225850725Y-165643282D01*
X225690611Y-165736073D01*
X225681004Y-165742855D01*
X225625844Y-165789482D01*
X225612257Y-165833168D01*
X224850373Y-165833168D01*
X224894781Y-165816504D01*
X224976673Y-165808240D01*
X224996947Y-165808554D01*
X225101381Y-165793941D01*
X225216461Y-165739714D01*
X225347575Y-165642364D01*
X225500107Y-165498379D01*
X225545814Y-165450892D01*
X225668855Y-165331144D01*
X225777984Y-165253078D01*
X225890073Y-165208760D01*
X226021992Y-165190254D01*
X226104291Y-165188198D01*
X226308242Y-165212222D01*
X226491161Y-165279807D01*
X226646601Y-165384229D01*
X226768108Y-165518761D01*
X226849233Y-165676675D01*
X226883524Y-165851246D01*
X226874267Y-165991072D01*
X226818633Y-166179102D01*
X226722562Y-166378111D01*
X226596477Y-166570391D01*
X226450803Y-166738237D01*
X226413881Y-166773100D01*
X226355311Y-166824297D01*
X226329794Y-166841078D01*
X226306883Y-166856145D01*
X226252307Y-166873237D01*
G37*
G36*
X227781061Y-159004037D02*
G01*
X227754437Y-159037379D01*
X227659477Y-159134027D01*
X227569160Y-159193367D01*
X227466265Y-159221496D01*
X227333572Y-159224509D01*
X227244437Y-159217929D01*
X227088930Y-159204925D01*
X226972491Y-159202375D01*
X226878224Y-159214619D01*
X226789230Y-159245996D01*
X226688612Y-159300846D01*
X226559473Y-159383507D01*
X226533816Y-159400407D01*
X226447522Y-159455217D01*
X226390434Y-159481345D01*
X226343753Y-159483354D01*
X226288683Y-159465809D01*
X226279485Y-159462153D01*
X226216954Y-159427780D01*
X226115596Y-159360564D01*
X225981491Y-159264985D01*
X225820718Y-159145521D01*
X225639358Y-159006652D01*
X225443491Y-158852855D01*
X225338494Y-158768928D01*
X225251559Y-158701905D01*
X225193717Y-158667784D01*
X225150533Y-158660542D01*
X225109359Y-158673339D01*
X225038967Y-158705412D01*
X225058164Y-159148931D01*
X225077361Y-159592449D01*
X225284661Y-159929718D01*
X225370092Y-160062832D01*
X225449698Y-160176134D01*
X225516023Y-160259626D01*
X225561610Y-160303310D01*
X225564547Y-160305003D01*
X225608575Y-160326919D01*
X225696724Y-160369900D01*
X225820433Y-160429828D01*
X225971141Y-160502585D01*
X226140286Y-160584053D01*
X226319308Y-160670116D01*
X226499647Y-160756654D01*
X226672741Y-160839551D01*
X226830029Y-160914689D01*
X226962950Y-160977950D01*
X227009476Y-160999998D01*
X227148653Y-161055287D01*
X227252533Y-161070274D01*
X227328368Y-161044644D01*
X227380200Y-160983876D01*
X227417611Y-160930114D01*
X227463392Y-160904393D01*
X227539251Y-160896739D01*
X227570402Y-160896474D01*
X227700660Y-160912081D01*
X227815689Y-160952655D01*
X227816422Y-160953046D01*
X227898920Y-160985721D01*
X227970716Y-160995537D01*
X227983305Y-160993581D01*
X228028691Y-160961928D01*
X228090058Y-160893864D01*
X228154553Y-160803753D01*
X228158007Y-160798330D01*
X228287825Y-160611071D01*
X228301988Y-160594346D01*
X228516077Y-160594346D01*
X228529761Y-160721100D01*
X228563971Y-160802763D01*
X228665210Y-160949882D01*
X228797163Y-161080306D01*
X228950866Y-161190760D01*
X229117358Y-161277971D01*
X229287677Y-161338667D01*
X229452861Y-161369572D01*
X229603947Y-161367415D01*
X229731973Y-161328920D01*
X229819374Y-161261317D01*
X229871026Y-161174436D01*
X229878529Y-161077471D01*
X229841331Y-160960202D01*
X229798683Y-160878203D01*
X229683994Y-160726023D01*
X229530382Y-160590755D01*
X229350900Y-160478970D01*
X229158600Y-160397243D01*
X228966537Y-160352145D01*
X228787762Y-160350250D01*
X228759207Y-160354777D01*
X228634633Y-160402390D01*
X228552312Y-160485178D01*
X228516077Y-160594346D01*
X228301988Y-160594346D01*
X228416858Y-160458693D01*
X228538973Y-160347497D01*
X228648038Y-160283786D01*
X228663896Y-160278411D01*
X228820321Y-160258700D01*
X229000094Y-160280220D01*
X229191852Y-160337249D01*
X229384228Y-160424067D01*
X229565857Y-160534955D01*
X229725374Y-160664191D01*
X229851414Y-160806056D01*
X229912131Y-160906677D01*
X229948388Y-160988865D01*
X229965556Y-161058176D01*
X229963273Y-161131825D01*
X229941178Y-161227029D01*
X229902864Y-161349003D01*
X229796860Y-161604735D01*
X229645542Y-161859969D01*
X229456790Y-162108083D01*
X229452861Y-162112353D01*
X229319310Y-162257478D01*
X229193611Y-162358178D01*
X229069589Y-162415623D01*
X228937139Y-162435254D01*
X228855566Y-162431762D01*
X228737407Y-162411545D01*
X228622512Y-162378054D01*
X228572074Y-162356654D01*
X228487446Y-162319976D01*
X228415351Y-162299439D01*
X228398898Y-162297853D01*
X228341473Y-162309686D01*
X228242062Y-162342371D01*
X228111412Y-162391688D01*
X227960270Y-162453415D01*
X227799383Y-162523331D01*
X227652900Y-162590832D01*
X227606114Y-162613057D01*
X227449817Y-162687302D01*
X227287957Y-162629104D01*
X227178744Y-162580556D01*
X227125503Y-162531299D01*
X227125925Y-162477092D01*
X227173012Y-162417993D01*
X227212082Y-162377637D01*
X227222592Y-162341967D01*
X227206154Y-162288467D01*
X227185621Y-162241973D01*
X227154499Y-162151991D01*
X227152311Y-162073293D01*
X227459219Y-162073293D01*
X227479566Y-162193282D01*
X227523091Y-162231227D01*
X227606114Y-162240589D01*
X227717894Y-162222542D01*
X227847691Y-162178260D01*
X227918715Y-162145268D01*
X228009793Y-162096447D01*
X228075951Y-162056111D01*
X228103948Y-162032392D01*
X228104144Y-162031386D01*
X228092705Y-161996245D01*
X228063075Y-161925451D01*
X228031440Y-161855522D01*
X227991092Y-161755397D01*
X227964567Y-161663808D01*
X227958452Y-161619060D01*
X227950751Y-161564170D01*
X227923933Y-161544611D01*
X227871656Y-161561773D01*
X227787578Y-161617050D01*
X227714823Y-161672546D01*
X227576878Y-161803983D01*
X227491038Y-161938980D01*
X227459219Y-162073293D01*
X227152311Y-162073293D01*
X227152188Y-162068855D01*
X227181641Y-161976461D01*
X227245814Y-161858702D01*
X227260260Y-161835210D01*
X227317787Y-161732794D01*
X227337541Y-161659465D01*
X227314833Y-161604879D01*
X227244977Y-161558689D01*
X227123284Y-161510550D01*
X227111236Y-161506328D01*
X226992595Y-161461103D01*
X226921465Y-161423150D01*
X226888410Y-161386847D01*
X226883605Y-161370698D01*
X226855110Y-161303307D01*
X226823645Y-161265126D01*
X226779640Y-161236667D01*
X226696079Y-161192226D01*
X226582563Y-161136121D01*
X226448692Y-161072669D01*
X226304068Y-161006188D01*
X226158289Y-160940996D01*
X226020958Y-160881409D01*
X225901674Y-160831746D01*
X225810039Y-160796324D01*
X225755652Y-160779461D01*
X225744909Y-160780001D01*
X225751724Y-160818663D01*
X225779376Y-160887916D01*
X225796594Y-160923489D01*
X225841272Y-160998861D01*
X225885389Y-161033679D01*
X225947853Y-161042437D01*
X225951789Y-161042451D01*
X226012638Y-161049787D01*
X226059469Y-161080341D01*
X226108992Y-161146934D01*
X226127908Y-161177571D01*
X226184037Y-161292555D01*
X226197653Y-161378517D01*
X226168729Y-161431282D01*
X226129630Y-161445463D01*
X226089125Y-161466458D01*
X226044995Y-161523331D01*
X225991524Y-161624283D01*
X225964954Y-161681693D01*
X225862491Y-161909048D01*
X225548201Y-161928278D01*
X225334539Y-161939837D01*
X225164222Y-161945854D01*
X225041140Y-161946298D01*
X224969183Y-161941138D01*
X224951040Y-161932989D01*
X224962619Y-161901289D01*
X224993064Y-161831659D01*
X225035937Y-161738791D01*
X225038626Y-161733092D01*
X225082732Y-161632696D01*
X225114197Y-161547629D01*
X225126213Y-161496295D01*
X225126213Y-161496270D01*
X225113355Y-161461654D01*
X225076296Y-161379638D01*
X225017308Y-161254867D01*
X224938665Y-161091985D01*
X224842637Y-160895638D01*
X224731499Y-160670470D01*
X224607521Y-160421127D01*
X224472976Y-160152252D01*
X224330137Y-159868491D01*
X224321177Y-159850747D01*
X224150316Y-159513045D01*
X224003990Y-159224040D01*
X223881142Y-158979946D01*
X223780718Y-158776974D01*
X223701664Y-158611338D01*
X223642924Y-158479248D01*
X223603444Y-158376919D01*
X223582168Y-158300562D01*
X223578041Y-158246390D01*
X223590010Y-158210616D01*
X223617019Y-158189451D01*
X223658012Y-158179108D01*
X223711936Y-158175800D01*
X223777735Y-158175739D01*
X223854354Y-158175138D01*
X223854494Y-158175134D01*
X224037112Y-158171496D01*
X224172412Y-158176044D01*
X224271449Y-158195456D01*
X224345277Y-158236412D01*
X224404949Y-158305592D01*
X224461519Y-158409674D01*
X224526042Y-158555339D01*
X224540780Y-158589832D01*
X224609271Y-158745096D01*
X224661474Y-158848984D01*
X224700817Y-158905081D01*
X224730724Y-158916974D01*
X224754624Y-158888248D01*
X224773181Y-158833058D01*
X224794127Y-158737547D01*
X224814067Y-158618934D01*
X224822330Y-158556692D01*
X224827476Y-158500697D01*
X224828026Y-158445452D01*
X224822269Y-158383438D01*
X224808493Y-158307134D01*
X224784984Y-158209020D01*
X224750032Y-158081577D01*
X224701923Y-157917285D01*
X224638946Y-157708623D01*
X224600581Y-157582796D01*
X224529583Y-157344677D01*
X224476224Y-157151900D01*
X224438073Y-156994970D01*
X224412703Y-156864394D01*
X224406558Y-156824318D01*
X224390998Y-156727169D01*
X224371228Y-156670482D01*
X224335054Y-156636879D01*
X224270285Y-156608978D01*
X224250351Y-156601646D01*
X224164472Y-156562956D01*
X224121981Y-156520835D01*
X224109957Y-156479279D01*
X224108961Y-156437236D01*
X224127600Y-156412589D01*
X224178908Y-156397741D01*
X224270531Y-156385708D01*
X224399281Y-156369260D01*
X224480242Y-156352953D01*
X224523890Y-156333027D01*
X224540695Y-156305723D01*
X224542305Y-156288129D01*
X224563040Y-156213709D01*
X224613247Y-156147247D01*
X224674926Y-156110457D01*
X224691264Y-156108428D01*
X224766395Y-156134942D01*
X224839595Y-156205457D01*
X224899015Y-156306431D01*
X224922151Y-156372323D01*
X224936827Y-156538307D01*
X224895693Y-156716761D01*
X224801358Y-156901928D01*
X224749589Y-156991962D01*
X224728520Y-157061374D01*
X224731571Y-157134484D01*
X224734205Y-157150089D01*
X224759268Y-157262188D01*
X224790164Y-157325933D01*
X224836102Y-157351262D01*
X224906292Y-157348117D01*
X224916123Y-157346417D01*
X225038781Y-157316044D01*
X225106366Y-157276409D01*
X225122014Y-157222882D01*
X225088859Y-157150830D01*
X225067822Y-157122301D01*
X225022740Y-157021054D01*
X225009933Y-156876796D01*
X225029246Y-156695074D01*
X225080526Y-156481436D01*
X225086047Y-156462995D01*
X225156296Y-156254091D01*
X225226492Y-156088384D01*
X225249976Y-156047593D01*
X225366660Y-156047593D01*
X225401101Y-156111984D01*
X225481033Y-156199206D01*
X225490279Y-156208246D01*
X225612135Y-156304777D01*
X225758682Y-156387202D01*
X225917278Y-156451770D01*
X226075280Y-156494731D01*
X226220045Y-156512334D01*
X226338929Y-156500830D01*
X226395254Y-156476683D01*
X226450657Y-156432043D01*
X226465314Y-156385653D01*
X226442483Y-156317729D01*
X226426641Y-156285986D01*
X226353542Y-156193608D01*
X226239919Y-156107351D01*
X226098427Y-156031462D01*
X225941716Y-155970192D01*
X225782441Y-155927788D01*
X225633255Y-155908500D01*
X225506809Y-155916577D01*
X225424663Y-155949509D01*
X225375313Y-155996585D01*
X225366660Y-156047593D01*
X225249976Y-156047593D01*
X225294282Y-155970637D01*
X225357316Y-155905612D01*
X225362883Y-155902398D01*
X225426203Y-155886558D01*
X225535556Y-155878470D01*
X225678994Y-155878964D01*
X225693037Y-155879453D01*
X225832112Y-155887145D01*
X225934938Y-155901406D01*
X226023642Y-155927413D01*
X226120347Y-155970345D01*
X226154531Y-155987454D01*
X226263930Y-156049219D01*
X226363522Y-156116029D01*
X226430220Y-156172002D01*
X226471388Y-156219252D01*
X226495848Y-156265618D01*
X226507698Y-156327666D01*
X226511036Y-156421964D01*
X226510692Y-156497345D01*
X226505622Y-156632296D01*
X226489571Y-156740976D01*
X226456740Y-156850262D01*
X226408760Y-156969692D01*
X226299271Y-157181089D01*
X226220045Y-157284102D01*
X226175567Y-157341934D01*
X226096444Y-157417028D01*
X226024464Y-157462083D01*
X225944162Y-157480400D01*
X225840073Y-157475281D01*
X225696732Y-157450026D01*
X225682683Y-157447148D01*
X225584178Y-157429989D01*
X225513481Y-157431349D01*
X225441892Y-157455046D01*
X225373200Y-157488329D01*
X225255404Y-157537701D01*
X225120367Y-157579772D01*
X225054596Y-157594669D01*
X224960904Y-157613796D01*
X224892953Y-157631042D01*
X224868868Y-157640639D01*
X224870964Y-157672846D01*
X224888611Y-157747007D01*
X224918441Y-157849836D01*
X224935460Y-157903510D01*
X224981202Y-158033232D01*
X225018546Y-158112595D01*
X225051046Y-158148395D01*
X225065431Y-158152106D01*
X225136984Y-158177440D01*
X225178173Y-158246046D01*
X225184603Y-158298061D01*
X225193139Y-158338505D01*
X225223715Y-158383909D01*
X225283787Y-158441957D01*
X225380811Y-158520332D01*
X225454661Y-158576413D01*
X225591630Y-158679903D01*
X225738814Y-158792407D01*
X225874073Y-158896948D01*
X225938298Y-158947217D01*
X226046051Y-159026318D01*
X226139696Y-159084268D01*
X226206547Y-159113500D01*
X226220532Y-159115554D01*
X226277074Y-159105138D01*
X226362677Y-159079060D01*
X226456041Y-159045078D01*
X226535869Y-159010948D01*
X226580862Y-158984428D01*
X226581034Y-158984258D01*
X226572134Y-158956652D01*
X226536817Y-158900477D01*
X226519556Y-158876610D01*
X226450666Y-158768031D01*
X226409701Y-158657586D01*
X226396957Y-158535924D01*
X226412730Y-158393694D01*
X226457318Y-158221544D01*
X226531016Y-158010125D01*
X226548474Y-157964381D01*
X226634408Y-157760207D01*
X226716165Y-157607140D01*
X226729815Y-157589045D01*
X226941870Y-157589045D01*
X226959922Y-157687394D01*
X227025974Y-157787791D01*
X227130024Y-157885556D01*
X227262069Y-157976005D01*
X227412108Y-158054458D01*
X227570139Y-158116234D01*
X227726159Y-158156651D01*
X227870167Y-158171027D01*
X227992161Y-158154681D01*
X228067649Y-158115965D01*
X228100883Y-158053775D01*
X228090748Y-157961925D01*
X228061399Y-157891375D01*
X227982283Y-157785683D01*
X227863166Y-157684727D01*
X227716485Y-157593777D01*
X227554672Y-157518106D01*
X227390164Y-157462984D01*
X227235393Y-157433682D01*
X227102796Y-157435472D01*
X227034144Y-157455921D01*
X226967356Y-157507570D01*
X226941870Y-157589045D01*
X226729815Y-157589045D01*
X226798101Y-157498521D01*
X226884567Y-157427690D01*
X226907679Y-157414968D01*
X227050845Y-157372571D01*
X227224197Y-157368816D01*
X227415852Y-157401850D01*
X227613928Y-157469820D01*
X227771741Y-157549697D01*
X227935284Y-157659112D01*
X228049416Y-157768561D01*
X228122439Y-157886954D01*
X228145843Y-157951320D01*
X228165203Y-158033612D01*
X228166419Y-158107370D01*
X228148400Y-158198110D01*
X228132893Y-158254167D01*
X228080827Y-158408687D01*
X228012009Y-158576667D01*
X227934040Y-158742375D01*
X227870167Y-158861018D01*
X227854523Y-158890076D01*
X227781061Y-159004037D01*
G37*
G36*
X222278978Y-158841643D02*
G01*
X222401139Y-158947780D01*
X222505612Y-159042391D01*
X222585030Y-159118489D01*
X222632021Y-159169088D01*
X222641685Y-159185516D01*
X222630150Y-159226371D01*
X222602154Y-159305987D01*
X222563160Y-159409010D01*
X222552301Y-159436704D01*
X222501320Y-159567804D01*
X222450022Y-159702948D01*
X222409324Y-159813368D01*
X222408577Y-159815450D01*
X222373276Y-159906613D01*
X222341885Y-159975240D01*
X222326084Y-160000464D01*
X222297456Y-159990635D01*
X222234796Y-159949074D01*
X222147214Y-159883394D01*
X222043822Y-159801210D01*
X221933732Y-159710135D01*
X221826054Y-159617783D01*
X221729900Y-159531769D01*
X221654380Y-159459706D01*
X221608605Y-159409208D01*
X221599353Y-159393153D01*
X221605675Y-159351173D01*
X221629871Y-159268997D01*
X221667616Y-159160433D01*
X221694238Y-159090236D01*
X221738445Y-158975875D01*
X221773267Y-158883452D01*
X221794086Y-158825357D01*
X221797937Y-158812052D01*
X221808471Y-158780123D01*
X221835364Y-158712753D01*
X221855644Y-158664620D01*
X221913352Y-158529993D01*
X222278978Y-158841643D01*
G37*
G36*
X220638854Y-163407279D02*
G01*
X220654016Y-163450509D01*
X220683300Y-163537195D01*
X220722672Y-163655299D01*
X220768099Y-163792779D01*
X220774328Y-163811716D01*
X220823659Y-163966327D01*
X220857829Y-164091612D01*
X220877941Y-164202491D01*
X220885095Y-164313886D01*
X220880395Y-164440718D01*
X220864942Y-164597908D01*
X220844605Y-164763171D01*
X220827148Y-164892942D01*
X220811123Y-164999625D01*
X220798481Y-165070943D01*
X220791899Y-165094543D01*
X220767073Y-165098551D01*
X220737022Y-165061478D01*
X220699372Y-164978688D01*
X220651750Y-164845545D01*
X220629226Y-164776675D01*
X220534445Y-164481486D01*
X220552089Y-164024670D01*
X220562413Y-163812767D01*
X220575256Y-163639343D01*
X220590047Y-163508453D01*
X220606216Y-163424154D01*
X220623194Y-163390500D01*
X220638854Y-163407279D01*
G37*
X204045000Y-154478752D02*
X204045000Y-153056248D01*
X202225000Y-154478752D02*
X202225000Y-153056248D01*
X187463767Y-181450000D02*
X187171233Y-181450000D01*
X187463767Y-180430000D02*
X187171233Y-180430000D01*
X179555000Y-190540000D02*
X179555000Y-191870000D01*
X176955000Y-190540000D02*
X166735000Y-190540000D01*
X178225000Y-190540000D02*
X179555000Y-190540000D01*
X176955000Y-190540000D02*
X176955000Y-193200000D01*
X166735000Y-190540000D02*
X166735000Y-193200000D01*
X176955000Y-193200000D02*
X166735000Y-193200000D01*
X187368752Y-185185000D02*
X186846248Y-185185000D01*
X187368752Y-183715000D02*
X186846248Y-183715000D01*
X230680000Y-184530000D02*
X230740000Y-184530000D01*
X230740000Y-184530000D02*
X230740000Y-181870000D01*
X230680000Y-184530000D02*
X230680000Y-181870000D01*
X230680000Y-181870000D02*
X230740000Y-181870000D01*
X229410000Y-184530000D02*
X228080000Y-184530000D01*
X228080000Y-184530000D02*
X228080000Y-183200000D01*
X191180000Y-145510000D02*
X201400000Y-145510000D01*
X189910000Y-145510000D02*
X188580000Y-145510000D01*
X188580000Y-145510000D02*
X188580000Y-144180000D01*
X201400000Y-145510000D02*
X201400000Y-142850000D01*
X191180000Y-145510000D02*
X191180000Y-142850000D01*
X191180000Y-142850000D02*
X201400000Y-142850000D01*
X170383733Y-178880000D02*
X170676267Y-178880000D01*
X170383733Y-177860000D02*
X170676267Y-177860000D01*
X181830000Y-176920000D02*
X181830000Y-175920000D01*
X156085000Y-176920000D02*
X156085000Y-158680000D01*
X181050000Y-176920000D02*
X181830000Y-176920000D01*
X156085000Y-176920000D02*
X162505000Y-176920000D01*
X156085000Y-158680000D02*
X162505000Y-158680000D01*
X181830000Y-158680000D02*
X181830000Y-159680000D01*
X162505000Y-176920000D02*
X162505000Y-177300000D01*
X181050000Y-158680000D02*
X181830000Y-158680000D01*
X174077064Y-186315000D02*
X173622936Y-186315000D01*
X174077064Y-187785000D02*
X173622936Y-187785000D01*
X179430000Y-153303733D02*
X179430000Y-153596267D01*
X178410000Y-153303733D02*
X178410000Y-153596267D01*
X156515000Y-151965000D02*
X156515000Y-153435000D01*
X158975000Y-151965000D02*
X156515000Y-151965000D01*
X156515000Y-153435000D02*
X158975000Y-153435000D01*
X182960000Y-141250000D02*
X184290000Y-141250000D01*
X182960000Y-143850000D02*
X185620000Y-143850000D01*
X182960000Y-143910000D02*
X185620000Y-143910000D01*
X182960000Y-143850000D02*
X182960000Y-143910000D01*
X185620000Y-143850000D02*
X185620000Y-143910000D01*
X182960000Y-142580000D02*
X182960000Y-141250000D01*
X180065000Y-151220000D02*
X179590000Y-151220000D01*
X183335000Y-147000000D02*
X183810000Y-147000000D01*
X180065000Y-147000000D02*
X179590000Y-147000000D01*
X183335000Y-151220000D02*
X183810000Y-151220000D01*
X179590000Y-151220000D02*
X179590000Y-150745000D01*
X183810000Y-147000000D02*
X183810000Y-147475000D01*
X183810000Y-151220000D02*
X183810000Y-150745000D01*
X175830000Y-153303733D02*
X175830000Y-153596267D01*
X176850000Y-153303733D02*
X176850000Y-153596267D01*
X187446267Y-183100000D02*
X187153733Y-183100000D01*
X187446267Y-182080000D02*
X187153733Y-182080000D01*
X187682224Y-153877500D02*
X187172776Y-153877500D01*
X187682224Y-154922500D02*
X187172776Y-154922500D01*
X183150000Y-192122500D02*
X183150000Y-192222500D01*
X186500000Y-193722500D02*
X187550000Y-193722500D01*
X183150000Y-193722500D02*
X184200000Y-193722500D01*
X187550000Y-190622500D02*
X183150000Y-190622500D01*
X187550000Y-192122500D02*
X187550000Y-192222500D01*
X164086267Y-178860000D02*
X163793733Y-178860000D01*
X164086267Y-177840000D02*
X163793733Y-177840000D01*
%LPC*%
D14*
X216532500Y-188510000D03*
X218607500Y-188510000D03*
D15*
X190295000Y-164005000D03*
D16*
X191565000Y-164005000D03*
X192835000Y-164005000D03*
X194105000Y-164005000D03*
X195375000Y-164005000D03*
X196645000Y-164005000D03*
X197915000Y-164005000D03*
X199185000Y-164005000D03*
X200455000Y-164005000D03*
D17*
X172450000Y-149362500D03*
X171500000Y-149362500D03*
X170550000Y-149362500D03*
X170550000Y-151637500D03*
X171500000Y-151637500D03*
X172450000Y-151637500D03*
D18*
X176732500Y-183370000D03*
X176732500Y-185270000D03*
X178607500Y-184320000D03*
D19*
X181590000Y-193172500D03*
X181590000Y-191447500D03*
D20*
X219320000Y-150220000D03*
X219320000Y-153320000D03*
D21*
X186922500Y-149360000D03*
X185097500Y-149360000D03*
X197607500Y-161460000D03*
X195782500Y-161460000D03*
D22*
X206680000Y-190130000D03*
D23*
X202555040Y-190130000D03*
X210804960Y-190130000D03*
D24*
X212520000Y-148200000D03*
X210620000Y-148200000D03*
X211570000Y-150075000D03*
D25*
X178487500Y-150590000D03*
X177352500Y-150590000D03*
D26*
X215110000Y-152605000D03*
X215110000Y-155730000D03*
D21*
X162787500Y-152725000D03*
X160962500Y-152725000D03*
D27*
X181927500Y-152500000D03*
X183752500Y-152500000D03*
D28*
X227780419Y-148780419D03*
X227780419Y-144219581D03*
X228725000Y-146500000D03*
X225500000Y-149725000D03*
X222275000Y-146500000D03*
X223219581Y-144219581D03*
X225500000Y-143275000D03*
X223219581Y-148780419D03*
D29*
X225500000Y-146500000D03*
D21*
X191712500Y-161430000D03*
X189887500Y-161430000D03*
D27*
X178175000Y-143110000D03*
X180000000Y-143110000D03*
D30*
X170977500Y-185280000D03*
X170977500Y-183380000D03*
X169102500Y-184330000D03*
D31*
X157325000Y-182900000D03*
X159075000Y-182900000D03*
D28*
X164525000Y-146500000D03*
X161300000Y-149725000D03*
X159019581Y-148780419D03*
X161300000Y-143275000D03*
X163580419Y-148780419D03*
X158075000Y-146500000D03*
D29*
X161300000Y-146500000D03*
D28*
X163580419Y-144219581D03*
X159019581Y-144219581D03*
D27*
X178175000Y-144910000D03*
X180000000Y-144910000D03*
D28*
X227780419Y-191380419D03*
X222275000Y-189100000D03*
X225500000Y-185875000D03*
D29*
X225500000Y-189100000D03*
D28*
X223219581Y-191380419D03*
X225500000Y-192325000D03*
X227780419Y-186819581D03*
X228725000Y-189100000D03*
X223219581Y-186819581D03*
D19*
X195400000Y-193192500D03*
X195400000Y-191467500D03*
D32*
X172850000Y-181600000D03*
X174850000Y-181600000D03*
D33*
X189570000Y-148367500D03*
X189570000Y-150192500D03*
D34*
X172500000Y-145760000D03*
X171850000Y-145760000D03*
X171200000Y-145760000D03*
X170550000Y-145760000D03*
X169900000Y-145760000D03*
D35*
X173687500Y-145675000D03*
D36*
X172350000Y-143100000D03*
D37*
X167825000Y-143100000D03*
D38*
X169650000Y-143100000D03*
D37*
X174575000Y-143100000D03*
D35*
X168712500Y-145675000D03*
D21*
X162812500Y-182925000D03*
X160987500Y-182925000D03*
D39*
X214330000Y-150220000D03*
X216430000Y-150220000D03*
D40*
X167090000Y-180470000D03*
X167090000Y-178470000D03*
D41*
X165207500Y-180120000D03*
X163132500Y-180120000D03*
D15*
X190295000Y-181785000D03*
D16*
X191565000Y-181785000D03*
X192835000Y-181785000D03*
X194105000Y-181785000D03*
X195375000Y-181785000D03*
X196645000Y-181785000D03*
X197915000Y-181785000D03*
D42*
X189490000Y-192960000D03*
X193590000Y-192960000D03*
X193590000Y-191360000D03*
X189490000Y-191360000D03*
D43*
X191540000Y-193585000D03*
D44*
X180250000Y-152310000D03*
X180250000Y-153445000D03*
D45*
X229410000Y-152315000D03*
D46*
X229410000Y-154855000D03*
D45*
X203715000Y-144190000D03*
D46*
X206255000Y-144190000D03*
X208795000Y-144190000D03*
X211335000Y-144190000D03*
X213875000Y-144190000D03*
D47*
X220680000Y-169130000D03*
X218680000Y-169130000D03*
X216680000Y-169130000D03*
X214680000Y-169130000D03*
X212680000Y-169130000D03*
X210680000Y-169130000D03*
X208680000Y-169130000D03*
X206680000Y-169130000D03*
X206680000Y-184130000D03*
X208680000Y-184130000D03*
X210680000Y-184130000D03*
X212680000Y-184130000D03*
X214680000Y-184130000D03*
X216680000Y-184130000D03*
X218680000Y-184130000D03*
X220680000Y-184130000D03*
D48*
X214677500Y-186700000D03*
X216402500Y-186700000D03*
D49*
X212060000Y-157167500D03*
X212060000Y-154867500D03*
D50*
X205760000Y-154867500D03*
D49*
X212060000Y-152567500D03*
D51*
X203135000Y-155330000D03*
X203135000Y-152205000D03*
D52*
X188180000Y-180940000D03*
X186455000Y-180940000D03*
D45*
X178225000Y-191870000D03*
D46*
X175685000Y-191870000D03*
X173145000Y-191870000D03*
X170605000Y-191870000D03*
X168065000Y-191870000D03*
D41*
X188145000Y-184450000D03*
X186070000Y-184450000D03*
D45*
X229410000Y-183200000D03*
X189910000Y-144180000D03*
D46*
X192450000Y-144180000D03*
X194990000Y-144180000D03*
X197530000Y-144180000D03*
X200070000Y-144180000D03*
D48*
X169667500Y-178370000D03*
X171392500Y-178370000D03*
D53*
X163695000Y-176300000D03*
X164965000Y-176300000D03*
X166235000Y-176300000D03*
X167505000Y-176300000D03*
X168775000Y-176300000D03*
X170045000Y-176300000D03*
X171315000Y-176300000D03*
X172585000Y-176300000D03*
X173855000Y-176300000D03*
X175125000Y-176300000D03*
X176395000Y-176300000D03*
X177665000Y-176300000D03*
X178935000Y-176300000D03*
X180205000Y-176300000D03*
D54*
X181205000Y-173515000D03*
X181205000Y-172245000D03*
X181205000Y-170975000D03*
X181205000Y-169705000D03*
X181205000Y-168435000D03*
X181205000Y-167165000D03*
X181205000Y-165895000D03*
X181205000Y-164625000D03*
X181205000Y-163355000D03*
X181205000Y-162085000D03*
D53*
X180205000Y-159300000D03*
X178935000Y-159300000D03*
X177665000Y-159300000D03*
X176395000Y-159300000D03*
X175125000Y-159300000D03*
X173855000Y-159300000D03*
X172585000Y-159300000D03*
X171315000Y-159300000D03*
X170045000Y-159300000D03*
X168775000Y-159300000D03*
X167505000Y-159300000D03*
X166235000Y-159300000D03*
X164965000Y-159300000D03*
X163695000Y-159300000D03*
D55*
X171195000Y-168800000D03*
D56*
X174850000Y-187050000D03*
X172850000Y-187050000D03*
D57*
X178920000Y-152587500D03*
X178920000Y-154312500D03*
D31*
X157300000Y-152700000D03*
X159050000Y-152700000D03*
D45*
X184290000Y-142580000D03*
D28*
X158075000Y-189100000D03*
X163580419Y-191380419D03*
X159019581Y-186819581D03*
X164525000Y-189100000D03*
X163580419Y-186819581D03*
X161300000Y-185875000D03*
X161300000Y-192325000D03*
X159019581Y-191380419D03*
D29*
X161300000Y-189100000D03*
D58*
X179762500Y-147860000D03*
X179762500Y-148360000D03*
X179762500Y-148860000D03*
X179762500Y-149360000D03*
X179762500Y-149860000D03*
X179762500Y-150360000D03*
D59*
X180450000Y-151047500D03*
X180950000Y-151047500D03*
X181450000Y-151047500D03*
X181950000Y-151047500D03*
X182450000Y-151047500D03*
X182950000Y-151047500D03*
D58*
X183637500Y-150360000D03*
X183637500Y-149860000D03*
X183637500Y-149360000D03*
X183637500Y-148860000D03*
X183637500Y-148360000D03*
X183637500Y-147860000D03*
D59*
X182950000Y-147172500D03*
X182450000Y-147172500D03*
X181950000Y-147172500D03*
X181450000Y-147172500D03*
X180950000Y-147172500D03*
X180450000Y-147172500D03*
D60*
X181700000Y-149110000D03*
D57*
X176340000Y-152587500D03*
X176340000Y-154312500D03*
D52*
X188162500Y-182590000D03*
X186437500Y-182590000D03*
D21*
X188340000Y-154400000D03*
X186515000Y-154400000D03*
D42*
X187400000Y-192972500D03*
X183300000Y-192972500D03*
X183300000Y-191372500D03*
X187400000Y-191372500D03*
D43*
X185350000Y-193597500D03*
D52*
X164802500Y-178350000D03*
X163077500Y-178350000D03*
M02*
